<svg xmlns="http://www.w3.org/2000/svg" viewBox="0 0 58.43 43.72"><defs><style>.cls-1{fill:#c0b5d4;}</style></defs><title>bat</title><g id="Layer_2" data-name="Layer 2"><g id="Layer_1-2" data-name="Layer 1"><path class="cls-1" d="M18.57,40.71a5.74,5.74,0,0,1-1.79,2.87.62.62,0,0,1-.3.14c-.29,0-.47-.3-.56-.57a36.3,36.3,0,0,1-1.23-6.36c-.18-1.09-.25-1.95-1.52-2-1.91-.12-3.74,1.93-5.15,3l-5.66,4.2a2.74,2.74,0,0,1-1.29.64A.94.94,0,0,1,0,41.83a1.32,1.32,0,0,1,.23-.71c1.86-3.27,5-5.74,7.6-8.38a65.39,65.39,0,0,0,7.31-9.06,1.3,1.3,0,0,1,.66-.59,1.45,1.45,0,0,1,1,.24c2.87,1.39,5.72.09,8.31-1.26a4,4,0,0,0,1.17-.8c2.27-2.53-.73-3.88-2.84-4.56a8.89,8.89,0,0,0-3.49-.62c-2.59.25-4.52,2.68-7.09,3.13a1.29,1.29,0,0,1-.85-.07c-.7-.39-.34-1.44-.25-2.24a3.13,3.13,0,0,0-1.4-2.81A5.25,5.25,0,0,0,7.2,13.3c-1.42,0-2.89.44-4.21-.08a1.43,1.43,0,0,1-.78-.6c-.4-.75.35-1.57,1-2.08A62.24,62.24,0,0,1,17.8,2.43a3.38,3.38,0,0,1,1.61-.33c1.35.17,1.23,1.64,1.41,2.63a13.85,13.85,0,0,0,6.63,9.62,1.86,1.86,0,0,0,.85.29c1.55,0,2.35-4.1,2.93-5.17A15.27,15.27,0,0,1,36.1,4.28c3-2,7.27-4.11,11-4.28,3-.14,5,3.31,4.94,6a8.45,8.45,0,0,0,1.4,4.74c.87,1.46.57,2-1.17,2.11L50.81,13s-.09.06-.24.17c-.08,1,1.08,2,.52,3.21-.86.39-1.88-.44-2.81.33-.31.25.43,1.85.77,2,.55.17,1.73-.86,2.2-1.12a38.37,38.37,0,0,1,5.52-2.45A1.57,1.57,0,0,1,57.85,15a1.1,1.1,0,0,1,.54,1.26,3.32,3.32,0,0,1-.74,1.29,38.23,38.23,0,0,0-3.87,5.53,17.81,17.81,0,0,1-8,7.32c-3.47,1.65-7.36,1.25-11.08.34a19.67,19.67,0,0,1-4.08-1.5c-.95-.47-1.71-1.5-2.69-1.83-1.85-.63-4.56,3.75-5.41,5A35.34,35.34,0,0,0,18.57,40.71ZM45.32,10.39c.56.06.76-.37,1-.7.82-1.32,1.58-2.67,2.38-4,.65-1.09.1-1.87-1-2a1.93,1.93,0,0,0-1.37.27,8.82,8.82,0,0,0-2.58,2.19c-.25.36-.77.58-.67,1.24a2.25,2.25,0,0,1,2.14,2.56A1.38,1.38,0,0,0,45.32,10.39Zm-8.87,6.35a.58.58,0,0,0,.17.19,1.88,1.88,0,0,0,1.86.53,6,6,0,0,0,1.81-1.19c.31-.28.62-.56.89-.88s.56-.66.2-.88c-.17-.1-.53,0-.73,0a4.19,4.19,0,0,1-.82-.08A5.26,5.26,0,0,1,38,13.29a7.26,7.26,0,0,0-1.52,3.16.5.5,0,0,0,0,.24Zm9.29,3.57c1.09,0,1.64-.09,2-.51a.76.76,0,0,0,.16-.64A8.08,8.08,0,0,0,47.26,18,6.16,6.16,0,0,0,45.74,20.31Zm5.71-10a2.28,2.28,0,0,0-.26.27c-.21.32-.86,1.17-.44,1.38a8.68,8.68,0,0,0,2-.22c.27-.08-.54-.73-.86-1.15A1.59,1.59,0,0,0,51.45,10.28Zm-1.53,3.54a1.87,1.87,0,0,0-1.05,1,.46.46,0,0,0,0,.45.53.53,0,0,0,.41.15l1,.06h.05s0-.08,0-.13A5.77,5.77,0,0,0,49.92,13.82Z"/></g></g></svg>