<svg xmlns="http://www.w3.org/2000/svg" viewBox="0 0 80.98 76.24"><defs><style>.cls-1{fill:#d4d97e;}</style></defs><title>bird</title><g id="Layer_2" data-name="Layer 2"><g id="Layer_1-2" data-name="Layer 1"><path class="cls-1" d="M59.91,46.16a.51.51,0,0,0-.2.07c-.51.32-.89,2-1.27,2.57a3.11,3.11,0,0,1-2.34,1.57,4.18,4.18,0,0,1-2.94-1.19c-1.36-1.23-2.39-4.4-3.3-1.3a15.52,15.52,0,0,1-2,4.47,12.06,12.06,0,0,0-1.24,1.91c-.8,1.83,1,4.38,1.49,6.17.2.77.18,2.78,1,3.2a1.16,1.16,0,0,0,.7,0,8.43,8.43,0,0,0,1.76-.47,5.77,5.77,0,0,1,1.88-.56,1.36,1.36,0,0,1,1.45,1,1.59,1.59,0,0,1-.17.77,4.82,4.82,0,0,1-2.85,2.62c-.3.1-.68.25-.7.57a.67.67,0,0,0,.16.41c.68.93,1.89,1.67,1.8,2.82A2,2,0,0,1,51,72.39a5.66,5.66,0,0,1-2.65-1.33,3.16,3.16,0,0,1-2.6,1.11,2,2,0,0,1-1.84-1.94,4.28,4.28,0,0,1,.44-1.43c1.34-3.29.35-7.39-.92-10.56a1.8,1.8,0,0,0-.3-.55c-.64-.72-2.5-.24-3.36-.23A15.52,15.52,0,0,1,35.55,57c-2.26-.6-2.22.67-2.39,2.58-.22,2.35.17,4.62.15,6.95a1.7,1.7,0,0,0,.14.86c.36.63,1.27.54,2,.49a6.27,6.27,0,0,1,3.53.82,1.88,1.88,0,0,1,1.1,1.42c0,.81-.84,1.36-1.63,1.5a9.89,9.89,0,0,0-2.37.39,6.92,6.92,0,0,1,.87,3.09,1.09,1.09,0,0,1-.33,1,1.07,1.07,0,0,1-.94,0,5.73,5.73,0,0,1-2.73-2,1.91,1.91,0,0,0-.85-.8C31,73,30.51,74.86,29.42,75.19A1.47,1.47,0,0,1,27.71,74a2.93,2.93,0,0,1,.57-2.19c.43-.65,1-1.21,1.39-1.87,1.21-2,1-4.46.67-6.75l-.6-4.73a3,3,0,0,0-.63-1.76,3,3,0,0,0-1.36-.65c-2.28-.63-5.58-.93-7.6-2.13-1.4-.83-2.1-3.27-.6-4.35a3.24,3.24,0,0,1,1-.41,7.41,7.41,0,0,0,4.73-3.63c.44-.87,1.57-6.3-.24-5.17-2,1.26-4.59,3.8-6.94,4.17-2,.31-2.77-1.05-4-2.19A28.36,28.36,0,0,0,11,42.7c-1.76.39-3.15-.38-4.55-1.22a1,1,0,0,1-.26-.25A4.82,4.82,0,0,1,6,37.11c2.05-3.51-3.72-3-5.26-5a3.66,3.66,0,0,1-.65-1.75C-.76,24,7.37,24.65,11.41,24.81l10.33.39c2.8.11,4.64,1.68,6.7,3.38,1.15,1,8.07,6,8.58,3.09.2-1.15.4-2.29.58-3.44.12-.77.41-2.1-.16-2.77s-2.24-.75-3.14-1.06a9.59,9.59,0,0,1-5.51-4.18c-2.39-4.41,0-8.76,2.66-12.36C33.18,5.51,35,3.1,37.73,1.79A22,22,0,0,1,47.62,0a15.91,15.91,0,0,1,7.5,1.52A7.84,7.84,0,0,1,58,4.37a15.15,15.15,0,0,0,1.36,2.34c.7.8,1.18.6,2.11.64,1.21.06,2.4.32,3.63.32s2.39-.06,3.58,0a4.83,4.83,0,0,1,2.46.59c.11.07.22.16.22.29a.41.41,0,0,1-.12.25,9,9,0,0,1-4.79,2.6q-3,.89-6.15,1.51a25,25,0,0,1,4.59,3.33,23.59,23.59,0,0,1,3,4.51c.19.34.33.88,0,1a.7.7,0,0,1-.35,0,22.68,22.68,0,0,1-5.42-1.22A17.52,17.52,0,0,0,57,19.27c-1.63-.06-3.21,1.23-4.49,2.07a21.56,21.56,0,0,1-4.82,2.36c-2,.73-1.62,1.09-1.55,3.17A43.35,43.35,0,0,1,46,32.59c-.09.88,0,1.92,1.09,2.12a2.71,2.71,0,0,0,1.4-.18c1.83-.64,3.21-2,4.92-2.83a16,16,0,0,1,7-1.93,17.54,17.54,0,0,1,8.34,2.3c2.36,1.3,4.49,3,7,4a19.3,19.3,0,0,1,3.38,1.29c2.43,1.46,2.47,4.49-.08,5.74a8,8,0,0,1-6,.39c-1.34-.45-2.55-1.26-3.92-1.59s-.34,2.1-.2,2.7c.27,1.13.57,2.46-.59,3.2a3.87,3.87,0,0,1-2.58.38,11.38,11.38,0,0,1-3.37-1C61.69,46.89,60.74,46,59.91,46.16ZM47.49,15.46a2,2,0,0,0,.73,0c1.72-.84,3.45-1.65,5.11-2.59a3.28,3.28,0,0,0,1.08-1.38c.45-.88.14-1.48-.84-1.73A28.47,28.47,0,0,0,47,8.64a5.43,5.43,0,0,1,1.2,3.64C48,13.31,47.73,14.34,47.49,15.46ZM38,17.59l.76-.15a.4.4,0,0,0-.07-.24,16.6,16.6,0,0,1-1.14-3.71c-.43-1.49-1.94,0-2.51.68s-1.53,1.87-.81,2.66a4,4,0,0,0,2.05.76A4.45,4.45,0,0,0,38,17.59Z"/></g></g></svg>