<svg xmlns="http://www.w3.org/2000/svg" viewBox="0 0 71.38 64.87"><defs><style>.cls-1{fill:#539a9f;}</style></defs><title>dog</title><g id="Layer_2" data-name="Layer 2"><g id="Layer_1-2" data-name="Layer 1"><path class="cls-1" d="M49.12,16.07a5.4,5.4,0,0,0,3.05-1.91,14.13,14.13,0,0,0,1.39-2.65,49.52,49.52,0,0,1,5.68-9.6A5.49,5.49,0,0,1,60.59.53a5.43,5.43,0,0,1,4-.29c.78.16,2.35.1,2.77,1,.68,1.39-2,3.67-2.7,4.76-1.86,3-3.2,7.21-2.18,10.7a29.82,29.82,0,0,0,5.09,9.85c1.2,1.55,2.48,2.79,3.16,4.67a9.63,9.63,0,0,1,.43,5.49,7.21,7.21,0,0,1-2.94,4.17,7.34,7.34,0,0,1-2.43,1.09c-.73.18-1.82,0-2.42.46a2.11,2.11,0,0,0-.52.78c-1.11,2.3-3.51,4.94-6.36,4.35a10.46,10.46,0,0,1-3.12-1.4L50.5,44.41c-2.23-1.31-2.92.74-3.14,2.67s-.43,3.9-.67,5.85c-.09.75-.64,1.76,0,2.39s1.68.36,2.3,1.33c.35.54.91,1.76.64,2.39a4,4,0,0,1-2.55,2c-1.87.14-3.57-.65-5.52-.26a3.17,3.17,0,0,1-1.55.09,1.83,1.83,0,0,1-1.1-1.19c-.89-2.57.32-5.81.36-8.47a3.11,3.11,0,0,0-.14-1.17,3.35,3.35,0,0,0-2-1.58,2.45,2.45,0,0,0-.87-.26c-1.69-.08-2,3.58-2.2,4.68l-.79,3.53c-.19.84-.67,2-.27,2.81S34.2,60.34,34.59,61c.83,1.42-.51,2.69-1.72,3.22A8.38,8.38,0,0,1,28,64.7c-1.35-.26-3.56-.57-3.75-2.25a5.4,5.4,0,0,1,.32-2.05c.82-2.91,1.94-6.06,1.45-9.13a6,6,0,0,0-2.36-4.09.44.44,0,0,0-.26-.1c-.17,0-.27.19-.33.35a30.42,30.42,0,0,0-1.68,5.11c-.16.78.06,2.58-.5,3.18a1.39,1.39,0,0,1-.59.32c-2.61.85-4.14-.07-4.85-2.54A17.07,17.07,0,0,1,15,47c.15-1.46,1.22-4.41.26-5.69a3,3,0,0,0-1-.76c-.66-.37-2.5-1.75-3.24-1.65S9.24,41,8.78,41.6a6,6,0,0,0-1,1.71C7.27,44.85,8,46.53,7.45,48a3.11,3.11,0,0,1-3.28,1.89l-.72,0A3.28,3.28,0,0,1,.16,46.79C.09,46,0,45.11,0,44.28a3.67,3.67,0,0,1,.11-1.07,14.8,14.8,0,0,1,2.32-4.83c1.82-2.52,3.64-5.06,5.7-7.4a40.28,40.28,0,0,1,4.46-4.67,5.51,5.51,0,0,0,2.13-4.36,20.81,20.81,0,0,1,1.33-6,1.87,1.87,0,0,1,1-1.31c.23-.09,1.48-.21,1.48.24a17.85,17.85,0,0,0,1.07,6.27c.62,1.67,1.6,4.63,3.77,4.72a4.22,4.22,0,0,0,1.79-.41c1.81-.77,3.5-1.53,5.35-2.18,2.35-.83,3.62-1.69,4.05-4.25q.6-3.57.95-7.18C35.7,10,35.86,8.14,37,6.73S39.72,4.94,41,4a4.9,4.9,0,0,1,1.44-.88c1.18-.34,1.71.82,1.84,1.79.24,1.88-.3,3.68-.48,5.54A26.93,26.93,0,0,0,44.1,16a1.29,1.29,0,0,0,.22.68.46.46,0,0,0,.2.13C45.44,17.2,48.44,16.28,49.12,16.07ZM29.65,25.91c-2.49.92-7.16,3-9.49.81a6.32,6.32,0,0,1-1.35-2.3L17.28,20.7A10.44,10.44,0,0,0,17,23.58c-.23,2.67-3.54,4.76-5.33,6.43A35.27,35.27,0,0,0,2.72,42.82c-.56,1.42-1,3.11-.16,4.38A1.68,1.68,0,0,0,4.27,48c1.75-.46.91-3,1-4.17.17-1.62,1.5-2.78,2.43-4s1.43-3.12,3.09-3.73A5.44,5.44,0,0,1,12,35.89a10.37,10.37,0,0,1,5,.25,23.3,23.3,0,0,1,4.52,2.47C25,40.92,28.12,42.23,29,46.7c.47,2.4-.09,4.87-.65,7.25l-1.58,6.76c-.6,2.59,3.23,3,4.93,2a1.08,1.08,0,0,0,.41-.36.85.85,0,0,0-.17-1c-.43-.47-1.07-.55-1.39-1.15a1.85,1.85,0,0,1-.13-.9,26.72,26.72,0,0,1,2-9.45c.44-1.07,1-3,2-3.72,1.22-.86,3,0,4.39-.31,2.91-.74,5.44-3.16,8.22-4.35,1.44-.62,4.89.68,6.1,1.52.7.49,1.25,1.17,1.92,1.71,3,2.48,5.32-.74,6.54-3.24,1-2,2.36-1.28,4.25-1.53,2.15-.29,3.68-2.47,3.82-4.63a9.67,9.67,0,0,0-2.09-6c-1.25-1.77-2.79-3.32-4-5.11a18.21,18.21,0,0,1-3-7.77,17.12,17.12,0,0,1,.75-7.12,17.75,17.75,0,0,1,.89-2.83,16.91,16.91,0,0,1,2.18-3.39.51.51,0,0,0,.15-.35c0-.16-.19-.26-.33-.33a2.93,2.93,0,0,0-2.51-.37,2.82,2.82,0,0,0-.89.83A43.59,43.59,0,0,0,56.16,10c-.93,1.8-1.25,4.36-2.83,5.77-1.84,1.64-5.19,2.59-7.53,3.18s-3.4-.18-3.62-2.43A46.62,46.62,0,0,1,42.34,6a4.22,4.22,0,0,0-4,2.37,12.38,12.38,0,0,0-1.14,4.77c-.38,3.65-.08,7.75-3.11,10.35a12.54,12.54,0,0,1-3.24,1.95C30.46,25.6,30.05,25.76,29.65,25.91Z"/><path class="cls-1" d="M59.69,21.78a2.07,2.07,0,0,1,.77,1,2.47,2.47,0,0,1,0,1.26c-.6,2.15-3,3.8-5,4.59a27.43,27.43,0,0,1-6.81,1.51,3.2,3.2,0,0,1-1.42,0c-1.67-.55-2.11-3.23-1.6-4.67a3.86,3.86,0,0,1,1.47-1.81,14.18,14.18,0,0,1,5.17-2.05c1.12-.24,2.26-.42,3.39-.57a4.91,4.91,0,0,1,2.85.14c.21.1.42.2.63.31A4,4,0,0,1,59.69,21.78Zm-8.86,5.35a5.15,5.15,0,0,1-.39-.65,2.71,2.71,0,0,1-.14-1.83c.09-.33.22-.4-.1-.53a1.8,1.8,0,0,0-.78.08A4.32,4.32,0,0,0,47,25.87a.82.82,0,0,0-.14.5,2.26,2.26,0,0,0,1.93,2A5.46,5.46,0,0,0,51.64,28,3.82,3.82,0,0,1,50.83,27.13Zm3.58-3.91c0,.3.45.52.62.7a2.61,2.61,0,0,1,.72,1.83c0,.27-.16.64-.07.87.41,0,.74-.4,1.06-.62A3.9,3.9,0,0,0,58,24.73a2.12,2.12,0,0,0,.22-1.25,1,1,0,0,0-.13-.41,1,1,0,0,0-.53-.37,3.32,3.32,0,0,0-1.53,0c-.35.05-1.41,0-1.59.42A.33.33,0,0,0,54.41,23.22Z"/><path class="cls-1" d="M62.49,32.74c-.2-.34-.61-.51-1.48-.4-1.82.23-3.64.43-5.46.73a1.31,1.31,0,0,0-1,.48,1.29,1.29,0,0,0,.17,1.22,18.91,18.91,0,0,0,1.86,2.86,3.39,3.39,0,0,0,1.08,1c1.25.63,4-.8,5-1.62a1.24,1.24,0,0,0,.35-.43c.24-.57-.27-1.19-.35-1.75S62.85,33.37,62.49,32.74Z"/></g></g></svg>