<svg xmlns="http://www.w3.org/2000/svg" viewBox="0 0 64.58 119.37"><defs><style>.cls-1{fill:#f5b1c0;}</style></defs><title>squid</title><g id="Layer_2" data-name="Layer 2"><g id="Layer_1-2" data-name="Layer 1"><path class="cls-1" d="M26.47,73.75c-.41-.06-.63.46-.69.87-.49,3.29.09,6.67.07,10,0,5.12.53,10.24-.17,15.35-.19,1.4,0,2.84-.27,4.23-.65,4-1.16,8.32-2.67,12.12a3,3,0,0,1-2.38,2.09,3.11,3.11,0,0,1-1.42-.37c-6.59-3.11-4.49-11.58-4.3-17.4Q15,88.86,16.17,77.12c.4-4,.94-7.87-3.75-8.71-4.13-.74-7.66-3.55-10.09-7A12.13,12.13,0,0,1,.2,57a13.19,13.19,0,0,1,0-4.39c.91-7.18,4.62-14.82,11.61-17.75A53.83,53.83,0,0,1,36,30.7a44.56,44.56,0,0,1,17.48,4.82c5.46,2.83,8.93,6.42,10.88,12.34A3.42,3.42,0,0,1,64.58,49c-.09,2.27.13,4.57-.54,6.8C62.26,61.74,59.8,66.6,54.31,70A11.78,11.78,0,0,0,52,71.57c-2.13,2.14-.42,7.82-.3,10.58l.73,17.2c.18,4.35.36,8.78-.8,13a5.89,5.89,0,0,1-1.24,2.53,4.09,4.09,0,0,1-4.83.57c-3-1.68-2.71-4.92-2.81-7.88-.13-3.63-.27-7.26-.41-10.88-.22-6.16,1.11-13-.81-18.92a3.28,3.28,0,0,0-1.5-2.12.72.72,0,0,0-.51-.07c-.35.11-.42.58-.41,1,.05,4.52.55,9,.65,13.53a72.37,72.37,0,0,1-.08,9c-.32,3.45-.51,6.91-.59,10.37-.05,2.29-.69,9.75-3.83,10a4.17,4.17,0,0,1-2.71-1A8.86,8.86,0,0,1,29,110.71c.18-3.62.42-7.24.6-10.86A85.38,85.38,0,0,0,28,76.64,5.4,5.4,0,0,0,26.85,74,.71.71,0,0,0,26.47,73.75Zm10.28-.69a2.33,2.33,0,0,1,.67-.48,3.52,3.52,0,0,1,2.64-.08c3,1,4.49,4.41,5.11,7.3a41,41,0,0,1,.42,9.46c-.15,7.26.18,14.51.51,21.77a2.85,2.85,0,0,0,.27,1.31c.67,1.16,1.77.34,2.1-.55,1.51-4.08,1-8.59.8-12.93C49,94.25,49,89.64,48.91,85c-.07-2.81-.31-5.61-.58-8.41-.2-2.07-1.32-5.51.39-7.14a10.57,10.57,0,0,1,2.77-1.61,17.91,17.91,0,0,0,7.86-7.81c3.74-7.11,3-16.46-4.35-20.9a30.75,30.75,0,0,0-4-2,46.6,46.6,0,0,0-20.54-3.67,44.26,44.26,0,0,0-11.59,1.92c-4.08,1.36-9,3.88-11.8,7.22-1.8,2.14-2.5,4.73-3.19,7.38s-1.26,5.24-.5,7.83a10.26,10.26,0,0,0,4.51,5.59A23.15,23.15,0,0,0,16,66.17a3.31,3.31,0,0,1,2.84,3,43.45,43.45,0,0,1,.34,8.73c-.71,11.22-2,22.52-1.61,33.77a4,4,0,0,0,1.23,3.18.57.57,0,0,0,.49.17.61.61,0,0,0,.31-.32c2.52-4.37,3-10.38,3.35-15.32A143.83,143.83,0,0,0,23,83.16c-.11-2.89-.26-5.81-.09-8.7.1-1.78.85-4.9,3.25-4.23,5.09,1.42,5.41,9,5.94,13.2a92.92,92.92,0,0,1,.54,17.75c-.27,4.08-.8,8.17-.36,12.23a2.65,2.65,0,0,0,.79,1.9c2.15,1.63,2.7-4.81,2.77-5.75.41-6.1.83-12.2.87-18.31,0-3.1-.06-6.2-.29-9.28-.12-1.63-.3-3.26-.33-4.89C36.11,75.73,35.79,74.07,36.75,73.07Z"/><path class="cls-1" d="M26,60a18.14,18.14,0,0,1-8.51-5.58c-3-3.6-3-7.78.75-10.87,4.11-3.39,8.29-4.58,13.52-4.75,4.3-.14,9.29-.27,13,2.26a12.08,12.08,0,0,1,4.59,12.46c-1.45,5.22-6.24,7.77-11.36,7.87A36.77,36.77,0,0,1,26,60Zm-4-14.87,0,0c-1.36.86-2.7,1.36-3.36,3C16,54.6,27,58.34,31.57,58.57c2,.1,4.1.06,6.14,0,3.91-.2,7.79-2.71,8.81-6.63.25-1,.75-4.71-.7-4.73-1,0-2.06,2.61-2.65,3.25a13.17,13.17,0,0,1-6.06,3.81C29.44,56.36,26.19,50,22.05,45.15Z"/><path class="cls-1" d="M5.54,23.7a4.23,4.23,0,0,1,2-2.46c2.14-1.44,4.86-1.53,7.3-2.05,2.24-.48,4.67-1.19,6.36-2.82,2.28-2.21,2.45-6,2.55-8.9a17.81,17.81,0,0,1,.52-5.19C25,0,26.69.06,28.84,0,33.9-.1,40.33.48,44.65,3.39a4.32,4.32,0,0,1,1.47,1.5c.84,1.6,0,3.44-.51,5a30.45,30.45,0,0,0-1.39,6.7c-.09,1.24-.15,2.21.81,3.11a9.92,9.92,0,0,0,3.09,1.56q3.62,1.52,7.33,2.81c1.12.39,3,1,3,2.51a2.2,2.2,0,0,1-.58,1.32c-1.84,2.25-5.34,2.52-8,2.46a68.06,68.06,0,0,1-9.1-1.18,138.85,138.85,0,0,0-28-1.51,10.4,10.4,0,0,1-5-.57,3.82,3.82,0,0,1-2.15-2.85A2,2,0,0,1,5.54,23.7Z"/></g></g></svg>