<svg xmlns="http://www.w3.org/2000/svg" viewBox="0 0 63.48 72.99"><defs><style>.cls-1{fill:#f28e29;}</style></defs><title>claws</title><g id="Layer_2" data-name="Layer 2"><g id="Layer_1-2" data-name="Layer 1"><path class="cls-1" d="M17.21,36c-.93,1-1.18,3.64-1.58,4.65A57.32,57.32,0,0,0,13.47,48c-.32,1.32-.71,2.61-1.05,3.92s-.66,2.62-1,3.94-2.28,6.07-.86,7c.51.32,1.16.38,1.65.74a2.72,2.72,0,0,1,.81,1.2A6.28,6.28,0,0,1,13,70a3.86,3.86,0,0,1-4.54,2,3.44,3.44,0,0,0,1.07-3.32,2.68,2.68,0,0,0-2.72-2,2.2,2.2,0,0,0-1.89,2.61c.14.49.47,1,.41,1.46-.1.84-1.2,1.16-2,1A4.49,4.49,0,0,1,0,67.43a6.63,6.63,0,0,1,2.58-5.07A10.74,10.74,0,0,0,3.93,61.2c1-1.15.91-2.6,1.26-4s.88-2.93,1.17-4.45A50.55,50.55,0,0,1,7.9,46.63C9.62,41.28,11.05,36,13.76,30.94a67.29,67.29,0,0,1,3.73-5.6c1.05-1.56,1.2-3.48,2-5.16a18.75,18.75,0,0,1,3.18-4.62,15,15,0,0,1,10.09-4.8,24,24,0,0,1,8.47,1.64,15.56,15.56,0,0,1,2.84,1.17,12.12,12.12,0,0,1,4.12,4.33c1.35,2.2,1.66,4.27,2.45,6.64a67.81,67.81,0,0,0,3.15,7,51.55,51.55,0,0,1,3.54,10.33c1,4.4.61,8.93,1.06,13.39a5.57,5.57,0,0,0,.74,2.69,9.75,9.75,0,0,0,1.75,1.58,8,8,0,0,1,2.49,4.82,5.52,5.52,0,0,1-.64,3.94,2.92,2.92,0,0,1-3.56,1.15c-.54-.8.24-1.88.11-2.84a2.68,2.68,0,0,0-1.38-1.7,3.9,3.9,0,0,0-2.76-.79c-2.19.42-1.94,3.5-1.21,5a.93.93,0,0,1,.14.74c-.12.29-.5.35-.81.34-3.7-.15-5.38-5.74-2.69-8.13a15.77,15.77,0,0,1,1.34-.89c1.75-1.26,2.19-3.65,2.4-5.8a37.56,37.56,0,0,0-1.58-13.13c-.56-2-1.11-6.7-3.07-7.76a8.76,8.76,0,0,1-3.35,4.41,5.17,5.17,0,0,0-1.66,1.28,3.19,3.19,0,0,0-.45,1.49c-.18,1.86.15,3.79.05,5.68s-.31,4-.54,6a89.77,89.77,0,0,0-.91,11.67,1.7,1.7,0,0,0,.2.92,2.06,2.06,0,0,0,.84.59A5.56,5.56,0,0,1,46,68.47,3.61,3.61,0,0,1,46.6,71a2.15,2.15,0,0,1-1.7,1.76,3.21,3.21,0,0,1-1.19-.13,20.61,20.61,0,0,1-3.29-1.13,5.94,5.94,0,0,1-2.81-2.12c-.82-1.33-.09-2.05.22-3.29a21.25,21.25,0,0,0,.06-4.51l.2-17c0-.53-.05-1.17-.53-1.4A1.4,1.4,0,0,0,37,43l-5.59-.29a2.2,2.2,0,0,0-1.07.12c-1.53.73-1.11,3.88-1.11,5.28V55q0,5.07,0,10.14c0,1.9,1.12,5.46-.64,6.85a3.51,3.51,0,0,1-1.43.59,15.55,15.55,0,0,1-3.91.38,6.34,6.34,0,0,1-2.81-.61,2.94,2.94,0,0,1-1.63-2.26,3,3,0,0,1,1.6-2.69c.77-.46,2.35-.36,2.94-.86s.32-1.5.32-2.1c0-1.3-.07-2.6-.07-3.9,0-2.82,0-5.64,0-8.47,0-2.3-.07-4.59-.1-6.89,0-1.05.21-2.14.12-3.19s-.4-1.24-1.39-1.92a8.58,8.58,0,0,1-2.47-2.55c-.45-.74-.79-2.37-2-2A1.32,1.32,0,0,0,17.21,36Zm14-11.81c-1.57.14-8.86,2.61-6.47,5.12a2.61,2.61,0,0,0,.94.56,8.93,8.93,0,0,0,4.13.74c1-.09.61-.47.57-1.28a8.45,8.45,0,0,1,.15-1.89C30.73,26.37,31.32,25.4,31.23,24.16Zm11.2,1.79s0-.08,0-.12a3.21,3.21,0,0,0-1-1.91,1.82,1.82,0,0,0-.54-.38,2.25,2.25,0,0,0-.47-.13,22.11,22.11,0,0,0-3.1-.36c-1.34-.06-.88.21-.48,1.15a6.9,6.9,0,0,1,.4,1.62,11.66,11.66,0,0,1,0,3.59C39.16,29.48,42.59,28.41,42.44,25.94Z"/><path class="cls-1" d="M33.93.09,36.59,0A8.48,8.48,0,0,1,39.65.3c.37.13.8.17,1.16.33a2.37,2.37,0,0,1,1,1,1.86,1.86,0,0,1-.64,2.55,8.42,8.42,0,0,1-3.08,1.43c-.43.1-.87.17-1.31.23a26.46,26.46,0,0,1-9.37-.14c-.39-.09-.85-.09-1.22-.22a3.21,3.21,0,0,1-1-.64,2.19,2.19,0,0,1-.78-2,1.89,1.89,0,0,1,.25-.74,2.41,2.41,0,0,1,.67-.68C26.83.33,28.82.23,30.67.18ZM38,2.57q.37-.17.72-.36a.26.26,0,0,0,.12-.1c.06-.14-.13-.25-.28-.28a11.61,11.61,0,0,0-3.29-.17c-1,.09-2,.06-3,.18l-3.89.46a8.76,8.76,0,0,0-1.1.18c-.15,0-.32.13-.31.28s.11.17.2.22a7.87,7.87,0,0,0,3.9.61C33.47,3.54,35.81,3.57,38,2.57Z"/></g></g></svg>