<svg xmlns="http://www.w3.org/2000/svg" viewBox="0 0 120.82 73.79"><defs><style>.cls-1{fill:#f18d29;}</style></defs><title>crab</title><g id="Layer_2" data-name="Layer 2"><g id="Layer_1-2" data-name="Layer 1"><path class="cls-1" d="M31.42,52.92c-.24-1.48-3.31-3.11-4.61-3.42a14.9,14.9,0,0,1-5.72-2.9,34.68,34.68,0,0,1-5.66-6.08,21.89,21.89,0,0,1-2.81-4.34,9.1,9.1,0,0,1-.81-3.49c0-.66.23-1.56-.21-2.13s-2.07-.88-2.85-1.19a22,22,0,0,1-3.28-1.58A11.1,11.1,0,0,1,.61,22.32a13.89,13.89,0,0,1-.55-5.66,13.74,13.74,0,0,1,.81-4.27C1.35,11.19,3,9,4.42,8.95c1.1,0,1.44,1,1.44,2a4.14,4.14,0,0,0,1.52,3.84,10.71,10.71,0,0,0,7.15,2.82A8.13,8.13,0,0,0,21.2,14c1.54-2.41,1.44-5.15,1.48-7.85,0-1.74,1.93-1.79,3-1a8.21,8.21,0,0,1,2.58,3.79,24.51,24.51,0,0,1,1.36,4,17.58,17.58,0,0,1-2.35,12.37,11.62,11.62,0,0,1-5.59,5.26c-1.11.41-2.17.09-2.29,1.46a3.87,3.87,0,0,0,1.39,3A25.29,25.29,0,0,0,26,39.15c1.73.9,2.38.63,3.72-.84,3-3.3,5.91-7,9.66-9.43a31.81,31.81,0,0,1,11.26-4.48,64.55,64.55,0,0,1,16.15-.79,35.41,35.41,0,0,1,8.47,1.21A15.67,15.67,0,0,1,79,26.47c4.08,2.54,7.18,7.36,8.63,11.84.21.65.38,1.82.89,2.27a5.71,5.71,0,0,0,2.67.67,10.33,10.33,0,0,0,5.29-1.59,26.49,26.49,0,0,0,5.09-3.2c2.34-2,4.62-5.31,4.76-8.5.14-3-2.47-4.75-5.09-5.44-2.27-.6-4.74-.74-6.72-2A8.76,8.76,0,0,1,91,15.57a20.85,20.85,0,0,1-.67-6.1,11.69,11.69,0,0,1,.84-5.05C92.13,2.5,95.64,0,96.42,3.33l.9,3.79A7.48,7.48,0,0,0,98,9a5.2,5.2,0,0,0,1.66,1.73A9,9,0,0,0,106.79,12c1.83-.45,3.67-1.66,4.07-3.5.62-2.84-2.33-5.39-2.18-8.3,1.77-.63,3.37.3,4.85,1.17a19.3,19.3,0,0,1,3.55,2.33,11.57,11.57,0,0,1,3.72,7.74,7.7,7.7,0,0,1-.26,2.61c-.79,2.65-3.29,4.36-5.62,5.85-1.57,1-2.38,1.24-2.24,3.23.35,4.81-.38,9.78-3.17,13.77-2.49,3.56-6.31,5.93-9.94,8.16a34.73,34.73,0,0,1-4.23,2.45c-1,.44-2.78.08-3.19,1.4a3.54,3.54,0,0,0,.29,2.29c1.39,3.61,3.9,7,3.58,10.9a3.09,3.09,0,0,1-.76,2,2.56,2.56,0,0,1-2.92.25,6.55,6.55,0,0,1-2.2-2.19,33.78,33.78,0,0,1-3.58-6.52c-.35-.86-.39-2.15-1.52-1.94a1.29,1.29,0,0,0-.93,1.63c.59,2.83,1.25,5.65,1.8,8.5a25.78,25.78,0,0,1,.34,3.45A4,4,0,0,1,86,68.32c-1.61.74-2.69-.07-3.58-1.14a16.44,16.44,0,0,1-3-5c-.62-1.73-1.3-3.43-2-5.14a1.51,1.51,0,0,0-2.16-1,10.39,10.39,0,0,0,0,1.38c.3,2.24,3.66,14.37-1.47,13.74a2.65,2.65,0,0,1-1.82-1.68A17.72,17.72,0,0,1,70.8,65q-.37-1.95-.69-3.9c-.14-.81-.07-2.95-.56-3.57-.86-1.09-2.72-.09-2.65,1.38a68.77,68.77,0,0,1-.27,9.85c-.19,1.94-1.27,3.76-3.56,3.2-2-.49-2.43-3.93-2.77-5.68-.4-2.06-.5-4.18-.76-6.48-.71,0-1.46,0-2.19,0s-1.52.18-2.41.3c-.23.63-.5,1.24-.67,1.87-.4,1.49-.73,3-1.13,4.49a21.42,21.42,0,0,1-2.54,5.83c-1.12,1.79-1.38,1.83-3.62.73a8.75,8.75,0,0,1,.1-4.45c.5-1.66,1-3.34,1.58-5a16.13,16.13,0,0,0,.8-3.37c0-.3-2.2-.53-2.45-.46-.93.27-.94.79-1.36,1.73a32.61,32.61,0,0,1-2.92,5.65c-.95,1.34-1.47,2.88-2.42,4.21a5.28,5.28,0,0,1-3.73,2.35,1.3,1.3,0,0,1-.88-.18,1.51,1.51,0,0,1-.43-1.19,21.27,21.27,0,0,1,1.22-8,22.42,22.42,0,0,0,1.08-3.26,8.5,8.5,0,0,0,.14-1.75c-.06-3.12-3.83,1.31-4.43,1.93l-7.82,8.12a7.07,7.07,0,0,1-1.76,1.47,2.39,2.39,0,0,1-2.21.1,2.38,2.38,0,0,1-1.07-2.26,6.43,6.43,0,0,1,.85-2.47,29.73,29.73,0,0,1,5.55-7.83C28,57.34,31.6,54.88,31.43,53ZM69.81,40.47l.13-.08a4.53,4.53,0,0,0,1.84-2c.38-1.08-.64-1.34-1.5-1.6A18.49,18.49,0,0,0,64,36a5.65,5.65,0,0,1,1.41,3.21,6.9,6.9,0,0,1-.91,3.39,5.91,5.91,0,0,0,1.49-.46l2.22-.91A12,12,0,0,0,69.81,40.47ZM53.15,42.22a16,16,0,0,0,2.12.37c.61.06,1.4.32,1.71-.29s-.06-1.31,0-1.87a6.57,6.57,0,0,1,.62-1.84,5.67,5.67,0,0,0,.84-1.95,15.94,15.94,0,0,0-6.25,2.19,12.15,12.15,0,0,0-2.6,1.83,2.16,2.16,0,0,0,1,.73A15.87,15.87,0,0,0,53.15,42.22Z"/></g></g></svg>