<svg xmlns="http://www.w3.org/2000/svg" viewBox="0 0 111.33 117"><defs><style>.cls-1{fill:#ad529e;}</style></defs><title>cyclops</title><g id="Layer_2" data-name="Layer 2"><g id="Layer_1-2" data-name="Layer 1"><path class="cls-1" d="M111.25,25.14q-.08-1.67-.25-3.34C110.47,16.4,109.89,10,107.65,5a2.9,2.9,0,0,0-.77-1.13,1.12,1.12,0,0,0-1.28-.13,1.69,1.69,0,0,0-.47,1.47,73,73,0,0,1,.09,8.12c-.15,1.49-1.44,3.43-2.5,1.14a6.39,6.39,0,0,1-.41-1.77,32.08,32.08,0,0,0-1-4c-.75-2.62-1.64-5.45-3.87-7-1.18-.83-2.53.1-2.84,1.4-.26,1.1.4,2.71.59,3.79.36,2,.77,4,1,6,.18,1.44.8,3.1.26,4.51a.15.15,0,0,1-.26.1c-2.12-1.18-3.11-3.62-4.5-5.6a3.63,3.63,0,0,0-1.06-1.09c-2.38-1.42-2.84,2.2-2.84,3.71,0,4.12,1.3,8.43,1.67,12.57a124.78,124.78,0,0,1,.76,13.29C90.2,44.17,89.41,48,89,51.89c-.44,3.69-2.54,5.66-6.18,5.75-1,0-2,0-2.93,0C76.21,57.54,76,57.33,76,53.7a58.32,58.32,0,0,0-3.73-20.92c-1.59-4-3.43-8.34-6.71-11.3-2.62-2.37-5.89-2.93-9.29-2.89-3.92,0-8,0-11.53,1.93a16.15,16.15,0,0,0-6.08,6.31c-2.43,4.23-3.47,9-4.54,13.75s-2.43,9.3-3.21,14.09c-.38,2.31-.66,2.37-3,3-4.74,1.21-11.59,1.11-14.06-4.18a18.59,18.59,0,0,1-1.29-7c-.16-3.52.72-6.49,1.63-9.85,2.14-7.92,7.59-14.44,9.52-22.37a5.91,5.91,0,0,0-.06-4,1,1,0,0,0-.42-.49,1,1,0,0,0-.72,0c-2,.5-3.07,2.51-4.18,4.21s-2.91,3.43-4.87,2.93c.36-3,2.18-5.7,4-8.17a7,7,0,0,0,1.26-2.2,2.32,2.32,0,0,0-.54-2.36A2.56,2.56,0,0,0,16,3.67a7.42,7.42,0,0,0-4.52,4c-1,1.82-1.59,3.83-2.61,5.63-.33.58-1.11,1.19-1.56.69C7.14,10,8.55,6.3,8.09,2.3A2.83,2.83,0,0,0,7.26.36C6.36-.37,5,.12,4.1.88,1.34,3.26,1.05,7.35,1,11,1,22.72.28,34.48,0,46.21c-.25,11,8.3,20.4,18.8,22.67,2.92.63,5.6.16,8.5.33,2.37.14,2.89,1,3.1,3.29.66,7,1.4,14,1.84,21.08.17,2.7.37,5.4.51,8.1.1,1.92.88,5.43-.1,7.2A3,3,0,0,1,31.47,110a7.63,7.63,0,0,1-3.45.72,11.67,11.67,0,0,0-3.51.44,3.37,3.37,0,0,0-2.32,2.46c-.66,4.34,9.73,2.59,11.93,2.54,3.47-.08,6.94-.36,10.4-.65,3-.25,4.09-2.26,4.3-5,.32-4.24.2-8.56.29-12.8,0-1.79.1-4.21,1.53-5.53s3.17-.52,4.16,1c1.77,2.73,1.31,6.21,1.35,9.3,0,2.43.06,4.86.09,7.3,0,3.31-.4,5.65,3.45,6.58a37.8,37.8,0,0,0,9.86.61l9.16-.24c1.61,0,6.23.07,4.81-2.59a6.6,6.6,0,0,0-6.16-3.53c-2.22-.06-4.45-.16-6.66-.24-1.84-10.66,1-22.55,2.75-33.08a11.57,11.57,0,0,1,1-3.68C75.89,71,78.63,71.23,81.15,71a34.28,34.28,0,0,0,15.12-4.77C100,64,104.52,60.78,106,56.54a100.19,100.19,0,0,0,4.37-16.79A68.07,68.07,0,0,0,111.25,25.14ZM63.14,31.65a1.47,1.47,0,0,1-.31.48c-3.47,3.75-13.21,4.33-17,.63-2.61-2.58,2-2.56,3.73-2.85a.28.28,0,0,1,.14,0c.55.2,1.23,2.47,2,3,3,1.9,5.7.13,7.2-2.62a.92.92,0,0,1,.22-.3.77.77,0,0,1,.42-.13C60.86,29.74,63.8,29.9,63.14,31.65Z"/></g></g></svg>