<svg xmlns="http://www.w3.org/2000/svg" viewBox="0 0 81.8 67.04"><defs><style>.cls-1{fill:#f6b2c1;}</style></defs><title>fish</title><g id="Layer_2" data-name="Layer 2"><g id="Layer_1-2" data-name="Layer 1"><path class="cls-1" d="M79.35,20.5c-.33-2.81.82-5.59,1.1-8.36A18.91,18.91,0,0,0,79.8,4a3.47,3.47,0,0,0-2-2.37c-1.48-.46-3.86.84-5,1.75a10.55,10.55,0,0,0-2.68,4L66.93,14.1a2.46,2.46,0,0,1-.49.77c-.65.61-1.72.38-2.54.44a1.5,1.5,0,0,1-.76-.08,1.67,1.67,0,0,1-.69-1C60.76,9.56,55.92,5.83,51.69,3.59A31.43,31.43,0,0,0,42.61.43c-5.33-1-10.36-.16-15.53,1.21a45.2,45.2,0,0,0-8.32,3c-3.83,1.88-8.14,4.53-9.42,8.87a16.27,16.27,0,0,0-.54,3.05,34.87,34.87,0,0,0-.13,4.66c0,1.21.58,2.94.3,4.08A17.19,17.19,0,0,1,6.14,24a11.46,11.46,0,0,0-2.29-1c-1.08-.28-2.46-.29-3.11.79a4.86,4.86,0,0,0-.52,1.84,11.66,11.66,0,0,0-.16,3.29,11.5,11.5,0,0,0,2.48,4.94,18.36,18.36,0,0,0,5.21,4.81,3.13,3.13,0,0,1,.75.64c.75.93.5,2.2.62,3.3A18.67,18.67,0,0,0,10,46.2a46.35,46.35,0,0,0,3.54,7.87,35.25,35.25,0,0,0,5.59,8.13c4.56,4.63,11.49,5.86,17.64,4C44.36,63.94,49,56.3,53.72,50.55a34.17,34.17,0,0,1,5-5.14c1.76-1.42,3.5-2.81,3.67-5.28A33.82,33.82,0,0,0,62,35.56a5.91,5.91,0,0,1,1.1-4.34c1.23-1.4,3.29-1.66,5.15-1.82a.69.69,0,0,1,.45.11c.54.35.66,1.44.92,2a20.9,20.9,0,0,0,1.61,2.93,22.54,22.54,0,0,0,4.28,4.84c1.35,1.14,2.7.83,3.67-.56a14.87,14.87,0,0,0,2.6-8.92C81.69,26.44,79.73,23.76,79.35,20.5Zm-.1,6.24a.86.86,0,0,1,.18.49,2.06,2.06,0,0,1-.17.57c-1.09-.59-2.13-1.15-3.16-1.74-.1-.06-.12-.24-.16-.4,1,.26,1.91.53,2.86.81A1,1,0,0,1,79.25,26.74ZM71.63,8.53c.2-.44.43-.86.61-1.3a6.49,6.49,0,0,1,4.58-3.64,2.21,2.21,0,0,1,1.09,1.64,18.8,18.8,0,0,1,.44,5.54,2.29,2.29,0,0,1-1.26,2c0-.52-.07-.92-.09-1.32s-.15-.73-.57-.8-.62.33-.76.64c-.35.76-.64,1.55-1,2.32a15.05,15.05,0,0,1-.91,1.74.66.66,0,0,1-.61.19.69.69,0,0,1-.35-.55,13,13,0,0,1,.31-2.13c.32-1.28.72-2.54,1.08-3.8a7,7,0,0,0,.27-1,.76.76,0,0,0-.55-.83.62.62,0,0,0-.79.26A14.64,14.64,0,0,0,71.93,9.8c-.46,1.36-.77,2.77-1.14,4.16s-.53,1.4-2.07.87Zm5.85,9.27a5.1,5.1,0,0,1-.7-.24,5.26,5.26,0,0,1-.61-.44c.21-.66.76-.88,1.31-1.26A2.31,2.31,0,0,1,77.48,17.8ZM7.57,28.41c-1-.19-2-.36-2.93-.56-.73-.15-2.05-.31-2.52-.86a2,2,0,0,1-.2-1.71C2,24.72,2.09,24,3,24a2.07,2.07,0,0,1,1.08.32A10.7,10.7,0,0,0,5.13,25l1.43.64a3.66,3.66,0,0,1,1.24.76,6.17,6.17,0,0,1,.66,1.08,2.61,2.61,0,0,1,.36,1.23Zm3.38,7.65a10.44,10.44,0,0,1-1,.43,1.67,1.67,0,0,1-.56.13C8,36.64,6.06,35.18,5,34.26a3,3,0,0,1-.6-.68,3.58,3.58,0,0,1-.37-1.48c1,.23,2,.74,3,1,.69.16,1.38.32,2.07.51a4.55,4.55,0,0,1,1.14.43c.44.26,1.27,1.08,1.1,1.69a.58.58,0,0,1-.33.31ZM9.41,30.41l0,0a3.07,3.07,0,0,1,.47.81l.4.9c.06.14.12.33,0,.42s-.23,0-.34,0a21.58,21.58,0,0,0-3.31-1,18.45,18.45,0,0,1-3.15-1.14.75.75,0,0,1-.26-.15A.76.76,0,0,1,3.12,30l-.26-.69c-.12-.32-.25-.68.09-.76a3.64,3.64,0,0,1,1.1.19q1.18.21,2.36.46a10.28,10.28,0,0,1,2.25.68A2.49,2.49,0,0,1,9.41,30.41Zm60.37-3.14L65.54,28c-2.34.41-4.23,1.32-5.11,3.7a11.13,11.13,0,0,0-.28,5.52,7.49,7.49,0,0,1,.1,3c-.61,2.31-3,3.57-4.68,5a40,40,0,0,0-4.76,5.35c-3.11,3.89-6,8-10,11.13a15.23,15.23,0,0,1-7.23,3.41,15.86,15.86,0,0,1-12.08-3,25.58,25.58,0,0,1-5.65-7.25,34.27,34.27,0,0,1-4.82-13.82c-.14-1.67.44-2.36,1.81-3.07,1.18-.61,2.1-1,1.87-2.58a25.34,25.34,0,0,0-3.18-8.74c-2.62-4.36-1.41-9.73.66-14,2.4-5,7.93-7.35,12.9-8.86A44.78,44.78,0,0,1,37.52,1.48C46.8,1.37,57.18,6.59,60.73,15.4a2.13,2.13,0,0,0,.82.9c1.55,1.15,3.24,1.07,5.08.9A27.78,27.78,0,0,1,69.56,17c.37,0,2.4.55,2.54.46a1.17,1.17,0,1,0,1.53,1.75c.26-.27.45-.67.82-.71a1,1,0,0,1,.52.16l1.67.89a1.21,1.21,0,0,1,.49.38,1.83,1.83,0,0,1,.09,1c0,1,.82,1.83,1.05,2.81a.58.58,0,0,1,0,.4c-.16.31-.63.18-.94,0l-1.25-.72a2.09,2.09,0,0,1-.64-.49c-.34-.43-.28-1-.44-1.57a2,2,0,0,0-2.55-1.18c-.18.08-.37.22-.36.41a.62.62,0,0,0,.2.35c1.2,1.38.4,4.9-1.08,5.9A3.6,3.6,0,0,1,69.78,27.27Zm7.67,10.64a1.74,1.74,0,0,1-.57-.1,5.91,5.91,0,0,1-1-.75,23.67,23.67,0,0,1-4.61-6.32,1.13,1.13,0,0,1,0-.35.32.32,0,0,1,.56-.13,30,30,0,0,1,5.34,5c.32.43.58.89.91,1.4Zm-1.33-6.4a21.15,21.15,0,0,1-3.22-3.22l1-1.11c1.09.52,2.14.95,3.11,1.51s1.78,1.19,2.72,1.83a7.06,7.06,0,0,1-.43,4.08C78,33.78,77.22,32.47,76.13,31.5Z"/><path class="cls-1" d="M75.79,25.58l-.29,0s.08-.1.1-.09Z"/><path class="cls-1" d="M29,35.41a2.93,2.93,0,0,1,1.7,1.39c.19.4.25.69.72.47a1.86,1.86,0,0,0,.63-.62c.36-.49.64-1,1.28-1.12a5.08,5.08,0,0,1,3.6.87c1.47.94,2.49,3.26,3.35,4.75a18.63,18.63,0,0,0,3.39,4.69c.22.2.46.48.33.74a.65.65,0,0,1-.2.21c-1.49,1.12-3.89,2.44-4.23,4.47-.16.94-.43,1.86-.67,2.79a6,6,0,0,1-6.08,4.56,21.3,21.3,0,0,1-5.65-.82,8.83,8.83,0,0,1-4.71-3.68A3,3,0,0,1,22,52.55,34.54,34.54,0,0,1,22.11,49a4.46,4.46,0,0,0-.94-3.19c-.55-.71-1.12-1.4-1.68-2.1A5.61,5.61,0,0,1,19,43a.83.83,0,0,1,.28-1.11A18.61,18.61,0,0,0,23.17,38c.28-.31.5-.68.81-1,1-.91,2.2-1.94,3.63-1.91A4.5,4.5,0,0,1,29,35.41Zm6,13.08c.74-.43,1.43-1,2.17-1.45A6.1,6.1,0,0,1,39.51,46a10,10,0,0,0-3-.12,3.17,3.17,0,0,1-1.15-.19c-.23-.09-.47-.29-.74-.27a1.12,1.12,0,0,0-.51.25A4.83,4.83,0,0,1,29,45.53a4.19,4.19,0,0,0-1.6-.68,12.84,12.84,0,0,0-1.83.13,4.63,4.63,0,0,1-2.08-.72c1.48,2.07,3,4.2,5.54,5a7.55,7.55,0,0,0,5.9-.79Z"/><path class="cls-1" d="M17.67,16.68a.35.35,0,0,0,0-.43l-1.24-2.14a1.53,1.53,0,0,1-.26-.68.52.52,0,0,1,.39-.55c.28,0,.5.22.67.45q.47.68,1,1.33A2.74,2.74,0,0,0,21.15,16c.49-.11.59-.14.37-.57-.41-.82-.87-1.61-1.29-2.42a1.45,1.45,0,0,1-.2-.57.44.44,0,0,1,.73-.42,1.47,1.47,0,0,1,.32.35,6.92,6.92,0,0,0,3,2.62,5.61,5.61,0,0,0,1.68.54c.92,0,.75-1,.39-1.52-.22-.36-.51-.68-.71-1-.42-.78-.1-1.7.61-.75A9.21,9.21,0,0,0,27,13.3a6.77,6.77,0,0,0,2,1.3,9,9,0,0,0,1.14.46c.35.1,1.42.25,1.44-.33a.94.94,0,0,0-.23-.54l-.88-1.27a4.27,4.27,0,0,1-.31-.49c-.21-.4-.42-1.32-.09-1.73s.83.57,1,.91A7.44,7.44,0,0,0,31.94,13a5,5,0,0,0,2.65,2.17c.31.07,1.23.2,1.48-.08s-.29-.72-.46-1a8.31,8.31,0,0,1-.68-1.44.68.68,0,0,1,.28-.58.73.73,0,0,1,.65,0c.34.23.6.59.94.83a22,22,0,0,0,5.49,2.58,6,6,0,0,1,2.57,1.58A2.62,2.62,0,0,1,45,20.37a4.66,4.66,0,0,1-1.3,1,20.85,20.85,0,0,1-7.75,2.4,30.32,30.32,0,0,1-7.51-.14,53.86,53.86,0,0,1-7-1.29c-1.88-.51-4.18-1-4.61-3.2a2.53,2.53,0,0,1,.15-1.44,2.18,2.18,0,0,1,.38-.61C17.39,16.93,17.56,16.81,17.67,16.68Zm17,5.29A5,5,0,0,0,36,22a13.84,13.84,0,0,0,3.27-.27,8.43,8.43,0,0,0,3.9-1.9,1.51,1.51,0,0,0,.43-.55,1.11,1.11,0,0,0-.25-1.09c-1.86-2.14-5.39-1.22-7.78-.89a.51.51,0,0,0-.41.2c-.09.18.26,1,.28,1.22a4.18,4.18,0,0,1-.08,1.43,3.13,3.13,0,0,1-.64,1.26C34.46,21.74,34.51,21.9,34.71,22Zm-6.63-4.56A42.19,42.19,0,0,0,21.7,18c-.58.1-2.29.26-2.24,1.2,0,.52.79.82,1.19,1a14.49,14.49,0,0,0,3.64.88c.66.08,2.56.62,3,0,.18-.27.09-.74.1-1a4,4,0,0,1,.36-1.62A2.43,2.43,0,0,0,28.07,17.41Z"/><path class="cls-1" d="M54.8,31.54c-.76.39-1.22.66-1.71.86A1.49,1.49,0,0,1,51.16,32a.6.6,0,0,1,.13-.93l4.35-2.49c.2-.12.45-.26.53-.45a4.14,4.14,0,0,0,.38-2.44,2.39,2.39,0,0,0-1.45.77c-.63.55-1.23,1.14-1.83,1.72-.35.33-.67.69-1,1-.75.62-1,.62-1.92.08l-.67-.4c-.3.43-.56.83-.84,1.19a1,1,0,0,1-1.6-1c1.22-2.27,2.15-4.69,3.73-6.76a18.85,18.85,0,0,1,4.24-3.57c1-.72,3,.24,3.23,1.33a19.28,19.28,0,0,1,.37,2.49,21,21,0,0,1-3.38,12.65,6.46,6.46,0,0,1-1,1.24,1.89,1.89,0,0,1-2.62.19c-.42-.29-1-.55-.93-1.18.23-.44.62-.38,1-.34a1.71,1.71,0,0,0,1.56-.71A7.15,7.15,0,0,0,54.8,31.54Zm.81-7.94.06-.06a2.43,2.43,0,0,0,.66-3.1,10.26,10.26,0,0,0-5.81,7,6.31,6.31,0,0,0,.94-.51c.72-.57,1.33-1.23,2-1.83S54.93,24.17,55.61,23.6Z"/></g></g></svg>