<svg xmlns="http://www.w3.org/2000/svg" viewBox="0 0 75.33 116.88"><defs><style>.cls-1{fill:#d3d87e;}</style></defs><title>gator</title><g id="Layer_2" data-name="Layer 2"><g id="Layer_1-2" data-name="Layer 1"><path class="cls-1" d="M72.29,102.4c-2-1.25-4.44-1.66-6.48-2.87a2.14,2.14,0,0,1-.82-.72,2.2,2.2,0,0,1-.21-.71,91.45,91.45,0,0,1-1.3-11.74c-.14-3.17-.38-6.92.27-10,.39-1.88,1.71-3.71,2.46-5.46a23.09,23.09,0,0,0,1.88-6.52,111.35,111.35,0,0,0,0-23.08,20.38,20.38,0,0,0-.54-3.56c-1.46-5.39-6.76-8.08-11.66-9.66A33,33,0,0,1,48,24a52.69,52.69,0,0,0-8.4-4.62,13.83,13.83,0,0,1-4.53-2.82c-.83-.8-1.68-1.58-2.56-2.33-2.82-2.39-5.67-4.75-8.5-7.14-2.26-1.91-4.46-3.91-6.78-5.74S13-.47,10.95,1.58a35.27,35.27,0,0,0-7.52,10.9c-1.31,2.92-.86,5.38.57,8a7.31,7.31,0,0,1,1,3,23.38,23.38,0,0,1-.3,4.67c-.29,2,.07,2.36,2,1.78l4-1.18c.24,3,.42,5.59.66,8.2.15,1.71.81,2,2.19,1.05A7.63,7.63,0,0,1,17,36.29c.47,1.87.86,3.63,1.36,5.35.55,1.91,1,2.08,2.83,1.2,1.31-.63,2.6-1.31,4-2,.76,1.13,1.47,2,2,3,1,1.74.76,2.48-.84,3.76a1.35,1.35,0,0,1-2.13-.1c-2.58-2.63-2.6-2.62-5.63-.53-.06,0-.16,0-.39,0-1.3-.64-1.82-2.7-3.75-2.67-.17,0-.73.85-.85,1s-.73,1.08-1,1-.41-.46-.52-.58l-.54-.57q-.55-.56-1.15-1.08a.79.79,0,0,0-.67-.28.78.78,0,0,0-.36.28,16.59,16.59,0,0,0-1.19,1.56A8,8,0,0,0,7.35,47c-.37.9-.79,1.77-1.83,2-2.48.56-3.66,2.45-4.33,4.63A30.88,30.88,0,0,0,.13,59c-.5,4.08.32,7.6,4.13,9.65,2.44,1.32,5.37.75,8.08,1.15,3,.44,5.88,1.21,8.8,1.9a64.16,64.16,0,0,0,7.29,1.42c1.91.23,4-.2,4.52,2.18a22.23,22.23,0,0,1,.44,3.68c.07,1.65,0,3.3,0,5-.2,5.26-.35,10.53-.51,15.78a1.35,1.35,0,0,1-1.21,1.55c-1.69.56-4,.86-5.48,1.83a18.13,18.13,0,0,0-4.09,3.71,1.77,1.77,0,0,0-.43.84c-.16,1.28,2.18.31,2.85.22a9.58,9.58,0,0,1,3.77.11c-.2.52-1,.92-1.46,1.33s-2.34,3.07-1.9,3.7,2-.76,2.43-1a2.6,2.6,0,0,1,.61-.26,4.85,4.85,0,0,1,.7-.06c1.19-.1,2.28-1,3.46-.77l-2.69,2c-.69.65-1.42,1.5-1.21,2.42a60.38,60.38,0,0,1,9.34-2.81q2.34-.5,4.71-.82c1.45-.19,2.55-.48,3.1-2s-.56-2.78-.7-4.28a54.11,54.11,0,0,1,.21-6.22Q45,92.92,45,86.7a43.89,43.89,0,0,1,.39-7.42c.41-2.43,1.88-2.09,3.83-1.66a2.71,2.71,0,0,1,1,.37c1.21.86,1.19,3.3,1.39,4.65.3,2,.47,4,.61,6.06s.24,4.21.38,6.31.56,4.25.57,6.35-.61,4-.32,6.06a7.94,7.94,0,0,0,1.8,3.65,14.16,14.16,0,0,0,3.08,2.51,26,26,0,0,0,4.66,2.67,4.83,4.83,0,0,0,2,.63.51.51,0,0,0,.36-.1.56.56,0,0,0,.13-.37,13.49,13.49,0,0,0,0-3.05c0-.3-.46-2.25-.78-2.2a8.5,8.5,0,0,1,4.77.71,8.15,8.15,0,0,0,1.92.79.45.45,0,0,0,.59-.3c.93-2-.68-4.14-1.69-5.74.78.11,1.58.22,2.37.32s1.51.17,2.26.22A1.14,1.14,0,0,0,75,107a.94.94,0,0,0,.29-.83C75.23,104.49,73.6,103.24,72.29,102.4Zm-30-59c-1.5-.89-3-1.67-4.31-2.61a1.61,1.61,0,0,1-.42-1.45c.57-1.59,2.91-2.57,4.73-2.21C42.32,39.38,42.32,41.35,42.32,43.42ZM56.75,47c-2.84.21-4.38-.17-5.36-1.1L56.11,42c1.32.75,2.15,2.15,2.66,4.21A7.39,7.39,0,0,1,56.75,47Z"/></g></g></svg>