<svg xmlns="http://www.w3.org/2000/svg" viewBox="0 0 97.77 93.23"><defs><style>.cls-1{fill:#bfb4d3;}</style></defs><title>cloud</title><g id="Layer_2" data-name="Layer 2"><g id="Layer_1-2" data-name="Layer 1"><path class="cls-1" d="M83.51,88.35c-1.29.23-1.56,2-2.45,3a6,6,0,0,1-5.59,1.76c-1.69-.3-4.31-1.4-5.25-2.94-.63-1-.1-2.47-.73-3.47-.88-1.41-2.65,1-3.83,1.55a4.53,4.53,0,0,1-3.65.22,6.76,6.76,0,0,1-2.13-1.74c-.53-.57-1-1.47-1.71-1-.41.24-.8,1.69-1.05,2.13a7.68,7.68,0,0,1-3.31,3.42,8.53,8.53,0,0,1-4.28.49A14.36,14.36,0,0,1,43.48,90c-3.43-2-4.8-6-4.3-9.83a11.35,11.35,0,0,0-.47-5.25s-4.1-.29-4.51-.37a20,20,0,0,1-4.55-1.45,13.93,13.93,0,0,1-6.61-5.77c-1-1.68-1.91-3.46-3-5.41-.87.18-1.76.29-2.62.55-3.7,1.12-6.8,0-9.79-2.26C3.43,56.95-.41,51.69,0,46.08c.25-3.22,1.85-5.92,3.13-8.78a10.49,10.49,0,0,1,2.32-3.48c.24-.23,3-2.34,3.2-2C5.84,27.23,5.77,22,10.1,18.32a17.55,17.55,0,0,1,12.31-3.86,7.12,7.12,0,0,1,3.43.89c.92.7,1.09-.14,1.67-.84A11.78,11.78,0,0,1,30,12.26,6.83,6.83,0,0,1,34.27,11c2.43.2,3.84,1,5.34-1.39.54-.86.91-1.82,1.42-2.7a12.13,12.13,0,0,1,6.32-5C49.8,1,52.38.8,54.91.24c2.17-.48,4.43-.09,6.65,0a9.26,9.26,0,0,1,6.56,2.89c3.09,3.17,5.5,6.68,5.35,11.53a21.4,21.4,0,0,0,2.55.18c3.43-.18,6.41,1.16,9.26,2.8,1.68,1,2.56,2.68,3.62,4.23,3.9,5.74,2.2,14.13-1.72,19.39a6,6,0,0,1-1.92,1.82A3,3,0,0,1,82.5,43c.26,4.29-.45,8.32-3.35,11.69A14.58,14.58,0,0,1,73,58.87a12.3,12.3,0,0,1-3.77.8c-1.13,0-2.15-.35-2.45,1.13-.16.8-1.42,4.62-.28,4.45a4.26,4.26,0,0,1,2.82.85,15.1,15.1,0,0,1,3,2.54c.21.24,1.5,3.45.9,3.34,1.08.19,2.71-.34,3.5.7l1.13,1.5a12,12,0,0,1,.8-3c1.79-3.86,6.54-4.29,8.45-.34,1.2,2.48,2.77,4.09,5.82,4,1.93-.08,3.24,1.29,3.93,3,1,2.47,1.3,5-.14,7.43-.41.71-.81,1.43-1.27,2.1C94,89.6,92,90.67,89.2,89.82c-1.57-.48-3.75-1.49-5.39-1.5Zm-27.16-34a2,2,0,0,1,1.17-.77,2.93,2.93,0,0,1,1.18.18,23,23,0,0,0,4.83.3,11.09,11.09,0,0,0,5.2-.6A14.19,14.19,0,0,0,75.48,48a7,7,0,0,0,1.12-3.39,5.9,5.9,0,0,0-1.95-4.13c-.39-.43-1-.68-1.29-1.15a1.54,1.54,0,0,1-.07-1.3,1.4,1.4,0,0,1,1.05-.72c1.65.14,3.32,1.07,5,.57a6.16,6.16,0,0,0,2.89-2.46,6,6,0,0,0,1.21-2.25,5.46,5.46,0,0,0-.12-2.33c-.66-3-2.58-6.92-6-7.48a9.58,9.58,0,0,0-2.63,0c-2.51.28-9.72,2.33-8.28-2.75a14.6,14.6,0,0,0,.31-1.73c.6-3.78.1-7.23-3.07-9.85-.09-.07-.11-.23-.2-.28a6.85,6.85,0,0,0-2.1-1.17,21.77,21.77,0,0,0-4.85-.31,12.54,12.54,0,0,0-7.2,3.6c-2.21,2-2.86,4.55-3.94,7.28a3.33,3.33,0,0,1-4,2.24c-2.25-.32-4.89-.5-7,.7-.5.29-1,.67-1.44,1a15.7,15.7,0,0,1-2.22,1.16,7,7,0,0,1-2.32.74c-2.21.17-3.89-1.4-5.81-2.09s-4.32.4-5.85,1.41a3.06,3.06,0,0,0-1.16,1.18c-1.1,2.38,1.2,6,1.75,8.22.31,1.26,1.06,4.12.54,5.37-.62,1.49-3.28,1.6-4.56,2.08A7,7,0,0,0,9.24,50a11.3,11.3,0,0,0,2.13,3.13c2.28,2.22,5.59,2.08,8.47,1.4A13.72,13.72,0,0,0,24,53c1-.6,2.52-1.19,3.27.23a2.48,2.48,0,0,1,.22.91,31.68,31.68,0,0,0,1.74,8.6A6.79,6.79,0,0,0,31.51,66a6.41,6.41,0,0,0,2.57.87,19,19,0,0,0,12.66-2.55c3.65-2.21,6.72-6.19,9.28-9.54C56.12,54.65,56.24,54.5,56.35,54.37ZM43.13,75c0,1.42,0,2.46,0,3.5A4.4,4.4,0,0,0,45,82.17a10.54,10.54,0,0,0,8,2,2,2,0,0,0,2-2c.18-1-.27-2.15.76-2.9a6.84,6.84,0,0,1,5,.93,4.62,4.62,0,0,0,1.29.53c2.41.74,3.61.34,5.13-1.75a9.85,9.85,0,0,0,1.28-2.09,5.51,5.51,0,0,0-.87-5.62c-1.18-1.53-2.59-2.76-4.79-2a4.11,4.11,0,0,1-1,.19,1.76,1.76,0,0,1-1.87-1.66,3.86,3.86,0,0,1,1-2.91,3.61,3.61,0,0,0,.62-3.31,1.67,1.67,0,0,0-2.5-1,3.89,3.89,0,0,0-.93,1c-1.79,2.58-3.59,5.16-5.32,7.79a9.61,9.61,0,0,1-5.22,3.91C46,73.74,44.68,74.4,43.13,75ZM86.4,79.16l-.12,0c-1.22-.62-1-3.44-.82-4.48.23-1.48-1.09-2.3-2.53-1.77a2.83,2.83,0,0,0-1.72,2.06,43.16,43.16,0,0,1-2.06,5.69,8.84,8.84,0,0,0-3-1.49c-3.46-.74-4.9,4-3.92,6.61a3.85,3.85,0,0,0,6,1.37c1.19-1.08,1.27-3.07,2.55-4,1.63-1.22,3.9-.59,5.65,0,1,.32,2,.72,3,1,1.47.46,1.61.42,2.38-1a2.28,2.28,0,0,0,.41-1.29,2.24,2.24,0,0,0-.51-1.05,5.28,5.28,0,0,0-1.41-1.46,3.72,3.72,0,0,0-2.06-.45A11.51,11.51,0,0,1,86.4,79.16ZM5.79,52l-.11.19.17,0Z"/><path class="cls-1" d="M61.71,27.43a41.7,41.7,0,0,0-6.9.87c-5.53,1.15-11.1,3.29-15.48,6.93a18.57,18.57,0,0,0-5,6.27c-1.09,2.32-2.57,6.18-.25,8a8.86,8.86,0,0,0,4.8,1.76,15.33,15.33,0,0,0,5-.41c3.49-.85,6.69-2.76,9.81-4.68a80.81,80.81,0,0,0,7-4.78c2.08-1.61,4.5-3.29,5.63-5.69C68,32.1,66.11,27.26,61.71,27.43ZM42.57,46.82c-1.25.15-2.63.58-3.87.21A2.07,2.07,0,0,1,37,44.88a3,3,0,0,1,.71-1.81c.78-1,2.62-2.48,4-2.27a1.65,1.65,0,0,1,.81.37c.66.53,1,1.5,1.6,2.1a12.93,12.93,0,0,0,3.11,2.4A16.42,16.42,0,0,1,42.57,46.82ZM62.68,34.26C62.23,36,60.81,37,59.54,38.19s-3,2.14-4.49,3.28c-.29.23-.58.48-.85.74.22-.2.15-1.56.18-1.88a8.46,8.46,0,0,0,0-1.63c-.12-1.32-.13-2.64-.31-4a.73.73,0,0,1,.07-.56.72.72,0,0,1,.27-.18,16,16,0,0,1,5.81-1.86C61.7,32.05,63.11,32.57,62.68,34.26Z"/></g></g></svg>