<svg xmlns="http://www.w3.org/2000/svg" viewBox="0 0 973.79 187.21"><title>Asset 6</title><g id="Layer_2" data-name="Layer 2"><g id="Layer_1-2" data-name="Layer 1"><path d="M395.2,124.17c-6.05,0-8.78-6-7.49-13.25s7.35-13.17,13.4-13.17A8.11,8.11,0,0,1,405.64,99h4l-3.46,19.37c-.29,1.66-.14,3,.86,3a5.73,5.73,0,0,0,2.81-1.58l.07,1.65c-1.44,1.44-3.38,2.52-4.75,2.52-2,0-3-1.29-3.17-3.31C400.24,122.66,397.43,124.17,395.2,124.17Zm9.94-22.32a5.9,5.9,0,0,0-4.47-1.8c-4.24,0-7.27,5.11-8.35,10.87s.07,10.37,4.18,10.37c2.66,0,5.62-2.81,6.33-6.69Z"/><path d="M415.94,123l3.38-19.37c.29-1.8.22-3-.72-3a5.57,5.57,0,0,0-2.88,1.66v-1.73A7.84,7.84,0,0,1,420.4,98c2.52,0,3.75,2,3.1,5l-.15.65c2.16-3.53,5.26-5.9,8.43-5.9,4.82,0,6.12,4.6,5,10.72l-1.73,9.87c-.29,1.66-.14,3,.79,3a6,6,0,0,0,2.88-1.58v1.65a7.58,7.58,0,0,1-4.68,2.52c-2.52,0-3.6-2.16-3.09-5l1.8-10c.86-4.68.36-7.7-3.1-7.7-2.38,0-6.55,3.53-7.85,11.09L420,123Z"/><path d="M460.65,81.83l.22-1.51,8.64-1.8-7.06,39.82c-.29,1.66-.14,3,.86,3a5.73,5.73,0,0,0,2.81-1.58l.07,1.65c-1.44,1.44-3.38,2.52-4.75,2.52-2,0-3-1.29-3.17-3.31-1.8,2.09-4.6,3.6-6.84,3.6-6.05,0-8.78-6-7.49-13.25s7.35-13.17,13.4-13.17A8.11,8.11,0,0,1,461.87,99l1.52-8.71C464.61,83.06,464.25,81.83,460.65,81.83Zm.72,20a5.89,5.89,0,0,0-4.46-1.8c-4.25,0-7.28,5.11-8.36,10.87s.07,10.37,4.18,10.37c2.66,0,5.62-2.81,6.34-6.69Z"/><path d="M130.5,128.25s.9-.9,1.35-.9a.94.94,0,0,1,.9.9c0,.45-2.25,2.7-2.25,2.7-20.92,20.93-65.25,55.58-104.62,55.58C14.62,186.53,0,175.28,0,164.48c0-28.8,55.58-57.15,88.2-73.58L88,90.23c-12.6,4.5-43.43,15.07-56.48,15.07-9.67,0-20.7-6.52-20.7-18.22,0-31.5,80.33-79,137.48-79,13.5,0,19.8,9.22,19.8,16.43,0,11.69-25.88,33.3-41.4,40.5-2.93,1.35-5.4,2.25-7.2,2.25-1.35,0-5.63-2.7-5.63-5,0-.45.23-.9,1.35-1.13,19.8-5,49.73-27,49.73-38,0-4.72-3.83-7.42-9.68-7.42-57.15,0-131.4,49.5-131.4,77.4,0,4.73,2.93,8.55,11,8.55,18.45,0,55.35-17.55,58.72-17.55,3.83,0,7.88,8.1,7.88,12.38,0,2.25-7.2,5.17-14.18,8.77-24.07,13-76.72,41.4-76.72,64.35,0,6.75,5.17,11.48,12.6,11.48C70.65,181.13,110.48,149,130.5,128.25Z"/><path d="M149,106.88c-5.4-2.25-12.15-4.95-12.15-10.13,0-8.32,10.12-15.75,15.3-15.75,3.15,0,8.55,4.5,8.55,6.08,0,5.4-3.6,12.15-8.55,18.9,7,3.37,18.45,5.4,18.45,11.25,0,8.55-15.53,20.7-15.53,29.25,0,2.7,1.58,5.17,4.73,5.17,8.32,0,31.95-23.4,31.95-23.4.45-.45.9-.9,1.12-.9.68,0,.9.68.9,1.13s-1.12,1.57-2,2.47c0,0-23.63,24.53-34.65,24.53-6.75,0-14-5.85-14-12.15,0-13.28,11.92-24.08,11.92-31.05,0-2-1.8-3.38-4.05-4.5A295.06,295.06,0,0,1,130.5,131c-.45.45-.9.9-1.13.9a1,1,0,0,1-.9-.9c0-.45,1.13-1.57,2-2.7C135.22,123.08,143.1,115,149,106.88ZM155.7,87.3c-2,0-8.78,4.73-8.78,12.83,0,2,1.35,3.6,3.38,5,3.82-5.85,6.75-11.7,6.75-16.65A1.26,1.26,0,0,0,155.7,87.3Z"/><path d="M220.72,106.43c0,4-25.65,33.07-25.65,42.75,0,2.7,1.57,3.82,3.6,3.82,12.83,0,38.93-24.75,38.93-24.75s.9-.9,1.57-.9c.45,0,.9.68.9.9,0,.45-1.8,2-2.47,2.7,0,0-27.46,26.33-42.08,26.33-3.6,0-10.8-5.18-10.8-12.38,0-9.9,19.57-34.87,23.85-45.45.67-1.35,1.57-2.25,2.7-2.25C215.77,97.2,220.72,102.38,220.72,106.43ZM243,67.28c0,1.57-2.93,6.3-4.73,7.2-1.35.67-4.27,1.57-6.3,2.25-4.27,1.35-5.63,3.82-6.52,3.82a1.3,1.3,0,0,1-1.36-1.35c0-5.4,8.56-16.65,8.56-22.05a.82.82,0,0,1,.89-.9C237.15,56.25,243,64.13,243,67.28Z"/><path d="M247.49,161.1c-8.1,0-16.65-5.4-16.65-16,0-22.5,25-47.48,38.93-47.48,5.62,0,11.25,4,11.25,10.13,0,2.7-1.8,7-5.85,11.25a9.62,9.62,0,0,1-3.15.67.48.48,0,0,1-.45-.45,2,2,0,0,1,.67-1.12c3.38-3.38,5.85-7.65,5.85-10.13a2.12,2.12,0,0,0-2.25-2.25c-11.92,0-33.75,22-33.75,41.18,0,5.62,2.7,9.9,8.55,9.9,16.65,0,46.58-28.58,46.58-28.58s.9-.9,1.35-.9.9.68.9.9c0,.45-1.58,2-2.25,2.7C297.22,131,265.94,161.1,247.49,161.1Z"/><path d="M361.34,142.43a1,1,0,0,1,.9.9c0,.67-1.12,1.57-2.47,2.7-4.95,4.05-10.35,8.32-14.63,8.32-7.2,0-12.6-4.95-12.6-13.5a52.24,52.24,0,0,1,.68-8.1C322,143.78,306.22,160,301,160S288,153.9,288,146.93c0-18,30.6-49.05,49.95-49.05,8.78,0,17.33,7.87,17.33,12.82,0,3.6-1.13,5.85-1.8,5.85a3,3,0,0,1-2-2.25c0-.9,1.13-1.57,1.13-4.27,0-1.58-2.48-3.6-4.05-3.6-21.15,0-50.4,31.5-50.4,47a2.62,2.62,0,0,0,2.92,2.93c4.28,0,20.48-15.53,31.28-26.33C339.07,123.3,344,118.8,346,118.8s8.1,5.85,8.1,9.45c0,2.7-9.9,10.13-9.9,17.1,0,2.93,1.58,4.73,4.28,4.73,2.92,0,6.3-2.7,9.9-5.63C359.77,143.33,360.89,142.43,361.34,142.43Z"/><path d="M590.62,84.83c7.42,0,11.7,2.7,11.7,6.75,0,3.37-6.53,8.55-16,8.55a36,36,0,0,1-19.57-6.3c-29.93,9.9-62.78,34.65-62.78,67.05,0,13.05,9.68,19.57,22.72,19.57,39.16,0,77.41-31.95,98.11-52.2,0,0,.9-.9,1.35-.9a1,1,0,0,1,.9.9c0,.45-2.25,2.7-2.25,2.7-21.15,20.7-62.1,56.26-104.4,56.26-15.08,0-32-10.58-32-29.71,0-29,40.06-56,73.81-67.27a27.59,27.59,0,0,1-8.78-15.75C509.84,72.68,481,59.63,481,30.83,481,13.28,500.84,0,521.77,0a51,51,0,0,1,41.17,20,3.82,3.82,0,0,1,1.13,2.47,1.26,1.26,0,0,1-1.35,1.12c-.68,0-1.13-.67-2.25-2C556,15.53,542.47,7,526.71,7c-21.37,0-37.12,10.81-37.12,30.38,0,18.45,22.28,32.85,63.45,34.88C553,38.7,598,8.1,639,8.1c14.4,0,20.48,7,20.48,15.75,0,23.4-47.7,50.63-94.5,50.85a26.32,26.32,0,0,0,3.82,13.73C576.89,86.18,584.32,84.83,590.62,84.83ZM646,15.53c-39.83,0-79.43,30.82-81,56.92,44.77-.67,91.12-28.57,91.12-48.83C656.09,18.9,652.27,15.53,646,15.53ZM599.39,92.25c0-2-2.47-3.37-6.52-3.37a73.56,73.56,0,0,0-20.93,3.37c3.83,3.6,9.45,5.85,16.88,5.85C594.67,98.1,599.39,94.73,599.39,92.25Z"/><path d="M627.51,160.65c-10.8,0-18.22-14-18.22-19.8a2.94,2.94,0,0,1,3.15-3.15c4.95,0,12.37,2,23.85,2.48a26.73,26.73,0,0,0,1.12-7.88,34.49,34.49,0,0,0-2-12.37,134.47,134.47,0,0,1-10.58,11,2.08,2.08,0,0,1-1.12.68,1,1,0,0,1-.9-.9c0-.68.9-1.35,2-2.48a79.69,79.69,0,0,0,9.68-10.35c-1.13-2.92-2.25-5.4-2.25-9.22,0-8.55,11.47-17.78,15.52-17.78,3.15,0,8.1,5.18,8.1,8.1,0,3.38-14.62,9.23-14.62,17.55,0,9.68,6.07,12.6,7,23a39,39,0,0,0,22.5-11.25s.9-.9,1.35-.9.9.68.9.9c0,.45-1.57,2-2.25,2.7a38.4,38.4,0,0,1-22.27,10.8C648.44,151,638.31,160.65,627.51,160.65Zm8.1-18.22c-10.8-.68-17.55-2.25-20.92-2.25-1.13,0-1.58.45-1.58,1.35,0,2.47,2.48,9.22,9.68,9.22A13.6,13.6,0,0,0,635.61,142.43Z"/><path d="M719.76,69.75c11.7,0,24.53,2.7,24.53,3.15,0,.68-.45,1.35-.9,1.35a144.23,144.23,0,0,0-20.48-1.57c-7.65,0-11.47,1.12-11.47,1.12-16.43,23.63-42.3,61.2-42.3,87.08,0,9.9,3.82,14,10.8,14a2.65,2.65,0,0,1,2,2c0,.9-1.35,1.13-2.25,1.13-5.85,0-16.42-7.2-16.42-22.28,0-21.82,17.55-53.1,32-78.52a54.5,54.5,0,0,0-13,3.82c-1.8,0-4.73-3.82-4.73-5.17,0-.45,0-.9,1.13-1.35,3.6-1.58,11-2.93,20.25-3.83C707.16,56,713.69,44.1,713.69,38.48c0-1.13.45-1.58,1.12-1.58,3.15,0,10.35,9,10.35,15.53,0,2-4.27,8.32-10.8,17.32Z"/><path d="M752.39,127.35a1,1,0,0,1,.9.9c0,.45-1.58,2-2.25,2.7,0,0-22.28,24.3-39.6,24.3-11.48,0-17.55-7.2-17.55-18.9C693.89,116.1,714.14,95,724,95c6.07,0,9.9,7.65,9.9,10.35,0,6.3-13.73,18.23-26.1,25.88a34.91,34.91,0,0,0-.68,7c0,7,3.38,12.83,9.9,12.83,11.93,0,34-22.73,34-22.73S751.94,127.35,752.39,127.35Zm-23.18-21.82c0-1.8-.67-2.48-1.8-2.48-3.82,0-12.6,8.78-19.35,25.2C718.19,121.5,729.21,110.7,729.21,105.53Z"/><path d="M830.91,127.35a.94.94,0,0,1,.9.9c0,.45-1.57,2-2.25,2.7-9.22,8.55-18,11.7-30.15,11.7h-2C790,149.85,781,155,774.44,155c-6.3,0-12.6-6.3-12.6-11.25,0-4.05,3.6-6.3,8.1-6.3,2.92,0,9,.9,15.07,1.8,8.55-7.65,16.88-19.58,16.88-28.58,0-2.7-1.35-4-3.38-4-6.52,0-39.82,19.35-45.45,53.55a1.45,1.45,0,0,1-1.57,1.35c-2.48,0-7.43-2.47-7.43-11.92,0-46.58,47.7-115.66,68.18-115.66,6.07,0,11.25,4.73,11.25,10.58,0,20.48-51.08,70.2-63.91,82.8a115,115,0,0,0-2.47,11.25c10.35-18,32.4-36,44.33-36,4.72,0,10.8,6.08,10.8,11.93,0,8.55-5.4,18.22-12.6,25.87,11.92,0,20.92-3.15,29.92-12.15C830,127.8,830.46,127.35,830.91,127.35Zm-11.25-81a3.51,3.51,0,0,0-3.37-3.6c-16,0-46.35,48.15-55.58,79.88C771.06,112.28,819.66,63.9,819.66,46.35ZM766.11,143.1c0,1.58,2.7,3.6,4.95,3.6,3.15,0,7.43-2,11.7-5.4-5-.67-9.22-1.35-11.7-1.35C767.46,140,766.11,141.3,766.11,143.1Z"/><path d="M878.39,154.35c-7.2,0-13.5-4.95-13.5-13.5a53,53,0,0,1,.67-8.1c-11.25,11-27,27.23-32.18,27.23s-13-6.08-13-13c0-18,30.61-49.05,50-49.05,8.77,0,17.32,7.87,17.32,12.82,0,3.6-1.12,5.85-1.8,5.85a3,3,0,0,1-2-2.25c0-.9,1.12-1.57,1.12-4.27,0-1.58-2.47-3.6-4-3.6-21.15,0-50.4,31.5-50.4,47a2.62,2.62,0,0,0,2.92,2.93c4.28,0,20.48-15.53,31.28-26.33,6.75-6.75,11.7-11.25,13.73-11.25s8.1,5.85,8.1,9.45c0,2.7-9.9,10.13-9.9,17.1,0,2.93,2.25,4.28,4.95,4.28,11,0,32.4-21.38,32.4-21.38.45-.45.9-.9,1.35-.9a1,1,0,0,1,.9.9c0,.45-1.58,2-2.25,2.7C913.94,131,891,154.35,878.39,154.35Z"/><path d="M967.26,150.3c1.13-.67,1.35-.9,1.8-.9a1,1,0,0,1,.9.9c0,.68-.67,1.35-1.57,2-2.7,2-6.08,4.27-8.55,4.27-5.63,0-12.83-7-12.83-14.4,0-9.9,10.58-24.07,10.58-25.65,0-.22-.23-.45-.68-.45-2.47,0-19.8,8.55-32.18,20-14.4,13.27-16.87,26.32-18.9,26.32-2.25,0-6.07-6.75-6.07-11.47,0-4.5,23.62-32.85,26.78-50.18,0-1.8,1.12-2,2.25-2,2.25,0,8.77,5.17,8.77,11,0,4-6.07,12.6-11,21.15,8.32-6.52,32.4-22.5,41-22.5,3.6,0,6.3,6.53,6.3,9.45,0,2.48-17.1,19.35-17.1,31.28a3.9,3.9,0,0,0,3.82,3.6C962.54,152.78,964.79,151.88,967.26,150.3Z"/></g></g></svg>