<svg xmlns="http://www.w3.org/2000/svg" xmlns:xlink="http://www.w3.org/1999/xlink" viewBox="0 0 450.22 359.08"><defs><style>.cls-1{fill:url(#linear-gradient);}</style><linearGradient id="linear-gradient" x1="-1472.49" y1="900.22" x2="-1022.27" y2="900.22" gradientTransform="translate(-1022.27 1079.76) rotate(180)" gradientUnits="userSpaceOnUse"><stop offset="0" stop-color="#f2ae86"/><stop offset="0.11" stop-color="#f6d5d1"/><stop offset="0.34" stop-color="#e88e85"/><stop offset="0.71" stop-color="#f2ae86"/><stop offset="0.88" stop-color="#e88e85"/></linearGradient></defs><title>Asset 4</title><g id="Layer_2" data-name="Layer 2"><g id="Layer_1-2" data-name="Layer 1"><path class="cls-1" d="M4.39,15.14c6.36,8.6,14.68,14.47,24.46,18.5,3.5,1.44,7,2.88,10.48,4.4,6.43,2.84,9.4,8,9,14.83A87.12,87.12,0,0,1,46.11,67C45,72,43.17,76.91,42,81.94a38.41,38.41,0,0,0,1.35,22.38,53.53,53.53,0,0,0,23.22,28c6,3.65,12,7.21,18.15,10.49,12.7,6.74,25.73,12.76,39.52,16.91,18.81,5.65,38,8.91,57.75,8a34.78,34.78,0,0,1,4.91.48c-.31,1.4-.45,2.36-.74,3.27-2.6,8.38-5.46,16.7-7.82,25.15a234,234,0,0,0-8.77,69.88,98.84,98.84,0,0,0,3.62,25.38,37.86,37.86,0,0,0,6.62,13.34c5.08,6.25,11.5,9.86,19.88,8.21A82.32,82.32,0,0,0,210,310.73c9.16-3.1,18.33-4.23,27.44-.12,4.18,1.88,8.1,4.31,12.2,6.36,5,2.5,10,5.1,15.11,7.25a29.62,29.62,0,0,0,16.38,1.55c8.45-1.33,15.24-5.68,21.87-10.4a266.26,266.26,0,0,0,32.37-27.54A30.64,30.64,0,0,1,339.6,285c.67,3.81,1.3,6.73,1.68,9.68a227.85,227.85,0,0,0,8.21,39.15,45.06,45.06,0,0,0,8.84,15.5c4.39,5.22,10.14,8.79,16.87,9.43,11.69,1.13,23.14-.48,33.67-6.09,9.86-5.24,20.41-7,31.21-7.71a3.35,3.35,0,0,1,1.39-.28c1.1,0,2.2,0,3.3.06l1.13,0a.75.75,0,0,1,.31.08c1.34,0,2.68,0,4,0V224.5c0-29.13-.14-58.25-.24-87.38-.08-21.1.24-42.21.24-63.31V20.4h-2l-.06-.66,2-.54V1.2l-19.62.25c-.16,0-.31.21-.71.5,2.16,2,.89,4.33-.28,5.81a4.22,4.22,0,0,1-5.85.79C422,7.36,420,6.46,418.5,5c-4.07-4-4-4.07-7.89-5h-1.2c-1,2.35-.76,5.46-4.54,6.67C404,4.47,403.1,2.24,402.21,0H401c.67,2.92,1.34,5.85,2.12,9.22-.74-.25-2-.27-2.39-.87-1.17-1.72-2.51-3.42-2.11-5.85.12-.74-.78-1.66-1.22-2.5H395l-7.76,1.43,4.3,5.63c-2.62.45-4.64.87-6.06-1.48a10.83,10.83,0,0,0-1-1.52c-3.29-3.94-4.26-3.9-7.9-.2-15.41,15.69-31.79,30.31-50,42.64C307.25,59.6,286.87,71,264.94,79.39a273.56,273.56,0,0,1-47.07,13.53A307,307,0,0,1,150,98.44,290.27,290.27,0,0,1,103.63,93c-7-1.39-14-3.58-21-4.62C75,87.31,67.94,84.59,60.66,82.57c-4-1.11-7.91-2.57-12.25-4,.15-1.16-.1-2.78.5-3.2a5.71,5.71,0,0,1,3.86-.82,91.48,91.48,0,0,1,9.81,2.35A329.44,329.44,0,0,0,113,87.12a300.49,300.49,0,0,0,61,2.2c9.54-.7,19.08-1.53,28.59-2.6a162,162,0,0,0,17.06-2.88A360,360,0,0,0,267,69.58c4.06-1.51,7.9-3.64,11.88-5.4,6.15-2.72,12.44-5.15,18.47-8.12,3.72-1.84,7-4.62,10.61-6.67A291.38,291.38,0,0,0,341,28c7-5.27,13.62-11,20.42-16.54,3.23-2.62,6.52-5.17,9.73-7.82a8,8,0,0,0,1.22-1.85c-2.43-1.24-3.7.3-5,1.4-4.71,4-9.27,8.18-14.06,12.09a293.31,293.31,0,0,1-47.42,32.19C295.51,53,285.09,58.38,274.25,63A291.51,291.51,0,0,1,219,80.39a330.86,330.86,0,0,1-49.87,6.27c-17.79,1-35.48-.13-53.15-2.24A410.08,410.08,0,0,1,63.13,74.3C60.06,73.52,57,72.74,54,71.76c-.94-.3-1.66-1.27-3.4-2.67,2.32,0,3.43-.22,4.44,0a393.47,393.47,0,0,0,41.62,8.22c10.26,1.42,20.59,2.57,30.93,3.08s20.67.27,31,0a267.89,267.89,0,0,0,43.93-4.52c18.79-3.62,37.45-8,55.12-15.35,12-5,24.56-9,35.55-16.31,2.1-1.41,4.63-2.17,6.92-3.31a261.47,261.47,0,0,0,31.15-18.54c4.72-3.23,9.23-6.78,13.89-10.12,3.37-2.42,6.87-4.67,10.24-7.12a33.5,33.5,0,0,0,3.4-3.29C356,.44,354.55,2.22,353,3.32c-6.15,4.43-12.24,9-18.36,13.44-10.82,7.93-22.51,14.45-34.29,20.77-9.12,4.91-18.31,9.85-27.88,13.73C259.93,56.35,247,60.6,234.15,64.85a218.08,218.08,0,0,1-21.39,5.72c-7,1.55-14.11,2.6-21.19,3.77a297.21,297.21,0,0,1-73.46,2.51c-18.5-1.54-36.87-4.17-54.86-9-2.68-.73-5.44-1.21-8.14-1.88a15.47,15.47,0,0,1-2.68-1.38c2.49-1.1,4.12-.61,5.76-.31,6.66,1.23,13.29,2.7,20,3.56,8.51,1.1,17.07,1.87,25.63,2.46,21.77,1.53,43.54,1.43,65.19-1.39,14-1.82,28-4.28,41.91-6.89,6.22-1.17,12.25-3.35,18.35-5.15s12.59-3.43,18.67-5.72c8.75-3.29,17.33-7,25.93-10.74,4.72-2,9.36-4.27,14-6.53,5.68-2.77,11.39-5.5,16.92-8.54q12.76-7,25.3-14.47a56.4,56.4,0,0,0,12.2-9.61,8.13,8.13,0,0,0-2.81.43c-12,7-23.9,14.45-36.13,21.16-9.07,5-18.58,9.17-28,13.56-20.14,9.43-41.26,16.15-62.72,21.7a345.92,345.92,0,0,1-34,6.62,296.85,296.85,0,0,1-71,2.6c-6.54-.57-13.11-1-19.65-1.57-.67-.06-1.28-.78-1.91-1.3,5.84.24,11.68.4,17.51.77,19.72,1.23,39.22-1,58.73-3.55a289,289,0,0,0,36.15-7.08c18.43-4.86,36.71-10.14,54.39-17.5,14.13-5.87,28.07-12.09,41.72-19C304.86,13,315,7.44,325.38,2L324.2,0h-2.4c-3.1,3.63-7.69,4.89-11.66,7A535.37,535.37,0,0,1,256.6,32.27a472.49,472.49,0,0,1-46.33,16A403.5,403.5,0,0,1,163,58.69a252.4,252.4,0,0,1-41.11,3.65c-15.57,0-31.15.35-46.63-1.87-1.77-.25-3.53-.58-5.29-.89a5.1,5.1,0,0,1-.18-1.07c11.68,0,23.29.41,34.86-.11,11.75-.53,23.5-1.59,35.16-3.11s23.24-3.56,34.74-6c11.7-2.45,23.35-5.25,34.84-8.54,11.24-3.21,22.17-7.46,33.37-10.82s21.8-8.18,32.44-12.89,21.12-9.49,32-14.85c-2.4-2.11-4-1.51-5.61-.73C295.82,4.23,290.07,7,284.26,9.6c-8.17,3.67-16.3,7.45-24.63,10.74-10,3.95-20.07,7.78-30.31,11-12.74,4-25.65,7.52-38.54,11.07-6.33,1.74-12.73,3.32-19.17,4.57a448.25,448.25,0,0,1-49.67,7.27A471.81,471.81,0,0,1,62.73,55a17.19,17.19,0,0,1-2.33-.72c7.39-.55,13.64-1,19.88-1.48,11.33-.86,22.69-1.55,34-2.69,9.13-.92,18.25-2.09,27.28-3.7,9.82-1.75,19.55-4,29.27-6.26,8.34-1.93,16.68-3.92,24.92-6.26C207,30.69,218.48,28,229.39,23.45c6.53-2.75,13.63-4.15,20.25-6.73,10.77-4.19,21.35-8.87,32-13.3A4.28,4.28,0,0,0,284.59,0H281c-5.46,2.4-10.86,4.92-16.38,7.17-8.65,3.52-17.25,7.24-26.11,10.17-18.14,6-36.29,12-54.92,16.43-8.13,1.92-16.21,4-24.38,5.79-8.38,1.79-16.83,3.29-25.27,4.81-16.31,2.94-32.82,4.19-49.31,5.41a201.71,201.71,0,0,1-28.14,0c1.72-.36,3.42-.84,5.16-1.06,14.82-1.92,29.65-3.78,44.47-5.7,2.37-.3,4.72-.77,7.06-1.24,18-3.57,36-6.89,53.91-10.82,12.43-2.73,24.79-5.92,37-9.59,15.19-4.57,30.43-9,45.23-14.84C253,5.12,256.79,4,260.56,2.82c1.52-.49,1.61-1.53,1.22-2.82h-6c-1.27.84-2.44,2-3.84,2.48C231,9.69,210.06,16.8,188.63,22.31c-18.52,4.77-37.09,9.58-55.88,13-18.19,3.31-36.35,7.25-54.95,8.12-7.32.35-14.61,1.46-21.92,2.18a9.84,9.84,0,0,1-2.2-.43c3.6-2.47,7.36-1.52,10.7-2.27,5-1.14,10.24-1.27,15.3-2.24,12.12-2.32,24.46-3.37,36.46-6.54,14.42-3.8,29.06-6.75,43.54-10.36C167.4,21.84,175,19.29,182.62,17c9.71-2.84,19.45-5.55,29.11-8.54,5.69-1.77,11.27-3.89,16.84-6C229.78,2,230.72.84,231.78,0h-8.4a16.87,16.87,0,0,1-3.44,2.08C198,8.9,176.24,16,154.18,22.29c-15.12,4.28-30.54,7.56-45.94,10.77C97.71,35.25,87,36.56,76.36,38.24A10.81,10.81,0,0,1,74.05,38c4.6-2.76,9.47-2.82,14-4,7.91-2,15.95-3.38,23.87-5.3,9.68-2.35,19.37-4.74,28.93-7.56,11.26-3.32,22.4-7.1,33.59-10.69,8-2.55,15.9-5.14,23.88-7.64,1.51-.47,2.58-1,2.26-2.86h-6C190.73,1.59,187,3.36,183,4.72c-6.76,2.35-13.56,4.65-20.44,6.6C141,17.44,119.65,24.65,97.53,28.92,86,31.15,74.53,33.57,63,35.86A3.47,3.47,0,0,1,60,35c2.58-.49,5.18-.86,7.71-1.49q6.61-1.66,13.15-3.61c16.72-5,33.46-10,50.14-15.11C144.49,10.64,157.89,6.29,171.3,2A12.78,12.78,0,0,0,174.17,0h-9.6c-4.38,1.85-8.64,4-13.14,5.48C137,10.14,122.61,14.68,108.1,19c-12,3.55-24.14,6.75-36.26,9.94-6.7,1.76-13.48,3.27-20.27,4.7-2.32.5-4.81,1.88-7.61-.1,14.59-4.12,28.8-7.93,42.88-12.16,12.18-3.66,24.22-7.8,36.34-11.69C130.53,7.3,137.9,5,145.3,2.73A5.27,5.27,0,0,0,149,0h-9.6c-.84.76-1.55,1.9-2.53,2.22C120.14,7.56,103.46,12.94,86.69,18,75.07,21.54,63.33,24.67,51.6,27.8a48.32,48.32,0,0,1-7.73,1c3.82-1.57,7.58-3.34,11.5-4.62,10.28-3.34,20.67-6.32,31-9.66,11.07-3.59,22.09-7.36,33.08-11.21,2-.69,3.71-2.16,5.55-3.27h-8.4a9.75,9.75,0,0,1-2.32,1.76c-6.19,2.18-12.38,4.36-18.63,6.34Q68.33,16.77,41,25.3c-3,.95-6.09,1.81-9.13,2.75-2.14.66-3.88.05-5.74-1.9,22.21-7.9,44.25-15.57,66.4-22.94,2.11-.7,5-.41,6-3.21h-8.4C89.44.6,88.83,1.49,88,1.76c-9.8,3.3-19.65,6.45-29.45,9.75-10.73,3.6-21.41,7.32-32.12,11a25.1,25.1,0,0,1-4.62,1.19,3.07,3.07,0,0,1-3.54-2c3.25-1.33,6.23-2.66,9.3-3.77,4.45-1.6,9-3,13.45-4.53L59.61,7.05c3.57-1.2,7.19-2.25,10.67-3.67A38.61,38.61,0,0,0,75.75,0h-8.4a18.3,18.3,0,0,1-3.49,2.16Q42.46,9.57,21,16.79c-1.87.64-3.83,1-5.75,1.49s-3-.55-3.72-2.62a11.71,11.71,0,0,1,2.64-1.82C19,12.12,23.85,10.55,28.7,8.93c6.94-2.33,13.88-4.62,20.79-7C50.35,1.59,51,.65,51.74,0H40.94a12.81,12.81,0,0,1-2.75,1.86C30.13,4.66,22,7.36,14,10.08a18.12,18.12,0,0,1-2.86.79c-3.57.58-4,.16-5.17-4.43,3.47-1.28,7-2.45,10.41-3.9,1.15-.49,2-1.68,3-2.54H9.73c-1,1.54-1.34,1.54-2.4,0H6.13c-.1.32-.2.63-.31,1C5.53.63,5.23.32,4.93,0H.13A20.72,20.72,0,0,0,4.39,15.14Zm58.68,43h2.49v.31h-2.5Zm.1-19.43a5.65,5.65,0,0,1,3.63.41L60,40.47,59.46,40A26.64,26.64,0,0,1,63.17,38.68ZM46.31,94.92a47.71,47.71,0,0,1,5.63,1.21C62.3,99.59,72.53,103.49,83,106.58c9.13,2.69,18.52,4.53,27.81,6.69,4.63,1.08,9.27,2.2,14,3a236.2,236.2,0,0,0,35.59,4c8.16.19,16.35,1.19,24.47.76,13.52-.71,27.12-1.23,40.45-4,9-1.84,17.81-4.29,26.73-6.34,9.94-2.29,18.86-7.19,28.28-10.82,8.78-3.38,17.1-7.76,25.44-12.06,3.33-1.71,6.2-4.3,9.4-6.3,8.07-5,15.81-10.55,23.61-16,.27-.18.73-.09,1.73-.18-4.67,7.88-11.35,12.91-18.09,17.85-20.3,14.87-42.89,25.33-66.77,32.65a226.66,226.66,0,0,1-53.45,9.78,323.43,323.43,0,0,1-67.48-2.92A332.9,332.9,0,0,1,82.81,111c-9.66-3.11-19.34-6.18-29-9.36a39.07,39.07,0,0,1-5.45-2.46A3.39,3.39,0,0,1,46.31,94.92ZM365,34.17h0c-.88.72-2.11,1.26-2.58,2.19-3.63,7.09-9.33,12.38-15.05,17.65a239,239,0,0,1-40,29.26c-15,8.92-30.9,15.67-47.29,21.32a245,245,0,0,1-47.11,10.81c-21.71,3-43.39,2.74-65.12.88-17.11-1.47-33.86-5-50.53-9-15.33-3.69-30.12-9-44.87-14.5-1.63-.6-4-.68-4.6-3.84,1.49.39,2.56.6,3.59.93C61.25,93,70.94,96.69,80.93,99.2c18.55,4.67,37.31,8.57,56.38,10.34a307.66,307.66,0,0,0,73.9-1.61c9-1.34,18.06-2.88,26.81-5.74,10.58-3.45,21.31-6.4,31.86-9.92,4.27-1.43,8.24-3.77,12.3-5.77,7.11-3.51,14.21-7,21.26-10.63,2.62-1.34,5.13-2.9,7.61-4.47,8-5.11,16.1-10.14,23.56-16.09,4.51-3.59,9.4-6.7,13.92-10.27,3.23-2.55,6-5.65,9.21-8.24C359.76,35.16,361.76,32.82,365,34.17Zm-1.38-2,.7-.35c.22.77.45,1.53.67,2.29C364.5,33.49,364.05,32.84,363.59,32.19ZM51,104.67a81.74,81.74,0,0,1,8.4,2.25,220.21,220.21,0,0,0,29.11,8.79c11,2.6,22,5.74,33.05,8.2,11.69,2.59,23.6,3.61,35.53,4.65a265.34,265.34,0,0,0,37.07.84c9.32-.49,18.59-2.07,27.91-2.83,12.81-1,25-4.66,37.2-8.38a220,220,0,0,0,21.62-8.4c6.53-2.79,12.93-5.87,19.28-9.05,3.16-1.58,6-3.71,9.1-5.47a45.81,45.81,0,0,1,5.1-2c-2.94,4.57-5.84,7.43-9.3,9.43-7.95,4.59-15.87,9.33-24.22,13.07a225.88,225.88,0,0,1-40.19,13.53,252.17,252.17,0,0,1-43.16,6.52,257.28,257.28,0,0,1-41.92-.46,263.59,263.59,0,0,1-40.09-6.91c-4.63-1.22-9.37-2-14-3.39q-12-3.51-23.78-7.49c-5.83-2-11.56-4.29-17.26-6.63-3.39-1.39-6.63-3.12-9.94-4.7Zm11.77,15.27c-3.52-1.31-7.27-3-10.13-7.07,2.08.21,3.55,0,4.66.53,10.67,5.08,22.12,7.93,33.32,11.45,9.67,3,19.67,5,29.39,7.92,10.22,3.07,20.74,3.7,31.21,4.9A232.11,232.11,0,0,0,190,139.28a279.69,279.69,0,0,0,43.28-5.43,319.94,319.94,0,0,0,33.38-9.25c6.39-2.09,12.43-5.21,18.63-7.84,1.06-.45,2.16-.76,4.59-1.6-1.51,1.82-2.08,2.66-2.8,3.35-8,7.66-18.11,11.42-28.39,14.74a242.52,242.52,0,0,1-49.1,10.18,252.09,252.09,0,0,1-41.86.8,325.36,325.36,0,0,1-71.1-12.74C85.22,128.17,74,124.1,62.78,119.94Zm9.15,7.43c60.51,21.51,121.91,27.76,185,11.41a51.72,51.72,0,0,1-4.65,3.06c-3.9,2-7.9,3.81-11.8,5.81-6.72,3.45-14,4.32-21.35,5.23a210.51,210.51,0,0,1-39.41,1.65c-13.32-.85-26.6-2.48-39.85-4.15-16.83-2.12-33.19-6.48-49.35-11.52A42.19,42.19,0,0,1,71.93,127.37Zm139.15,30.54a6.67,6.67,0,0,1-1.08.22c-.13,0-.28-.22-.42-.33l.9-.49Zm-61.49,2.54c-12-2.06-24.2-4-34.74-11,30.11,7.53,60.81,8.6,91.6,9.05C187.61,163.67,168.54,163.72,149.59,160.45Zm44.76,6.9-.52.92c-.15-.12-.45-.29-.43-.34a6.72,6.72,0,0,1,.46-.88ZM175.6,234.73a267.82,267.82,0,0,1,16.21-64.35c.54,2.29,1.13,3.3.92,4.09-2.35,8.62-5.08,17.14-7.2,25.81-2,8.05-3.23,16.27-5,24.38-1.06,4.92-2.44,9.77-3.68,14.65l-1.06-.13A23.84,23.84,0,0,1,175.6,234.73Zm-.92,20.46c.3-3.18-1.5-6.63,1.34-9.5l-.05-.87c.06.26.13.51.19.77C175.68,248.78,175.18,252,174.68,255.19ZM178,279.73l-1.32-1,1.18-1.28a5.4,5.4,0,0,1,.69,1.38C178.55,279.07,178.15,279.42,178,279.73Zm1-7.23-1.41,0a18.35,18.35,0,0,1-.48-4.25c1.19-10.9,2.13-21.84,3.88-32.65,1.71-10.61,4-21.15,6.56-31.58,2.89-11.59,6.35-23,9.73-34.51,1-3.53,1.3-3.46,6-3.28-2.14,7.11-4.29,14.07-6.32,21.07s-4.15,14.14-5.95,21.28c-1.75,6.91-3.33,13.88-4.68,20.89-1.4,7.22-2.22,14.56-3.7,21.76S181.32,265.65,178.91,272.5Zm3.21,23.38h-.3c0-.94-.09-1.88-.14-2.82h.44Zm.35-7.56a149.2,149.2,0,0,1,1.06-25.53,432.27,432.27,0,0,1,11.14-58.67c3.26-12.34,7.16-24.5,10.8-36.73a28.63,28.63,0,0,1,1.23-2.89l4.53-.69c.21.53.55.93.47,1.23-.55,2.12-1.17,4.21-1.79,6.3-3.58,12-7.32,24-10.71,36-2.2,7.83-4.08,15.77-5.8,23.73-1.51,7-2.47,14.12-3.9,21.14-2.29,11.19-3.35,22.56-5.08,33.83C184.33,286.67,183.5,287.17,182.47,288.32Zm4.15,15.94-.36-1,.44-.38a5.61,5.61,0,0,1,.33,1C187.05,304,186.77,304.14,186.62,304.26Zm.4-6.41h-.38V294l.57,0C187.15,295.28,187.09,296.56,187,297.85Zm1.11-8.76-.66-.37,1.11-2.05.76.44C188.94,287.77,188.54,288.43,188.13,289.09Zm.07-5.09c-.71-20.72,14-85.19,27.5-121.91l4.94-.71c-1.12,3.32-2.07,6.09-3,8.86-4.14,12.49-8.56,24.9-12.3,37.51-2.59,8.76-4.26,17.79-6.28,26.72-1.69,7.48-3.45,14.95-4.87,22.49s-2.43,15.25-3.75,22.86C190.26,281,189.33,282,188.2,284Zm3.15,16.92V299l.47,0,.15,1.89Zm1.63-8a4.1,4.1,0,0,1-.78-1.1l.94-.61.78,1.28C193.59,292.64,193.11,293,193,292.91Zm-.55-4.7c5.39-44.11,15.26-86.75,31.63-128.56l6.36-1.69c-2.37,6.43-4.45,11.93-6.42,17.46-2.66,7.45-5.57,14.84-7.79,22.43-3.64,12.39-6.9,24.89-10.13,37.39-1.64,6.33-3,12.74-4.28,19.16-1.8,8.92-3.24,17.92-5.25,26.79C196,283.55,196.88,287.09,192.43,288.21Zm4.13,16.45-.36,0V302l.5,0C196.65,302.87,196.61,303.77,196.56,304.66Zm1.71-7.24c-1.32-3-1.32-3,.66-6.67C198.8,292.9,200.19,295.3,198.27,297.42Zm3.35,8.51-.86,0c.11-1,.23-2.08.35-3.12l.51.06Zm-3.56-17.06c.56-4.05.88-7.58,1.55-11,2.37-12.14,4.57-24.33,7.38-36.36,5.08-21.77,10.78-43.38,18.49-64.4,2.06-5.62,4.28-11.18,6.55-16.72,1.44-3.5,2.11-3.92,6.62-5.22,0,4.46-2.51,8-4.06,11.69a288.8,288.8,0,0,0-12.65,35.43c-1.72,6.34-3.89,12.55-5.76,18.85-1.18,4-2.32,8-3.23,12.05-2.27,10.2-5,20.3-7.38,30.48-1.53,6.54-2.2,13.18-3.78,19.67C201.29,285.34,201.31,287.66,198.06,288.87Zm5.26,3.36c.05-.65.1-1.18.14-1.71a10.68,10.68,0,0,1,.42,1.2C203.9,291.81,203.61,292,203.32,292.23Zm2.11-15.15c3.13-14.2,6.07-28.43,9.64-42.52,6.71-26.49,15-52.46,26-77.53,1.43-3.24,3-6,7.48-6.19a15.38,15.38,0,0,1-.62,3.33c-3.9,9.15-8,18.22-11.78,27.42-1.81,4.4-3.16,9-4.62,13.55-4.49,14-9.81,27.75-13,42.19-3.15,14.15-7.12,28.11-10.82,42.13a17.71,17.71,0,0,1-3.74,7.36C204.45,283.57,204.73,280.27,205.43,277.08Zm.64,23.25.19,2.74-.22,0v-2.74c.35-.81.71-1.62,1.15-2.58C208.22,299.46,209.08,300.87,206.07,300.33Zm3.16-6.59c0,.09-.66.09-1,.14,0-.93-.09-1.85-.09-2.78,0-.17.17-.33.47-.85.53.58.77.73.77.87A20.91,20.91,0,0,1,209.23,293.74Zm-.39-5.29c.69-3.84,1-6.75,1.75-9.56,4.59-18.19,8.93-36.45,14-54.5a459.4,459.4,0,0,1,18-51.4c3.2-7.75,6.58-15.42,9.75-23.18,1.32-3.26,3.21-5.45,7.57-5.09-.49,4.4-3.26,7.93-4.77,11.86-4.8,12.47-9.89,24.83-14.85,37.23-2.86,7.18-6,14.25-8.45,21.57-3.49,10.57-6.5,21.3-9.58,32-3.79,13.16-7.43,26.36-11.17,39.53C211,287.19,210.46,287.34,208.84,288.45Zm4.44,6.29-.39-.07.36-1.85c.17.29.48.59.47.87A3.06,3.06,0,0,1,213.28,294.74Zm.73-3.05c.23-2.84.11-4.36.49-5.74,4.87-17.88,9.57-35.8,14.78-53.58,6.73-23,15.33-45.31,24.71-67.34,3-7,6.38-13.75,9.45-20.67,1.76-4,4.2-7.05,9.23-8.1a25.9,25.9,0,0,1-1.1,3.93c-2.34,5.06-4.85,10.05-7.18,15.12q-14.34,31.2-25.47,63.69c-5.92,17.24-11.61,34.56-17.27,51.88-2,6-3.53,12.15-5.35,18.2C216.13,289.66,215.45,290.09,214,291.69Zm2.68,9.58a7.3,7.3,0,0,1-.21-2.51q6.69-22.32,13.5-44.61,3.93-12.85,8.09-25.63c7.21-22.26,16-43.93,25.28-65.37C267.79,152.91,273,143,278,133c.77-1.56,1.29-3.46,3.51-3.69,1.74-.19,2.1-3.66,4.57-1.91-6.82,14.39-13.82,28.47-20.2,42.82-6.32,14.19-12.36,28.52-17.89,43-5.61,14.71-10.13,29.82-15.7,44.54-5.43,14.35-8.65,29.46-14.32,43.72Zm5.46-.17c.45-2.76.47-5.66,2.54-7.93C225.92,296.39,224.67,298.92,222.15,301.1Zm2.59-8.23c-.34-1.82-.45-3.51,2.18-3.55C227.14,291.09,226.78,292.5,224.74,292.87Zm2.17-3.68c-1.09-1.18-1.58-2.44-.51-4C228.79,286.34,228.8,286.34,226.91,289.19Zm3.4-7.08a14.23,14.23,0,0,1-1.83,2.51c-.55-1.43-1.39-2.5-1.16-3.22,3.12-9.65,6.37-19.27,9.63-28.87,1.73-5.09,3.7-10.1,5.29-15.23,10.55-34,25.2-66.38,41-98.22,3.1-6.26,6.49-12.38,10-18.41a19.52,19.52,0,0,1,4.81-5.17,60.69,60.69,0,0,1,6.57-4l.83.74c-.84,1.75-1.62,3.53-2.54,5.24-5.16,9.65-10.46,19.23-15.51,28.93-4.13,8-8.19,16-11.91,24.09-6.43,14.12-12.6,28.35-18.81,42.56-2.24,5.12-4.39,10.27-6.4,15.48-3.42,8.89-6.71,17.83-10,26.75S233.66,273.17,230.31,282.11Zm8.58-11.69-1-.46c1.07-3.29,2.07-6.6,3.21-9.86,1.78-5.07,3.59-10.13,5.5-15.14,11.77-30.76,24.44-61.12,39.24-90.58q14-27.87,30.27-54.43a15.62,15.62,0,0,1,9.17-7.34,121.81,121.81,0,0,1-6.19,10.92q-6.09,9.85-11.94,19.85c-3,5.15-6,10.32-8.66,15.65-6.38,12.81-12.67,25.67-18.77,38.61-4.74,10-9.16,20.23-13.67,30.38-5.66,12.73-11.36,25.44-16.86,38.24-3.06,7.13-5.71,14.45-8.61,21.66A14.92,14.92,0,0,1,238.89,270.42Zm4.63.6a5.43,5.43,0,0,1-.85-.39l.79-.65a8.5,8.5,0,0,1,.47.75S243.63,271,243.52,271Zm4.36-8a15.46,15.46,0,0,1-1.59,2.3l-.9-.55a4.45,4.45,0,0,1-.07-1.69q11-26.06,22.14-52.08c10.26-24.19,21.68-47.83,33.75-71.16,8.35-16.13,17.13-32,27.64-46.91,4.59-6.51,8.66-13.4,13.41-19.8,5.66-7.63,11.71-15,17.73-22.34C365.6,44,371.36,37.2,377.13,30.46A33.41,33.41,0,0,1,381,27.18c.14,1.27.45,2,.22,2.29-8,9.86-16.21,19.61-24.17,29.53-2.85,3.55-5.27,7.46-7.8,11.26-6.73,10.1-13.62,20.11-20.06,30.39q-9,14.38-17.2,29.27c-5.44,9.93-10.38,20.13-15.5,30.24C290,173.12,283.31,186,277,199.09c-5,10.38-9.69,20.94-14.45,31.45C257.61,241.36,252.78,252.22,247.88,263Zm30.36-56c-1.65-3.73.58-5,1.07-6.92l1.81,1C280.29,202.83,279.45,204.54,278.24,207Zm-4.72,9.79a.47.47,0,0,1-.42.2c-.16-.06-.28-.25-.58-.55l3-8.21.91.11a5.7,5.7,0,0,1,.07,2.24C275.64,212.73,274.55,214.76,273.52,216.82Zm-2.45,3.23c-.22,1-.43,2-.65,3.07l-.9-.19c.21-1,.43-2.05.65-3.07Zm-17.79,55.24A20.63,20.63,0,0,1,254.5,272a1144.7,1144.7,0,0,1,82.9-151.23c1.2,4.71-.24,8.78-2.49,12.55-6.19,10.42-12.62,20.71-18.78,31.16-6.67,11.33-13.37,22.65-19.67,34.19-11.93,21.84-23.61,43.83-35.34,65.77-2,3.67-3.68,7.46-5.6,11.15-.32.61-1.06,1-1.92,1.79C253.42,276.33,253.15,275.75,253.28,275.29Zm30-69.76.39-2.05.82.16c-.1.66-.19,1.32-.35,2A6.4,6.4,0,0,1,283.28,205.53ZM364.49,81.12c.69-1.41,1-3,1.64-4.45.76-1.79,2-3,4.14-2.65l0-.92.13.85c-2.31,6.51-4.75,13-7,19.55a215.55,215.55,0,0,0-8.72,34.05c-.94,5.67-2,11.34-3,17-3.39,19.33-3.87,38.76-2.81,58.34a235,235,0,0,0,8.55,51.18,224.22,224.22,0,0,0,12.37,32.25c4.86,10.63,10.84,20.74,16.64,31.68-1-1-1.82-1.56-2.47-2.28-6.54-7.29-11.43-15.77-16.26-24.15-4.74-8.23-8.17-17.23-12.14-25.9-5.25-11.52-7.41-24-10.47-36.12-1.74-6.89-2-14.19-2.61-21.33a240.17,240.17,0,0,1,2.1-59.65C348.4,125.28,354.15,102.52,364.49,81.12Zm-2.72-9.9.77-.67.83,1a2.55,2.55,0,0,1-1,.31C362.14,71.87,362,71.46,361.77,71.22Zm4.62-6.35c0-.18.56-.32,1.1-.6a4.8,4.8,0,0,1,0,1.55c-.08.27-.58.4-.89.59A6,6,0,0,1,366.39,64.87ZM341.58,220.72c1.09,5.86,1.75,11.81,3.21,17.57,3.32,13.11,7.12,26.08,12.72,38.47,5.83,12.91,13,25,20.49,37a57.92,57.92,0,0,0,3.6,4.7c.89,1.17,1.41,2.39.58,3.8-3.66-2.79-5.8-6.85-8.27-10.54-4.92-7.33-9.28-15.05-14-22.54-9.6-15.32-15.38-32.2-19.68-49.56a232,232,0,0,1-6.32-66.42c.82-18.34,4.81-35.91,10.72-53.15.81-2.36,1.22-5.11,4.06-6.19-1.26,6.82-2.56,13.56-3.84,20.31-.85,4.49-1.73,9-2.5,13.48a222,222,0,0,0-3.32,34.47C338.88,195,339.21,208,341.58,220.72Zm44.69,105.59c-1.82-1.8-2.95-2.9-4.06-4C385.1,321.4,385.64,323.18,386.27,326.31ZM359.73,77.89a320.26,320.26,0,0,1-19.93,32.45c-3.44,4.81-6,10.27-9.06,15.36-3.31,5.44-6.86,10.73-10.16,16.18s-6.05,11.25-9.7,16.43c-5.47,7.75-8.83,16.68-14.37,24.39-2.86,4-4.83,8.57-7.23,12.88-.35.63-.81,1.2-1.22,1.8l-1.31-.84c2.94-6,6.16-11.82,9.5-17.62s6.19-11.87,9.4-17.75,6.63-11.84,10.06-17.7c3.52-6,7.18-12,10.77-17.93s6.91-11.69,10.51-17.44,7.44-11.36,11.1-17.07c3.54-5.51,8.06-10.31,11.84-15.88C359.88,76.07,360.13,77.16,359.73,77.89ZM324.57,255.5c-.15-3.39,1.7-6.76,6.64-11.93,2.4.82,2.48,2.24,1.9,3.93A12.91,12.91,0,0,1,324.57,255.5Zm8,3.1-.29.6-1.59-.9h0Zm-1.9-.27c-1.18,3.72-1.2,3.72-4.81,2.48C327.71,260.43,329.77,260.48,330.69,258.33Zm-20.08,3c5.91-10.3,12.51-19.35,18.67-29.07,2.9,2,2.56,4.51,1.39,6.42-4,6.61-8.38,13-12.68,19.48C316.47,260.44,314.31,261.54,310.61,261.32Zm5,6c-.33,0-.66-.06-1-.12,0,0,0-.24,0-.36l1-.19Zm-7.52,2.58-.48-.89,2.43-1.09.32.57Zm1.87,3.18a6,6,0,0,1-1,.25c-.11,0-.24-.22-.36-.35a6.54,6.54,0,0,1,1-.24C309.65,272.74,309.79,273,309.92,273.09Zm-3.55-11.42c.12-5.16,4.41-7.6,5.12-11.59a4.93,4.93,0,0,1-.6,5.9C309.53,257.64,308.22,259.34,306.37,261.67Zm-5.17.57c-1.84,3-3.85,3.6-7.1,2.67a11.2,11.2,0,0,1,.78-2.21q16-25.6,32-51.16c.15-.25.69-.24,1.52-.48.77,3.24,1.52,6.22-.55,9.42C318.88,234.34,309.92,248.22,301.2,262.24Zm-40.86,19.94c5.82-6,19.57-10.11,29.76-9.52-.09.3-.14.81-.28.84C279.71,275.41,270,278.83,260.34,282.18Zm26.13-3.84-22.42,8.3-.42-1.18A58.79,58.79,0,0,1,286.47,278.34Zm-25.18,10.25a6.68,6.68,0,0,1-1,.37c-.1,0-.26-.27-.39-.41a6.23,6.23,0,0,1,1-.38C261,288.15,261.16,288.44,261.29,288.59Zm60.51-52.38c1.51-4.47,3.41-8.73,8.07-12.67-.29,3.35-.78,5.09-2.34,6.91-2,2.33-3.32,5.23-4.93,7.88h0C322.31,237.63,321.61,236.77,321.8,236.21Zm.78,2.15c-2.28,3.27-4.68,6.47-6.79,9.85a3.46,3.46,0,0,1-4.2,1.72c3.88-3.16,5.13-8.14,8.74-12Zm3.83-59.78q-7.76,13.41-15.65,26.74c-10.13,17.12-20.32,34.21-30.43,51.34-2,3.43-3.71,7-5.74,10.47-1.29,2.18-1.45,2.09-5.5,2.68,3.28-6.67,6.07-13.1,9.49-19.18,13-23.11,26.16-46.11,39.29-69.14,2.27-4,4.64-7.91,7-11.85.69-1.16,1.46-2.28,2.19-3.42l1.51,1.05C329.56,171.35,328.44,175.08,326.41,178.58ZM326,195.06c-5.17,8.73-10.22,17.54-15.42,26.25-8.37,14-16.83,27.94-25.25,41.9q-.78,1.28-1.62,2.52c-1.32,2-3.06,2.27-5.38,1.35a10.65,10.65,0,0,1,.62-3q23.55-40.47,47.19-80.91C328.88,187.73,328.18,191.45,326,195.06Zm-25.15,10.26c-8.11,14.14-15.69,28.59-23.54,42.89-4.21,7.67-8.51,15.3-12.76,23-.8,1.43-1.58,2.85-4.17,2a68.82,68.82,0,0,1,3-7.47c14-25.95,27.89-51.94,42.12-77.75,6.92-12.57,14.47-24.8,21.75-37.17,1-1.65,2.1-3.21,3.15-4.82l1.36.67c-.38,4-.33,7.75-2.74,11.63Q314.54,181.52,300.89,205.32Zm-13.15,61.19-.78-1.14,39.27-65.61c2.62,1.93,2.32,3.78,1.25,5.55-4.2,7-8.51,13.9-12.76,20.87-3.62,5.94-7.12,11.95-10.82,17.85-4.43,7.09-9,14.11-13.58,21.08C289.84,265.83,288.62,266.06,287.74,266.51Zm5.34,9.83c2.22-.45,4.45-.86,6.68-1.27l.16.88-7.45,1.64C292.88,276.74,292.94,276.37,293.08,276.34Zm32.78-15.53c-.18,2.85-2.16,3.53-4.72,3.47Zm-72.29,46c.08-1.66.14-2.83.21-4.26C255.94,304.33,255.94,304.33,253.57,306.78Zm2.66-9.68c7-4.68,13.33-10.48,22.17-12,4.83-.85,9.43-2.93,14.17-4.33a11.39,11.39,0,0,1,6-.23,15.82,15.82,0,0,1-3,1.57c-10.28,3-20.51,6.21-29.91,11.45-3.5,2-6.51,4.77-9.87,7.28C254.13,299.58,254.9,298,256.23,297.1Zm1.27,13.38-.22-.46.4-.87c.08.15.25.33.21.45A4.92,4.92,0,0,1,257.5,310.48Zm8.67,6.86c1.71-5.61,5.51-9.29,10.28-11.89A152.34,152.34,0,0,1,292,298c8.28-3.37,16.71-6.36,25.11-9.44a12.62,12.62,0,0,1,3.11-.44A115.71,115.71,0,0,1,309.81,294c-6.54,2.93-13.17,5.71-19.95,8s-11.68,6.68-16.31,11.68c-1.22,1.32-2.25,2.81-3.51,4.09S267.57,318.23,266.17,317.34Zm13.39,0c-1.66,1.8-3.38,2.6-6.42,1.54,2.09-4.62,5.6-7.34,9.28-9.52s8.13-3.68,12.23-5.48c1.26-.55,2.51-1.15,3.79-1.67,2-.81,3.95-1.58,5.93-2.36l.53,1.06c-3.79,2.14-7.47,4.48-11.38,6.38A45.7,45.7,0,0,0,279.56,317.37Zm5.56.25c5.22-6.73,13-9.25,20.56-12.33C300.2,311.58,293,314.93,285.12,317.62Zm23.31-18.71c4.44-2.9,9-5.53,14.17-6.9C318.63,295.88,313.71,297.75,308.43,298.91Zm12.23-11c.52-1.27,1.49-1.08,2.5-.73Zm2.7-.81c0-2,1.59-2,3.23-1.81Zm1.09-5.1A147.18,147.18,0,0,1,300.26,292a143.4,143.4,0,0,0-19.52,7.42,38.05,38.05,0,0,0-14.69,11.94,10.92,10.92,0,0,1-5.45,3.79c.14-1.26,0-2.68.49-3.76a20.87,20.87,0,0,1,8.41-8.94c12.73-7.81,27.16-11.3,40.81-16.76,6.06-2.42,12-5.22,18-7.85C328.29,280.45,326.13,281.07,324.45,282Zm6.11-.59,2.79-1C333.19,282.54,331.71,281.56,330.56,281.37Zm-2.29-3.49h0l5.27-1.76C332.53,278.75,330.45,278.46,328.27,277.88Zm5.6-2,2.71-2.52C336.65,276,335.19,275.89,333.87,275.92Zm.88-4.49c-7.33,4.94-15.48,8.2-23.71,11.24-9.34,3.45-18.8,6.62-28.18,10a61.32,61.32,0,0,0-21,12.16,8.27,8.27,0,0,1-1.94,1.31c-.26.13-.71-.14-1.44-.31.74-4.48,3.43-7.34,7.37-9.19,16.23-7.64,33.52-12.4,50.29-18.56,6.14-2.25,11.82-5.75,17.72-8.66a3.52,3.52,0,0,1,3-.19A14.56,14.56,0,0,1,334.75,271.43Zm4.8-19.53c-.39-.25-.58-.82-1-1.52.65-.21,1.27-.59,1.47-.43a1.87,1.87,0,0,1,.64,1.36C340.64,251.52,339.74,252,339.55,251.9Zm1,3.25c4.17,5.21,5.45,11.68,8.17,17.47s5.34,12,8.43,17.79c3,5.61,6.4,11,9.87,16.36,3.57,5.52,7.26,11,11.23,16.21s8.26,10,11.84,15.7c-1.32-.66-3-1-3.93-2.05-5.72-6.05-11.74-11.91-16.79-18.5s-8.93-14.08-13.62-21c-3.41-5-5.63-10.46-7.85-16-1.83-4.57-4.21-8.92-5.75-13.65A33.35,33.35,0,0,1,340.58,255.15Zm54.18,81.26c-3.71-1.85-4.93-5.1-6.9-7.74C392.33,331.6,392.85,332.24,394.76,336.41ZM388.23,321l.27-.5c.39.32.79.62,1.15,1,.05,0-.1.29-.15.45Zm4.31,5.6L393,326a5.46,5.46,0,0,1,.48.93c0,.12-.14.32-.22.49Zm-40.42-3.83a6.43,6.43,0,0,1-.91-.37c.23-.17.46-.47.68-.46s.39.34.59.53C352.36,322.6,352.21,322.82,352.12,322.79Zm10.05,21.82a7.56,7.56,0,0,1-.86-.52l.64-.61a6.46,6.46,0,0,1,.54.75C362.52,344.3,362.22,344.63,362.17,344.61Zm5.24,5.51a1.13,1.13,0,0,1-.82-.53c-.1-.27.12-.66.23-1.13l1.17,1.11C367.8,349.77,367.57,350.15,367.41,350.12Zm9.12,2.55c-4.8-4.44-9.52-9-14.46-13.23-1.91-1.65-1.08-4.78-4.19-5.93-1.91-.7-3.15-3.29-4.63-5.09-1.06-1.3-1-1.56.63-4.47,8.49,10.14,16.52,20.51,27.73,28.66C379.27,353.91,377.87,353.91,376.53,352.67Zm3.81-5.07a38,38,0,0,0-5-4.19c-2.89-2.35-6.31-4.21-7.26-8.33-.19-.83-1.16-1.58-1.94-2.15-7.86-5.79-12.35-14.05-16.58-22.5-.14-.28.09-.74.2-1.43,3.66,1.18,4.08,5,6.13,7.32s3.89,5.06,5.94,7.51,4.46,5.07,6.73,7.58c2.15,2.36,4.23,4.8,6.54,7s5.13,4.4,7.65,6.66c2.33,2.08,4.58,4.26,6.86,6.4A11.21,11.21,0,0,1,380.34,347.6Zm8.11-1.8c-4.32-3.4-8.29-7.23-12.52-10.75-5.41-4.51-9.67-10-14.13-15.42-6.27-7.58-10.82-16.11-15.14-24.86-1.76-3.57-1.38-7.15-1.32-10.73,6.88,12.37,13.57,24.5,22.1,35.6s18.51,20.58,29.29,30.9C392.49,350,390.62,347.52,388.45,345.8Zm15.06-12.38a16.41,16.41,0,0,1-2.58-2.32c-3.05-4.12-6-8.33-9-12.47-2.57-3.51-5.69-6.71-7.75-10.49-5.61-10.3-11.22-20.65-16.05-31.33-6.74-14.95-10.92-30.73-13.75-46.9a249.15,249.15,0,0,1-3.32-59,310.69,310.69,0,0,1,9.76-60.15,369.53,369.53,0,0,1,18.1-51.33,24.24,24.24,0,0,1,7.93-10.34c-.28,1.61-.21,2.67-.65,3.43-3.87,6.77-5.88,14.23-8.12,21.61-1,3.42-2.31,6.77-3.54,10.12-6.36,17.23-9.73,35.2-13,53.18A186.89,186.89,0,0,0,359,160.52c-.64,11.74-1.23,23.51-.92,35.25a237,237,0,0,0,8.16,54.85,229.6,229.6,0,0,0,14.32,39.89c6.33,13.27,13.06,26.35,21.86,38.23a27.81,27.81,0,0,1,2.07,4Zm3.05,5a14.17,14.17,0,0,1-.76-2.34c0-.13.94-.63,1.19-.49a1.91,1.91,0,0,1,.94,1.31C408,337.24,407.3,337.63,406.56,338.41Zm8.05.19,0-.34,2.38.65Zm5.11.16c-1.59-2.8-3.09-5.68-6-7.76-2.12-1.54-3.47-4.26-4.85-6.64-6.74-11.66-14-23-19-35.67-8.24-20.7-14-42-16.3-64.11A343.75,343.75,0,0,1,374,154c3.33-32.18,11.27-63.23,21.2-93.85,3.19-9.84,7.33-19.37,11.15-29,.26-.66,1.54-.91,3.71-2.09-1.57,5.4-2.7,9.35-3.85,13.29-3.35,11.45-6.93,22.83-10,34.34-2.67,10-5.11,20.07-7.08,30.22-2.38,12.31-4.48,24.68-6.12,37.11-1.54,11.64-2.75,23.37-3.3,35.1a309.31,309.31,0,0,0,.39,31.05c.52,9.92,1.54,19.84,2.79,29.7.93,7.31,2.34,14.58,3.95,21.78a217.77,217.77,0,0,0,13.38,39.48,157,157,0,0,0,10.59,19.38c4.25,6.88,9,13.43,13.84,20.52C422.38,341.17,421,340.94,419.72,338.76Zm10.2,1.33c-10.74-9.69-17.79-21-24-33-12.65-24.48-19.06-50.71-22-77.91a337.68,337.68,0,0,1-1.23-55.08,473.4,473.4,0,0,1,8.65-65.85,646.31,646.31,0,0,1,19.78-74A31,31,0,0,1,413,30.4c2.64,1.05,3,2.65,2.35,4.87-1.42,5-2.95,9.91-4,14.95-3.9,18.1-8.1,36.14-11.31,54.36-4.34,24.55-7.35,49.31-7.57,74.3-.12,13.54,0,27.11.7,40.64.47,9.13,2.07,18.22,3.29,27.3a235.26,235.26,0,0,0,12.1,48.08c5.46,15.16,12.21,29.75,21.43,43.07C430.07,338.22,429.92,338.68,429.92,340.09ZM428,330.5c-3-5.62-6.52-11-9.15-16.83a246.6,246.6,0,0,1-16.79-49.78c-5.83-26.92-7.63-54.14-7-81.52a490.51,490.51,0,0,1,4.54-57.25c2.53-18,5.52-35.85,9.54-53.55,2.31-10.19,4.78-20.33,7.21-30.49.39-1.66.41-3.57,2.31-4.47,1.91,1.15,1.55,2.76,1.25,4.3-2.3,11.72-5,23.38-6.86,35.17-2.64,16.5-5.21,33.05-6.85,49.67a590.48,590.48,0,0,0-2.69,73.47c.32,12.39,1.72,24.64,2.7,36.93.68,8.7,3,17.25,4.29,25.91,2.09,13.88,6.49,27.12,10.62,40.45,3.08,9.92,7.34,19.32,11.7,28.71a13.6,13.6,0,0,1,.63,2.3C430.53,333.9,429.11,332.56,428,330.5Zm7,7.66a3,3,0,0,1-.23-1.11c0-.18.52-.27.81-.4l.42,1.1Zm2.32-6.54c-1.06-1-2.14-1.55-2.55-2.43-4.36-9.6-9.18-19-11.67-29.39-1-4.22-3.17-8.17-4.23-12.39-2.19-8.7-4.18-17.46-5.91-26.25-1.58-8-2.89-16.09-4-24.17a305.25,305.25,0,0,1-3-40c-.05-13.18-.24-26.38.34-39.55s1.78-26.25,3.17-39.33c2.14-20.25,5.49-40.34,9.45-60.31q1.58-7.92,3.2-15.82c.36-1.69,1-3.15,3.71-2-1.45,8.79-3,17.36-4.25,26-3,20.82-5.65,41.67-6.72,62.73-.62,12.33-1.65,24.65-1.61,37,0,14,.25,27.95,1.21,41.87a473.31,473.31,0,0,0,6.5,54.57c4,21.37,8.93,42.45,16,63a22.81,22.81,0,0,1,.91,4.09A8.21,8.21,0,0,1,437.33,331.62Zm-2-19.57c.17-4.84-2.92-8.5-3.79-12.9s-2.22-8.43-3.1-12.69c-2.4-11.72-5-23.42-6.91-35.22a390.59,390.59,0,0,1-4.68-47.06q-.58-15.56-.66-31.13c-.06-10-.18-20,.39-29.94q1.28-22.12,3.55-44.17c1.3-12.7,3.14-25.34,4.91-38,.91-6.5,2.18-13,3.38-20h5a5,5,0,0,1,.4,1.62c-1.45,12.47-3,24.93-4.4,37.4-1,9.1-2,18.21-2.81,27.33-.92,10.92-1.81,21.84-2.28,32.78-.51,11.94-.7,23.9-.73,35.85q0,19.46.53,38.92c.23,7.37,1.09,14.71,1.72,22.06.47,5.57.94,11.13,1.54,16.69,1.53,14,3.08,28.06,6.63,41.78a132.12,132.12,0,0,1,4,22.24C437.06,315.78,435.27,313.88,435.34,312.05Zm7.22,1.69c-2.15-1.2-2.39-3-2.73-4.67-3.32-16.15-7.49-32.15-9.1-48.6-1.31-13.3-2.31-26.63-3.41-40-1.81-21.95-1.1-43.94-.78-65.91.14-9,1.09-17.91,1.64-26.87.47-7.57.69-15.16,1.37-22.71,1.06-11.73,2.39-23.44,3.66-35.15.79-7.33,1.66-14.66,2.54-22A28.73,28.73,0,0,1,436.81,42c.36-1,1.62-1.78,3.57-2.19,0,1.89.12,3.79,0,5.66-.88,11.72-1.92,23.42-2.7,35.15-1.13,17.1-2.07,34.22-3.13,51.33-1.63,26.33-1.29,52.68-.81,79q.28,15.21,1.49,30.39,1.94,24.44,4.52,48.83c.66,6.29,2.15,12.5,3.12,18.76A23.47,23.47,0,0,1,442.56,313.74Zm1,3.81-.43-1,.72-.38c.05.17.18.36.14.49A7.66,7.66,0,0,1,443.59,317.55Zm5.19-230.28v1.17l-.7-.76Zm0,4.62v70.78c0,24.18-.6,48.34-.82,72.51,0,3.8-.1,7.75-1.76,11.17-1.94-32-1.56-64-1.56-96.08,0-5.53.81-22.53.89-25.49.25-9.35.58-18.7,1.07-28C446.7,94.89,447.17,93,448.78,91.89ZM446.62,41c-.26,7.14-.79,14.27-1.15,21.4-.59,11.74-1.13,23.48-1.69,35.22-.4,8.35-1,16.69-1.14,25-.33,28.23-.61,56.47-.58,84.7,0,13.52.6,27,1.24,40.54.51,10.71,1.44,21.4,2.27,32.09.54,7.12,1.27,14.22,1.78,21.34.06.87-.7,1.8-1.53,3.77a25.08,25.08,0,0,1-1.43-3.75c-2.87-18.86-5.85-37.71-6.52-56.82-.6-17.36-1.23-34.71-1.71-52.08-.19-6.77,0-13.56,0-20.34,0-28,1.25-55.91,3.29-83.81.83-11.34,1.13-22.74,2.65-34,.88-6.57.06-13.5,3.33-20.5C446.87,36.54,446.69,38.89,446.62,41Zm-15.6-25a22.13,22.13,0,0,1,2.72-1.72c3.81-1.78,6.42-1.24,8.33,2.62a4.31,4.31,0,0,0,3.46,2.54c-.31,2.58-.57,4.68-.86,7.13-4.57.84-7.71-3-11.62-4.36C430.94,21.53,430.72,18.76,431,16.07Zm-.31,9.11c1.41,1.63,2.55,2.92,3.84,4.4-.43,1.56-.88,3.23-1.29,4.75a14.61,14.61,0,0,1-13-1.09c-2.57-1.51-3.43-2.52-5.34-7.62C420.48,28.15,425.82,30.75,430.71,25.18ZM409.33,10.39c6.31-1.24,10.13,2.38,14.25,5a5.64,5.64,0,0,1,2.32,3.29c.26,1.39-.37,2.94-.65,4.59l-5.76,1.81C415.13,20.94,408.39,18.58,409.33,10.39Zm-11.07,1.53A31.73,31.73,0,0,1,410.55,24.3c-5.18,1.54-9.25.29-12.05-3.56C395.86,17.12,395.79,15.31,398.26,11.92Zm-.08,18.74a32,32,0,0,1,2.92-4.3l3.29,2.07c-1.27,3.53-2.49,6.86-3.66,10.21-2.82,8-5.75,16-8.38,24.15-3.26,10-6.65,20-9.28,30.24-3.18,12.35-6.06,24.82-8.26,37.38-2.1,12-3.59,24.05-4.56,36.15-1.66,20.51-1.52,41.05,1.51,61.47,1.05,7.09,2.14,14.18,3.41,21.24,2.71,15,8.15,29.15,13.76,43.22a189.41,189.41,0,0,0,18.14,34.12c1.2,1.83,2.68,3.48,3.92,5.29a4,4,0,0,1,.55,2.61c-2.46-2.78-5.41-4.91-6.85-8.61-1-2.65-3.56-4.71-5.34-7.08-8.91-11.84-15.08-25.19-20.79-38.7a231,231,0,0,1-15.51-56.89c-.88-6.07-1.25-12.21-1.74-18.33-.42-5.37-.92-10.74-1-16.11a323.76,323.76,0,0,1,9.11-77.68C376,83.21,386,56.53,398.18,30.66Zm-6.26-13.61a2.85,2.85,0,0,1,.29.4c-.27.27-.56.5-.85.75l-.44-.66Zm-4.29,9.43a16.75,16.75,0,0,1,5.65-3.85C351.52,76.94,315.71,134.88,284,196.15c-2.54-2.88-.7-4.53,0-5.83,9.41-18.71,18.84-37.41,28.62-55.93a541.28,541.28,0,0,1,37.64-61.14c7.25-10.18,14.81-20.15,22.54-30C377.4,37.42,382.57,32,387.63,26.48Zm-3.27-2.62.7.62-1.68,2.07-1-1ZM52,83.11c9.2,2.58,18.38,5.24,27.66,7.53,16.63,4.11,33.4,7.52,50.5,9.17,13.13,1.27,26.27,2.53,39.41,1.77,14.73-.85,29.42-2.53,44.08-4.26,5.3-.62,10.41-2.65,15.69-3.62a133.26,133.26,0,0,0,22.41-6.09c7.79-2.88,15.83-5.22,23.33-8.73a357.09,357.09,0,0,0,31.82-16.61c14.63-8.72,28.87-18.17,41.95-29.13,8.83-7.41,17-15.63,25.51-23.41,2-1.8,3.44-4.48,7.69-4.46a26.37,26.37,0,0,1-1.21,3.21C377.07,15,371.64,20,366.26,25.09s-10.53,10.36-16.25,15c-8.36,6.77-16.83,13.5-25.81,19.4C314.07,66.14,303.34,71.9,292.82,78a175.27,175.27,0,0,1-28.39,12.65,312.15,312.15,0,0,1-45.51,12.54,273.84,273.84,0,0,1-65.56,4.6A257.81,257.81,0,0,1,107.69,102c-10.49-2.38-21-4.64-31.43-7.33-6.55-1.69-12.91-4.1-19.35-6.17-3-1-6-1.9-9.32-2.93C48.18,82.77,49.68,82.48,52,83.11ZM43.18,29c-.2.25-.4.51-.59.77l-.46-.69Z"/></g></g></svg>