<svg xmlns="http://www.w3.org/2000/svg" xmlns:xlink="http://www.w3.org/1999/xlink" viewBox="0 0 511.49 496.52"><defs><style>.cls-1{fill:url(#linear-gradient);}.cls-2{fill:url(#linear-gradient-2);}.cls-3{fill:url(#linear-gradient-3);}.cls-4{fill:url(#linear-gradient-4);}.cls-5{fill:url(#linear-gradient-5);}.cls-6{fill:url(#linear-gradient-6);}.cls-7{fill:url(#linear-gradient-7);}.cls-8{fill:url(#linear-gradient-8);}.cls-9{fill:url(#linear-gradient-9);}.cls-10{fill:url(#linear-gradient-10);}.cls-11{fill:url(#linear-gradient-11);}.cls-12{fill:url(#linear-gradient-12);}.cls-13{fill:url(#linear-gradient-13);}.cls-14{fill:url(#linear-gradient-14);}.cls-15{fill:url(#linear-gradient-15);}.cls-16{fill:url(#linear-gradient-16);}.cls-17{fill:url(#linear-gradient-17);}.cls-18{fill:url(#linear-gradient-18);}.cls-19{fill:url(#linear-gradient-19);}.cls-20{fill:url(#linear-gradient-20);}.cls-21{fill:url(#linear-gradient-21);}.cls-22{fill:url(#linear-gradient-22);}.cls-23{fill:url(#linear-gradient-23);}.cls-24{fill:url(#linear-gradient-24);}.cls-25{fill:url(#linear-gradient-25);}.cls-26{fill:url(#linear-gradient-26);}.cls-27{fill:url(#linear-gradient-27);}.cls-28{fill:url(#linear-gradient-28);}</style><linearGradient id="linear-gradient" x1="1411.22" y1="-334.98" x2="1922.71" y2="-334.98" gradientTransform="translate(1922.71 -86.72) rotate(180)" gradientUnits="userSpaceOnUse"><stop offset="0" stop-color="#f2ae86"/><stop offset="0.11" stop-color="#f6d5d1"/><stop offset="0.34" stop-color="#e88e85"/><stop offset="0.71" stop-color="#f2ae86"/><stop offset="0.88" stop-color="#e88e85"/></linearGradient><linearGradient id="linear-gradient-2" x1="1885.3" y1="-578.83" x2="1899.1" y2="-578.83" xlink:href="#linear-gradient"/><linearGradient id="linear-gradient-3" x1="1921.68" y1="-426.62" x2="1922.71" y2="-426.62" xlink:href="#linear-gradient"/><linearGradient id="linear-gradient-4" x1="1905.68" y1="-581.21" x2="1910.7" y2="-581.21" xlink:href="#linear-gradient"/><linearGradient id="linear-gradient-5" x1="1885.88" y1="-581.74" x2="1889.68" y2="-581.74" xlink:href="#linear-gradient"/><linearGradient id="linear-gradient-6" x1="1919.62" y1="-397.64" x2="1922.71" y2="-397.64" xlink:href="#linear-gradient"/><linearGradient id="linear-gradient-7" x1="1916.53" y1="-309.06" x2="1921.7" y2="-309.06" xlink:href="#linear-gradient"/><linearGradient id="linear-gradient-8" x1="1917.66" y1="-318.86" x2="1921.31" y2="-318.86" xlink:href="#linear-gradient"/><linearGradient id="linear-gradient-9" x1="1885.92" y1="-574.56" x2="1901.45" y2="-574.56" xlink:href="#linear-gradient"/><linearGradient id="linear-gradient-10" x1="1916.67" y1="-527.04" x2="1919.19" y2="-527.04" xlink:href="#linear-gradient"/><linearGradient id="linear-gradient-11" x1="1913.75" y1="-546.86" x2="1916.79" y2="-546.86" xlink:href="#linear-gradient"/><linearGradient id="linear-gradient-12" x1="1912.96" y1="-534.79" x2="1914.76" y2="-534.79" xlink:href="#linear-gradient"/><linearGradient id="linear-gradient-13" x1="1903.13" y1="-577.88" x2="1905.76" y2="-577.88" xlink:href="#linear-gradient"/><linearGradient id="linear-gradient-14" x1="1901.17" y1="-576.6" x2="1903.26" y2="-576.6" xlink:href="#linear-gradient"/><linearGradient id="linear-gradient-15" x1="1915.57" y1="-373.59" x2="1921.58" y2="-373.59" xlink:href="#linear-gradient"/><linearGradient id="linear-gradient-16" x1="1892.17" y1="-431.58" x2="1895.74" y2="-431.58" xlink:href="#linear-gradient"/><linearGradient id="linear-gradient-17" x1="1823.08" y1="-499.18" x2="1841.72" y2="-499.18" xlink:href="#linear-gradient"/><linearGradient id="linear-gradient-18" x1="1814.99" y1="-486.67" x2="1826.71" y2="-486.67" xlink:href="#linear-gradient"/><linearGradient id="linear-gradient-19" x1="1820.47" y1="-529.69" x2="1833.73" y2="-529.69" xlink:href="#linear-gradient"/><linearGradient id="linear-gradient-20" x1="1847.57" y1="-552.22" x2="1854.75" y2="-552.22" xlink:href="#linear-gradient"/><linearGradient id="linear-gradient-21" x1="1830.57" y1="-454.14" x2="1834.69" y2="-454.14" xlink:href="#linear-gradient"/><linearGradient id="linear-gradient-22" x1="1841.56" y1="-542.21" x2="1844.73" y2="-542.21" xlink:href="#linear-gradient"/><linearGradient id="linear-gradient-23" x1="1844.58" y1="-546.22" x2="1847.74" y2="-546.22" xlink:href="#linear-gradient"/><linearGradient id="linear-gradient-24" x1="1807.14" y1="-495.68" x2="1824.72" y2="-495.68" xlink:href="#linear-gradient"/><linearGradient id="linear-gradient-25" x1="1829.7" y1="-493.17" x2="1845.73" y2="-493.17" xlink:href="#linear-gradient"/><linearGradient id="linear-gradient-26" x1="1799.83" y1="-491.18" x2="1820.72" y2="-491.18" xlink:href="#linear-gradient"/><linearGradient id="linear-gradient-27" x1="1810.55" y1="-543.21" x2="1826.72" y2="-543.21" xlink:href="#linear-gradient"/><linearGradient id="linear-gradient-28" x1="1792.94" y1="-494.18" x2="1814.04" y2="-494.18" xlink:href="#linear-gradient"/></defs><title>Asset 5</title><g id="Layer_2" data-name="Layer 2"><g id="Layer_1-2" data-name="Layer 1"><path class="cls-1" d="M0,78.22l2.13-1.44c7.7,5.75,14.37,12.89,22.13,20.15C25.2,92.49,26,89,26.65,85.5c1-5.06,1.45-10.24,2.73-15.21,2.16-8.36,4-16.83,8.41-24.48C42.26,38,48.76,33,57.52,31.07c6.65-1.46,13.34-2.78,20.07-3.82,7.86-1.21,13.2-5.81,17.6-12,2.22-3.12,4.52-6.19,7-9.11,4.22-5,9.9-7.15,16.1-5.69,4.08,1,8,3.37,11.54,5.7,6,3.95,10.85,9.3,15.36,14.91a204.52,204.52,0,0,1,35.81,67c.8,2.52,1.63,5,2.51,7.76,2.5-.4,3.88-2.14,5.46-3.47a125.15,125.15,0,0,1,33.89-20.81c13.28-5.39,26.83-9.91,41.23-11.39,7.43-.76,14.8-2.42,22.25-2.81,16.8-.88,33.51,8.06,40.56,25.79,1.54,3.86,3,7.78,4.61,11.59a48.37,48.37,0,0,0,3.17,5.66c2.81,4.63,7.21,6.28,12.33,6.1a57.33,57.33,0,0,0,7.86-1.24c4.57-.84,9.11-1.83,13.69-2.56a28.92,28.92,0,0,1,14.25,1.59c8.33,2.92,12.28,9.42,13.12,17.8a52.83,52.83,0,0,1-.42,12.43c-1.31,9.21-2.78,18.4-5.78,27.3a124.79,124.79,0,0,1-23.46,41.48c-1.14,1.34-2.85,2.42-2.54,4.82,2.44.25,4.88.65,7.33.75,15.47.66,29.73,5.42,43,13.1a76.55,76.55,0,0,1,28.21,27.7,71.6,71.6,0,0,1,10.27,37.49,221.63,221.63,0,0,1-4.64,43.61c-1.49,7.19-3.93,14.13-8.48,20.11a17.58,17.58,0,0,0-1.16,2.23c3.56,1.57,7,3.14,10.44,4.58,12.67,5.26,24.59,11.87,35.06,20.78,4.53,3.86,8.48,8.44,12.49,12.88a15,15,0,0,1,2.81,5.22c3.58,10.69,5.63,21.6,3.52,32.88A103.78,103.78,0,0,1,499.61,440c-.72,2.38-1.69,4.7-2.36,7.09-1.17,4.17.21,7.51,3.66,10,1.75,1.27,3.61,2.38,5.4,3.59,5.8,4,6.64,8,2.95,14a42.85,42.85,0,0,1-10.81,11.64c-3.83,2.91-7.9,5.52-11.84,8.3-.8.56-1.51,1.24-2.26,1.87h-14l-.58-1.69-2.42,1.69h-6c2-1.28,4-2.7,6.14-3.8,5.57-2.89,11.25-5.59,16.82-8.5a30.17,30.17,0,0,0,4-3c-8.59,3.62-16.95,7.44-25.25,11.38-2.32,1.1-4.47,2.58-6.7,3.88h-6c1-.67,1.9-1.38,2.89-2,1.66-1.06,3.35-2.06,5-3.08l1.34-.15-.34-.57-.91.82c-4.44.62-8,3.23-12,5h-7c2.09-2.54,5.43-2.18,8.07-3.47,10.61-5.15,21.3-10.13,31.9-15.31,4.9-2.39,9.65-5.06,14.44-7.68a15.46,15.46,0,0,0,2.3-1.94,3.22,3.22,0,0,0-2.53.32c-6.16,3.21-12.23,6.63-18.5,9.62-10.5,5-21.12,9.73-31.68,14.59-2.69,1.24-5.34,2.58-8,3.87h-7c.32-.57.63-1.14,1.23-2.23l-5.23,2.23h-7l2-1.26-.8-1-4.24,2.29h-63c-.76-2.39-2.9-2.27-5.5-3.43l2.49,3.43h-5l-2.41-.29c-.47-.73.74-2.33-1.25-2.41l1.23,2.4.37-.06.06.36h-5c-.1-.29-.12-.69-.32-.86-7.31-6.11-14.53-12.34-22.42-17.72-2.32-1.57-4.61-3.18-6.92-4.75-2.12-1.22-4.22-2.46-6.32-3.69-1.33-1.62-2.78-3-5.08-2.94,0-.16,0-.39-.09-.48-3.94-3.48-8.7-5.54-13.42-7.66-.12-.05-.31.06-.47.09l-2-1-3.28-1.89c.67,1.72,2,1.81,3.37,1.78l2,1.07c-.57,1.25.26,1.9,1.15,2.36,2.33,1.19,4.68,2.35,7.08,3.4,1.91.83,3.89,1.48,5.84,2.21-.46,1.61.25,2.42,1.8,2.61,1.08.14,2.17.23,3.25.34,1.93,3.93,2.59,4.31,6.37,3.67-.64,1.11-.79,1.94.48,2.93,4.83,3.8,10.58,6.44,14.42,11.51a3.37,3.37,0,0,0,2.49,1.4c2.4-.46,2.76,1.15,3.38,2.7a2.25,2.25,0,0,0,2.21,1.51c2,.2,2.07,1.78,1.55,3.4h-2A292,292,0,0,0,298,473c-2.09-1.36-3.68-4.06-6.8-3.59-.31-1.16-1.07-1.24-2-.87l-1.35-2.88-2.67-.16-.67-.78-.3.32,1.07.34c.69,1.78,1.63.95,2.56.25-.65,1.53-.57,2.68,1.47,2.8-.07,2,.87,1.64,2,.86.94,2.28,2.95,3.4,4.83,4.77,5.16,3.75,10.27,7.57,15.23,11.58,1.46,1.18,2.13,2.92,4.63,3.05,1.76.1,1.55,3.51,4,4.27,1.32.4,2.18,2.3,3.24,3.52h-4a12,12,0,0,0-1.84-2.63c-3.78-3.12-7.63-6.14-11.5-9.14a16,16,0,0,0-2.56-1.36c-.43-.53-.85-1.06-1.27-1.6l-.58.68,2,.78c1.77,2.38,3.1,5.4,5.41,7a36.54,36.54,0,0,1,7.36,6.3h-4c-.45-.65-.89-1.3-1.62-2.38-.2,1.21-.29,1.8-.38,2.38h-15c0-3-1.72-4.51-4.57-4.8-1.82-.18-3.65-.26-5.48-.3-6.79-.13-13.59-.15-20.38-.34q-12.7-.36-25.4-.91c-12.61-.53-25.22-1.14-37.83-1.69a25.56,25.56,0,0,0-3.37.49c1.91.95,2.68,1.64,3.51,1.71q11.63.92,23.28,1.66c7.43.49,14.87.9,22.31,1.4,2,.14,3.92.56,5.9.68,7.26.44,14.52.78,21.78,1.23a7.93,7.93,0,0,1,2.24.87h-43a7.42,7.42,0,0,0-2.2-.92q-20.83-1.59-41.7-3.07c-6.45-.45-12.91-.78-19.36-1.18-1-.06-2-.19-3.78-.37,1,1,1.24,1.59,1.57,1.63,7.78.82,15.58,1.53,23.35,2.4,2.39.27,4.73,1,7.09,1.51h-29c-2-1.31-4-1.86-6,0h-20c-3.45-1.3-5.44-1.3-8,0h-33c-.46-.25-.92-.51-1.39-.74-.62-.3-1.26-.58-1.89-.87H97l.1.64,2.74-.63c-.24.54-.48,1.07-.73,1.6h-19l5.2-2.4a32.79,32.79,0,0,0-7.82.82,34.41,34.41,0,0,0-4.39,1.58h-6l5.65-3.75c-1.29-.6-2.68-.82-2.87-1.42-.73-2.28-2.21-2.11-3.9-1.57q-8.22,2.61-16.41,5.31A14.81,14.81,0,0,0,47,496.52H40c1.44-1.33,2.9-2.65,4.33-4A29.11,29.11,0,0,0,53,477.3c.1-.42-.48-1-.91-1.83l-2.52,3.36a19.4,19.4,0,0,1,1.11-4.71c.47-1.59.93-3.24-.69-4.55.13-.22.26-.45.38-.68-.08.27-.17.54-.25.81-.83.95-1.67,1.89-2.1,2.39a23.13,23.13,0,0,1-2.51-1,25,25,0,0,1-2.11-1.38c-5.52,2-11,3.89-16.42,5.93a66.73,66.73,0,0,0-7.28,3.25c-4.62,2.39-8.83,5.26-11.3,10.14a20.13,20.13,0,0,1-2.86,3.41c-1.36-3.59-1.42-4.49.25-8.48,1.8-4.28,3.82-8.46,5.74-12.68,2.92-6.41,5.09-12.94,3.34-20.12a7.88,7.88,0,0,0-.4-.89c-.39,1.48-.64,2.44-1.19,4.56-.59-3-1.09-4.76-1.26-6.56-.25-2.55-1.82-3.3-4-3.4H8c.27-1.39,1.18-3.08.69-4.11-.94-2-.88-4-.87-6.22l-1.87.86.11.08c-.85.1-2-.11-2.5.37A44.66,44.66,0,0,0,0,440.48v-7c1.62-2.64,1.62-3,0-5v-3l3.09,3.25,2.18-3.17L0,415.46v-3c1.85,3,3.69,6,5.65,9.14l2.71-3.22L0,403.45v-3c4.27,7,8.56,13.95,11.15,21.79a8.93,8.93,0,0,0,1,1.6c1,1.69,2.1,3.34,3,5.09,1,2,1.88,4.2,2.94,6.25.19.35,1.05.35,1.6.52a9.41,9.41,0,0,0-.47.88,1.27,1.27,0,0,0,0,.48c.12-.14.29-.27.34-.43a7,7,0,0,0,.18-.91c-.24-1.89-.16-3.89-.79-5.64-1-2.76-2.5-5.34-3.72-8-2.19-4.84-4.31-9.7-6.5-14.55S2.67,398.92.81,394c-.09-.24-.53-.34-.81-.5v-5a14.72,14.72,0,0,0,1.05-3.66c.14-5.48.11-11,.12-16.44,0-5.08,0-10.17,0-15.26.86,2.78.59,5.6.91,8.34.73,6.2,1.11,12.35.11,18.58a27.65,27.65,0,0,0,0,7.92c.32,2.39,1.07,4.92,4.87,5,.06-4.44.13-8.87.18-13.29A306.64,306.64,0,0,0,5.46,340.4c-.63-5.26-1.31-10.51-2-15.76.47.69,1.21,1.32,1.33,2.05.54,3.26.91,6.54,1.35,9.82a104.11,104.11,0,0,1,1.36,12.14c.07,3.4.67,6.83.63,10.3,0,3.29.59,6.58.63,9.87q.12,10.32-.11,20.64a44.3,44.3,0,0,1-1.11,6.35l3.65,2.74c.26-1.95.54-3.2.58-4.46.21-6.64.5-13.28.49-19.92s-.34-13.28-.55-19.93c-.16-5.47-.35-10.93-.53-16.4.86,6.71,2.33,13.41,2.44,20.13.22,13.1-.4,26.22-.47,39.33,0,2.76-.2,6,3.48,7.38a10.83,10.83,0,0,0,.43-1.51c1.62-12.21,1.07-24.5,1.17-36.75A201.86,201.86,0,0,0,16.64,337c-.09-.68-.5-1.78,1-1.47.91,8,2.37,16,2.16,24.16-.23,8.95,0,17.91-.2,26.86-.16,7.06-.65,14.11-1.1,21.16-.11,1.75.18,2.93,2.22,3.26A8.85,8.85,0,0,0,22,408.4c.75-6.58,1.69-13.17,1.95-19.77.38-9.44.27-18.91.27-28.36,0-3.82-.1-7.65-.42-11.46-.48-5.78-1.19-11.55-1.8-17.33.63,2.18,1.62,4.31,1.85,6.52,1.33,12.64,2.78,25.23,2.25,38-.45,10.76-1.85,21.39-2.73,32.08-.39,4.82-2.36,9.73.51,14.44.24.35.46.72.69,1.08.06-.14.19-.41.18-.42-.33-.19-.67-.35-1-.52.91-2.45,2.23-4.82,2.66-7.35,1.22-7.19,2.16-14.43,3-21.67.58-4.77,1-9.58,1.17-14.38.14-5.46,1-11-.41-16.39a5.72,5.72,0,0,1,0-2,16,16,0,0,1,.44-1.94,3.12,3.12,0,0,1,1.12,2.38c0,9.41.44,18.85-.17,28.23a249.31,249.31,0,0,1-3.51,25.59c-.88,5.21-2.45,10.31-3.72,15.45-1.4,5.61-2.68,11.26-4.26,16.82a42.72,42.72,0,0,0-2.14,11.17c0,1.7-1,3.39-1.54,5.09v2.39l.51-.07c-.17-.78-.33-1.55-.49-2.33.47,0,1.27.12,1.36-.07,1.59-3.44,3.23-6.87,4.57-10.41,1.4-3.72,2.49-7.57,3.75-11.35a166.06,166.06,0,0,0,6.63-27.58,267.73,267.73,0,0,0,2.88-36.25c.18-13-1.29-25.79-2.9-38.61a80.86,80.86,0,0,0-2-9.75c-.5-1.95-1.13-4.17-3.79-3.7v7.36l.14-.11c-1-2.59-1.91-5.2-3-7.73-.23-.51-1.18-.7-1.9-1.1v7.25c-1.92-.94-1.16-2.92-1.71-4.39-.92-2.45-2.36-4-5.33-4.21.9,4.48,1.7,8.51,2.5,12.52-.71-1.64-1.5-3.24-2.1-4.92-.49-1.38-.77-2.85-1.14-4.28-.65-2.48-2.28-3.72-5-4.09.67,5.41,1.3,10.54,1.92,15.66a20.15,20.15,0,0,1-1.13-2.64c-1.05-3.92-2-7.87-3.09-11.77a2.36,2.36,0,0,0-1.59-1.46c-1.28-.17-1.58.78-1.46,1.93,0,.22-.32.48-.5.72-2-.55-2.18-2.15-2.32-4.19l5.17-1.84c-.65-1.13-1.21-2.06-1.72-3-.59-1.11-1.13-2.26-1.7-3.39l7.17,7.15,5-.53c-4.52-7.13-10-12.65-15.13-18.53v-1c.33-.31,1-.63.94-.93-.07-2,1.18-2.48,2.75-2.67a1.71,1.71,0,0,0-.06,2.63q11.54,11.54,23.09,23c1.13,1.12,2.49,1.5,4.38-.2-3.92-4.54-7.46-9.2-12.56-12.33A65.16,65.16,0,0,1,3.6,295.82a1.3,1.3,0,0,1-.49-.05c-.13-.06-.2-.24-.3-.36l2.43-1.64c5.25,3.73,9.69,8.25,15.46,10.91-4-4.29-8.17-8.31-12.24-12.44-.71-.72-.89-2-1.32-3l-.1.1c.48.1,1.1,0,1.41.32,3.22,2.86,6.38,5.77,9.56,8.66q9,8.17,18.12,16.31A14.92,14.92,0,0,0,38.29,316l.66-.73a34.62,34.62,0,0,0-2.65-3.24c-4-3.87-8.09-7.66-12.13-11.49-1.55-1.48-3-3-4.59-4.49Q9.8,286.71,0,277.36v-1a7.42,7.42,0,0,1,2.67.75c1.16.9,2,2.21,3.07,3.23,9.59,9.19,19.15,18.41,28.85,27.48,4,3.7,8.28,7.05,12.43,10.56l2.19.86c-.25,1.15-.19,2.12,2,2.39l-2.06-2.28-2.17-.86c-.51-1.15-.7-2.72-1.57-3.38-2.91-2.21-5-5.11-7.6-7.62-4.93-4.85-10-9.57-14.6-14.72-6.51-7.22-13.53-14-20.3-21a16.49,16.49,0,0,1-1.7-2.51,8.65,8.65,0,0,1,4,2.18q16.92,17.31,33.77,34.69c4.16,4.26,8.34,8.5,12.69,12.56,1.3,1.21,2.52,3.28,5.23,2.35-6.41-6.72-12.67-13.3-18.94-19.85s-13-12.81-18.79-19.78S5.93,269.05,1.4,261a29.61,29.61,0,0,1,5.51,4.54c8.86,9.45,17.61,19,26.5,28.44,6.62,7,13.41,13.87,20.14,20.77,1,1,1.81,2.63,3.67,1.37-.46,3.25,2.08,4.13,4.68,6.31-2.29-4.6-2.29-4.6-4.81-6.18a56.53,56.53,0,0,0-3.41-4.82q-5.38-6.2-11-12.19c-6-6.38-11.37-13.25-17.51-19.5C18.84,273.29,13.25,266,7.43,259c-2.29-2.77-4.3-5.78-6.44-8.68a7.81,7.81,0,0,1,2,1.24c5,5.71,9.88,11.54,14.93,17.22q23.55,26.44,47.22,52.79a14.51,14.51,0,0,0,2.62,1.6,11.39,11.39,0,0,0-1-2.63c-3.3-4.05-6.67-8.05-10-12.07-1.47-1.77-2.91-3.56-4.37-5.34-2.84-3.44-5.72-6.84-8.52-10.31-2.39-3-4.61-6.07-7-9-4-4.85-8.19-9.58-12.24-14.42-3.62-4.31-7.11-8.74-10.74-13-4-4.69-8-9.28-12-14-.45-.54-.42-1.48-.61-2.24a70.74,70.74,0,0,1,9.13,9.39Q26.6,268.9,42.68,288.32c4.57,5.51,9,11.11,13.64,16.6,1.17,1.4,2.18,3.22,5.16,3.46a29.78,29.78,0,0,0-2.06-3.91c-3.06-4.09-6.2-8.13-9.35-12.15q-14-17.82-28-35.59c-4.85-6.11-9.85-12.11-14.69-18.23A29.06,29.06,0,0,1,5,234.29l-.09.08a13.28,13.28,0,0,1,2.75,2c4.17,4.95,8.32,9.93,12.34,15q17.64,22.29,35.15,44.69c6.15,7.85,12.15,15.82,18.26,23.71.81,1.06,1.48,2.48,3.66,2.53a9.29,9.29,0,0,0-.7-2.14C71.19,312.75,66,305.31,60.66,298c-7.07-9.59-14.3-19.07-21.5-28.57C31.25,259,23.29,248.61,15.38,238.17c-3.2-4.22-6.32-8.5-9.47-12.75l.27-.23c.59.27,1.35.39,1.73.84q2.89,3.39,5.63,6.92c8.22,10.66,16.53,21.27,24.61,32C50,280.86,61.74,296.86,73.57,312.76c1.43,1.92,3.13,3.63,4.71,5.43.09-5.51-4.24-8.61-6.52-12.78-2.37-4.32-5.59-8.18-8.41-12.27s-5.79-8.44-8.7-12.66-5.66-8.2-8.54-12.26-5.81-8.12-8.76-12.14-6-8-9-12-6.15-8.28-9.28-12.37S12.82,224,9.94,219.91C7.2,216,3.82,212.59,1.85,208.15c3.17,2,5.13,5.08,7.32,7.95,9.39,12.31,19,24.43,28.18,36.92,10,13.71,19.62,27.74,29.34,41.68,4.2,6,8.23,12.13,12.37,18.18.86,1.27,1.55,3,3.82,2.13a32.78,32.78,0,0,0-1.94-4.78c-3.53-5.82-7.06-11.64-10.83-17.31Q58.7,275.77,47,258.81c-5.75-8.34-11.6-16.63-17.68-24.74-9-12-18.18-23.76-27.26-35.65a10.23,10.23,0,0,1-1-2.44c30.33,35.49,56.81,73.63,81.46,113.59l2.35-2.7c-2-3.56-3.85-6.89-5.77-10.16s-3.94-6.54-5.9-9.82-3.9-6.57-5.87-9.84-3.93-6.54-5.95-9.78-4.1-6.46-6.2-9.66-4.22-6.36-6.35-9.54-4.21-6.37-6.41-9.49-4.54-6.13-6.78-9.21-4.45-6.18-6.69-9.26-4.48-6.21-6.81-9.25-4.72-6-7.15-9-5.29-5.59-7.34-8.77S2.42,187.76,1.41,184a24.21,24.21,0,0,1,5.14,4.43c6.08,7.47,12.18,14.93,18,22.6,12.77,16.88,25,34.19,36.34,52,1.7,2.66,3.34,5.37,5,8.09,4.77,8,9.45,16.07,14.3,24,2,3.19,3.31,6.82,6.25,9.6a24.56,24.56,0,0,0,2.25-1.4,6.76,6.76,0,0,0,1-1.46c-23.72-46.6-52.38-89.86-88.14-128.36,2.3.1,3.57,1.7,4.85,3,2.29,2.38,4.23,5.07,6.48,7.48a369.51,369.51,0,0,1,26.24,32.08,548.41,548.41,0,0,1,47.51,76.25c1.29,2.52,2.61,5,4,7.5.74,1.32,1.77,2,3.63.42-.9-1.79-1.84-3.64-2.76-5.51-4.69-9.5-8.85-19.3-14.17-28.44C67.07,248.85,57.37,231,45.31,214.62c-6.71-9.11-13.37-18.27-20.55-27-6.86-8.36-14.37-16.18-21.56-24.26a34.31,34.31,0,0,1-2.11-3,2.92,2.92,0,0,1,2.44.79c3,3.09,6,6.23,9,9.33,10,10.3,18.84,21.6,27.38,33.1a469,469,0,0,1,26.3,40.06c9.55,16,18.38,32.43,26.34,49.31.93,1.95,1.81,3.94,2.92,5.8.39.65,1.36,1,2.9,2-.39-2.22-.38-3.56-.86-4.69-2.07-4.9-4.15-9.8-6.46-14.59-5.2-10.77-10.29-21.59-15.88-32.15-5.37-10.14-11.22-20-17-30a313.39,313.39,0,0,0-24.61-35.71c-9.47-12-19.43-23.67-31-33.81a7.83,7.83,0,0,1-1.25-2.09,11,11,0,0,1,4.92,2.78,298.14,298.14,0,0,1,38.77,45c7.2,10.39,13.94,21.11,20.44,32a462.59,462.59,0,0,1,25.5,49.19c3.19,7.14,6.24,14.35,9.33,21.54.8,1.85,1.68,3.54,4.63,3.6-1.13-3.68-2-7.15-3.25-10.48-2.45-6.52-5-13-7.7-19.43-4.54-10.69-8.88-21.5-14-31.91-5.82-11.78-12.07-23.37-18.76-34.68a273.91,273.91,0,0,0-30.91-42.21,234.23,234.23,0,0,0-26.53-25.7,40.82,40.82,0,0,1-2.86-3,10.67,10.67,0,0,1,5.55,2.93A228.07,228.07,0,0,1,37,168.12a291.74,291.74,0,0,1,22.85,31.53,437.59,437.59,0,0,1,22.71,41.63c7.54,15.81,14.22,31.94,20.22,48.37,1,2.66,1.92,5.33,2.87,8,.59,1.65,1.62,1.94,3.23.9-1.6-5.79-2.92-11.75-4.89-17.48-5.14-14.92-10.65-29.68-17.13-44.1a353,353,0,0,0-22.12-41.88,242.52,242.52,0,0,0-38.49-47.59c-7.31-7-15.64-12.92-23.48-19.35a12.32,12.32,0,0,1-1.55-1.81,8.54,8.54,0,0,1,4.69,1.83,229.41,229.41,0,0,1,23.33,19.56C49.93,167.53,66,190.79,79,216.11a400.45,400.45,0,0,1,30.59,78c.26,1,.56,1.91.91,2.85s1.3,1.65,2.34,1.1a2.5,2.5,0,0,0,1.27-1.82,32.18,32.18,0,0,0-.92-6.4c-3.44-12.81-6.65-25.68-11-38.24a306.35,306.35,0,0,0-22-49.57A234.49,234.49,0,0,0,46.45,155.7,194.82,194.82,0,0,0,3.13,120.85,13.56,13.56,0,0,1,1,118.92c2.06-1.24,3.21.21,4.35.91a207.36,207.36,0,0,1,29.67,22C58,162.35,75.33,187,88.85,214.49a307.74,307.74,0,0,1,18.24,46.45c1.41,4.61,2.84,9.21,4.25,13.82a3.74,3.74,0,0,0,1.18-3c-1.2-6.51-2.11-13.12-4-19.46-2.52-8.59-5.54-17.06-8.8-25.41a256.44,256.44,0,0,0-23.14-45.79A215,215,0,0,0,58.08,156.4,183.32,183.32,0,0,0,29.8,129.78,187.93,187.93,0,0,0,3.39,112.9a13,13,0,0,1-2.26-2,2,2,0,0,1,2.09-.21,170.38,170.38,0,0,1,24.67,15.1,196.8,196.8,0,0,1,40.85,40.81C86,189.84,98.51,215.47,107.3,243c1,3.17,2.21,6.29,3.32,9.43,1.15-7-1.09-13.5-2.92-19.81A216.87,216.87,0,0,0,88,185.81c-10-17.56-21.88-33.69-36.88-47.48-15.19-14-32-25.22-51.08-33.09v-1a35.31,35.31,0,0,1,6.12,1.63,168.44,168.44,0,0,1,30.09,17.55,183.72,183.72,0,0,1,42.72,44.36,237.77,237.77,0,0,1,23.95,45.36,38.56,38.56,0,0,0,2.3,4.1c0,.42,0,.83,0,1.25l.59-.31-.75-.86a8,8,0,0,0,.37-2.72c-.55-2.4-1.3-4.75-2-7.1a162.09,162.09,0,0,0-10.2-25.45,156.82,156.82,0,0,0-16.68-25.39,168.32,168.32,0,0,0-23.6-24.82A179.51,179.51,0,0,0,28,113.77c-7.19-4.17-14.41-8.29-22.22-11.25a58.48,58.48,0,0,1-5.33-2.7c1.26-.45,1.74-.82,2.07-.71,13.19,4.14,24.56,11.93,36.7,18.37a26.52,26.52,0,0,0-3.48-4.64c-3.51-3.9-8.26-6-12.61-8.72A92.56,92.56,0,0,0,0,94.23v-3C4.34,93.78,15.19,97.74,18.9,98c-1.8-3.82-5.7-4-8.52-5.86s-6.83-2-9.08-5.06c1.51-1.68,3.71,1.39,4.81-1L0,81.22ZM258.33,253.47l2.68-.57,1.28-1.45a19.44,19.44,0,0,0,2.85-.7c8.82-3.43,17.49-7.34,26.47-10.28,13.89-4.55,28-8.57,42-12.57,6.54-1.86,13.22-3.33,19.91-4.57,5.54-1,11.18-1.51,16.79-2.16,6.11-.7,12.23-1.32,18.34-2,1.36-.15,2.72-.28,4.89-.5-2.11-1.85-3.78-1.59-5.34-1.49-5.28.32-10.59.43-15.81,1.13-11.19,1.52-22.41,2.95-33.47,5.17a234.9,234.9,0,0,0-41.57,12.11c-5.06,2-10.23,3.82-15.3,5.85-4.85,1.95-9.75,3.82-14.38,6.22-1.91,1-4.6,1.06-5.61,3.56-1.09.06-1.76.41-1.08,1.65l-2.59.68h-1.64c0,.24.11.49.17.73ZM91.91,73.51l-.39-.73.5.62.79,1.07Q92.36,74,91.91,73.51Zm3.9,4.35-.07,0,.31.28ZM42.4,99.47l.47-.52.09.82-.56-.29.12,3.64a4.64,4.64,0,0,0-1.55.51,12.17,12.17,0,0,0-1.51,1.82v2.43l.47-.07c-.16-.79-.31-1.58-.47-2.38,2.17.75,2.49-1,3.06-2.32ZM33.34,88.53c-.64.4-1.29.8-1.88,1.24,0,.52,0,1,.07,1.56l.38-.15c-.21-.5-.41-1-.62-1.48,1.21.42,1.72-.2,1.9-1.3.17-.38.33-.75.49-1.13l-.42,0C33.29,87.66,33.31,88.09,33.34,88.53ZM473.09,476.84c0-.35-.09-.7-.13-1-.09.09-.27.21-.25.25a6.8,6.8,0,0,0,.39.76l-2.9.68c-1.13.19-2.52-.05-2.86,2.12,1.11-.9,1.93-1.57,2.76-2.22Zm-194.28-16-1.05.29,1.09-.24c-.1.4-.21.8-.28,1.2,0,0,.21.11.33.16Zm-173-445.38c-.16-.85-.32-1.7-.47-2.55-.22-.55-.44-1.1-.65-1.65l-.59.38c.45.38.9.77,1.33,1.17l.46,2.58c.2.34.39.69.18.31C106.35,16,106.05,15.72,105.76,15.46ZM14.62,469.82c.33-.11.67-.23-.07,0,.63-.41.29-.19,0,0,.11.09.27.15.33.26s0,.24-.07.36C14.73,470.27,14.67,470.05,14.62,469.82Zm88.5-125.46c-.19-.22-.39-.64-.59-.63a3.29,3.29,0,0,0-1,.42,2.91,2.91,0,0,0,.83.34,2.63,2.63,0,0,0,.88-.24l.55.95.59-.39Zm101.77-40.47,2-1.05,2.91-1.06a11.23,11.23,0,0,1,1.64-1.07c13.95-5.84,27.81-11.9,41.89-17.42,13.78-5.41,27.77-10.26,41.67-15.36,15-5.5,30.23-10.3,45.61-14.57,14.88-4.13,29.9-7.78,44.94-11.3,7.26-1.7,14.7-2.64,22.07-3.87,4.71-.8,9.43-1.5,15.08-2.39a16.55,16.55,0,0,0-3.32-.61c-6.61.48-13.26.68-19.79,1.66-9.66,1.46-19.27,3.33-28.85,5.32-13.16,2.73-26.13,6.3-39,10.12-8.86,2.62-17.71,5.35-26.45,8.33-9.58,3.28-19.05,6.87-28.53,10.4-5,1.85-9.94,3.8-14.87,5.81-7.37,3-14.73,6-22,9.15-4.71,2-9.36,4.18-14,6.33-4.81,2.24-9.58,4.58-14.41,6.79-1.24.57-1.94,1.22-1.57,2.64-1,.32-2,.65-3,.95l-1.92,1.15-1.15,0ZM441.8,333.78c-1.41-.44-2.21.17-2.6,1.5-1.61-.45-2.41.69-3.33,1.67a41.61,41.61,0,0,1-3.12,3.11c-2.72,2.37-5.52,4.65-8.19,7.05-.35.31-.18,1.19-.32,2.43a51,51,0,0,0,5.23-3.85c3.41-3.3,7.77-5.7,9.91-10.22.76-.6,1.52-1.19,2.25-1.81.1-.39.19-.78.29-1.16l-.41.05C441.6,333,441.7,333.37,441.8,333.78ZM20.88,319.5c.21.2.4.4.62.58,0,0,.19-.13.29-.21l-1-.23c-.21-.69-.41-1.38-.62-2.06l-.73.36C19.9,318.46,20.39,319,20.88,319.5Zm402.86-76.7-1.53,1,.44.37a16.41,16.41,0,0,1,1.06-1.39l2,.55.05-.69Zm23.39,119.91c-.2-.35-.4-.7-.62-1a2.78,2.78,0,0,0-.4.2l1.14.7,1.57.48.06-.69ZM96.7,341.78l-1.42.08.16.4,1.35-.6c-.2,1.83.8,1.93,2.87,1.69C98.28,342.58,97.51,342.15,96.7,341.78ZM289.3,235.36l2.3-.56-.34-.67-1.84,1.36-1.09.34c.13.06.32.2.36.17A7.41,7.41,0,0,0,289.3,235.36Zm-6.16,215.2a10.35,10.35,0,0,0-.79-.84,2,2,0,0,0-.38.27l1.28.47c1.55,1.91,1.85,1.91,3.31,0-.59,1.89.05,2.8,2.22,2.61-.77-.89-1.48-1.71-2.18-2.5ZM93.55,357.18c-.1-1.21,1.43-3-1.36-3.4.48,1.21.92,2.3,1.35,3.4l2.2.2v-2.67c2.54,2.27,5.3,4.36,6.41,7.8-1.34.38-3.2-1.35-4.08,1-1.39-1.38-2.75-2.79-4.18-4.13-.82-.77-1.71-1.67-3-.21,1.08,1.64,2.25,3.25,3.23,5,.8,1.4,1.37,2.93,2.05,4.4A41.06,41.06,0,0,1,92.91,365c-1.84-2.48-3.47-5.13-5.36-7.58-.37-.48-1.48-.4-3-.76l3.65,6.75-3.55-.74c.22,1.42.4,2.62.58,3.81-1.69-2.49-3.3-5-5.08-7.45-2.06-2.78-3.17-6.52-7.19-7.41.14-1.87.12-3.64-3.31-4.15l3.45,4a29.91,29.91,0,0,0,1.21,3.24c1.51,2.95,3.24,5.79,4.63,8.8a75.49,75.49,0,0,1,5.78,47.2c-3.24,16.54-10.15,31.56-19.5,45.49a24,24,0,0,1-3.34,3.34,76,76,0,0,1,3.78-6.87A105.91,105.91,0,0,0,84.25,403.3C86,387,82.77,371.59,73.89,357.58c-.44-.7-.67-1.54-1.13-2.22-1.94-2.89-3.89-5.78-6-8.59-.3-.4-1.26-.32-2.61-.62,1.22,2.27,2,3.89,2.92,5.45a86.75,86.75,0,0,1,10.6,29.89c1.9,11.54.89,22.88-1.47,34.19A111.81,111.81,0,0,1,64.05,447.2a13.26,13.26,0,0,1-1.84,2.16,42.32,42.32,0,0,1,1.8-4.95c5.1-10.11,9.22-20.52,11.44-31.73A99,99,0,0,0,76.14,381c-1.51-12.09-6.57-22.83-12.93-33a11.39,11.39,0,0,0-2.41-2.15,3.17,3.17,0,0,0,.14,2.54,106,106,0,0,1,8.52,23.92A91,91,0,0,1,71.62,399a124.15,124.15,0,0,1-11.14,41.74c-1.67,3.62-3.53,7.15-5.29,10.73-.88,1.78-1.94,3.57.3,5.86,1.29-1.58,2.48-3.07,3.71-4.52,1-1.22,2.12-2.4,3.18-3.6a30.08,30.08,0,0,1-1.46,3.62c-1.37,2.45-3,4.78-4.27,7.26a13.05,13.05,0,0,0-.69,3.38L62,459.4c.17,2.49-2.09,3.61-3.07,5.46-.88,1.67-2.76,2.89-2.37,5.48.73,0,1.59.26,1.9,0A33.66,33.66,0,0,0,62.35,466c4.56-6.28,9-12.64,13.57-18.94.24-.34.83-.42,1.26-.63-1.18,2.34-2.05,4.91-3.6,7-5.27,7-10.79,13.89-16.18,20.85a15.73,15.73,0,0,0-1.33,2.66l.77.69a54.48,54.48,0,0,0,4.9-2.91C64,473,66,471.17,68.15,469.41l-4.27,6.25c2.41,1.49,4.33.45,5.67-.92,5.58-5.68,11-11.55,16.44-17.33,1-1.06,2.09-2,3.14-3a16.46,16.46,0,0,1-1.73,3.4c-3.22,3.8-6.56,7.5-9.88,11.21-1.73,1.94-3.51,3.83-5.57,6.08,2.71.06,4.79.3,6.59-1.38,5.21-4.83,10.76-9.3,15-15.09,1.21-1.64,2.22-3.72,4.58-4.21-1.57,4.35-5.17,7.17-8.08,10.48-2.49,2.82-5.28,5.38-8.51,8.64,1.74.23,2.89.73,3.78.43a13.5,13.5,0,0,0,3.29-2.13c2.52-1.8,5-3.61,7.53-5.42-1.12,1.35-2.31,2.66-3.35,4.08a11.81,11.81,0,0,0-1.06,2.42c2.42,1.2,3.75-.13,5.14-1.26a94.93,94.93,0,0,0,15.27-16,58.33,58.33,0,0,1,5-5.18,20.39,20.39,0,0,1-1.88,3.41c-4,4.83-8.13,9.56-12.18,14.35-.9,1.06-2.54,1.79-1.79,3.68a3,3,0,0,0,4-.55q3.51-3.48,6.86-7.11c3-3.22,5.89-6.51,8.83-9.78a41.61,41.61,0,0,1-3.12,5.45c-2.36,3-5,5.78-7.48,8.69a18,18,0,0,0-1.46,2.36c2.1,1,3.56.16,4.77-1a65.59,65.59,0,0,0,5.8-6.11c2.07-2.57,3.73-5.49,5.83-8,5-6.07,8.23-13.11,11-20.35a64.22,64.22,0,0,0,4.11-21.33c.11-4.44.15-9.07-1-13.31-2.35-9-5.18-17.84-11-25.36-1.19-1.52-1.8-3.49-2.67-5.25a17.76,17.76,0,0,1,2.76,2.64c10.31,15.11,15.6,31.46,12.57,50-1.67,10.19-5.53,19.48-10.62,28.36a58.54,58.54,0,0,0-2.38,5.36c-2,.22-2.34,1.69-3.28,4.1,2.2-1.45,3.23-2.42,3.18-4.2,7.11-5.15,11.36-12.29,13.68-20.54a102.69,102.69,0,0,0,3.48-18,57.26,57.26,0,0,0-.68-16.72c-1.49-7.6-3.61-15.17-7.76-21.87-2.88-4.64-6-9.17-9.29-13.51-1.28-1.68-2.93-3.67-6.32-3.08,1.07,1.51,1.93,2.63,2.69,3.83s1.43,2.52,2.14,3.78c-.46-.12-1.1-.08-1.36-.37-2.64-3-5.23-6-7.8-9-1.34-1.59-2.81-2.7-5.57-1.83,1.09,1.45,1.88,2.64,2.82,3.7a97.19,97.19,0,0,1,17.14,26.23,60.39,60.39,0,0,1,3.87,37.13,72.94,72.94,0,0,1-11.38,25.88,14.78,14.78,0,0,1-2.83,2.55,39.78,39.78,0,0,1,2.26-4.35,66.31,66.31,0,0,0,11.45-29.9c1.37-11.31-.77-22-5.53-32.38a98.28,98.28,0,0,0-17.3-25.37c-1.68-1.83-3.43-3.61-5.28-5.26-.61-.54-1.65-.6-3.38-1.16,2.45,3.3,4.29,5.8,6.14,8.3-2,.22-2.69-1.59-3.79-2.68-2-1.95-3.78-4.05-5.77-6-1.06-1-2.37-1.73-4-1.08ZM121.71,7.33V11a20.66,20.66,0,0,1,2.17,2.62q5.16,8.84,10.19,17.76A408.93,408.93,0,0,1,164,97.23c1.56,4.5,3.18,9,4.8,13.53,3.77-2.3,3.78-2.31,2.95-5.34a27.12,27.12,0,0,0-.89-2.86c-4.26-10.81-8.29-21.72-12.87-32.4a306.52,306.52,0,0,0-19-37.23c-4.26-7.09-8.43-14.21-13.74-20.59-1-1.16-1.71-2.66-3.57-1.35,0-1.22,0-2.44,0-3.66L120,6.25c0,.28-.16.59-.08.82C120.33,8.23,121.05,7.63,121.71,7.33Zm8.7,486.9c-.44-.13-.88-.26-.19-.06l.34-.09c.45,1.45,1.13,2.23,2.89.59C132.26,494.48,131.36,494.34,130.41,494.23ZM441.79,263.76c-1.17-.56-2.34-1.14-3.06,1,1.11-.43,2-.78,2.88-1.16l.74-1h-.78C441.64,263,441.72,263.39,441.79,263.76ZM491,476.32l3.3-2.84,1.07-.47-.35-.26-.61.83c-3.22.18-3.3.25-3.42,2.76l-3.25-.68c-1.64,1-3.26,2-4.91,3s-3.4,2.08-5.17,3-3.9,1.82-5.84,2.74-3.63,1.66-5.34,2.66c-1.51.88-3.65.88-4.87,3.56,2.26-1,3.87-1.67,5.44-2.44q9.59-4.69,19.14-9.47c1.25-.62,2.16-1.5,1.56-3.1Zm-76.5-202.58-3.4,2.55c-1.26.31-2.56.54-3.79.95-2.19.75-4.34,1.61-6.52,2.41-5.91,2.18-11.8,4.39-17.73,6.5-7.51,2.66-15,5.39-22.6,7.79-11.71,3.68-23.48,7.18-35.26,10.61-12.91,3.77-25.81,7.59-38.82,11-16.07,4.18-32.25,8-48.39,11.89-4,1-8.07,1.89-12.11,2.84L208,334.48c-2.73.65-5.49,1.22-8.18,2-.75.22-1.29,1.11-1.93,1.7a17.64,17.64,0,0,0,7.45,0c13.16-2.73,26.33-5.42,39.44-8.39,9.22-2.09,18.35-4.56,27.51-6.92,9.33-2.39,18.68-4.72,28-7.31q12.24-3.41,24.33-7.35c17.05-5.57,34.11-11.14,51.05-17,9.73-3.38,19.28-7.26,28.81-11.19,2.3-.95,5.18-1.26,6.62-3.83a16.11,16.11,0,0,0,2.8-.33c1.11-.32,1.46-1.1.69-2.13,1.3.17,2.73,1.36,3.81-.45,2,.26,3.67-.12,4.14-2.47,2.68.08,2.68.08,4.07-1.23l-4.07,1.23-4.06,2.59Zm29.86,202.74,3.15-1-.43-.9-2.61,2-2.88.28L437,479.52c2.8.11,4.15-.59,4.58-2.65C442.6,477.1,443.66,478,444.39,476.48Zm-9.48,15.61-2.65,1.44c1.13-.09,3.06.64,2.6-1.5l1.06.18c-.06-.08-.13-.23-.18-.23A7.53,7.53,0,0,0,434.91,492.09Zm12.83-4.93-3.1,1.67.59.83c.82-.8,1.64-1.6,2.47-2.39a1.18,1.18,0,0,1,.4-.1c.1,0,.2.12.29.18ZM54.53,85.66c.44-1.21.88-2.42,1.49-4.07-2.89,1.13-2.68,2.49-1.47,4.06-1.26-.11-2.84-.91-3.09,1.79ZM28.78,97.93c1.45-1,2.18-2.19,1.28-4.06-.39,1.39-.78,2.78-1.15,4.19,0,.37-.07.75-.1,1.12Zm399.11,394,4.91-1.75c-1.94-.15-4.05-.57-4.87,1.78-1.38-.33-2.8-.82-4,1.41ZM44.68,106c-2.61,1.18-2.6,1.19-2.67,4.78,1-1.89,1.79-3.37,2.55-4.9l1.26-5a4.73,4.73,0,0,0,3.64-5.06c-2,1.2-2.81,3.17-3.53,5.21C44.92,102.53,43.6,104,44.68,106ZM303.21,466.47a2.1,2.1,0,0,0,2.58,1.62c-.38-1.91-1.56-1.65-2.68-1.5-.4-2-2.23-2.48-3.7-3.32-13.08-8.21-14.83-9.07-18.21-8.82,4.94,2.93,9.64,5.84,14.47,8.49,1,.55,2.55.16,3.83.22C299.7,466,299.7,466,303.21,466.47Zm128.41,18.26-4.66,3,.2.32,4.79-1.8-.33-1.58c1.26.81,2.45,1.21,3.89.17a8.52,8.52,0,0,1,2.65-.78c13.13-5.3,26.1-10.93,39.59-17.95-5.24.18-5.22.21-8.05,1.65-4.86,2.48-9.68,5.05-14.63,7.36s-10.32,4.46-15.49,6.67a2,2,0,0,0-1.42,2.28C435.82,482.59,433.84,485,431.62,484.73ZM134.53,352.84a3.88,3.88,0,0,0,0,.83c0,.19.19.35.29.52a4.19,4.19,0,0,1-.14-.47c0-.28,0-.57-.08-.86l-5.44-4.23a10.94,10.94,0,0,0,3.18,4.17C132.75,353.17,133.77,352.84,134.53,352.84Zm163,106.42,5.4,2.06c-1.46-1.83-2.94-3.62-5.39-2-.63-3.05-2.08-4.2-6.57-5,1.26,1,2.24,1.74,3.23,2.49ZM261.94,256.94c2.07-.91,4.17-1.76,6.2-2.76a12.52,12.52,0,0,0,2.15-1.74,42.22,42.22,0,0,0,4.76-1.12c5.95-2.08,11.81-4.43,17.81-6.36,10.59-3.41,21.18-6.88,31.92-9.76,11.05-3,22.21-5.73,33.47-7.72,11.58-2,23.22-4,35-4.5a23,23,0,0,0,4.26-1,16.7,16.7,0,0,0-5.49-.2,32,32,0,0,1-4.94.46c-7.53-.55-14.85,1.18-22.25,2a184.32,184.32,0,0,0-19.05,3.23,329.63,329.63,0,0,0-40.73,11.26c-10.79,3.79-21.44,8-32.13,12.06-1,.38-2.5-.16-2.82,1.49-2.65,1-5.32,2-7.92,3.06-.27.11-.18,1.07-.26,1.64l-4,.18c-4.44,1.76-9.33,2.55-13,6-2.06.89-4.08,1.89-6.18,2.65-4.33,1.57-4.35,1.51-5.45,3.91,3.4-1.58,6.7-3,9.92-4.66.7-.35,1.07-1.33,1.61-2,4.39-.25,10.41-3,13-6ZM415.1,493l7-2.67-.34-.93c-2.11.76-4.22,1.5-6.29,2.34-.26.11-.27.82-.41,1.26l-1.65-.1v.1Zm-394.32-67-.48,1.38.37.07.07-1.46c-.09-1-.17-2-.31-3.45l-3.44-3c-.39-9.14-5.74-15.67-12.08-23.05.69,2.19.77,3.44,1.39,4.27,3.92,5.22,6.23,11.3,9.22,17a8.83,8.83,0,0,0,1.57,1.68c.67,2.06,1.29,4.14,2.09,6.15C19.3,425.83,20.26,425.78,20.78,425.91ZM34.54,82.52c2.61,1,2.75-1.73,4-2.71A2.24,2.24,0,0,0,39,76.35c.69-.19,1.69-.16,2-.61,2.88-4,5.81-8,8.4-12.28,3-4.94,5.95-10,7.19-15.77.82-3.82,1.7-7.81-1.37-11.15-1.78.14-1.93,1-1.88,2.4A37.29,37.29,0,0,1,47.47,60.1c-2.77,4.53-5.35,9.18-7.94,13.82a8.39,8.39,0,0,0-.5,2.31c-.92,1.23-1.85,2.46-2.76,3.7-.63.86-1.23,1.75-1.81,2.62,0,.21-.05.42-.08.63Zm63.82,29.62c.06-2.55.13-5.1.19-7.65-.22-1.09-.48-2.18-.65-3.28-.69-4.27-.89-8.66-3-12.6V85.93l-.55.09.63,2.48c.82,4.67,1.59,9.34,2.48,14a7.38,7.38,0,0,0,1.13,2l-.18,7.64c1.76,2.91.43,6.91,3.24,9.47a62.28,62.28,0,0,0-1.9-9C99.64,112.32,98.83,112.28,98.36,112.14ZM315.06,473c-2.78-.43-4.27-3.87-8.05-3.45,2.3,3.08,4.61,4.59,8.05,3.45-.13.79-.26,1.57-.35,2.14l7.38,5c-1-2.6-2.61-3.54-4.13-4.63A37.81,37.81,0,0,1,315.06,473Zm139,.16,9.51-5.1a18.72,18.72,0,0,0-9.53,3.68c-.22.15,0,.94,0,1.43-1.46-.82-2.82-1.06-4.57,1.21,1.33-.32,1.86-.42,2.37-.56C452.55,473.64,453.28,473.41,454,473.19ZM188.44,489.51c1.28.07,2.55.2,3.83.19,1.52,0,3-.16,4.56-.25-4.6-2.23-5.09-2.2-8.38.12a1.84,1.84,0,0,0-1.92-1.85c-2.82-.06-5.64,0-8.9,0,2.07,1.84,4,1.82,6,1.74C185.23,489.37,186.84,489.5,188.44,489.51Zm295.93-2a33.81,33.81,0,0,0-12.2,6.48c1.81-.34,3.76-.62,5.07-1.69,2.24-1.82,5.67-1.9,7.05-4.88a3.15,3.15,0,0,0,3.78-1.91C486.21,485.47,485,486,484.37,487.54Zm-50.87-9.83,13.11-5.27c-5.79,0-8.64,1.19-13.35,5a7,7,0,0,0-5.75,2.92C429.59,479.68,431.84,479.4,433.5,477.71Zm-300.75-132c-.43,1.27-.95,2.73.43,3.58,1.21.74,1.69,3,3.94,2.24l-4.38-5.82c-3-1.69-5.94-3.4-8.93-5.08a22.23,22.23,0,0,0-8.31-3.17c4.66,2.93,8.69,5.47,12.74,8C129.68,346.35,131.16,347.09,132.75,345.72ZM41.44,463.84c.93.1,2.32.64,2.72.23,3.06-3.18,6.75-6.17,5.35-12.08l-2.84,3.17a27.49,27.49,0,0,1,1.18-4.77c1.27-2.87,2.93-5.57,4.25-8.42a117.09,117.09,0,0,0,11.26-53.64c-.38-11.51-1.79-22.84-6-33.69-1.13-2.92-1.85-6-2.74-9,1.38,3.17,3,6.27,4.12,9.52a105.65,105.65,0,0,1,5.2,51.51C62,420,58.42,433,52.22,445.12c-.78,1.53-1.27,3.21-1.9,4.82,2.62.84,4.11.12,5.09-2.1,1.94-4.39,4.09-8.69,6-13.07A103.91,103.91,0,0,0,70,399.63a94.36,94.36,0,0,0-9.92-49.77,43.89,43.89,0,0,0-7.59-10.81c.91,2.79,1.55,4.76,2.2,6.74-.61-.45-1.64-.79-1.77-1.34-.95-3.88-4.27-6.51-5.3-10.34-.15-.53-1.18-.83-2.56-1.73.51,1.73.73,2.64,1,3.52,1.47,4.22,3,8.41,4.4,12.67a10.54,10.54,0,0,1,0,3.18c-.51-1.19-1.08-2.36-1.52-3.58-1.63-4.44-2.45-9.21-5.55-13.21l-2.1,1.29c.54-2,2.22-4.15-.81-5.75.27,2,.54,3.85.8,5.74.41.5,1,.93,1.21,1.5,1.5,5.59,3.23,11.15,4.32,16.83C49,365.84,50.57,377.2,50,388.75c-.26,5,0,10-.63,14.94A172,172,0,0,1,43.81,431a159.13,159.13,0,0,1-15.28,35.65c-1,1.64-2.24,3.2-2.43,5.42,4.37-1.7,4.32-1.73,6.32-4.49a119.31,119.31,0,0,0,10.3-18.14A133.93,133.93,0,0,0,54.78,408a133.71,133.71,0,0,0-2.48-47.08c-.69-3.07-1.21-6.19-1.78-9.25a14.09,14.09,0,0,1,1.65,2.94c.83,3,1.47,6.13,2.17,9.2A123.93,123.93,0,0,1,57,399.53a136.93,136.93,0,0,1-15.18,54.91c-2.44,4.68-5,9.27-7.89,14.47,1.38-.39,2.62-.36,3-.93,2.39-3.34,4.5-6.88,6.89-10.23.76-1.05.93-3,3-2.79a19.42,19.42,0,0,1-5.43,8.91c.09.37.18.74.26,1.11Zm82.87-150.3h-4.19c.2,4.81,2.42,7.43,6.55,8.55,2.45-.88,2.24-2.7,1.21-4.35a36.17,36.17,0,0,0-3.77-4.39l5.08,1.36c-3.74-5.24-5.81-6.06-10.52-4.64Zm65.61,30.59a31.22,31.22,0,0,1,4.52,2.77c2,1.75,4.4,1,6.6,1.3a3.81,3.81,0,0,0,3.86-2.28c-4.79-4.25-6.32-4.84-10.58-4.78-2.3,0-3.73.9-4.23,3.18a24,24,0,0,0-3.38-.12c-1.87.19-2,1.32-1.14,2.94,1.89.18,3.83,1,6.07.08ZM62.66,81.78a11.27,11.27,0,0,1,2-2.63c3.42-2.46,5.94-5.72,8.51-9A34.41,34.41,0,0,0,80,54.45c.38-2.15.58-4.48-1.66-6-1.32,8.7-2.84,12.53-8.15,20-2.31,3.23-4.72,6.4-7.24,9.47-1.12,1.37-1.33,2.52-.27,3.91l-1.78-.27,0,.4ZM33.38,75.49c3.16.62,3.34.61,4-1.82.43-1.58.49-3,2.35-4,1.36-.74.9-3.1,2.16-4.64A56.18,56.18,0,0,0,48.19,55a25.17,25.17,0,0,0,3-12.45,13.1,13.1,0,0,0-.94-3.1c-2.55.56-3.36,2-3.22,4.06a18.87,18.87,0,0,1-1.83,8.7c-2.1,4.88-4.16,9.77-6.52,14.52-1.52,3.06-3.54,5.87-5.34,8.79-.6,1.48-1.14,3-1.81,4.44a3.85,3.85,0,0,0-.08,3.62C33.5,80.88,35.17,78.55,33.38,75.49ZM39.81,91c1.43.84,2.4.44,3.18-1,1.48-2.72,2.9-5.48,4.62-8,3.16-4.67,6.6-9.14,9.78-13.8,3.54-5.19,7.07-10.4,9.49-16.27,2.18-5.27,1.81-10-1.87-14.21-.19,2.71-.21,5.46-.59,8.17-.87,6.24-4,11.59-7.25,16.8-4.29,6.91-8.91,13.61-13.24,20.5-1.56,2.5-2.69,5.27-4,7.93-3.82,5-6,10.35-5.6,14.95.82-1.57,1.38-2.46,1.77-3.41.87-2.09,1.25-4.53,2.59-6.23A5.49,5.49,0,0,0,39.81,91Zm-8.4,7.37c.84-.43,2.08-.65,2.46-1.34a73.23,73.23,0,0,0,3.46-7.46c1.66-4,4.72-7,7.16-10.47A207.92,207.92,0,0,0,60.82,52.34,22.78,22.78,0,0,0,62.88,40.2c-.2-2.6-1.42-3.81-4-4.46A18.07,18.07,0,0,0,59,37.87,24.77,24.77,0,0,1,56.44,53.8C53.79,59,50.91,64,47.76,68.91A172,172,0,0,0,35.37,90.48c-1.22,2.68-2.64,5.28-4,7.92l-.21,3.87,1-.06C31.92,100.93,31.66,99.66,31.41,98.39Zm250.67,335.2-4.59,8c2.52,2.4,2.7,2.54,4.4.48a83.2,83.2,0,0,0,6-8.4A42.71,42.71,0,0,0,293.69,419a35.72,35.72,0,0,0,.14-9.36c-.12-1.55-1-3.12-3.35-2.62a24.93,24.93,0,0,0-.17,2.59c.24,7.53-2.32,14.33-5.64,20.88a18.53,18.53,0,0,1-2.77,3.29c1.16-2.92,2.24-5.88,3.52-8.75a35.21,35.21,0,0,0,2.35-22.29h-2.24c-.19,1.83-.45,3.64-.56,5.45a35.85,35.85,0,0,1-4.44,15.75c-2.36,4.18-5.23,8.07-7.91,12.08-.8,1.2-1.71,2.33-2.6,3.54,4.19,2.17,4.66,2.11,7.09-.59C278.74,437.15,280.41,435.39,282.08,433.59ZM435.9,299c-1.25.08-2.92-.32-3.68.34-3.37,2.94-8.31,3.33-11.16,7-7.9,4.1-15.78,8.24-23.71,12.29-3.09,1.58-6.3,2.92-9.43,4.4-4.3,2-8.49,4.29-12.88,6.09-6,2.44-12.07,4.5-18.08,6.82-.58.23-.91,1.12-1.75,2.21,3.29.15,5.74.21,8.38-.75a277.52,277.52,0,0,0,28.73-12.56,294.86,294.86,0,0,0,31.47-18.12c4-2.64,8-5.17,12.08-7.75l3.93-4.21a7,7,0,0,0-3.63,1.26C434.82,296.84,435.41,297.92,435.9,299Zm5.13-.84c-.49.07-1.09,0-1.46.23-3.81,2.64-7.57,5.33-11.35,8-1.62,1.15-3.17,2.43-4.88,3.44-6.41,3.76-13,7.18-19.27,11.2-5.9,3.8-12.35,6.4-18.56,9.51-5.53,2.76-11.24,5.16-17.91,8.18,3.59,1,6.11,1.19,8.62.25,2.33-.87,4.61-1.88,6.9-2.87a228.37,228.37,0,0,0,35.93-19.42c7-4.69,13.43-10.27,20.05-15.54.91-.72,2.43-1.38,1.85-3.08H442c-.07-.07-.17-.22-.21-.21A7.28,7.28,0,0,0,441,298.12Zm-278.9,74.44a17.51,17.51,0,0,1,2.32-3.51c5.34-4.94,10.81-9.74,16.19-14.63a32.86,32.86,0,0,0,2.59-3c-4.89-1-8.7-.29-12.06,2.81-5,4.61-10.21,9-15.16,13.61-3.67,3.44-3.62,4.24-.77,9.61,1.29-1.12,2.45-2.27,3.75-3.22a30.7,30.7,0,0,1,3.32-1.86c-1.39,1.63-2.54,3.59-4.22,4.83-3.61,2.66-4.44,6-3.35,10.11a3.54,3.54,0,0,0,3.89-1.38c2-2.22,4-4.43,6.18-6.5,9.32-9,18.7-17.94,28-26.91a4.23,4.23,0,0,0,.5-1.06,6,6,0,0,0-7,.5c-4.65,3.75-9.21,7.61-13.77,11.47C169.09,366.44,165.63,369.52,162.13,372.56Zm-1.24,98.32c7.12-.38,14.25-.77,21.37-1.13l30.82-1.54c10.44-.53,20.88-1.16,31.32-1.61,6.79-.3,13.59-.32,20.39-.56a12.59,12.59,0,0,0,3.1-1c-2.35-3.41-4.9-4.6-8.76-3.85-4.2.82-8.56.84-12.86,1.16-6.45.47-12.92.82-19.37,1.36-10.08.83-20.16,1.79-30.24,2.67-11.21,1-22.42,1.94-33.63,2.94-1,.09-2.08.15-2.14,1.56l-9.18-.45v1Zm320.65-49.59,4-.23c-2-1.43-2.92-.09-4,.23-.38-2.32-2.28-1.51-3.59-1.59-16.93-1.09-33.87-2.26-50.81-3.11-12.43-.62-24.88-.49-37.29-1.72-8.25-.81-16.61-.5-24.91-.83-9.95-.39-19.89-1-29.84-1.37-10.94-.4-21.89-.65-32.84-.92a5.39,5.39,0,0,0-1.64.59c.61.49.85.85,1.11.86Q391.62,417.27,481.54,421.29ZM133.06,18.21c.15-1.79-1-2.55-2.73-2.89l2.83,2.8a19.25,19.25,0,0,0,1.57,4c9.29,13.86,16.7,28.75,23.41,44,5.09,11.54,9.43,23.42,14.13,35.15.53,1.33,1.17,2.62,1.8,4,2.19-.9,2.87-2.22,2.49-4.09a23.75,23.75,0,0,0-.9-3.36c-1.83-5-3.54-10-5.63-14.85-3.21-7.45-6.56-14.86-10.1-22.16-3.83-7.9-7.73-15.79-12-23.46a93,93,0,0,0-12.45-17.93A7.67,7.67,0,0,0,133.06,18.21Zm-24.43,4.6a11.87,11.87,0,0,0,.92-2.73c.14-1.5-.79-1.81-2.17-1.7.47,1.69.86,3.05,1.24,4.41a26.16,26.16,0,0,1,2.08,3.31c4.69,10.66,9.44,21.29,14,32a492.73,492.73,0,0,1,18.13,50.77c2.69,9.09,4.89,18.32,7.36,27.48a25.45,25.45,0,0,0,1.47,3.29,12.32,12.32,0,0,0,1.56-1.91c1.26-2.61.5-5.32-.14-7.83-2.21-8.69-4.22-17.48-7.21-25.91-5.43-15.31-10.73-30.66-17.47-45.49Q121.3,43,113.72,27.68c-.44-.89-.79-1.82-1.14-2.75A3.1,3.1,0,0,0,108.63,22.81Zm153.28,376.9c0,.61.26,1.36,0,1.81a103.13,103.13,0,0,1-5.4,8.92c-7.82,11-18.14,19.3-29,27.06a11.34,11.34,0,0,0-1.55,1.79c7.4-.33,10.55-1,13.31-3.1,10.1-7.67,18.93-16.53,25.19-27.71A49.78,49.78,0,0,0,270,391.07c.41-2.88-.12-3.45-3.21-4.29a51.65,51.65,0,0,1-1.71,6.72c-.87,2.2-.9,4.92-3.3,6.34.47-1.94,1-3.87,1.4-5.81.52-2.41.93-4.85,1.47-7.25s-.8-3.21-2.82-4.08c-.34,1.1-.63,1.85-.81,2.63a47,47,0,0,1-9.83,20,165,165,0,0,1-13.42,14.06,183.15,183.15,0,0,1-29.81,21.69c-1.63,1-3.29,1.87-4.21,4.35,4.33-1.17,8.14-2.19,11.94-3.24a17.17,17.17,0,0,0,2.83-1,21.22,21.22,0,0,0,2.05-1.4,140.9,140.9,0,0,0,24.81-19.19c4.94-4.89,9.92-9.82,13.14-16.17A37.07,37.07,0,0,1,261.91,399.71ZM110.62,8.91l.1-2h-.14V8.9a47.14,47.14,0,0,1,2.75,4c8.23,15,16.14,30.23,22.83,46C141,70.43,145.65,82,150,93.71c3.16,8.57,5.59,17.4,8.43,26.09.47,1.43.35,3.3,2.12,4.11A5.93,5.93,0,0,0,162.3,117c-2.79-8.48-5.34-17-8.31-25.45-2.43-6.87-5.19-13.63-8-20.34-2.71-6.4-5.51-12.79-8.66-19C132,41.88,126.5,31.69,121,21.49c-2.11-3.93-4.46-7.73-6.66-11.62C113.4,8.2,112.19,8,110.62,8.91ZM105,22.29c-.24-3-.88-5.82-4.07-8.35,1,3.56,1.76,6.32,4.19,8.25-.32,3,1.52,5.37,2.54,8,4.75,12,9.75,24,14.37,36.11,3.48,9.15,6.8,18.4,9.68,27.76,3.77,12.22,7.13,24.56,10.48,36.91,1.62,6,2.83,12.09,4.29,18.43,3.54-2.48,3.32-5.67,2.58-8.71-2.24-9.36-4.53-18.71-7.11-28-3.29-11.82-7.23-23.44-11.64-34.89-2.86-7.41-5.7-14.84-8.82-22.14-4.69-11-9.6-21.82-14.51-32.68C106.81,22.52,105.7,22.5,105,22.29ZM94.41,45.75c.65-1,1.59-2-.28-3,.12,1.14.23,2.08.33,3,1.11,3.46,2.35,6.87,3.31,10.36,6.6,24.21,12.85,48.51,17.6,73.16,3.56,18.45,7.14,36.9,10.28,55.42,1.73,10.13,2.57,20.42,3.81,30.64.1.8.22,1.6.33,2.4,1.22-3.53,2.59-6.87,2.23-10.51s-.67-7.28-1.12-10.91c-1.5-12.17-2.93-24.35-5.43-36.37-3.08-14.8-6-29.61-9.15-44.4-2.41-11.53-5.61-22.86-9-34.14-1.38-4.6-2.38-9.32-3.72-13.93-1.83-6.32-5.68-12-6.25-18.73a5.36,5.36,0,0,0-1.29-2.65C95.82,45.73,95,45.87,94.41,45.75ZM208.91,298c.3-.36.52-.88.9-1.06,17-8.24,34.42-15.73,52-22.7q25.19-10,50.93-18.52c15.28-5,30.9-9.07,46.39-13.45,3.51-1,7.14-1.52,10.68-2.39a260.69,260.69,0,0,1,32.33-5.81,15.39,15.39,0,0,0,2.6-.76,4.55,4.55,0,0,0-2.94-.58c-3.27.38-6.54.82-9.81,1.24-6.26.8-12.58,1.31-18.78,2.48-9.1,1.74-18.14,3.85-27.16,6q-9.89,2.34-19.65,5.16c-5.89,1.71-11.69,3.73-17.54,5.6-5.34,1.71-10.78,3.15-16,5.14-9.76,3.71-19.43,7.68-29.09,11.65-7.81,3.2-15.57,6.54-23.34,9.87-2.1.9-4.14,2-6.19,3q-6.18,3.17-12.33,6.38c-3.78,2-7.49,4.14-11.32,6-1.32.65-1.33,1.7-1.66,2.74a13.22,13.22,0,0,0-2.73-.55c-.38,0-.75.74-1.53,1.6ZM22.21,468.8c1.67,1.36,2.66.32,3.64-1,4.62-6.14,7.33-13.31,10.37-20.23a135.65,135.65,0,0,0,10-33.23,188.31,188.31,0,0,0,2.44-24.24,157.4,157.4,0,0,0-1.48-24.82,149.66,149.66,0,0,0-7-30A67,67,0,0,0,37,328.42a3.89,3.89,0,0,0-.42,3.07,208.29,208.29,0,0,1,6.11,38.31c1.1,17.78.34,35.54-3.35,53.08a165.32,165.32,0,0,1-13.87,41c-.88,1.74-2.1,3.32-3.11,5-.53,1.31-1.11,2.61-1.57,3.94a7.67,7.67,0,0,0-.21,1.74C21.4,472.65,24.4,471.27,22.21,468.8Zm186.6-153.63c.23-.22.43-.56.7-.65,14.49-4.82,29-9.66,43.5-14.42q22.73-7.44,45.49-14.78c8.21-2.64,16.45-5.19,24.67-7.8q26.11-8.28,52.26-16.55c3.8-1.2,7.68-2.12,11.52-3.19,5.43-1.53,10.85-3.09,16.28-4.62,5.14-1.45,10.28-2.86,15.42-4.29a11.74,11.74,0,0,0-5.58-.27c-7.76,1.74-15.53,3.48-23.23,5.49-11.38,3-22.77,6-34,9.28-13.36,3.94-26.64,8.17-39.91,12.42-11.66,3.74-23.28,7.62-34.87,11.56-10.18,3.45-20.33,7-30.45,10.63-8.88,3.17-17.73,6.46-26.58,9.72-4.67,1.72-9.31,3.52-14,5.22a1.66,1.66,0,0,0-1.18,2.27c-2.81-.84-2.81-.84-4.94,1Zm16.25,93.52a16.78,16.78,0,0,1,2.31-3c7-5.89,13-12.79,18.74-19.91A32.65,32.65,0,0,0,252.18,374c-2.48.46-2.5.44-3.08,1.27-7.9,11.48-17.75,21.14-28.48,29.9a456.84,456.84,0,0,1-39.14,28.41c-4.58,3-9,6.27-13.64,9.15s-9.49,5.35-14.21,8.08c-5.3,3.06-10.53,6.25-15.85,9.29-3.27,1.87-6.66,3.53-10,5.34a6.56,6.56,0,0,0-1.35,1.38,13.26,13.26,0,0,0,5.81-1.53c7.37-3.76,14.73-7.52,22-11.44,10.07-5.41,20-11,29.7-17.11,12.89-8.19,25.65-16.51,37.42-26.28a19.43,19.43,0,0,1,3.82-2,47.06,47.06,0,0,1-3.75,3.85A334.9,334.9,0,0,1,183.54,439c-7.32,4.49-14.24,9.63-21.95,13.46-1.77.88-3.65,1.52-5.38,2.45-5.87,3.17-11.69,6.41-17.52,9.64-1.36.75-2.7,1.54-4,2.31.13.3.27.6.41.9,1.8-.67,3.66-1.22,5.39-2,8.39-4,16.78-7.9,25.09-12,11.75-5.84,23.29-12.09,34.42-19.06a279.64,279.64,0,0,0,34.53-25.38,85.9,85.9,0,0,0,18-21.73,22.57,22.57,0,0,0,3.3-10.21c-2.4.3-2.47.26-3.58,2.14-6.11,10.28-14.09,18.95-23.08,26.74A30.14,30.14,0,0,1,225.06,408.69Zm-21.45-95.32c.16-.27.26-.71.49-.79,15.25-5.67,30.42-11.57,45.79-16.91,22.9-7.95,46-15.42,68.91-23.28,19.18-6.57,38.66-12.13,58.19-17.46,12.81-3.49,25.87-6.05,38.81-9.09,1-.23,1.8-1,3.47-2a15.21,15.21,0,0,0-2.88-.33c-4.26.68-8.52,1.35-12.75,2.17-12.37,2.42-24.64,5.26-36.75,8.8-6.83,2-13.83,3.39-20.65,5.4-7.32,2.17-14.52,4.72-21.76,7.13-13.53,4.49-27.09,8.89-40.57,13.53-10.49,3.6-20.89,7.45-31.29,11.27q-14.61,5.37-29.16,10.93c-5.72,2.18-11.41,4.41-17.06,6.76-1.57.66-3.56,1.37-2.8,3.88-.78-.49-1.69-1.54-2.31-1.39a33.85,33.85,0,0,0-11.73,4.92c2,1.32,3.36,0,4.85-.45C197.49,315.48,200.18,313.33,203.61,313.37Zm114.44-99.79c.21.91.41,1.81.62,2.75,3.61-.23,5.76-2.14,7.51-4.73q10.06-14.9,20.17-29.75,19.68-28.77,39.41-57.51a73,73,0,0,0,4-6.32c1.22-2.25.65-3.27-2.39-4.77-.47.6-1,1.23-1.44,1.89q-11.52,16.94-23,33.88Q342.76,178.51,322.58,208c-1.39,2-3.11,3.86-4.67,5.78-.1-3.12,2.09-5.16,3.66-7.45,6.94-10.14,14-20.18,21-30.34,9.09-13.29,18.06-26.66,27.1-40,4.75-7,9.55-14,14.28-21,.88-1.32,1.52-2.81,2.55-4.73l-5.21-1.87c-24.44,36.63-48.62,72.86-72.78,109.09a18.42,18.42,0,0,0-1,1.73.81.81,0,0,0-.06.49,3.71,3.71,0,0,0,.36.65,8.63,8.63,0,0,0,6.81-4C315.36,215.1,315.6,212.78,318.05,213.58ZM483.12,392.66a22.66,22.66,0,0,0,10.17,2.62c-3.16-1.91-6.38-3.56-10.29-2.5.48-1.43-.71-1.74-1.56-2-4.9-1.52-9.78-3.14-14.75-4.38-10.79-2.68-21.62-5.21-32.46-7.68-4.37-1-8.79-1.73-13.21-2.5-4.25-.74-8.53-1.39-12.8-2s-8.5-1.35-12.78-1.86c-4.61-.56-9.33-.54-13.86-1.46-9.54-2-19.23-1.41-28.83-2.19-8.6-.71-17.31-.3-26-.17-7.65.12-15.3.39-22.93.87-7.79.48-15.57,1.23-23.35,2-6.27.62-12.54,1.41-18.79,2.23-.85.11-1.6.89-2.77,1.57,2.72,1.63,5.21,1.13,7.62.89,4-.4,7.9-1.14,11.87-1.4q13.95-.93,27.93-1.53c10.14-.42,20.29-1,30.43-.89a530.4,530.4,0,0,1,75.11,5.37c17.62,2.65,35.12,5.87,52.39,10.25C470.57,389.43,476.84,391.06,483.12,392.66ZM130.49,458.83l2,1.68a6.3,6.3,0,0,0,1.34-.33c15.33-9,31-17.45,45.84-27.31,14.69-9.77,29.16-19.83,42.66-31.21,7-5.89,13.73-12.06,19.34-19.33,2.32-3,4.57-6.1,6.61-9.31,1-1.55-.06-2.43-2-2.64-.76.89-1.56,1.94-2.46,2.89-5.16,5.44-10.11,11.09-15.57,16.2a257,257,0,0,1-24.5,19.68c-15.88,11.61-32.32,22.36-48.72,33.2C147,447.72,138,451.77,131,458.79c-.09.09-.32,0-.48.06v2.21l.62-.11C130.9,460.25,130.69,459.54,130.49,458.83Zm292-192.18c-4.21,1.52-8.39,3.12-12.63,4.55-8,2.67-16,5.22-24,7.86-8.18,2.71-16.3,5.58-24.51,8.15-8.87,2.79-17.83,5.31-26.74,8C325.07,298,315.57,301,306,303.74q-18.69,5.33-37.49,10.34c-18.05,4.79-35.93,10.22-54.1,14.59-5.65,1.36-11.47,2.39-16.68,5.3a60.73,60.73,0,0,0,7.39-1.14c10.21-2.29,20.43-4.54,30.6-7,9.21-2.22,18.37-4.68,27.54-7.05,12.38-3.19,24.81-6.23,37.13-9.62q21.15-5.82,42.13-12.18c12.08-3.69,24.09-7.66,36-11.79,10.83-3.74,21.54-7.82,32.27-11.83,3.42-1.28,6.75-2.78,10.1-4.24,1-.45,2.21-1,1.58-2.49,2.67,1.57,4.4-.06,5.93-2.27Zm-76-141.54c-.06-.61-.39-1.4-.12-1.81,2.36-3.6,4.86-7.11,7.26-10.69a31,31,0,0,0,1.68-3.67c-2.08,1.73-3.44,2.51-4.33,3.66q-5.25,6.77-10.24,13.71c-7.64,10.63-15.33,21.22-22.79,32-11.39,16.41-22.63,32.92-33.88,49.42Q272.4,224.81,260.84,242c-.83,1.23-1.48,2.59-2.21,3.89,4.94-1.61,8.71-4,11.42-8.38,5.14-8.32,10.94-16.25,16.4-24.38,8.32-12.4,16.58-24.85,24.89-37.26,6.56-9.8,13.19-19.56,19.75-29.36,3.41-5.1,6.61-10.35,10.17-15.35,1.57-2.21,2.4-5.18,5.39-6.19-.3.76-.58,1.53-.9,2.29-2.07,4.92-5.74,8.79-8.64,13.17q-17.92,27-36,54c-8.7,13-17.47,25.95-26.17,39a23.73,23.73,0,0,0-1.61,3.65c7.8-2.69,7.8-2.69,11.44-8.88.42-.71.94-1.37,1.4-2.06,5.13-7.56,10.31-15.08,15.35-22.69q13.62-20.53,27.1-41.17c5.64-8.59,11.21-17.23,16.84-25.82,5.27-8.06,10.61-16.07,15.84-24.15.9-1.4,2.25-2.79,1.92-4.84-3.61.76-3.65.73-5.19,2.76-2.8,3.71-5.52,7.49-8.33,11.2C348.72,122.71,347.58,123.87,346.5,125.11Zm96.88,151.3c-1.32-1.28-2.49-.57-3.45.44a6.35,6.35,0,0,1-4.18,2.35,8.21,8.21,0,0,0-3.54,1.74c-6.63,4.69-14.11,7.77-21.34,11.31a321.22,321.22,0,0,1-30.8,13.44c-5.58,2-10.95,4.65-16.53,6.69-7.62,2.8-15.3,5.5-23.06,7.89q-17.13,5.26-34.42,10c-7.21,2-14.53,3.55-21.84,5.11-9.89,2.1-19.78,4.29-29.75,5.95-13.6,2.27-27.28,4.06-40.91,6.1a7.68,7.68,0,0,0-2,1A19.86,19.86,0,0,0,221,349c6.09-.8,12.18-1.58,18.25-2.47,12.33-1.8,24.7-3.42,37-5.56a480.68,480.68,0,0,0,52.35-12.4,478.65,478.65,0,0,0,55.9-19.79A430.92,430.92,0,0,0,426,288.26c5.47-3.1,10.69-6.65,16-10.07.6-.38.9-1.24,1.33-1.88l1.8-.87-.57-.64ZM150.66,151.77c2.34,1.26,2.82-.91,3.72-2.09a228.1,228.1,0,0,1,39.05-40.35,247.86,247.86,0,0,1,32.9-21.64,288.1,288.1,0,0,1,58.8-24.42,21.25,21.25,0,0,0,2-.83c-1.87-.63-3.55-.23-5.23-.22A65.25,65.25,0,0,0,261.52,66c-2.35.78-4.71,1.57-7,2.54-7.91,3.36-15.87,6.61-23.64,10.28-5.39,2.54-10.43,5.81-15.71,8.57-9.16,4.8-17.53,10.83-25.76,17-7.31,5.46-14,11.78-20.78,17.91a43.4,43.4,0,0,0-7.28,8.17,96.34,96.34,0,0,0-10.58,21.44c0,.13,0,.27,0,.4a.52.52,0,0,0,.11.19C150.83,152.25,150.75,152,150.66,151.77Zm-9.77,151.45c2,1,2.92.5,3.26-1.21.78-3.9,1.72-7.77,2.37-11.69,2.84-16.95,8.06-33.21,14.43-49.1a266.2,266.2,0,0,1,14.81-31,250.38,250.38,0,0,1,29.5-42,238.67,238.67,0,0,1,33.17-31.65c7.73-6,15.86-11.58,24-17A271.46,271.46,0,0,1,306,96.42c6.09-2.6,12.15-5.26,18.5-8a8.15,8.15,0,0,0-.88-2.76c-.4-.47-1.46-.51-2.23-.49a9.36,9.36,0,0,0-2.93.47c-3.45,1.22-6.91,2.42-10.26,3.85-9.9,4.22-19.83,8.39-29.6,12.89A199.64,199.64,0,0,0,260.07,112c-6.54,3.91-12.63,8.55-19.11,12.56-9.84,6.1-18.35,13.8-26.65,21.73a230.79,230.79,0,0,0-47.54,65,270,270,0,0,0-17.9,47,295.73,295.73,0,0,0-7.33,36.18C141.1,297.44,141.09,300.41,140.89,303.22Zm16.32,4.18c1.55-5.23,3-10.14,4.46-15.07a238,238,0,0,1,12.56-34.65c5.59-12.05,11.46-24,17.81-35.65A249.27,249.27,0,0,1,216.11,186a284.64,284.64,0,0,1,27.75-30.67c10.82-10.14,21.72-20.16,33.9-28.65,12.55-8.75,25.22-17.34,39.09-24,3.15-1.5,6.27-3.06,9.34-4.72.64-.35,1-1.24,1.9-2.46-34.94,12.34-81.06,39.38-115.28,81.21-31.21,38.16-50.44,81.84-60.43,130.38ZM326.91,92.77c-3.21-2.3-5.18-.67-6.92.08-9.89,4.24-19.77,8.51-29.49,13.13-5.52,2.62-10.76,5.84-16.06,8.92-6,3.51-12,7-17.9,10.8-6.15,4-11.76,8.65-17.53,13.14a214.81,214.81,0,0,0-19.11,16.73,245.15,245.15,0,0,0-50.79,71.84,276.8,276.8,0,0,0-21.81,67.77c-.59,3.27-.91,6.59-1.3,9.9-.18,1.46.29,2.75,1.83,3.1s2.53-.64,3-2a23.79,23.79,0,0,0,1-3.87c1.59-11.6,5.24-22.7,8.83-33.75a294.67,294.67,0,0,1,16.51-40,274.88,274.88,0,0,1,23.3-38.93A259.9,259.9,0,0,1,224,161.21a239.1,239.1,0,0,1,26.06-23.85c7.38-5.68,14.82-11.32,22.59-16.45a285.5,285.5,0,0,1,42.11-22.7C318.57,96.55,322.32,94.83,326.91,92.77Zm-190.41,209c2.22-.34,2.43-2,2.67-3.37q1.53-8.82,2.89-17.68a231.76,231.76,0,0,1,8.12-33.36,248.71,248.71,0,0,1,13.6-34.24c2.93-6.13,6.19-12.13,9.62-18A229.63,229.63,0,0,1,193,166.82a211.75,211.75,0,0,1,23.16-24.75,254,254,0,0,1,38.95-29.44c9.73-5.84,19.78-11,30-15.83,8.38-4,17.21-7.08,25.86-10.51,3.67-1.45,7.4-2.77,11.32-4.23L320.49,79c-7.72,2.74-15.29,5.23-22.71,8.12-7.1,2.77-13.92,6.29-21.08,8.86-6.91,2.48-13.17,6.21-19.64,9.49a180.85,180.85,0,0,0-20.7,12.78,240.87,240.87,0,0,0-20.2,15.32,238.43,238.43,0,0,0-18.37,17.6,225.08,225.08,0,0,0-45.47,71.74,247.4,247.4,0,0,0-16.84,70.66A17.44,17.44,0,0,0,136.5,301.74Zm-1.23-24.63a15.36,15.36,0,0,1,0-3.59c1.48-6.12,3.09-12.21,4.67-18.3,4.05-15.65,9.05-30.93,16-45.58a237.75,237.75,0,0,1,35.33-54.13A244,244,0,0,1,223.44,125a204.6,204.6,0,0,1,30.79-20.32c10.08-5.42,20.44-10.4,31-14.93,10.21-4.4,20.77-8,31.17-11.95A24.9,24.9,0,0,0,319,76.26c-1.46-.4-2.07-.79-2.55-.67-3.37.88-6.79,1.67-10.06,2.85-10.13,3.68-20.14,7.68-30.3,11.26-12.41,4.37-23.87,10.74-35.38,16.92-7,3.75-13.41,8.61-20.1,13-12.21,8-22.83,17.76-32.77,28.33a207.34,207.34,0,0,0-38.19,57,218.15,218.15,0,0,0-15.3,50C133,262.2,132.32,269.63,135.27,277.11ZM324.48,108.5a11.17,11.17,0,0,0-1.21.56,246.39,246.39,0,0,0-32,24.16,353.69,353.69,0,0,0-29.81,28.66,460,460,0,0,0-31.12,37.71,469.63,469.63,0,0,0-36.52,59.54c-6.21,11.94-11.42,24.4-16.92,36.7-2.23,5-4,10.21-6,15.32-.86,2.24-1.29,4.44,1.41,7.22,11.78-27,24.23-53,39.27-77.69a549.66,549.66,0,0,1,51.16-70.47C281.6,148,302.66,128,324.48,108.5Zm13.08.82-.71-1.13a8.16,8.16,0,0,0-2.3,1.17c-7.31,7.44-15.56,13.88-22.41,21.86-6.44,7.51-14.2,13.81-20.29,21.74-4.34,5.64-9.63,10.52-14.41,15.83a573.13,573.13,0,0,0-40,50.48c-13.37,18.69-26,37.89-36.88,58.19-6.42,12-12.31,24.36-18.43,36.56a11.57,11.57,0,0,0-1.48,7.27c2.59-2.23,3.53-4.62,4.72-6.89,1.78-3.37,3.38-6.91,5.63-9.95,7-9.53,13.21-19.55,19.27-29.68,4.68-7.85,9.26-15.77,14.31-23.38q14-21.19,28.6-42c5.89-8.46,12-16.8,18.34-24.91,7.37-9.41,15.19-18.47,22.68-27.78,10.13-12.58,21-24.47,32.27-36C330.14,116.82,333.86,113.08,337.56,109.32ZM167.86,312.19a22.4,22.4,0,0,0,1.68-2.74c1.66-4,3.3-7.95,4.83-12a361.62,361.62,0,0,1,18.38-40.32c6.15-11.6,12.27-23.24,19.66-34.16,5.67-8.39,10.86-17.12,16.8-25.31,5.35-7.39,11.22-14.43,17.21-21.32,7.84-9,15.69-18.1,24.13-26.55a354.23,354.23,0,0,1,47.14-40,16.26,16.26,0,0,0,2.08-2.07,73.56,73.56,0,0,0-14.81,8c-7.71,5.15-15.22,10.52-22.54,16.22a300.46,300.46,0,0,0-29.76,27.18c-17.82,18.18-32.81,38.54-45.94,60.25a433,433,0,0,0-35.43,73.16c-1.91,5.15-3.58,10.39-5.45,15.55C165.16,310,165.17,311.41,167.86,312.19Zm139.3-200.77-.42-.69c-2.93,1.66-5.94,3.2-8.76,5-4.59,3-9.09,6.07-13.59,9.17-5.68,3.92-11.62,7.55-16.94,11.92q-11.88,9.76-23,20.41a285.9,285.9,0,0,0-49.09,62.82c-11.34,19.44-21.11,39.68-28.22,61.11-2.67,8.05-5,16.22-7.48,24.34a12,12,0,0,0-.22,2.48l3.47,1.2a26.93,26.93,0,0,0,1.27-2.42c3.27-8.51,6.61-17,9.77-25.55,6.4-17.38,14.85-33.79,23.78-49.94,5.38-9.74,11.33-19.21,17.55-28.45,5.74-8.53,12-16.76,18.39-24.81,5.06-6.37,10.7-12.27,16.13-18.34a245.8,245.8,0,0,1,26.3-25.13,281.93,281.93,0,0,1,29.64-21.91A12.64,12.64,0,0,0,307.16,111.42Zm26.61-4.33-.63-.73a39.94,39.94,0,0,0-5.4,3.23c-4.19,3.47-8.05,7.34-12.33,10.67-8.15,6.35-15.34,13.69-22.8,20.78-11.48,10.93-21.93,22.78-32.23,34.81-24.26,28.34-44.49,59.42-62.28,92.12a483.13,483.13,0,0,0-22.53,47.86,21.83,21.83,0,0,0-.81,3.21c2.84.15,3.19,0,4.11-1.9,1.78-3.75,3.38-7.57,5.23-11.28C189.51,295,194.67,284,200.56,273.4c5.63-10.15,11.86-20,18.16-29.75,6.66-10.34,13.37-20.68,20.7-30.55,9-12.14,18.47-24,28.13-35.61,12.64-15.22,25.77-30,39.69-44.12,3.62-3.67,7.06-7.53,10.73-11.15C323.17,117.11,328.5,112.13,333.77,107.09ZM316.44,73c-2-2.4-3.52-3.3-5.79-2.37-1.22.5-2.56.68-3.82,1.09-6.3,2.1-12.64,4.08-18.86,6.39-8.06,3-16.09,6.09-24,9.45-5.48,2.32-10.75,5.12-16.09,7.75-5.49,2.71-11.16,5.15-16.39,8.29A244.83,244.83,0,0,0,196,129.32a210.1,210.1,0,0,0-35,39.54,177.76,177.76,0,0,0-26.7,60.34c-.89,3.79-.78,7.82-1.24,12.89,1.46-1.79,2.48-2.54,2.8-3.52,1.73-5.36,3.18-10.81,4.94-16.17a119.61,119.61,0,0,1,5.14-14c3.91-8.25,8-16.44,12.52-24.38a185.42,185.42,0,0,1,22.62-31.57c4.62-5.21,9.7-10,14.59-15,10.92-11.1,23.59-19.91,36.55-28.37,9.51-6.21,19.92-10.65,30-15.71C277,86,292.62,80.74,308.19,75.45,310.68,74.61,313.24,74,316.44,73ZM309,68.14c-1.23-1.94-2.66-1.71-4.15-1.28-9.06,2.62-18.18,5-27.16,7.89a289.4,289.4,0,0,0-31.87,12.72,284.76,284.76,0,0,0-29.36,15.82,158.4,158.4,0,0,0-25.27,19.43c-6,5.5-11.77,11.28-17.23,17.32a188.51,188.51,0,0,0-34.79,55,62,62,0,0,0-2.73,10.6c-.24,1.14.18,2.42.4,4.78a17.13,17.13,0,0,0,1.93-2.8c3.38-10.14,8.51-19.47,13.66-28.74,6.07-10.92,13.82-20.71,21.82-30.29,11.27-13.51,24.55-24.82,38.75-35.09a255.56,255.56,0,0,1,25.85-16c9.77-5.43,19.86-10.09,30.07-14.53a373,373,0,0,1,37-13.47A30.24,30.24,0,0,0,309,68.14Zm23.35,51.53-.78-.81c-.83.71-1.72,1.36-2.49,2.14-7.32,7.41-14.67,14.78-21.28,22.87-4.29,5.25-9.28,9.94-13.6,15.17q-10.66,12.89-20.87,26.16c-13.94,18.05-27.2,36.6-39.62,55.73C225.66,253.34,218,266,210.13,278.55c-.55.87-.92,1.85-1.76,3.56a17.32,17.32,0,0,0,3.1-1.53c4.83-4.28,10.1-8.14,13-14.24a43.81,43.81,0,0,1,3.5-5.45c8.06-12,16.09-24,24.21-36,6.07-8.93,12.16-17.85,18.41-26.65,5.85-8.25,11.86-16.4,17.92-24.5,4.58-6.12,9.31-12.13,14.06-18.12,6.39-8.07,12.8-16.12,19.33-24.08C325.23,127.47,328.86,123.62,332.36,119.67ZM302.61,65c-.53-.56-.71-.89-1-1a9.91,9.91,0,0,0-8.5-.35c-5.84,2.25-12.16,3.25-18.08,5.35-17.81,6.34-35.18,13.59-51.69,23-17,9.68-32.75,20.87-46.58,34.73a194.6,194.6,0,0,0-29.62,37.51c-3.21,5.37-4.7,11.22-5.93,17.37,2.68.15,3.15-1.76,4-3.32a194.82,194.82,0,0,1,20.63-31.12,224.7,224.7,0,0,1,30.32-31,194.34,194.34,0,0,1,39.53-25.89c9.94-5,20.16-9.51,30.42-13.83,5.65-2.37,11.62-4,17.49-5.81C289.76,68.67,296,66.91,302.61,65ZM437,270.41c-3.7-1-5.36,1.16-7.41,1.94-7.76,2.93-15.4,6.15-23.1,9.21-14.49,5.76-28.94,11.63-43.73,16.61-14,4.72-28,9.62-42.1,14s-28.66,8.46-43.13,12.16c-15.74,4-31.63,7.47-47.46,11.15-2.9.67-5.8,1.29-8.71,1.89-5.68,1.17-11.37,2.3-17,3.45a7.28,7.28,0,0,0,4.81,1.12c12.4-2.34,24.79-4.73,37.15-7.3q15.86-3.3,31.61-7c12.93-3.07,25.91-6,38.68-9.66,15-4.29,29.83-9.24,44.71-14a462.44,462.44,0,0,0,49.62-19.55c7.1-3.2,14-6.8,21-10.32A47.56,47.56,0,0,0,437,270.41ZM337.29,118.8l-.6-.39c-4.83,5.09-9.8,10.05-14.44,15.3-4.41,5-8.52,10.23-12.65,15.45-3,3.78-5.77,7.72-8.67,11.57-8.9,11.84-18.07,23.48-26.66,35.53-10.63,14.92-20.8,30.17-31.14,45.3Q236.52,251.24,230,261c-.92,1.39-2.37,2.71-1.83,5.27,4.18-1.82,7.6-4.06,10-7.43,5.52-7.65,10.88-15.41,16.26-23.16q18.9-27.23,37.75-54.49c14-20.25,28.24-40.32,43.47-59.67A20.2,20.2,0,0,0,337.29,118.8ZM482.05,401.18c-.44-.85-.54-1.32-.74-1.37-8.86-2.16-17.7-4.38-26.59-6.39-14.43-3.27-29.09-5.13-43.74-7.21A472.59,472.59,0,0,0,363.83,382c-17.59-.72-35.21-.45-52.82-.45-5.81,0-11.63.42-17.44.79-6.63.42-13.25,1-19.87,1.54-.54,0-1,.64-1.7,1.06,1,2.57,2.94,2.59,4.95,2.52,8.64-.3,17.27-.78,25.91-.86,15.16-.13,30.32-.05,45.48,0,5.28,0,10.57.19,15.85.46,6.3.33,12.58.85,18.87,1.28,6,.41,12,.63,17.91,1.23,11.24,1.14,22.49,2.31,33.69,3.82,11.53,1.55,23.12,2.76,34.46,5.56C473.23,400,477.49,400.41,482.05,401.18Zm-287-74.35c.85.13,1.2.3,1.48.22,14.25-4,28.5-7.9,42.72-11.95,9.27-2.64,18.48-5.49,27.74-8.18,14.19-4.12,28.43-8.09,42.6-12.31,10.82-3.23,21.56-6.73,32.32-10.16q21.6-6.88,43.16-13.84c10.6-3.4,21.24-6.71,31.78-10.27,5.73-1.94,11.57-3.69,16.81-7a6.61,6.61,0,0,0-2.78.21c-7.84,2.19-15.59,4.84-23.54,6.5-10.44,2.18-20.36,6-30.55,8.89-5.74,1.65-11.39,3.64-17.09,5.44-6.31,2-12.65,3.92-19,5.95-3.78,1.22-7.48,2.71-11.27,3.87-5.53,1.69-11.15,3.1-16.67,4.81-8.72,2.7-17.38,5.58-26.08,8.33-10.76,3.4-21.51,6.8-32.3,10.07-9.83,3-19.51,6.36-29.45,9-9.43,2.52-18.64,5.89-27.94,8.93A10.22,10.22,0,0,0,195.08,326.83Zm13.18,17.94c1.45.44,1.78.65,2.06.6,12.49-1.77,25-3.43,37.46-5.39,9.19-1.45,18.38-3.07,27.47-5q16.32-3.52,32.46-7.79c11.42-3,22.84-6.07,34.06-9.7a474.7,474.7,0,0,0,44.82-16.78c9.89-4.35,20-8.27,29.42-13.56,6.22-3.47,12.53-6.78,18.78-10.19,3.42-1.86,6.81-3.79,10.21-5.69-1.8-.54-3.6-.62-4.73.21a87.34,87.34,0,0,1-12.29,7c-4,2-7.84,4.18-11.86,6.07-13.73,6.5-27.85,12.09-42.06,17.42-9.14,3.43-18.34,6.69-27.76,9.35-12,3.38-23.8,7.23-35.75,10.65-9.09,2.6-18.25,5-27.44,7.2-7.07,1.71-14.25,3-21.37,4.51-3.88.83-7.74,1.77-11.63,2.55-9.11,1.83-18.23,3.55-27.34,5.39C218.25,342.51,213.76,343.56,208.26,344.77Zm236.32-64.58c-1,.31-2.21.36-2.91,1-2.79,2.49-5.28,5.36-9.28,6a4.5,4.5,0,0,0-1.3.71c-5.16,2.93-10.23,6-15.51,8.75-6.31,3.26-12.79,6.2-19.22,9.23-4.95,2.33-9.83,4.85-14.92,6.81-10.83,4.18-21.7,8.29-32.7,12-10.37,3.48-20.91,6.5-31.43,9.5-5.42,1.54-11,2.5-16.47,3.88-14,3.53-28.25,6.16-42.52,8.43-10.33,1.64-20.75,2.73-31.12,4.12a37,37,0,0,0-4.43,1.15,14,14,0,0,0,5.59.82c10,.12,19.87-1.92,29.81-2.82,5.78-.52,11.54-1.41,17.25-2.46,6.87-1.26,13.65-3,20.5-4.32,5.7-1.12,11.53-1.66,17.14-3.1,10.77-2.78,21.57-5.57,32.08-9.18,12.73-4.36,25.32-9.24,37.7-14.52a362.2,362.2,0,0,0,39.1-19.84A126.83,126.83,0,0,0,444.58,280.19ZM491.5,399.33l.12-.47a45,45,0,0,0-4.91-2c-10-2.84-20.07-5.79-30.2-8.33-9-2.26-18.12-4.3-27.27-5.93-9.66-1.73-19.4-2.95-29.13-4.24-6.1-.8-12.23-1.47-18.36-1.93-7.13-.53-14.28-.82-21.42-1.12-8.12-.34-16.25-.85-24.37-.8-11.31.07-22.63.53-33.93.94-5.46.2-10.91.56-16.35,1-6.12.51-12.23,1.17-18.34,1.83a8.66,8.66,0,0,0-2.15,1.09c1,.87,1.59,1.84,2.28,1.91a35.12,35.12,0,0,0,6,0c6-.46,11.92-1.14,17.89-1.48,8-.46,16-.9,24-.93,14.3-.05,28.61.11,42.91.4,6.65.14,13.29.7,19.92,1.23,8.79.71,17.57,1.42,26.32,2.44,8.26,1,16.48,2.27,24.7,3.54,6.57,1,13.17,1.93,19.65,3.36,13.14,2.91,26.2,6.15,39.3,9.21A24,24,0,0,0,491.5,399.33ZM92.32,25.1c-.06,3.8,1.9,7,2.93,10.41s2.24,7,3.36,10.46q1.61,5,3.17,10c1.1,3.49,2.2,7,3.26,10.47s2.08,7,3.08,10.53,2,7.05,2.92,10.58,1.9,7.07,2.83,10.6q1.34,5.07,2.63,10.14c.9,3.54,1.83,7.08,2.64,10.64s1.49,7.17,2.28,10.75,1.68,7.12,2.43,10.7,1.4,7.18,2.09,10.78,1.43,7.17,2.06,10.77c.6,3.44,1.1,6.89,1.62,10.35s.81,7.29,1.66,10.84,0,7.19,2.05,10.56c.7-.46,1.36-.65,1.45-1,1.07-4.34,2.54-8.61,1.78-13.23-1-6-1.65-12.16-2.81-18.18-1.95-10.09-3.94-20.18-6.36-30.16-3.34-13.69-7-27.3-10.73-40.88-2-7.36-4.37-14.63-6.9-21.83C105,54.81,100,41.3,95.11,27.74,94.63,26.41,94.2,25.27,92.32,25.1Zm33.39,261.51c1.81-1.84,1.72-3.54,1.82-5.12.36-6.1.81-12.2.93-18.3.16-7.78.07-15.58,0-23.36,0-2.82-.25-5.63-.38-8.45-.38-8.12-.49-16.27-1.21-24.37-.67-7.59-1.94-15.13-3-22.67-.43-3-1.16-5.86-1.64-8.8-.87-5.24-1.51-10.51-2.49-15.72-1.27-6.85-2.78-13.66-4.18-20.49-1.17-5.67-2.3-11.35-3.47-17-1-4.87-2-9.74-3.07-14.59-1.41-6.47-2.37-13.11-4.46-19.35-2.6-7.73-4.07-15.71-6.32-23.5-.81-2.77-1.3-5.69-3.81-8.64a17.62,17.62,0,0,0,0,3.05c1.33,5.83,2.8,11.63,4.07,17.48,4.15,19,8.59,38,12.25,57.06,4.63,24.16,9,48.38,11.72,72.87A495.44,495.44,0,0,1,125.73,270C125.64,275.22,125.71,280.48,125.71,286.61ZM487.78,389.48a331.78,331.78,0,0,0-56.5-17.59,446.26,446.26,0,0,0-58.11-8.43c-19.78-1.71-39.51-1.35-59.27-.4a315.29,315.29,0,0,0-58.26,8.18c38.89-5,77.88-6.9,117-3.87S450.13,378.41,487.78,389.48ZM252.6,367.79c1.9-.18,3.82-.25,5.69-.57,15.59-2.68,31.25-4.66,47-5.82,15.6-1.14,31.19-1.7,46.85-1.39a394.91,394.91,0,0,1,59.57,5.57,422.66,422.66,0,0,1,60.85,15.21c2.83.93,5.64,1.95,8.49,2.84a10.51,10.51,0,0,0,2.72-.17C449.63,368.2,406,359.05,369,356.71,322.61,353.79,269.3,360.64,252.6,367.79ZM349.37,111.3c-.87-.12-1.33-.31-1.45-.19-2.94,3.13-6,6.17-8.73,9.48-3.06,3.7-5.76,7.68-8.71,11.47-3.66,4.69-7.61,9.17-11.1,14q-11.26,15.49-22.16,31.24Q274,210.76,251,244.32c-2.14,3.1-4.13,6.3-6.35,9.7,4,0,6.49-1.26,8.65-4.42q8.59-12.53,17.13-25.11c7.58-11.13,15.13-22.29,22.76-33.38q10.17-14.79,20.51-29.46c9.79-13.82,19.69-27.57,29.53-41.37C345.27,117.39,347.23,114.43,349.37,111.3ZM286.08,395.61c2.26,3.25,2.85,3.58,6.65,3.57,4.64,0,9.29-.18,13.94-.08q32.9.73,65.78,1.59c9.48.26,19,.56,28.42,1.19,13.76.93,27.51,2.12,41.25,3.32,11.09,1,22.16,2.12,33.24,3.21,3.19.31,6.38.7,9.56,1C452.56,399.73,333.41,391.66,286.08,395.61Zm-94.4-71.95.15.57a9.18,9.18,0,0,0,1.84-.2c5.87-1.84,11.72-3.72,17.58-5.58,8.4-2.66,16.81-5.28,25.2-7.95,9.34-3,18.63-6.08,28-8.95,10.16-3.12,20.43-5.91,30.58-9.09,21.26-6.65,42.47-13.48,63.7-20.22,7.58-2.41,15.17-4.82,22.78-7.14,10.93-3.33,21.88-6.63,32.85-9.82,6.21-1.81,12.5-3.36,18.74-5.06a13.91,13.91,0,0,0,2.37-1.46,14.27,14.27,0,0,0-3.14-.22c-3.56.76-7.12,1.55-10.64,2.47-14,3.63-27.95,7.13-41.83,11-10.36,2.9-20.57,6.33-30.83,9.54-14.26,4.47-28.52,8.89-42.75,13.46-12.8,4.11-25.55,8.39-38.32,12.59-5.2,1.71-10.42,3.32-15.59,5.09-6.12,2.11-12.1,4.66-18.31,6.45-12.39,3.57-24.38,8.31-36.68,12.15C195.43,321.93,193.58,322.88,191.68,323.66Zm-70.13-26.15a7.35,7.35,0,0,0,.6-1.51A253.58,253.58,0,0,0,124,256.76q-.45-16.19-1.86-32.34-1.58-18.1-4-36.13c-1.57-11.68-3.6-23.31-5.49-34.95-.93-5.73-1.85-11.47-3-17.15-2.06-9.86-4.32-19.68-6.53-29.51-.71-3.19-1.49-6.36-2.43-10.33-.41,1.22-.64,1.54-.59,1.81,1.32,7.53,2.71,15,4,22.59,3.45,20.16,6.67,40.36,9,60.7,2,17,3.77,34,5,51.14,1.42,19.76,2.25,39.54,1.85,59.35C119.88,293.87,119.71,295.94,121.55,297.51Zm79.58,31.18.1.58a22.13,22.13,0,0,0,3.17-.37q34.41-9.24,68.81-18.53c11.22-3,22.48-5.89,33.62-9.19Q336,292.56,365,283.46c20.28-6.36,40.46-13.08,60.31-20.72q5.82-2.24,11.54-4.67a12.45,12.45,0,0,0,2.4-1.82c-39.68,12.16-78.94,25.06-118.45,37.16C281,305.58,241,317,201.13,328.69ZM146.21,437.43a7,7,0,0,0,1.92-.23,23.77,23.77,0,0,0,3-1.71c17.25-11.53,34.3-23.34,50.78-36,10.67-8.18,21.34-16.38,30.76-26,2.58-2.63,5.81-4.84,7.05-8.94l-4.16-1.7c-3.09,3-5.78,5.94-8.87,8.43-14.65,11.76-29.29,23.53-44.16,35-10.39,8-21.12,15.59-31.74,23.29A10.79,10.79,0,0,0,146.21,437.43Zm111.52-57.68c-.45.91-1,1.89-1.41,2.92a59.51,59.51,0,0,1-13.19,20.45,191.69,191.69,0,0,1-16.71,15,253.65,253.65,0,0,1-34.63,23.4q-10.15,5.72-20.24,11.55c-2,1.17-4,2.5-6,3.76,8.31-1.6,16.4-3.57,23.71-7.52,8.45-4.57,16.7-9.53,24.91-14.55a148.41,148.41,0,0,0,22.43-16.59c7.26-6.6,14.25-13.44,18.82-22.37a52.67,52.67,0,0,0,4.46-13.64C260.21,380.79,259.42,380,257.73,379.75ZM241.8,366.38a13.07,13.07,0,0,0-1.7,1.41c-8.19,9.73-17.83,17.91-27.78,25.73-7.58,6-15.35,11.68-23.17,17.33-10.78,7.78-21.68,15.41-32.54,23.07-4.21,3-8.48,5.86-12.71,8.81-1.91,1.33-3.16,3.07-3.6,6.44,4.91-2.93,9.1-5.21,13-7.83,13.82-9.16,27.54-18.48,41.33-27.68A280.82,280.82,0,0,0,224.32,391c6-5.27,12.05-10.48,16.85-16.92,1.26-1.68,2.35-3.49,3.66-5.45Zm-91.55,60.95c2.88-1.8,5.09-3,7.06-4.44,13.33-9.95,26.66-19.91,39.89-30q12.9-9.84,25.51-20.06c4-3.23,8.08-6.43,10.89-10.86-3.87-4.4-5.67-4.47-9.85-.84-12.45,10.81-24.83,21.71-37.5,32.28-10.6,8.85-21.53,17.33-32.4,25.87C151.43,421.18,150.24,423.39,150.25,427.33ZM293,401.72c1.51,2.64,3.62,2.69,5.8,2.73,9.16.17,18.32.31,27.47.61,12.15.4,24.28.93,36.43,1.42,16.8.69,33.61,1.23,50.4,2.15,13.25.73,26.47,1.91,39.71,2.92,13.9,1.07,27.86,1.36,41.64,3.76A18.54,18.54,0,0,0,498,415a18.34,18.34,0,0,0-3.47-1.42c-3.93-.54-7.89-.91-11.83-1.41-11.7-1.48-23.37-3.38-35.11-4.4-18.72-1.61-37.49-2.84-56.26-3.85-14.92-.8-29.87-.92-44.8-1.55C328.79,401.63,311.09,401.55,293,401.72Zm-13.36-12c1.41,3.16,3.3,3.58,5.62,3.38,2.81-.25,5.63-.49,8.45-.5,15.33-.05,30.65-.16,46,0,10,.1,20,.41,29.94,1,12.78.76,25.54,1.76,38.28,2.91,15.23,1.36,30.45,2.81,45.64,4.56,9.54,1.1,19,2.83,28.52,4.25a10.08,10.08,0,0,0,2.11-.12A167.4,167.4,0,0,0,467.35,401c-4.23-.86-8.49-1.62-12.75-2.3-7.23-1.16-14.44-2.45-21.7-3.27-11.53-1.31-23.09-2.36-34.65-3.36-11.08-.95-22.16-2.11-33.26-2.45-16.25-.5-32.52-.46-48.78-.44C304.27,389.15,292.34,389.49,279.67,389.7ZM419.26,240.13l-.1-.66c-.92,0-1.84-.07-2.74,0a219.63,219.63,0,0,0-29.95,4.87c-10.83,2.5-21.68,4.91-32.47,7.59-8.36,2.08-16.51,4.92-24.78,7.34-15.89,4.65-31.52,10.26-47.15,15.79-10.29,3.64-20.39,7.81-30.56,11.81q-17.12,6.74-34.17,13.61a31.33,31.33,0,0,0-4,2.27,3,3,0,0,0,2.58.2c5.15-1.89,10.28-3.82,15.42-5.74,11.83-4.42,23.62-8.94,35.49-13.24,8.59-3.11,17.35-5.76,25.92-8.92,20.11-7.41,40.64-13.53,61.16-19.66,9.52-2.84,19.24-5.08,28.93-7.32,10.68-2.47,21.43-4.62,32.15-6.92C416.45,240.85,417.85,240.47,419.26,240.13Zm65.68,202.26c0-.33-.05-.66-.07-1-62,7.8-124,7.24-186.3,1.39-.56,1.07-1.15,2.17-2,3.75,4,.41,7.39.87,10.82,1.11,6.3.44,12.65.47,18.92,1.2a225.8,225.8,0,0,0,25.33,1.51c7.64,0,15.32-.24,22.91.42,8.29.73,16.53.25,24.78,0,9.63-.26,19.26-.74,28.88-1.31,6.13-.36,12.25-1,18.35-1.64,6.28-.7,12.55-1.55,18.81-2.45C471.9,444.48,478.42,443.41,484.94,442.39ZM13.93,479a33.63,33.63,0,0,0,3-3.47c1.47-2.26,2.84-4.61,4.09-7a178.19,178.19,0,0,0,12.41-28.67,186.76,186.76,0,0,0,7.45-38.07c.86-8.51.69-17.16.58-25.74-.15-10.81-1.85-21.49-3.67-32.13-.76-4.39-1.88-8.72-2.78-13.09-.34-1.66-1.13-2.79-3.48-3.6C42.88,380.19,37.11,430.52,13.93,479Zm365.44-371.5c-5.64-.92-5.66-.94-7.82,2.41-5.23,8.08-10.49,16.14-15.64,24.27-6.81,10.74-13.39,21.64-20.33,32.29-11.52,17.68-23.25,35.22-34.92,52.81-1,1.48-2.11,2.86-1.67,5,2.57-.38,4.17-2,5.49-3.9,2.46-3.54,4.87-7.12,7.25-10.71q11.55-17.44,23.08-34.91,12.38-18.72,24.78-37.42c4.24-6.35,8.62-12.61,12.86-19C374.73,115,376.86,111.49,379.37,107.52ZM247,363.87c0,.44.1.89.16,1.33,1.55-.31,3.11-.57,4.64-.94,2.27-.53,4.49-1.28,6.77-1.68,9.49-1.68,19-3.4,28.51-4.81,7.07-1,14.2-1.77,21.32-2.39,7.78-.67,15.58-1.22,23.38-1.52s15.54-.55,23.29-.24c9.46.37,18.9,1.22,28.33,2.13,7.94.77,15.9,1.58,23.74,3,10,1.81,19.84,4.19,29.73,6.41a241.61,241.61,0,0,1,29.56,8.78,5.15,5.15,0,0,0,4.7-.06c-37.14-15.05-75.2-22.15-114.31-23.32A375.05,375.05,0,0,0,247,363.87Zm56.69,64.45c8.74.74,17.35,1.62,26,2.15,17.09,1.06,34.18,2,51.29,2.84,8.45.4,16.92.36,25.39.49,9.81.15,19.63.3,29.44.38,6.65.06,13.3.21,19.93-.05,8-.31,15.91-1,23.87-1.54,1.28-.08,2.56-.23,3.84-.34a48.85,48.85,0,0,0-10.68-.83c-15.45-.21-30.91-.39-46.36-.69-10.15-.2-20.29-.59-30.44-.92-7.14-.23-14.29-.41-21.43-.79-12.93-.7-25.85-1.52-38.77-2.31-8.31-.52-16.6-1.12-24.9-1.6a40.76,40.76,0,0,0-5.95.17C303.31,425.42,303,426.47,303.65,428.32ZM288,229.94a13.22,13.22,0,0,0,7-5.17c2-3,4.11-6,6.1-9.09q12.62-19.43,25.2-38.88c4.25-6.54,8.63-13,12.84-19.55,4.66-7.26,9.16-14.63,13.81-21.9,5.36-8.4,10.82-16.73,16.2-25.12a17.54,17.54,0,0,0,1.2-3c-3.07-1.11-4.35.67-5.56,2.53-3.72,5.7-7.47,11.39-11.12,17.14-7.71,12.15-15.2,24.43-23.43,36.25-5.89,8.46-11.33,17.23-17,25.83q-11.58,17.51-23.21,34.94C288.89,225.68,287.44,227.35,288,229.94ZM308,457.5c1.57,2,2.91,4,5.44,4.2,7.1.62,14.19,1.52,21.3,1.75,11.12.36,22.26.17,33.39.37A341.9,341.9,0,0,0,406,461.87c10.58-1,21.13-2.21,31.68-3.51,5.86-.72,11.71-1.65,17.51-2.76,6.37-1.22,12.68-2.74,19-4.18,1.28-.29,2.52-.81,3.77-1.22-18.9,2.16-37.57,5-56.34,7.08a509.13,509.13,0,0,1-56.87,2.5C345.86,459.72,327,458.77,308,457.5ZM84.51,52.14c-1.84,3-.8,5.13-.45,7.16,1.55,9.17,3.52,18.28,4.9,27.48q5.66,37.74,10.9,75.53c1.41,10.21,2.22,20.5,3.29,30.76.47,4.48,2.36,8.48,4.23,12.56a48.42,48.42,0,0,0,.54-10.71c-1.14-11.4-2.54-22.77-3.88-34.14-.8-6.77-1.57-13.54-2.58-20.28-1.38-9.19-3-18.35-4.49-27.51-1.69-10.13-3.13-20.31-5.19-30.36S87.09,62.82,84.51,52.14Zm58.09,109c2-3.19,3.1-6.36,2.32-9.94-.89-4.06-1.64-8.15-2.66-12.18-3-12.09-5.92-24.23-9.4-36.2-2.68-9.21-6.1-18.22-9.35-27.27-3.13-8.71-6.4-17.38-9.73-26-1.3-3.39-3-6.63-4.4-10s-2.41-6.88-4-10.13c-1.91-3.9-4.25-7.58-6.41-11.35C117.05,64.72,132.73,112,142.6,161.16ZM96.25,22.23l-.89.69c1.31,3.73,2.52,7.49,4,11.16,6.84,17.52,12.79,35.33,18.19,53.33,5.3,17.68,10.26,35.46,14,53.54,1.93,9.27,3.49,18.61,5.29,27.91.32,1.64-.06,3.65,2.05,4.95a16.51,16.51,0,0,0,1.45-11.7q-1.5-7.56-3.15-15.09c-1.71-7.94-3.19-15.94-5.27-23.78-2.69-10.07-5.77-20-8.88-30-3.17-10.13-6.51-20.2-9.9-30.25-1.86-5.49-4-10.87-6-16.34a230.2,230.2,0,0,0-9.19-23C97.67,23.07,96.84,22.71,96.25,22.23ZM302.49,434c2.34.34,4.61.84,6.9,1,15.06,1,30.11,2.22,45.2,2.8,8,.3,15.88,1.18,23.83,1.32,16.46.3,32.92.36,49.38.35,7.49,0,15-.31,22.45-.68,6.95-.35,13.89-.91,20.83-1.47,2.92-.24,5.82-.72,8.73-1.1l-.07-1c-1.6,0-3.2,0-4.8,0-10.48.33-21,.77-31.44,1-8.65.18-17.3.25-25.94.15-10.12-.12-20.24-.43-30.35-.73q-12-.36-23.91-.91c-7.64-.36-15.28-.84-22.91-1.29-8.79-.53-17.58-1.11-26.37-1.64-3.15-.19-6.31-.34-9.47-.4C303.4,431.37,302.1,431.51,302.49,434Zm-150-16.17c14.64-9.48,67-53.42,72.34-60.72l-2-1.22c-2.62-1.56-4.89-1.52-7.05,1a51.11,51.11,0,0,1-5.11,4.74q-27.34,24-54.71,48.05C153.52,411.8,152,414.12,152.48,417.83Zm143.33,31.66c-.12.49-.23,1-.35,1.46,2.07.91,4.06,2.25,6.22,2.63a105.66,105.66,0,0,0,11.4,1.05c5.78.38,11.56.75,17.35,1,11.39.52,22.79,1,34.19,1.4,4.4.15,8.81-.14,13.21-.15,5.77,0,11.54.27,17.3,0,6.63-.26,13.25-.89,19.87-1.48,8.61-.76,17.23-1.46,25.81-2.53,7.09-.88,14.13-2.26,21.18-3.44,1.95-.33,3.89-.73,5.84-1.11-9.66.45-19.23,1.35-28.8,2.19s-18.9,1.81-28.37,2.32c-9.62.52-19.27.72-28.91.76s-19.32-.18-29-.54c-9.48-.35-18.94-1.26-28.41-1.51S305.36,449.5,295.81,449.49ZM485,451.69a21.67,21.67,0,0,0-2.54.15c-10.71,2.16-21.38,4.56-32.14,6.45-10.45,1.85-21,3.3-31.51,4.7-7.74,1-15.53,1.73-23.3,2.51-3.46.35-6.94.75-10.42.77-16,.11-31.94.21-47.9.06-5.45-.06-10.89-.89-16.34-1.31-.51,0-1.06.4-1.74.68,4.63,4.21,10,4.88,15.55,5,14.11.26,28.22.49,42.32-.39,8.78-.55,17.58-1,26.33-1.88,7.25-.7,14.46-1.8,21.66-2.92,7.55-1.16,15.09-2.41,22.58-3.89,6-1.19,11.93-2.78,17.89-4.19,5.81-1.36,11.63-2.69,17.43-4.1C483.4,453.17,483.85,452.56,485,451.69Zm-157.33-239c4.13,1.35,6.06-.84,7.81-3.43,4-5.9,8-11.84,12.05-17.69,6.77-9.65,13.69-19.19,20.43-28.86,5.12-7.34,10.05-14.82,15.09-22.22,2.62-3.84,5.31-7.63,8-11.44,1.75-2.52,1.79-5,0-8a11,11,0,0,0-2.07,1.71Q358.33,167.68,327.64,212.72Zm-227.2-26.55c-1.26-11.35-2.33-21.5-3.53-31.65-1.22-10.39-2.46-20.78-3.91-31.14C91.58,113.2,90.34,103,88.19,92.93S85.4,72.4,82.45,61.84a7.53,7.53,0,0,0-2,7c1.31,7.53,2.59,15.07,3.67,22.64,1.89,13.16,3.73,26.33,5.41,39.52,1.61,12.7,3,25.43,4.5,38.14C94.77,174.88,95.29,180.7,100.44,186.17Zm347.12,98.11a20.41,20.41,0,0,0-4.24,1.1c-1.11.59-1.83,2-3,2.46-4.57,1.9-8.26,5.22-12.57,7.53-2,1.08-3.81,2.67-5.89,3.63-10.89,5-21,11.44-32.09,16.16-9.89,4.22-19.4,9.25-29.72,12.49-9.47,3-18.79,6.43-28.17,9.7a11.29,11.29,0,0,0-1.81,1,43.51,43.51,0,0,0,10.05.16,13.64,13.64,0,0,0,3.41-.66c7.22-2.47,14.53-4.74,21.6-7.58,9.1-3.65,18-7.8,27-11.69a243.39,243.39,0,0,0,30.33-16.17c8.18-5,16-10.68,23.89-16.1C446.81,286.05,447,285.35,447.56,284.28Zm-54-53.42-.25-.88c-4.91.53-9.85.88-14.74,1.61a337.39,337.39,0,0,0-38.95,7.85c-9.12,2.49-18.19,5.15-27.34,7.49-11.6,3-22.56,7.81-34,11.22a121.11,121.11,0,0,0-15.22,6.05c-11.38,5.14-22.78,10.25-34,15.81-8.25,4.1-16.16,8.87-24.2,13.4-.36.21-.42.95-1.07,2.55,3.75-2.12,6.37-3.83,9.18-5.15q23.24-10.89,46.55-21.6a342.17,342.17,0,0,1,38.6-14.85c15.66-5,31.39-9.88,47.23-14.33A288.29,288.29,0,0,1,384,232.34C387.16,231.9,390.36,231.36,393.56,230.86ZM300.05,440.25c35.26,3,69.86,4.75,104.52,4.56,17.06-.09,34.14-.91,51.15-2.44,3.28-.29,6.53-.82,9.79-1.24-13.62-.26-27.19.35-40.77.55-13.76.21-27.53.27-41.28-.06-13.6-.32-27.21-1.1-40.8-1.88s-27.46-1.82-41.37-2.76C300.94,437.88,300.61,438.76,300.05,440.25Zm99-213.4c0-.29.05-.58.08-.86a10.42,10.42,0,0,0-3.18-.75c-8.05.7-16.15,1.14-24.11,2.43-10.94,1.77-21.76,4.27-32.65,6.36a228.07,228.07,0,0,0-29.65,8c-14.74,5-29.45,10.08-44,15.55-7.88,2.95-15.24,7.16-23.06,10.34-5.77,2.36-11.09,5.82-16.55,8.9-2,1.11-4,2.25-5.32,4.28a30.25,30.25,0,0,0,5.41-2.27c5.51-2.71,10.95-5.58,16.54-8.09,8.94-4,17.88-8,27-11.57q16.27-6.33,32.86-11.81c10.56-3.48,21.23-6.73,32-9.48,11.57-3,23.2-5.75,35.09-7.36,9.37-1.27,18.65-3.29,28.16-3.35A6.35,6.35,0,0,0,399.05,226.85Zm-194,126c-4.36-2.08-7.52-2.47-10.51.41-2.15,2.07-4.45,4-6.59,6.08-10,9.79-19.7,19.81-29.92,29.32-3.7,3.45-4.38,6.91-3.32,11.74a12.89,12.89,0,0,0,2.32-1.34C172.77,383.9,188.53,368.71,205,352.86Zm10.53.92c-1.21-.32-2-.48-2.81-.74a7,7,0,0,0-8.4,2.32c-2.58,3-5.5,5.76-8.38,8.52q-14.73,14.17-29.53,28.28-5.58,5.35-11.09,10.78c-1.6,1.56-2.51,3.28-1.23,5.61C162.53,403.07,211.28,359.66,215.53,353.78ZM173.37,482.45l-.45.89c.61.34,1.21,1,1.83,1,11.08.51,22.16.92,33.24,1.42q23.58,1.06,47.15,2.22c8.6.41,17.2.95,25.81,1.2,3,.09,6-.5,9.55-.84l-3-4.64ZM474.9,416.32l0-.47c-3.07-.43-6.12-1-9.21-1.26-12.77-.95-25.55-1.86-38.33-2.65-10.12-.62-20.24-1.06-30.36-1.55-11.28-.55-22.54-1.14-33.82-1.58-10.61-.41-21.23-.66-31.84-.94q-14.44-.4-28.88-.72c-1.54,0-3.18-.27-5.24,1.23a15.56,15.56,0,0,0,3.19,1c8.46.41,16.93.8,25.39,1.08,4,.14,8-.1,12,.07,12.11.52,24.21,1.22,36.32,1.73,13,.55,25.91.94,38.87,1.46,12.79.52,25.59,1.11,38.38,1.68,1.66.07,3.32.19,5,.29,5.64.35,11.29.7,16.93,1A6.24,6.24,0,0,0,474.9,416.32ZM336.3,211c4.32.53,6-1.5,7.57-3.7Q355.69,191,367.53,174.6c7.12-9.8,14.36-19.52,21.34-29.42,2.29-3.25,2.85-7.12,2.05-11.86a27.21,27.21,0,0,0-2.43,2.58C371.21,160.74,354,185.6,336.3,211ZM155.36,130.76c3-2.34,3.39-3,2.53-6.11-1.63-5.92-3.19-11.86-5.18-17.65-3.46-10-7.16-20-10.88-29.91-5.52-14.78-12.48-28.91-19.52-43-3.17-6.34-6.34-12.69-9.76-18.89-1.18-2.14-2.32-4.6-5.15-5.49,9.66,19.48,19.11,39,27.35,59.08A505.12,505.12,0,0,1,155.36,130.76ZM78.46,70c-1.27,1.55-2.15,2.16-2.29,2.91a13.24,13.24,0,0,0,.08,4c1,7.42,2,14.83,2.93,22.25q1.45,11.39,2.79,22.78c.78,6.78,1.43,13.57,2.21,20.35.7,6.13,1.39,12.25,2.29,18.35a13.46,13.46,0,0,0,4.88,9c.33-.88.67-1.33.63-1.74-3.17-30.71-7.24-61.3-12-91.81C79.78,74.37,79.22,72.81,78.46,70ZM484,424.53l.09-.7c-12.13-.52-24.25-1-36.38-1.56s-24.2-1.19-36.31-1.72-23.95-1-35.92-1.45-24.18-.85-36.27-1.31-24-1.83-37-1.28c2.54,2.39,4.72,2.09,6.77,2.18,13.11.58,26.22,1.11,39.33,1.73,13.57.65,27.13,1.39,40.7,2.05,4.14.2,8.28.22,12.42.42,6.46.31,12.9.82,19.36,1,10,.32,19.93.51,29.9.68,10.47.18,20.94.28,31.4.39A8.3,8.3,0,0,0,484,424.53Zm-325,49.2c0,.21-.05.41-.07.62a8.24,8.24,0,0,0,2.1.58q9.15.07,18.3,0c7.46-.06,14.92-.1,22.37-.28,12.26-.3,24.52-.76,36.78-1,9.45-.2,18.9-.08,28.35-.35,3-.08,6.29.5,9.16-1.37-1.84-2.83-4.36-3.55-7.42-3.43-12.47.48-25,.67-37.43,1.3-19.28,1-38.54,2.21-57.82,3.3C168.54,473.38,163.76,473.53,159,473.73ZM443.84,361.15a48.92,48.92,0,0,0-13.77-5.49q-5.08-1.11-10.21-2c-5.88-1.07-11.73-2.3-17.65-3-9.68-1.21-19.38-2.33-29.11-3-11.57-.85-23.17-1.57-34.76-1.71-7.44-.1-14.89.93-22.34,1.48-5.47.4-11,.46-16.41,1.3-11,1.7-21.94,3.59-32.82,5.87-4.72,1-9.69,1.7-13.81,4.84,31.41-7,63.12-11.2,95.33-11.12A369,369,0,0,1,443.84,361.15Zm43,94.26-.14-.35c-17.05,3.61-34.08,7.26-51.14,10.79s-34.16,5.2-51.39,6.7-34.68.9-52.21,1c.87,3.19,3,3.48,5.2,3.52,6.7.12,13.41.4,20.11.16,8.43-.29,16.85-.92,25.27-1.62,8.1-.67,16.23-1.27,24.26-2.5,15.89-2.44,31.79-5,47.41-8.94,9.34-2.35,18.7-4.63,28-7A44.2,44.2,0,0,0,486.88,455.41ZM284,480.78c-1.79-5.35-5.77-5.24-9.58-5.16-11.48.24-22.95.64-34.43.9q-21.72.5-43.43.88c-6.5.12-13,.12-19.51.21-1.37,0-3-.35-4.13,2,9.55-.72,18.63,0,27.73.2s18.13.43,27.21.49c9.3.05,18.6.41,27.9.5S274.25,480.78,284,480.78ZM164.45,117.07c2.39-1.09,3.09-2.74,2.56-4.95a37.6,37.6,0,0,0-1.33-4.81c-4.53-12-8.9-24-13.77-35.78-3.42-8.27-7.46-16.29-11.4-24.34-2.47-5-5.22-9.94-7.94-14.86-3.75-6.81-8.81-12.83-12-20-.29-.64-1.36-.92-2.06-1.37l-.78.68a540.75,540.75,0,0,1,26.61,51A475.1,475.1,0,0,1,164.45,117.07ZM83.78,157.78c0-2.53.13-3.95,0-5.35-.93-8.57-1.86-17.14-2.92-25.69-1.53-12.35-3.18-24.69-4.74-37-.47-3.78-.76-7.58-1.23-11.36-.07-.55-.67-1.44-1.07-1.46a2.69,2.69,0,0,0-2.08.79,5.11,5.11,0,0,0-.83,2.76,54,54,0,0,0,.33,6.48q1.89,17.36,3.9,34.7c1.09,9.25,2.35,18.47,3.44,27.71C78.93,152.5,80.42,154.91,83.78,157.78Zm262,50c.8,1.92,2.08,1.94,3.34,1.14a8.79,8.79,0,0,0,2-2.14c10.39-13.36,20.66-26.81,31.23-40,3.16-3.94,4.6-8.31,5.48-13,.11-.58-.4-1.28-.82-2.48ZM174,114.05c2.84-2.21,5.76-4.31,8.5-6.63,9.81-8.31,20.56-15.28,31.57-21.8,7.7-4.57,15.91-8.29,23.85-12.47,1.88-1,4.15-1.48,5.26-3.68-12.36,3.15-24.34,7.44-35.2,14C194.82,91.32,182.51,100.53,174,114.05ZM324.6,422.29l-.06,1.1c3.58.28,7.16.62,10.74.82,14.11.8,28.21,1.6,42.32,2.3,5,.24,10,.06,15,.29,9.78.44,19.55,1.17,29.33,1.54,8.28.31,16.58.29,24.87.39,9.79.12,19.59.28,29.38.28a53,53,0,0,0,6.93-.88C430.18,427,377.4,424.4,324.6,422.29ZM102.75,132.12a21.27,21.27,0,0,0-.32,3.36c.9,7.08,1.93,14.16,2.79,21.25,1.65,13.7,3.32,27.4,4.8,41.11,1.55,14.39,2.87,28.79,4.35,43.18.19,1.82.18,3.81,2.23,6.15-.06-9.43-.66-17.84-1.41-26.25-.22-2.47-.06-5-.42-7.44-.78-5.39-1.71-10.72-2-16.2-.37-7.3-1.42-14.56-2.3-21.82-.76-6.21-1.7-12.39-2.57-18.59-1-7.22-2-14.44-3.11-21.64C104.68,134.45,103.88,133.78,102.75,132.12ZM338.57,480.26c2.39,1.85,3.27,3.6,5.82,3.59a343,343,0,0,0,36.26-1.64c11.06-1.2,22.11-2.49,33-4.62a54.67,54.67,0,0,0,15.3-5.33c-15.43,1.95-30.23,4-45.07,5.65S354.35,479.81,338.57,480.26ZM173.86,461.69c0,.25.06.51.1.76a29.23,29.23,0,0,0,3.86,0q35.55-4.86,71.09-9.8a.61.61,0,0,0,.35-.34,1,1,0,0,0,0-.46c-3.67-3.57-7.79-4.84-12.65-2.56a4.48,4.48,0,0,1-1,.11q-17.39,3.21-34.76,6.44c-1.79.34-3.55.89-5.33,1.28Q184.69,459.41,173.86,461.69ZM276.29,394.3a25.3,25.3,0,0,0-1,3.7c-.66,6.79-3.41,12.77-6.84,18.53a75.82,75.82,0,0,1-12.68,16c-1.22,1.18-3.06,2.12-2.82,4.32,3.75,1.91,6.49.43,9-2.13,5.8-6,10.78-12.58,14.06-20.36a41.64,41.64,0,0,0,3-16C279,396.43,278.64,395,276.29,394.3Zm-3.69-4.42c-1.72,5.55-2.71,10.07-4.51,14.22a71.14,71.14,0,0,1-6.85,12.1,89.13,89.13,0,0,1-8.93,10.68c-3.13,3.28-6.65,6.19-10.16,9.39,4.35,1.6,5.62,1.52,8.07-.64,8.77-7.76,16.31-16.53,20.76-27.48,1.85-4.54,3.38-9.34,3.11-14.4C274,392.81,273.4,391.9,272.6,389.88ZM68.83,139.34c.29-.48.8-.91.77-1.29q-2.38-25.25-4.89-50.48c0-.58-.58-1.11-.89-1.66-3.54,1.38-3,4.29-2.8,6.85,1,12.93,2.22,25.85,3.31,38.78C64.61,134.83,65.71,137.58,68.83,139.34ZM380.51,339.72c3.73,1.67,6.11,1.38,8.73.12A209.34,209.34,0,0,0,424,319.33c2.8-2.09,5.68-4.08,8.3-6.37,4.22-3.7,8.28-7.58,12.35-11.45.41-.4.41-1.24.94-3a202.1,202.1,0,0,1-30.87,23.21A259.86,259.86,0,0,1,380.51,339.72Zm61.19-29.48-.95-.86c-7.75,5.81-15.25,12-23.33,17.32s-16.68,9.65-25.32,14.57c4.17,2.92,7.53,1.53,10.94-.44,9.37-5.41,18.48-11.19,26.51-18.48C433.78,318.51,437.66,314.29,441.7,310.24Zm-180.38,127c5.47,2.79,5.47,2.8,8.63-.51A48.74,48.74,0,0,0,283.5,407.6c.37-3.39,1.23-7.12-2.83-10.49a44.92,44.92,0,0,1-5.05,21.78A71,71,0,0,1,261.32,437.23ZM131.81,368.07c4.8,7.58,9.15,15.34,11.94,23.87,2.85,8.71,3.47,17.72,3.38,27.73,1.87-2.37,0-4.58,2.1-6.21,1-.8.31-3.67.82-5.48a20.69,20.69,0,0,0,.38-8.29A56.43,56.43,0,0,0,145,382.3C142.11,376.15,138.62,370.77,131.81,368.07ZM68.48,82,67,82.2c-.63,3.36-.25,6.79.06,10.17C68,102.3,69,112.22,70,122.14c.63,6.27,1.38,12.54,1.9,18.83.24,2.81,1.37,4.86,4.36,7.13-.75-5.82-1.44-10.68-2-15.55-.78-7.25-1.42-14.52-2.12-21.78-.74-7.74-1.42-15.48-2.27-23.21A35.76,35.76,0,0,0,68.48,82ZM193,463.92l66.63-5.4c-4.3-3.87-4.3-3.91-8.67-3.4-4.94.58-9.86,1.25-14.79,1.87L227.79,458c-6.88.88-13.77,1.76-20.65,2.68-4.25.58-8.5,1.23-12.74,1.88C194.15,462.64,194,463,193,463.92ZM379.86,215c-6.18-1.5-12.3-2.15-18.64-.67-8.71,2-17.67,3.14-26.31,5.42-12.17,3.22-24.16,7.12-36.18,10.85-1.81.57-3.93,1-4.9,3.23C321.77,224.07,350.21,216.9,379.86,215Zm24.52,267.9-.21-1.11c-6.2.86-12.38,1.87-18.6,2.55-6.41.7-12.85,1.2-19.29,1.59-6.23.37-12.47.49-18.82.72.88,3,3.18,2.61,5,3,5.25,1.12,10.47-.21,15.68-.46,7.1-.34,14.17-1.3,21.25-2.07C394.63,486.52,399.8,485.66,404.38,482.87ZM178.8,99.24a11.86,11.86,0,0,0-1.34-8.31,18.34,18.34,0,0,1-1.48-4.2,83.89,83.89,0,0,0-2.42-8.09c-4.73-11.28-9.79-22.42-16.14-32.9-1.18-2-2.15-4.33-5.47-6,9.43,19.78,19.24,38.28,25.7,58.22C177.78,98.4,178.27,98.69,178.8,99.24ZM444.32,310.35c-12.38,13.33-25.66,24.22-41.22,32.6,2.48,2.12,4.48,2,6.66.4,2.83-2,5.76-3.9,8.64-5.84a116,116,0,0,0,19.36-16.29c2.38-2.5,4.53-5.24,6.66-8C444.74,312.85,444.4,311.93,444.32,310.35ZM105.61,327.06a20.34,20.34,0,0,1,3,1.49c.77.58,1.31,1.95,2,2a34.13,34.13,0,0,0,8.14.08,12.51,12.51,0,0,0,5.06-2.38c1.16-.79,1.08-2-.21-3a21.37,21.37,0,0,0-11.18-4.74,16.22,16.22,0,0,0-5.8.89,2.43,2.43,0,0,0-1.74,3.5C105.18,325.67,105.41,326.44,105.61,327.06ZM69.28,38.1c1.29,10.71,2,10.27-4.4,21.15-3.79,6.43-8.07,12.57-12.13,18.84L48.25,85a2,2,0,0,0,1.87-.63c.69-.71,1.35-1.46,2-2.22C53,81,53.83,79.78,54.82,78.7A98.33,98.33,0,0,0,70.3,56.4c2-4,3.46-8.23,2.69-12.91C72.63,41.25,72,39.36,69.28,38.1ZM296.85,414.67c-.31.34-.64.55-.73.83a18.26,18.26,0,0,0-.73,2.89c-1.18,8.33-5.17,15.35-10.14,21.92-1,1.26-1.89,2.53-2.84,3.79,4,2.58,4.14,2.65,6.32-.26A77.23,77.23,0,0,0,294,436a41.4,41.4,0,0,0,5.21-14.91C299.52,418.68,299.74,416,296.85,414.67ZM379.43,175c-9.14,10.59-18,21.44-26.38,32.64,1.47,1.61,2.66,1.31,3.69.22,2.51-2.62,5-5.24,7.4-8C370.52,192.41,376,184.4,379.43,175ZM237.35,446.22a3.74,3.74,0,0,0-4.08-2.8,27.32,27.32,0,0,0-5.43.54c-8.69,2.1-17.37,4.26-26,6.54a47.31,47.31,0,0,0-6,2.49c.11.34.21.68.32,1C209.87,451.7,223.4,448.27,237.35,446.22Zm-66.46-94.05c-5.52-.49-8.93.31-11.37,2.57s-4.58,4.34-6.81,6.58c-2.44,2.47-2.43,3.16,0,7.22Zm-54-39.24c-2.46-5.27-7.15-4.64-11-5.1-2.1-.26-5,.56-5.76,3.64.34.89,1.11,1.85,1,2.65-.37,2,2.36,1,2.23,2.61l6.87.06c.54-1.58,2.42.63,3.2-1.26C113.84,314.42,115.57,313.84,116.87,312.93ZM57,126.7a11.28,11.28,0,0,0,.73-3.13c-.53-7.45-1.15-14.89-1.79-22.34-.11-1.24-.43-2.48-.71-4.06-2.36,1.42-3.19,3.15-3.05,5.23.46,6.79,1.06,13.57,1.56,20.35C53.86,124.64,54.79,125.83,57,126.7ZM86.06,318.62c0,2.75,2.7,3.61,3.62,5.57,2.66-.52,4.9,2.34,7.72.93,1.33-.67,3.31-3.4,3-4.8a3.6,3.6,0,0,0-3.29-3.24,18.1,18.1,0,0,0-4.41-.06C90.52,317.37,88.37,318.05,86.06,318.62Zm19.13-13.43c-5.15-3.66-10.79-2.9-14.59,1.66-1.74,2.09-1.29,4.47,1.17,5.6a44.32,44.32,0,0,0,4.39,1.45C96.89,308.81,100.48,306.49,105.19,305.19Zm47.29,43.74c3.8,1.36,7.56,1.1,11.78-.91-.48-1.52-.55-3.39-1.52-4.39-1.79-1.87-4.36-2.23-7-2C152.33,342,151.65,343.41,152.48,348.93Zm19.86-15c1.55,1,2.71,1.9,3.95,2.63a21.43,21.43,0,0,0,3.91,2c1.74.57,3.51,1.36,5.43.14s2.35-2.55.71-3.75a34.73,34.73,0,0,0-6.76-4.12C175.73,329.2,174.17,330,172.34,334ZM109,304.15c3.58,2.14,3.59,2,7.93,2.27,3,.18,6,.79,9.06,1.22a11.64,11.64,0,0,0-9.59-7.52C113,299.72,110.18,300.37,109,304.15ZM57.15,79.53l.8.73a8.51,8.51,0,0,0,1.9-1.38c3.85-5.08,7.62-10.2,11.42-15.31,2.83-3.79,4-8.24,4.91-12.77A11.89,11.89,0,0,0,75.7,48c-2,4.53-3.34,8.19-5.17,11.59-2,3.63-4.45,7-6.59,10.51C61.93,73.41,58.65,75.87,57.15,79.53Zm423.38,388-44.69,20.63A183.44,183.44,0,0,0,480.53,467.58ZM167,317.21c0-3,0-3-2.16-4.66-3.45-2.66-7.16-2.85-11.06-1.45-.35,2.75,2,3.37,3.34,4.59a51.48,51.48,0,0,0,4.56,3.3Zm3.29,30.37c1.75.24,3.31.57,4.88.64a3.49,3.49,0,0,0,3.52-2.23c.68-1.6-.5-2.55-1.57-3.22a19.69,19.69,0,0,0-5.26-2.51,7.57,7.57,0,0,0-4.25.5c-.65.24-.94,1.47-1.11,1.77Zm265.55-20.22a8,8,0,0,0-2.37.89c-6.52,5.24-12.65,11-20,15.12-.42.24-.28,1.5-.51,3C422.45,341.55,429.24,334.71,435.82,327.36ZM35.28,67.12c4.24-6.5,8.79-12.88,8.6-22.08A47.37,47.37,0,0,0,35.28,67.12ZM148.74,336.05c-2-3.53-4.72-3.72-7.25-3.68-2.77.05-5.53.69-7,3.31.75,2.78,3.4,2.69,4.74,2.64C142.21,338.19,145.18,337,148.74,336.05Zm-17.08-18.69c-1,3.8,1.79,5,4.18,6.23l7-4.1C139.66,316,136.12,315.45,131.66,317.36Zm11,7.14c-1.54,4.52-1.54,4.52,6.57,7.6,1.77-.83,2.9-2.05,2.54-4.22s-2-3-3.83-3.32A35.86,35.86,0,0,0,142.7,324.5ZM31.92,317.86l-.8.64c1.63,2,2.92,4.46,5,5.84,4.22,2.84,9.3,3.63,14.49,4.23Zm28.93-187c.26-.16.76-.34.75-.49q-.91-13.22-1.92-26.42c0-.19-.47-.34-.72-.51C57.91,106.42,59.28,126.42,60.85,130.86ZM356.24,494.28c8.91.73,17.58-1.21,26.32-1.79a7.65,7.65,0,0,0,2.36-.54c.37-.15.6-.68,1.15-1.36-8.72.55-17.09,1.07-25.47,1.61a33.6,33.6,0,0,0-3.45.46c-.28,0-.53.36-.75.6S356.35,493.58,356.24,494.28ZM154.8,335.05c1.57.73,3.18,1.14,4.35,2.09,1.41,1.15,2.5,1,4.17.63a4.73,4.73,0,0,0,3.79-3.11c-3.05-3.33-6.94-2.25-10.42-3.06Zm-20,4.11c-3-3.59-6.27-5.66-10.45-6-1.18-.11-2.39-.09-2.56,1.54C126.23,339.36,129.19,340.49,134.79,339.16Zm20.83-21.1c-2.62-2.14-5.29-3.08-8.4-1.72-1.39.61-1.95,3.05-.73,3.7a11.2,11.2,0,0,0,5.44,1.58C153.45,321.54,155.66,321,155.62,318.06Zm194.2,24.45c0,.4,0,.8,0,1.21,5.27.2,10.54.35,15.81.63s10.31.7,15.47,1.06C370.73,343.55,360.35,341.92,349.82,342.51Zm-61,104.55c2.29,1.42,3.29.34,4.34-1.2a32,32,0,0,0,5.6-14.82C295.52,436.29,292.26,441.53,288.83,447.06Zm-150-117.91c-4.45-4.07-5.11-4.2-9.14-2a4.81,4.81,0,0,0,4,5.43C136,333,137.71,331.58,138.83,329.15ZM145.58,312c-5.36-2.65-10.53-2.76-13.14-.23,3,2.2,6.56,2.57,10.09,2.78C143.94,314.62,145.06,313.92,145.58,312ZM50.06,106.31c-4,3.35-2.91,7-2.85,10.29,0,2,1.41,3.14,3.57,4.13a25.07,25.07,0,0,0,.32-3.7C50.86,113.78,50.48,110.53,50.06,106.31ZM232.21,354.62c4.55,2.31,15.37,1.34,20.32-1.37ZM12.84,429.21l-1.18.15c.54,5.45,3.19,10.24,5,15.92,1.56-3.39,1.65-3.43,1-5.06C16.07,436.53,14.43,432.88,12.84,429.21Zm133-83.76c.79-.94,1.49-1.78,2.32-2.79-2.19-2-4.63-2.07-7.06-2.05s-2.48.27-2,3.54Zm-85.47-36C64.65,315,68.11,320,72.8,323.93c-2.13-5.66-6.11-10-10.11-14.26C62.46,309.43,61.82,309.59,60.37,309.49Zm69.56-4.79c.15.7.3,1.45.47,2.28h11.83C138.08,303.39,134.66,302.75,129.93,304.7Zm299,45.1c3,1.86,4.42-.8,5.52-1.92,1.92-2,5.51-3.23,4.56-7.72-2.74,2.38-5.14,4.39-7.43,6.49A34.83,34.83,0,0,0,428.94,349.8Zm-282.62,7.76,3.47,4.41c2.68-2.45,5.17-4.39,7.57-8.19Zm29.11-35.19c.06,1,.12,1.94.16,2.48l8,4.25c.13-1.2.64-2.44.26-2.88C181.68,323.75,179.15,321.79,175.43,322.37ZM117.94,279.1c-.22-4-.13-7.48-.67-10.87s.86-7.07-.76-10.42c-.23,6.44-.24,12.86-.21,19.29a3.89,3.89,0,0,0,.42,1.36C116.77,278.57,117,278.61,117.94,279.1Zm299.72,67.49c1.35.54,1.71.84,1.93.75,4.27-1.61,7.14-5.07,10.37-8,.14-.13-.52-1.12-.78-1.65Zm-265.3,5c-5.19-2.2-5.19-2.2-10-1.12-.26,2.72,2,2.87,3.55,3.65Zm3.5-24.11a8,8,0,0,0,6.59,2.75c.17-1.19.31-2.25.46-3.26C158,325.69,158,325.69,155.86,327.49ZM332.21,487.74c-2.31-3.33-4.74-6.1-8.73-7.35a7.45,7.45,0,0,0-.09,1.94c2.61.83,3.56,3.65,5.82,4.8A11.1,11.1,0,0,0,332.21,487.74ZM170.62,324.86c-1.8-2.79-4.33-2.26-6.47-2.54-.91-.12-1.91.45-3.32.82C164.1,326.07,167.15,325.26,170.62,324.86ZM320.35,422c-4.71-.31-9.41-.93-15.12-.54C309.7,422.66,316.7,423,320.35,422ZM431.14,336.9a9.86,9.86,0,0,0,7.07-6.53C434.59,332,433.14,334.75,431.14,336.9Zm-236.64.72c-1-2.62-2.81-3.71-5.51-3.16C189,338.94,192.46,337,194.5,337.62ZM478,416.16c0,.32,0,.64,0,.95h10.41l0-.26ZM90.41,41.19c.07,3.83,1.36,6.14,2.27,9.32C93.34,46.89,92.53,44.45,90.41,41.19Zm9.6,53c0-3.89,0-3.89-1.44-5.9C98.07,91.66,98.06,91.66,100,94.16ZM272.12,449.57l-.45,1c2.19.89,4.37,1.81,6.58,2.66.23.09.59-.18,1.06-.34A15,15,0,0,0,272.12,449.57ZM116.73,254.87v-7.63C114.52,250.2,115.49,252.56,116.73,254.87ZM101.52,123.74c-.58,3.4-.58,3.4,1,5.55C103,125.29,103,125.29,101.52,123.74ZM308,464l-.53.94c1.49,1.27,2.76,3,6.5,2.31ZM408.84,225.67c-2-1.41-4-.94-6.83-.17C404.66,227,406.75,225.93,408.84,225.67Zm81.4,258.07c3.12-.48,3.12-.48,4.61-2.8ZM335.59,488.9c-.68,2.21-1,3.7.89,4.3.49.16,1.27-.59,2.11-1ZM80.42,40c1.11-2.29.24-3.68-1.42-5.89Zm-22,57.37L58.25,101C59.84,100,60.09,98.77,58.44,97.33ZM148,474.69v.62h6.57v-.62ZM438.55,323.12l.57.88c1.38-.49,2.59-1.15,3.26-3.87ZM336.62,485.05c.16,3.48.61,3.8,3.3,2.09Zm137.8-44.75-.18-.8-4.48.29.06.83ZM328,480.69c1.15-2.08,1.15-2.08-.86-2.71C327.45,479,327.73,479.83,328,480.69ZM74.34,32.49c-.23,2.93,1.34,2.16,2.6,2Zm49.9,261.66v6.18C125.17,297.89,126.11,296.53,124.24,294.15ZM57.38,95.55c1.53-1.07,1.53-1.07.22-3.44C57.51,93.52,57.45,94.44,57.38,95.55Zm133,231.37c-1,1.11-1.35,1.54-1.73,2,.43.12.89.4,1.28.32a1.39,1.39,0,0,0,.93-.82C191,328.05,190.63,327.6,190.39,326.92Zm252.47-59.44-.51-.93c-1.08.9-3,.41-3.5,2.91ZM83.57,348.35l-.78.8,3.16,2.9.49-.53ZM50.75,93.4l.81.61L53,91.07l-.58-.3C51.85,91.65,51.3,92.52,50.75,93.4Zm5.57-7.81.61.65,1.9-1.73-1-1C57.33,84.18,56.83,84.89,56.32,85.59Zm37-31,1-.28c-.22-1-.45-2-.67-3l-.87.19C93,52.5,93.2,53.53,93.36,54.56ZM83,352.52l-1,.73,2,2.19.64-.53Zm42.69-63.43-.37,0-.14,2.62h.69ZM83.53,361.54a5.73,5.73,0,0,0,.41-1.39c-.08-1.13-1.2-1.85-1.31-1.19S83.11,360.41,83.53,361.54Zm124.14-56.09.28.64,2.77-1.18c-.12-.26-.23-.52-.35-.77ZM91.38,33.55l.52-.24-.83-1.94-.64.27Zm111.37,283a11.25,11.25,0,0,0-2.53,0,5.14,5.14,0,0,0-1.19.92l.31.43ZM76.55,492.35c0-.23-.11-.47-.16-.7l-2,.37c.07.3.14.6.2.89Zm421.89-21.72.61.78L501,470.1l-.33-.58ZM196.4,330l.31.77c.29-.06.66,0,.87-.21a6.19,6.19,0,0,0,.75-1ZM347.61,343.4l-.13-.89-3,.28c0,.2,0,.41.05.61Zm-6.63,0c0-.28-.07-.57-.1-.85l-2.61.3c0,.18,0,.37,0,.55Zm-212.73-49.6.54,0,.12-1.91-.5,0C128.36,292.56,128.3,293.2,128.25,293.83ZM501.3,478.2l-.52-.79L498.24,479l.56.87ZM171,479l0-.2-1.62-.26c0,.16,0,.31,0,.46ZM93.38,80.29l.47-.1-.24-1.45-.56.11ZM332.92,481.47l-.85.28.61,1.93a4.87,4.87,0,0,0,.83-.35C333.36,482.7,333.13,482.09,332.92,481.47ZM90.75,63.7l-.79,0c.08.67.15,1.34.22,2a4.45,4.45,0,0,0,.69-.13C90.86,65,90.8,64.34,90.75,63.7Zm1.61-26.28.71.41c.1-.28.35-.62.28-.84s-.49-.32-.75-.48ZM161,490.75c0,.22.05.43.08.65l2-.31-.07-.52Zm-86.85-1.47v-.42H72c0,.14,0,.28,0,.42Zm247.38-14.23.7-.38-1.08-2-.63.36ZM78.72,347.47l-.94.4a7.76,7.76,0,0,0,.82,1.05c.07.07.46-.2.7-.31C79.1,348.23,78.91,347.85,78.72,347.47ZM218,283.05l-.21-.64-2.4.67c.1.29.2.57.29.85ZM61.74,328.12l.81-.62a10,10,0,0,0-.9-.94,1.53,1.53,0,0,0-.59.45A7.19,7.19,0,0,0,61.74,328.12Zm67.82-39.25.41-.06c-.09-.52-.18-1-.29-1.56,0,0-.14,0-.21,0ZM10.58,441.1c-.23.26-.44.41-.42.5a7.86,7.86,0,0,0,.42,1Zm416.81-202v-.38h-2.11v.38ZM263.71,445.56a5.6,5.6,0,0,0,.11,1.32,11.46,11.46,0,0,0,1.56.18ZM48.27,90.82l.82.57L50,89.76l-.48-.29Zm71.3,258.65a4,4,0,0,0-.23.66s.27.21.36.17a2.9,2.9,0,0,0,.55-.39Zm79.37-40.66c.42.21.75.51.93.44s.36-.48.53-.74ZM170.41,483.88l.44-.69a3.32,3.32,0,0,0-.68-.11c-.08,0-.24.29-.2.36A2.29,2.29,0,0,0,170.41,483.88Zm316.23-82c.08.08.15.19.25.23a2,2,0,0,0,.43,0c-.09-.13-.16-.32-.29-.39S486.77,401.84,486.64,401.88Zm-227.88,43-.79-.39-.24.63c.14.05.3.16.42.12A3,3,0,0,0,258.76,444.84Zm222.32,3.94.1.62,1.57-.38c-.07-.12-.14-.34-.22-.34C482.05,448.69,481.56,448.74,481.08,448.78Zm-59.2-209.12c.05.1.11.3.14.3.28,0,.56-.11.83-.17-.05-.13-.13-.38-.16-.37A6.21,6.21,0,0,0,421.88,239.66Zm-11.44-7.26-.8.35c.1.12.2.33.3.33a4.7,4.7,0,0,0,.9-.15ZM41.29,317.51l.47.58c.08-.11.24-.27.21-.31a5.34,5.34,0,0,0-.5-.65Zm273.5,151.75a2.77,2.77,0,0,0,.49.8c.12.09.46-.1.7-.16-.13-.27-.19-.64-.41-.8S315.06,469.19,314.79,469.26ZM87.52,54c.09-.11.27-.24.26-.35a4.9,4.9,0,0,0-.2-.82c-.1.11-.29.22-.28.32A6.24,6.24,0,0,0,87.52,54Zm.72,3.85c.12.29.23.58.34.87.12-.11.33-.22.33-.33a6.1,6.1,0,0,0-.14-.94Zm238.91,49.11.65-.34a3.72,3.72,0,0,0-.19-.34l-.68.42ZM477.41,474.2l-.12-.58-1.51.41c.07.11.14.33.2.33C476.46,474.33,476.93,474.26,477.41,474.2ZM52.89,472.79c-.22.16-.55.27-.62.47a2.26,2.26,0,0,0,.07.88,3,3,0,0,0,.86-.61C53.28,473.42,53,473.05,52.89,472.79ZM93.06,344.46l-.77.35c.12.1.23.29.35.3a7,7,0,0,0,.91-.09ZM97.27,84.54l.33.86a4.81,4.81,0,0,0,.35-.77c0-.12-.1-.29-.16-.43ZM30.38,87.05a2.85,2.85,0,0,0,.3,0c0-.28,0-.57,0-.86h-.3C30.38,86.48,30.38,86.77,30.38,87.05ZM68.81,324.41c-.12.41-.31.71-.23.85a1.51,1.51,0,0,0,.7.54c.07,0,.45-.46.42-.5A9.31,9.31,0,0,0,68.81,324.41Zm60-313.07c-.13-.28-.2-.7-.41-.8s-.59.09-.89.15a2.51,2.51,0,0,0,.58.76C128.22,11.55,128.54,11.39,128.79,11.34Zm313.1,314.42c.13.21.25.56.4.59s.53-.17.79-.26l-.54-.86Zm46.76,80.3c-.45-.24-.73-.51-1-.48s-.33.42-.49.65ZM440.24,328l-.54-.24-.78,1.39a3.81,3.81,0,0,0,.8.22A10.74,10.74,0,0,0,440.24,328Zm50.53,81.93c0,.08.05.21.11.22a2.22,2.22,0,0,0,.45.07c0-.14,0-.36-.14-.4S490.92,409.84,490.77,409.89Zm.15-7.05c.08.12.14.29.25.32a1.21,1.21,0,0,0,.46,0,4.45,4.45,0,0,0-.33-.51S491.05,402.77,490.92,402.84ZM205.29,306.53l-.8.33c.06.11.12.32.19.32a5.54,5.54,0,0,0,.81-.07C205.42,306.92,205.35,306.72,205.29,306.53Zm-12,5.18-.06.31.42-.11ZM89.69,356.87l.55.16c0-.09,0-.25-.09-.26A2.14,2.14,0,0,0,89.69,356.87Zm68.79,133.65-.83.31c.15.19.29.51.46.53a2,2,0,0,0,.8-.26ZM111.83,348.76l0,.27.34-.12Zm9.54-.87a4.26,4.26,0,0,0,.76.33c.08,0,.22-.16.33-.24-.17-.17-.33-.44-.51-.46S121.56,347.76,121.37,347.89Zm4.18-1.1-.37-.14.23.44Zm-63.07-3.71-.12.41.43-.27Zm-3.82-.45a1.94,1.94,0,0,0,.14-.45s-.22-.08-.33-.13a1.36,1.36,0,0,0-.11.43S58.56,342.58,58.66,342.63ZM119,492.84l-.38-.14c0,.12-.12.29-.08.33a.51.51,0,0,0,.36.1S119,492.94,119,492.84Zm-38.68-138a1.87,1.87,0,0,0-.44-.14s-.09.2-.13.31a1.8,1.8,0,0,0,.43.14S80.29,354.94,80.34,354.84ZM58,322.89l-.36-.13c0,.11-.12.28-.08.32a.73.73,0,0,0,.34.12C58,323.1,58,323,58,322.89Zm44.38,27.84c0,.13,0,.31,0,.37s.27.06.41.09c0-.19,0-.38-.08-.57Zm14-341.37.3,0L116.62,9Zm-1.63-3.48a3.91,3.91,0,0,0,.15-.76c0-.11-.16-.23-.25-.35a2,2,0,0,0-.39.67C114.32,5.56,114.65,5.73,114.83,5.88Zm18.63,470-.38-.12.24.42Zm27.57-17c0,.11.05.27.12.31a1.5,1.5,0,0,0,.44.08l-.15-.57Zm321,12.3.44.14.06-.57a1.56,1.56,0,0,0-.45.1C482,470.87,482,471.06,482,471.17Zm-165.7-365.3,0-.24-.33.09ZM86.51,49.19,86.7,49l-.24-.09Zm-11-2.58.09-.78c-.09.12-.23.23-.25.36S75.46,46.47,75.52,46.61Zm258,70.78.22.34c.09-.1.27-.24.25-.3a2.16,2.16,0,0,0-.34-.42Zm-244-80.8c-.11.1-.32.23-.31.3a5.57,5.57,0,0,0,.32.76c.1-.1.3-.23.28-.32A4.53,4.53,0,0,0,89.51,36.59Zm59.72-1.46.26.36a3.81,3.81,0,0,0,.35-.7c0-.08-.16-.22-.26-.34C149.47,34.68,149.35,34.9,149.23,35.13ZM10.57,438.46l-.14-.3-.12.3ZM431.23,268.11l.76-.31c-.1-.11-.22-.31-.29-.3a4.78,4.78,0,0,0-.74.3Zm22,217.08.38.12c0-.17,0-.35,0-.52a1,1,0,0,0-.39.12S453.26,485.09,453.25,485.19ZM117.46,281.64c.1,0,.26,0,.29-.09a1.29,1.29,0,0,0,.08-.4l-.5.11Zm368.84,150-.37.21c.1.1.25.3.29.27a2,2,0,0,0,.47-.36Zm10.29-3.56,0-.27-.34.12Zm-7.48,0,.4.13-.27-.43ZM410.26,228.79l.29.21.08-.28Zm-12.5,1.06c.07.11.12.28.22.31s.29,0,.43,0a2.09,2.09,0,0,0-.3-.47S397.88,229.78,397.76,229.85Zm7.3-.19,0,.25.32-.11ZM461.92,481c.1.11.21.32.29.31a5.24,5.24,0,0,0,.76-.26c-.09-.11-.2-.33-.27-.32A6,6,0,0,0,461.92,481Zm-324.71,1.24.33-.19-.19-.28-.48.33Zm19.7.61c0,.09,0,.24.08.27a1.11,1.11,0,0,0,.37.07c0-.16-.06-.32-.1-.48Zm278-220.75.41-.19-.39-.19Zm-5,220.8-.37-.12.21.44Z"/><path class="cls-2" d="M23.61,493.8c4.4-.13,7.55-2.93,11-5.13a4.58,4.58,0,0,1,2.82-1,16.3,16.3,0,0,1-1.67,1.84c-2.88,2.35-5.81,4.65-8.72,7H24c.18-1,1.71-2.08-.25-2.89Z"/><path class="cls-3" d="M0,335.4c1.55,3,1.18,6,0,9Z"/><path class="cls-4" d="M16.94,492.47c-.57.71-1.17,1.41-1.71,2.15s-.82,1.27-1.22,1.9H12a6.5,6.5,0,0,1,5-4Z"/><path class="cls-5" d="M33,496.52a4.43,4.43,0,0,1,3.8-3l-1.79,3Z"/><path class="cls-6" d="M0,309.39c2.05,0,2.72,1.38,3.09,3.07L0,310.39Z"/><path class="cls-7" d="M5.91,225.42A12.25,12.25,0,0,1,1,219.26a9,9,0,0,1,5.17,5.93Z"/><path class="cls-8" d="M5,234.29c-2.48-.4-3.17-2.29-3.64-4.37,1.38,1.32,3.87,1.77,3.55,4.45Z"/><path class="cls-9" d="M23.77,493.63l-2.3.65c-.08-.39-.3-.89-.19-1,5.08-4.07,10.19-8.1,15.5-11.9-2.45,3.77-6.14,6.25-9.44,9.12l-3.73,3.28Z"/><path class="cls-10" d="M5.93,435.42c.33,3.23-1.19,6-1.95,9.8-1-4.1-.39-6.49,2.06-9.72Z"/><path class="cls-11" d="M9,456.76c-1.15,2.8-1.88,4.6-2.77,6.76C5.63,460.59,5.68,460.46,9,456.76Z"/><path class="cls-12" d="M8,444.9c2.66,1.78,2,4,.45,6.35q-.2-3.18-.42-6.36Z"/><path class="cls-13" d="M17,492.56l2.43-2.71,0-.09c.61,2.23-.83,2.56-2.49,2.71Z"/><path class="cls-14" d="M19.46,489.85l2.08-.3c0,.22,0,.44-.05.66-.68-.13-1.36-.27-2-.43C19.43,489.76,19.46,489.85,19.46,489.85Z"/><path class="cls-15" d="M7.14,289.28c-3.09-.37-4.31-2.93-6-4.92,2.41,1.17,4.8,2.37,5.91,5Z"/><path class="cls-16" d="M27,333.35c.15.08.39.14.43.25,2.11,7.46,3.8,15,2.9,22.89-.7-4.82-1.43-9.63-2.1-14.45-.4-2.92-.73-5.86-1.09-8.8Z"/><path class="cls-17" d="M81,453.6c.44-3.65,3.05-6.19,4.79-9.15,8.43-14.39,13.25-29.71,12.28-46.53a72,72,0,0,0-4.92-21.81A36.31,36.31,0,0,1,92,371.32c3.34,4.52,4.49,9.93,5.79,15.17a55,55,0,0,1,1.84,13.77A100,100,0,0,1,97.82,418c-2.4,12.42-8.07,23.5-15,33.94A10.3,10.3,0,0,1,81,453.6Z"/><path class="cls-18" d="M96,368.32a61.77,61.77,0,0,1,4.23,6.5c8.28,16.78,9.64,34.2,4.36,52.12-.49,1.66-1.71,3.11-2.58,4.65.46-2.27.76-4.58,1.41-6.8a64.44,64.44,0,0,0,2-28,74.67,74.67,0,0,0-9.06-26.58A5.6,5.6,0,0,1,96,368.32Z"/><path class="cls-19" d="M102.13,431.36a4.13,4.13,0,0,1,0,1.48,77.94,77.94,0,0,1-12.3,21.44c-.17.21-.59.21-.89.3q2-3.6,3.92-7.22c2.41-4.44,4.79-8.89,7.25-13.31A25.1,25.1,0,0,1,102.13,431.36Z"/><path class="cls-20" d="M68,469.59c1.75-3.29,3.67-6.43,7.18-8.18A18.22,18.22,0,0,1,68,469.59Z"/><path class="cls-21" d="M92.14,371.53c-2.9-2-3.54-5.08-4.12-8.21Z"/><path class="cls-22" d="M78,457.59c.24-2,1.07-3.58,3.17-4.19C80.67,455.23,79.91,456.85,78,457.59Z"/><path class="cls-23" d="M75,461.6c.37-1.92,1.06-3.59,3.16-4.19A5,5,0,0,1,75,461.6Z"/><path class="cls-24" d="M98,363.33c1.83,2.29,3.87,4.45,5.45,6.89a73.16,73.16,0,0,1,11.41,29.56c1.76,12.54.37,25-5.2,36.54-2.66,5.52-6.06,10.69-9.22,16A12.75,12.75,0,0,1,98,454.59c1.49-2.72,2.82-5.55,4.52-8.14,9.55-14.62,13.44-30.42,10.61-47.81-1.9-11.73-7.22-21.94-13.51-31.77A29.15,29.15,0,0,1,98,363.33Z"/><path class="cls-25" d="M77,446.59c1.28-2.83,2.4-5.74,3.85-8.47a88.68,88.68,0,0,0,10.78-40.48A66.72,66.72,0,0,0,86.4,371,45.21,45.21,0,0,1,85,366.31a37,37,0,0,1,2.88,5A68.42,68.42,0,0,1,92.93,400a91.8,91.8,0,0,1-11.12,39.34C80.44,441.87,78.6,444.17,77,446.59Z"/><path class="cls-26" d="M102,362.32a9.79,9.79,0,0,1,1.89,1.51c8,10.75,14.46,22.23,17.49,35.51,3.22,14.09,1.12,27.37-5,40.2A70.35,70.35,0,0,1,112,446.6a31.27,31.27,0,0,1,1.5-4.1c6.09-11.44,9-23.61,7.52-36.51a68.68,68.68,0,0,0-10-28.39C108,372.55,103.94,368,102,362.32Z"/><path class="cls-27" d="M112.16,446.39a13.32,13.32,0,0,1-1,2.71,93.15,93.15,0,0,1-14.22,17.21c-.21.2-.61.19-.92.28a5.22,5.22,0,0,1,.54-1.83q7-8.67,14.11-17.24A7.51,7.51,0,0,1,112.16,446.39Z"/><path class="cls-28" d="M109.05,364.32c2.25,2.85,4.66,5.58,6.71,8.57a81.64,81.64,0,0,1,12.45,27.5c3.41,14.42,1,28-5.44,41.05A107,107,0,0,1,117,450.6a29.44,29.44,0,0,1,1.54-4.09c3.18-5.84,6.11-11.74,7.8-18.23a56.73,56.73,0,0,0,1.17-24.69,70.4,70.4,0,0,0-11.63-27.81q-3-4.26-6.23-8.38C108.89,366.41,108.22,365.56,109.05,364.32Z"/></g></g></svg>