<svg xmlns="http://www.w3.org/2000/svg" viewBox="0 0 337.55 110.93"><defs><style>.cls-1{fill:#591132;}</style></defs><title>Asset 2</title><g id="Layer_2" data-name="Layer 2"><g id="Layer_2-2" data-name="Layer 2"><path class="cls-1" d="M145.93,110.93a16.92,16.92,0,0,1-9.18-2.7A11,11,0,0,1,133.45,93a5,5,0,1,1,8.41,5.41,1,1,0,0,0,.3,1.39,7,7,0,0,0,9.69-2.1,19,19,0,0,0-5.7-26.29c-17.54-11.29-38.71,1.24-55.71,11.31-1.91,1.13-3.75,2.22-5.5,3.23S81.41,88,79.55,89.12C61.19,100,36.06,114.86,13.33,100.23a29,29,0,0,1-8.7-40.12A17,17,0,0,1,28.14,55a11,11,0,0,1,3.3,15.21A5,5,0,1,1,23,64.81a1,1,0,0,0-.3-1.39A7,7,0,0,0,13,65.52a19,19,0,0,0,5.7,26.29c17.54,11.29,38.71-1.24,55.71-11.31,1.91-1.13,3.75-2.22,5.51-3.23s3.52-2.05,5.39-3.16C103.69,63.26,128.83,48.38,151.56,63a29,29,0,0,1,8.7,40.12A17,17,0,0,1,145.93,110.93Z"/><path class="cls-1" d="M191.64,110.93a17,17,0,0,1-14.33-7.8A29,29,0,0,1,186,63c22.74-14.63,47.87.25,66.22,11.11,1.87,1.11,3.67,2.17,5.39,3.16s3.6,2.1,5.5,3.23c17,10.07,38.17,22.59,55.71,11.31a19,19,0,0,0,5.7-26.3,7,7,0,0,0-9.69-2.1,1,1,0,0,0-.3,1.39,5,5,0,1,1-8.41,5.41A11,11,0,0,1,309.43,55a17,17,0,0,1,23.51,5.1,29.06,29.06,0,0,1-8.7,40.12C301.51,114.86,276.37,100,258,89.12c-1.87-1.11-3.67-2.17-5.39-3.16s-3.6-2.1-5.5-3.23c-17-10.07-38.17-22.6-55.71-11.31a19,19,0,0,0-5.7,26.3,7,7,0,0,0,9.69,2.1,1,1,0,0,0,.3-1.39A5,5,0,1,1,204.12,93a11,11,0,0,1-3.3,15.21A16.92,16.92,0,0,1,191.64,110.93Z"/><path class="cls-1" d="M70.41,51.62c6.45,0,16.71,1.95,16.71,1.95s-12,1.18-17,5.78C68.51,60.89,66.66,63,64.75,63l-.36,0c-2.76-.4-5.31-3.07-4.89-5.66.33-2,1.59-4,5.15-5a21.57,21.57,0,0,1,5.78-.65m0-8a28.79,28.79,0,0,0-8,1c-6,1.73-9.92,5.9-10.82,11.44a12.22,12.22,0,0,0,2.34,9.23,14.14,14.14,0,0,0,9.31,5.63,10.6,10.6,0,0,0,1.5.11C69.6,71,73,67.75,75,65.81l.64-.61C78,63,80.84,61.21,92,58.54l21.38-5L89.34,46.91c-.34-.07-11.7-3.29-18.93-3.29Z"/><path class="cls-1" d="M258.12,10.45c-7.57,1.38-11.32,8.14-14.51,13.1A23.68,23.68,0,0,1,234,32.17s5.63-7.69,2.4-11.59c-3.36-4.05-7.56-1.88-8.86,1.31s2.17,12.35-24.31,19.8l-.68.18c7.65-6,11.88-12.41,9.95-15.83-2.08-3.67-10.63-2.76-20.45,1.72,4.41-10,5.3-18.68,1.69-20.8s-10.56,3-16.85,11.88C175.77,8,172.26,0,168.1,0s-7.67,8-8.76,18.87C153,10,146.09,4.87,142.49,7s-2.71,10.81,1.69,20.8c-9.82-4.48-18.36-5.39-20.45-1.72-1.91,3.36,2.17,9.6,9.6,15.55-26.13-7.43-22.71-16.53-24-19.71s-5.5-5.36-8.86-1.31c-3.23,3.9,2.4,11.59,2.4,11.59a23.68,23.68,0,0,1-9.66-8.62c-3.19-5-6.94-11.72-14.51-13.1-7.2-1.31-10.75,4.76-7.56,7.32,44.09,35.26,87,37.18,97.46,37.08,10.35.1,53-1.82,97.08-37.08C268.88,15.21,265.32,9.14,258.12,10.45ZM166.22,51.68a6.08,6.08,0,1,1,4.16-.15,6.69,6.69,0,0,1-2.28.45A6.55,6.55,0,0,1,166.22,51.68ZM133.73,30.79c2.87,0,7.07,1.08,11.52,2.95l9.43,4-4.24-8.85c-3.18-6.64-3.36-10.79-3-12.15,1.51.41,5.26,2.75,9.71,8.52l6.05,7.86,1-9.65c.79-7.24,2.85-10.92,3.87-11.93,1,1,3.08,4.69,3.87,11.93l1,9.65,6.05-7.86c4.44-5.77,8.19-8.11,9.71-8.52.34,1.36.16,5.51-3,12.15l-4.24,8.85,9.43-4c4.45-1.87,8.65-2.95,11.52-2.95a6.81,6.81,0,0,1,1.45.13c-.55,1.88-4.67,7-14,12.09-.76.41-1.59.83-2.48,1.23-6.05-.28-8-2.95-10.23-5.23-3.33-3.38-5.13-4.58-9.07-4.58-4.12,0-6,1.6-9.29,5-2.53,2.58-4.54,4.77-9.82,4.94-1-.44-1.86-.88-2.67-1.32-9.37-5.07-13.49-10.21-14-12.09A6.81,6.81,0,0,1,133.73,30.79Z"/></g></g></svg>