<svg xmlns="http://www.w3.org/2000/svg" viewBox="0 0 481.51 387.02"><defs><style>.cls-1{fill:#591132;}</style></defs><title>Asset 3</title><g id="Layer_2" data-name="Layer 2"><g id="Layer_2-2" data-name="Layer 2"><path class="cls-1" d="M352.39,82.68a10.64,10.64,0,0,0,7.89,2.58,10.9,10.9,0,0,0,7.46-3.82,12.34,12.34,0,0,0,2.41-4.1c2.92,3.12,6.36,4.77,9.74,4.62a10.64,10.64,0,0,0,7.5-3.56,10.9,10.9,0,0,0,2.78-7.91A12.13,12.13,0,0,0,389,65.6a11.36,11.36,0,0,0-6.22-5.39,33.62,33.62,0,0,0-4.48-1.4A12.65,12.65,0,0,0,380.4,55a10.9,10.9,0,0,0-.25-8.38A10.64,10.64,0,0,0,374.09,41c-4.45-1.64-8.36.79-10.45,2.1l-.63.39a6.32,6.32,0,0,1-.69.35,10.22,10.22,0,0,0,1-1.32,12.13,12.13,0,0,0,1.59-4.78,10.9,10.9,0,0,0-2.14-8.11,10.64,10.64,0,0,0-7.19-4.15c-3.63-.45-6.39,1.38-8.27,3a12.16,12.16,0,0,0,.49-5,10.9,10.9,0,0,0-3.86-7.44A10.64,10.64,0,0,0,336,13.62c-4.31.42-6.74,3.69-8.13,5.85a16,16,0,0,0-.22-2.12,10.9,10.9,0,0,0-4.47-7.09,10.64,10.64,0,0,0-8.1-1.8c-3.85.71-6,3.6-7.23,5.82a10.22,10.22,0,0,0,.34-1.86,12.13,12.13,0,0,0-.7-5,10.9,10.9,0,0,0-5.52-6.31A10.64,10.64,0,0,0,293.66.6c-4.48,1.57-5.94,5.93-6.73,8.27l-.24.7c-.9,2.53-4.3,5.71-5.79,6.85,0,0-3.55,2.73-4.92,3.89a1.56,1.56,0,0,1-1.27.34c-7.14-1.25-11.77-1.71-12.39-1.77a4.17,4.17,0,1,0-.78,8.3c.16,0,5.11.51,12.88,1.93a1.57,1.57,0,0,1,1.25,1.19l.53,2.31c.41,1.83,1,6.46,0,9l-.27.68c-.91,2.3-2.6,6.57-.19,10.66a10.64,10.64,0,0,0,6.66,4.95,10.9,10.9,0,0,0,8.29-1.26,12.13,12.13,0,0,0,3.76-3.36,10.21,10.21,0,0,0,1.24-2.37c-.44,2.53-.86,6.55,2,9.77a10.64,10.64,0,0,0,7.49,3.56,10.9,10.9,0,0,0,7.89-2.84,15.69,15.69,0,0,0,1.54-1.62,10.41,10.41,0,0,0,3,8.27,10.64,10.64,0,0,0,7.8,2.84A10.94,10.94,0,0,0,332,68.24a9.31,9.31,0,0,0,3,5.54,10.64,10.64,0,0,0,7.89,2.58,11,11,0,0,0,6.21-2.58C349.07,76.36,349.36,80,352.39,82.68ZM380.27,66.4A4.8,4.8,0,0,1,383,68.6a5.79,5.79,0,0,1,.5,2.31,4.18,4.18,0,0,1-3.91,4.39c-1.72.08-3.52-1.28-4.86-2.79l-7.56-8.57S375,64.29,380.27,66.4Zm-35.51-5.77,1.12,1.84.14.29a4.8,4.8,0,0,1,.47,3.48,5.79,5.79,0,0,1-1.23,2,4.18,4.18,0,0,1-5.86.49c-1.3-1.13-.95-3.61-.87-5.62.21-5.63-3.83-12.23-3.83-12.23S341.43,55.94,344.76,60.63Zm-8.12-40.37a4.18,4.18,0,0,1,4.49,3.79,5.79,5.79,0,0,1-.17,2.35,4.8,4.8,0,0,1-2.4,2.56c-4.91,2.82-16.1,3.11-16.1,3.11s7.12-3,10.21-7.75C333.77,22.65,334.93,20.43,336.64,20.26ZM316.27,15a4.18,4.18,0,0,1,4.79,3.41,5.79,5.79,0,0,1,0,2.36,4.8,4.8,0,0,1-2.18,2.76c-3.7,2.56-11.48,3.86-14.52,4.28l-.63-.2c1.76-1,6.7-4.18,8.89-8.21C313.61,17.64,314.57,15.33,316.27,15ZM293,11.8c.67-1.9,1.27-4.33,2.89-4.9a4.18,4.18,0,0,1,5.26,2.62,5.79,5.79,0,0,1,.39,2.33,4.8,4.8,0,0,1-1.72,3.06c-4.1,3.91-14.9,6.84-14.9,6.84S291.09,17.11,293,11.8Zm57,23.4c1.45-1.4,3.06-3.32,4.77-3.1a4.18,4.18,0,0,1,3.54,4.69,5.79,5.79,0,0,1-.68,2.26,4.8,4.8,0,0,1-2.9,2c-5.41,1.68-16.39-.5-16.39-.5S345.91,39.11,350,35.2Zm16.48,14c1.73-1,3.73-2.54,5.35-1.94a4.18,4.18,0,0,1,2.39,5.37,5.79,5.79,0,0,1-1.18,2,4.8,4.8,0,0,1-3.28,1.27c-5.65.41-15.85-4.19-15.85-4.19S361.61,52.1,366.44,49.21Zm-48.3-9.41c-9.56-4-28.25-10.57-39.53-13.3-.73-.18-.43-1.31.31-1.16,14.54,3,45.66,12.08,77.74,31.54a.44.44,0,0,1-.41.77C348,53.75,334,46.38,318.14,39.79ZM289,49.4a5.79,5.79,0,0,1-1.8,1.53,4.18,4.18,0,0,1-5.71-1.39c-.87-1.48.25-3.72,1-5.61,2-5.27.25-12.81.25-12.81s6.36,9.2,7,14.84A4.8,4.8,0,0,1,289,49.4Zm13.68,6.82c-1.14-1.28-.48-3.7-.15-5.69.92-5.56-2.24-12.62-2.24-12.62s8,7.8,9.71,13.21a4.8,4.8,0,0,1,0,3.51,5.79,5.79,0,0,1-1.47,1.85A4.18,4.18,0,0,1,302.68,56.22Zm19.47,6.93c-1.26-1.17-.83-3.64-.69-5.65.4-5.62-3.42-12.35-3.42-12.35s8.72,7,10.91,12.23a4.8,4.8,0,0,1,.35,3.49,5.79,5.79,0,0,1-1.29,2A4.18,4.18,0,0,1,322.15,63.15Zm34.62,14.5c-1.3-1.13-.95-3.61-.87-5.62.21-5.63-3.83-12.23-3.83-12.23s8.95,6.71,11.31,11.87a4.8,4.8,0,0,1,.47,3.48,5.79,5.79,0,0,1-1.23,2A4.18,4.18,0,0,1,356.77,77.65Z"/><path class="cls-1" d="M132.38,73.79a11,11,0,0,0,6.21,2.58,10.64,10.64,0,0,0,7.89-2.58,9.31,9.31,0,0,0,3-5.54,10.94,10.94,0,0,0,6.61,2.63,10.64,10.64,0,0,0,7.8-2.84,10.41,10.41,0,0,0,3-8.27,15.69,15.69,0,0,0,1.54,1.62,10.9,10.9,0,0,0,7.89,2.84,10.64,10.64,0,0,0,7.49-3.56c2.86-3.22,2.44-7.24,2-9.77a10.21,10.21,0,0,0,1.24,2.37,12.13,12.13,0,0,0,3.76,3.36,10.9,10.9,0,0,0,8.29,1.26,10.64,10.64,0,0,0,6.66-4.95c2.41-4.09.72-8.36-.19-10.66l-.27-.68c-.95-2.51-.4-7.14,0-9l.53-2.31a1.57,1.57,0,0,1,1.25-1.19c7.77-1.42,12.72-1.91,12.88-1.93a4.17,4.17,0,1,0-.78-8.3c-.62.06-5.26.52-12.39,1.77a1.56,1.56,0,0,1-1.27-.34c-1.37-1.16-4.92-3.89-4.92-3.89-1.49-1.13-4.89-4.32-5.79-6.85l-.24-.7c-.79-2.34-2.25-6.7-6.73-8.27a10.64,10.64,0,0,0-8.28.52A10.9,10.9,0,0,0,174,7.43a12.13,12.13,0,0,0-.7,5,10.22,10.22,0,0,0,.34,1.86c-1.27-2.22-3.38-5.12-7.23-5.82a10.64,10.64,0,0,0-8.1,1.8,10.9,10.9,0,0,0-4.47,7.09,16,16,0,0,0-.22,2.12c-1.39-2.15-3.82-5.43-8.13-5.85a10.64,10.64,0,0,0-7.92,2.47,10.9,10.9,0,0,0-3.86,7.44,12.16,12.16,0,0,0,.49,5c-1.88-1.66-4.64-3.49-8.27-3a10.64,10.64,0,0,0-7.19,4.15,10.9,10.9,0,0,0-2.14,8.11,12.13,12.13,0,0,0,1.59,4.78,10.22,10.22,0,0,0,1,1.32,6.32,6.32,0,0,1-.69-.35l-.63-.39c-2.1-1.31-6-3.74-10.45-2.1a10.64,10.64,0,0,0-6.06,5.67,10.9,10.9,0,0,0-.25,8.38,12.65,12.65,0,0,0,2.14,3.76,33.62,33.62,0,0,0-4.48,1.4,11.36,11.36,0,0,0-6.22,5.39,12.13,12.13,0,0,0-1.2,4.89,10.9,10.9,0,0,0,2.78,7.91,10.64,10.64,0,0,0,7.5,3.56c3.38.15,6.82-1.5,9.74-4.62a12.34,12.34,0,0,0,2.41,4.1,10.9,10.9,0,0,0,7.46,3.82,10.64,10.64,0,0,0,7.89-2.58C132.15,80,132.44,76.36,132.38,73.79Zm-18-9.86-7.56,8.57c-1.33,1.51-3.14,2.87-4.86,2.79A4.18,4.18,0,0,1,98,70.91a5.79,5.79,0,0,1,.5-2.31,4.8,4.8,0,0,1,2.74-2.2C106.51,64.29,114.33,63.93,114.33,63.93Zm32.46-13s-4,6.6-3.83,12.23c.08,2,.42,4.49-.87,5.62a4.18,4.18,0,0,1-5.86-.49,5.79,5.79,0,0,1-1.23-2,4.8,4.8,0,0,1,.47-3.48l.14-.29,1.12-1.84C140.09,55.94,146.79,50.9,146.79,50.9Zm2.05-26.56c3.09,4.71,10.21,7.75,10.21,7.75S147.88,31.8,143,29a4.8,4.8,0,0,1-2.4-2.56,5.79,5.79,0,0,1-.17-2.35,4.18,4.18,0,0,1,4.49-3.79C146.59,20.43,147.74,22.65,148.85,24.34Zm20-4.92c2.19,4,7.14,7.19,8.89,8.21l-.63.2c-3-.42-10.82-1.72-14.52-4.28a4.8,4.8,0,0,1-2.18-2.76,5.79,5.79,0,0,1,0-2.36A4.18,4.18,0,0,1,165.25,15C166.94,15.33,167.9,17.64,168.86,19.41Zm27.75,2.34s-10.8-2.93-14.9-6.84A4.8,4.8,0,0,1,180,11.85a5.79,5.79,0,0,1,.39-2.33,4.18,4.18,0,0,1,5.26-2.62c1.62.57,2.22,3,2.89,4.9C190.42,17.11,196.61,21.75,196.61,21.75ZM143.22,40.52s-11,2.18-16.39.5a4.8,4.8,0,0,1-2.9-2,5.79,5.79,0,0,1-.68-2.26,4.18,4.18,0,0,1,3.54-4.69c1.71-.21,3.32,1.7,4.77,3.1C135.6,39.11,143.22,40.52,143.22,40.52ZM127.63,51.75s-10.2,4.6-15.85,4.19a4.8,4.8,0,0,1-3.28-1.27,5.79,5.79,0,0,1-1.18-2,4.18,4.18,0,0,1,2.39-5.37c1.61-.59,3.62.91,5.35,1.94C119.9,52.1,127.63,51.75,127.63,51.75Zm-2.38,5.9a.44.44,0,0,1-.41-.77c32.08-19.46,63.2-28.57,77.74-31.54.74-.15,1,1,.31,1.16-11.28,2.73-30,9.32-39.53,13.3C147.56,46.38,133.47,53.75,125.25,57.65ZM191.85,46c.61-5.64,7-14.84,7-14.84s-1.73,7.54.25,12.81c.71,1.88,1.83,4.13,1,5.61a4.18,4.18,0,0,1-5.71,1.39,5.79,5.79,0,0,1-1.8-1.53A4.8,4.8,0,0,1,191.85,46ZM173,56.48a5.79,5.79,0,0,1-1.47-1.85,4.8,4.8,0,0,1,0-3.51c1.69-5.41,9.71-13.21,9.71-13.21S178.06,45,179,50.53c.33,2,1,4.4-.15,5.69A4.18,4.18,0,0,1,173,56.48ZM153.5,62.85a5.79,5.79,0,0,1-1.29-2,4.8,4.8,0,0,1,.35-3.49c2.19-5.23,10.91-12.23,10.91-12.23s-3.82,6.73-3.42,12.35c.14,2,.57,4.48-.69,5.65A4.18,4.18,0,0,1,153.5,62.85ZM118.89,77.16a5.79,5.79,0,0,1-1.23-2,4.8,4.8,0,0,1,.47-3.48c2.37-5.15,11.31-11.87,11.31-11.87s-4,6.6-3.83,12.23c.08,2,.42,4.49-.87,5.62A4.18,4.18,0,0,1,118.89,77.16Z"/><path class="cls-1" d="M218.91,387a16.92,16.92,0,0,1-9.18-2.7,11,11,0,0,1-3.3-15.21,5,5,0,1,1,8.41,5.41,1,1,0,0,0,.3,1.39,7,7,0,0,0,9.69-2.1,19,19,0,0,0-5.7-26.29c-17.54-11.29-38.71,1.24-55.71,11.31-1.91,1.13-3.75,2.22-5.5,3.23s-3.52,2.05-5.39,3.16C134.17,376.07,109,391,86.31,376.32a29,29,0,0,1-8.7-40.12,17,17,0,0,1,23.51-5.1,11,11,0,0,1,3.3,15.21A5,5,0,1,1,96,340.9a1,1,0,0,0-.3-1.39,7,7,0,0,0-9.69,2.1,19,19,0,0,0,5.7,26.29c17.54,11.29,38.71-1.24,55.71-11.31,1.91-1.13,3.75-2.22,5.51-3.23s3.52-2.05,5.39-3.16c18.35-10.86,43.48-25.74,66.22-11.11a29,29,0,0,1,8.7,40.12A17,17,0,0,1,218.91,387Z"/><path class="cls-1" d="M264.62,387a17,17,0,0,1-14.33-7.8,29,29,0,0,1,8.7-40.12c22.74-14.63,47.87.25,66.22,11.11,1.87,1.11,3.67,2.17,5.39,3.16s3.6,2.1,5.5,3.23c17,10.07,38.17,22.59,55.71,11.31a19,19,0,0,0,5.7-26.3,7,7,0,0,0-9.69-2.1,1,1,0,0,0-.3,1.39,5,5,0,1,1-8.41,5.41,11,11,0,0,1,3.3-15.21,17,17,0,0,1,23.51,5.1,29.06,29.06,0,0,1-8.7,40.12c-22.74,14.63-47.87-.25-66.22-11.11-1.87-1.11-3.67-2.17-5.39-3.16s-3.6-2.1-5.5-3.23c-17-10.07-38.17-22.6-55.71-11.31a19,19,0,0,0-5.7,26.3,7,7,0,0,0,9.69,2.1,1,1,0,0,0,.3-1.39,5,5,0,1,1,8.41-5.41,11,11,0,0,1-3.3,15.21A16.92,16.92,0,0,1,264.62,387Z"/><path class="cls-1" d="M339.38,327.71a21.57,21.57,0,0,1,5.78.65c3.55,1,4.82,3,5.15,5,.42,2.58-2.13,5.26-4.89,5.66l-.36,0c-1.91,0-3.76-2.09-5.42-3.64-4.94-4.6-17-5.78-17-5.78s10.26-1.95,16.71-1.95m0-8c-7.23,0-18.59,3.22-18.93,3.29l-24.06,6.63,21.38,5c11.19,2.67,14.06,4.47,16.41,6.67l.64.61c2,1.93,5.37,5.17,10.23,5.17a10.6,10.6,0,0,0,1.5-.11,14.14,14.14,0,0,0,9.31-5.63,12.22,12.22,0,0,0,2.34-9.23c-.9-5.54-4.85-9.71-10.82-11.44a28.79,28.79,0,0,0-8-1Z"/><path class="cls-1" d="M143.39,327.71c6.45,0,16.71,1.95,16.71,1.95s-12,1.18-17,5.78c-1.66,1.55-3.51,3.64-5.42,3.64l-.36,0c-2.76-.4-5.31-3.07-4.89-5.66.33-2,1.59-4,5.15-5a21.57,21.57,0,0,1,5.78-.65m0-8a28.79,28.79,0,0,0-8,1c-6,1.73-9.92,5.9-10.82,11.44a12.22,12.22,0,0,0,2.34,9.23,14.14,14.14,0,0,0,9.31,5.63,10.6,10.6,0,0,0,1.5.11c4.86,0,8.22-3.24,10.23-5.17l.64-.61c2.36-2.19,5.23-4,16.41-6.67l21.38-5L162.32,323c-.34-.07-11.7-3.29-18.93-3.29Z"/><path class="cls-1" d="M331.1,286.54c-7.57,1.38-11.32,8.14-14.51,13.1a23.68,23.68,0,0,1-9.66,8.62s5.63-7.69,2.4-11.59c-3.36-4.05-7.56-1.88-8.86,1.31s2.17,12.35-24.31,19.8l-.68.18c7.65-6,11.88-12.41,9.95-15.83-2.08-3.67-10.63-2.76-20.45,1.72,4.41-10,5.3-18.68,1.69-20.8s-10.56,3-16.85,11.88c-1.09-10.89-4.6-18.87-8.76-18.87s-7.67,8-8.76,18.87c-6.3-8.87-13.25-14-16.85-11.88s-2.71,10.81,1.69,20.8c-9.82-4.48-18.36-5.39-20.45-1.72-1.91,3.36,2.17,9.6,9.6,15.55-26.13-7.43-22.71-16.53-24-19.71s-5.5-5.36-8.86-1.31c-3.23,3.9,2.4,11.59,2.4,11.59a23.68,23.68,0,0,1-9.66-8.62c-3.19-5-6.94-11.72-14.51-13.1-7.2-1.31-10.75,4.76-7.56,7.32,44.09,35.26,87,37.18,97.46,37.08,10.35.1,53-1.82,97.08-37.08C341.86,291.3,338.3,285.23,331.1,286.54ZM239.2,327.77a6.08,6.08,0,1,1,4.16-.15,6.69,6.69,0,0,1-2.28.45A6.55,6.55,0,0,1,239.2,327.77Zm-32.49-20.89c2.87,0,7.07,1.08,11.52,2.95l9.43,4L223.42,305c-3.18-6.64-3.36-10.79-3-12.15,1.51.41,5.26,2.75,9.71,8.52l6.05,7.86,1-9.65c.79-7.24,2.85-10.92,3.87-11.93,1,1,3.08,4.69,3.87,11.93l1,9.65,6.05-7.86c4.44-5.77,8.19-8.11,9.71-8.52.34,1.36.16,5.51-3,12.15l-4.24,8.85,9.43-4c4.45-1.87,8.65-2.95,11.52-2.95a6.81,6.81,0,0,1,1.45.13c-.55,1.88-4.67,7-14,12.09-.76.41-1.59.83-2.48,1.23-6.05-.28-8-2.95-10.23-5.23-3.33-3.38-5.13-4.58-9.07-4.58-4.12,0-6,1.6-9.29,5-2.53,2.58-4.54,4.77-9.82,4.94-1-.44-1.86-.88-2.67-1.32-9.37-5.07-13.49-10.21-14-12.09A6.81,6.81,0,0,1,206.71,306.88Z"/><path class="cls-1" d="M22.1,147.27a16.76,16.76,0,0,1,10.62,7.36A21.08,21.08,0,0,1,35.9,163a4.34,4.34,0,0,1,4,7.55l-1.31,1h0a4.35,4.35,0,0,1,4.43,4.27s0,.05,0,.08a4.35,4.35,0,0,1-4.27,4.35c-5.82.1-7.59,3.12-7.78,3.46l.05-.11h0c-1.37,2.66-2.83,5.13-4.14,7.34-.57,1-1.12,1.9-1.64,2.79s-1.1,1.89-1.69,2.89c-1.32,2.22-2.72,4.59-4,7l-.06.11a44.49,44.49,0,0,0-2.78,6.48,5.32,5.32,0,0,1-.21.69c-1.35,4.51-1.45,9,1.09,12.92A8.18,8.18,0,0,0,29,226.34a1.91,1.91,0,0,0,.84-1.2,2.13,2.13,0,0,0,0-.49,4.35,4.35,0,0,1-3.33-7.9A7.48,7.48,0,0,1,36.89,219a10.61,10.61,0,0,1-3.18,14.67,16.88,16.88,0,0,1-23.33-5.06,21.07,21.07,0,0,1-3.19-8.39,4.34,4.34,0,0,1-4-7.55l1.31-1h0A4.35,4.35,0,0,1,0,207.36s0-.05,0-.08a4.35,4.35,0,0,1,4.27-4.35c5.82-.11,7.59-3.12,7.78-3.46l-.05.11h0c1.37-2.66,2.83-5.14,4.14-7.35.57-1,1.12-1.9,1.63-2.79s1.1-1.89,1.69-2.89c1.29-2.18,2.67-4.51,3.9-6.89l.13-.25A44.49,44.49,0,0,0,26.27,173a5.33,5.33,0,0,1,.22-.72c1.34-4.51,1.44-9-1.09-12.9a8.18,8.18,0,0,0-11.3-2.45,1.9,1.9,0,0,0-.83,1.2,1.81,1.81,0,0,0,0,.49,4.35,4.35,0,0,1,3.33,7.9,7.48,7.48,0,0,1-10.34-2.24,10.62,10.62,0,0,1,3.18-14.67A16.77,16.77,0,0,1,22.1,147.27Z"/><path class="cls-1" d="M459.41,147.27a16.76,16.76,0,0,0-10.62,7.36,21.08,21.08,0,0,0-3.19,8.39,4.34,4.34,0,0,0-4,7.55l1.31,1h0a4.35,4.35,0,0,0-4.43,4.27s0,.05,0,.08a4.35,4.35,0,0,0,4.27,4.35c5.82.1,7.59,3.12,7.78,3.46l-.05-.11h0c1.37,2.66,2.83,5.13,4.14,7.34.57,1,1.12,1.9,1.64,2.79s1.1,1.89,1.69,2.89c1.32,2.22,2.72,4.59,4,7l.06.11a44.49,44.49,0,0,1,2.78,6.48,5.32,5.32,0,0,0,.21.69c1.35,4.51,1.45,9-1.09,12.92a8.18,8.18,0,0,1-11.3,2.45,1.91,1.91,0,0,1-.84-1.2,2.13,2.13,0,0,1,0-.49,4.35,4.35,0,0,0,3.33-7.9A7.48,7.48,0,0,0,444.63,219a10.61,10.61,0,0,0,3.18,14.67,16.88,16.88,0,0,0,23.33-5.06,21.07,21.07,0,0,0,3.19-8.39,4.34,4.34,0,0,0,4-7.55l-1.31-1h0a4.35,4.35,0,0,0,4.43-4.27s0-.05,0-.08a4.35,4.35,0,0,0-4.27-4.35c-5.82-.11-7.59-3.12-7.78-3.46l.05.11h0c-1.37-2.66-2.83-5.14-4.14-7.35-.57-1-1.12-1.9-1.63-2.79s-1.1-1.89-1.69-2.89c-1.29-2.18-2.67-4.51-3.9-6.89l-.13-.25a44.49,44.49,0,0,1-2.77-6.46,5.33,5.33,0,0,0-.22-.72c-1.34-4.51-1.44-9,1.09-12.9a8.18,8.18,0,0,1,11.3-2.45,1.9,1.9,0,0,1,.83,1.2,1.81,1.81,0,0,1,0,.49,4.35,4.35,0,0,0-3.33,7.9,7.48,7.48,0,0,0,10.34-2.24,10.62,10.62,0,0,0-3.18-14.67A16.77,16.77,0,0,0,459.41,147.27Z"/></g></g></svg>