<svg xmlns="http://www.w3.org/2000/svg" viewBox="0 0 481.51 379.76"><defs><style>.cls-1{fill:#591132;}</style></defs><title>Asset4</title><g id="Layer_2" data-name="Layer 2"><g id="Layer_2-2" data-name="Layer 2"><path class="cls-1" d="M218.91,379.76a16.92,16.92,0,0,1-9.18-2.7,11,11,0,0,1-3.3-15.21,5,5,0,0,1,8.41,5.41,1,1,0,0,0,.3,1.39,7,7,0,0,0,9.69-2.1,19,19,0,0,0-5.7-26.29c-17.54-11.29-38.71,1.24-55.71,11.31-1.91,1.13-3.75,2.22-5.5,3.23s-3.52,2.05-5.39,3.16c-18.35,10.86-43.48,25.74-66.22,11.11a29,29,0,0,1-8.7-40.12,17,17,0,0,1,23.51-5.1,11,11,0,0,1,3.3,15.21A5,5,0,1,1,96,333.64a1,1,0,0,0-.3-1.39,7,7,0,0,0-9.69,2.1,19,19,0,0,0,5.7,26.29c17.54,11.29,38.71-1.24,55.71-11.31,1.91-1.13,3.75-2.22,5.51-3.23s3.52-2.05,5.39-3.16c18.35-10.86,43.48-25.74,66.22-11.11a29,29,0,0,1,8.7,40.12A17,17,0,0,1,218.91,379.76Z"/><path class="cls-1" d="M264.62,379.76a17,17,0,0,1-14.33-7.8,29,29,0,0,1,8.7-40.12c22.74-14.63,47.87.25,66.22,11.11,1.87,1.11,3.67,2.17,5.39,3.16s3.6,2.1,5.5,3.23c17,10.07,38.17,22.59,55.71,11.31a19,19,0,0,0,5.7-26.3,7,7,0,0,0-9.69-2.1,1,1,0,0,0-.3,1.39,5,5,0,1,1-8.41,5.41,11,11,0,0,1,3.3-15.21,17,17,0,0,1,23.51,5.1,29.06,29.06,0,0,1-8.7,40.12c-22.74,14.63-47.87-.25-66.22-11.11-1.87-1.11-3.67-2.17-5.39-3.16s-3.6-2.1-5.5-3.23c-17-10.07-38.17-22.6-55.71-11.31a19,19,0,0,0-5.7,26.3,7,7,0,0,0,9.69,2.1,1,1,0,0,0,.3-1.39,5,5,0,1,1,8.41-5.41,11,11,0,0,1-3.3,15.21A16.92,16.92,0,0,1,264.62,379.76Z"/><path class="cls-1" d="M339.38,320.45a21.57,21.57,0,0,1,5.78.65c3.55,1,4.82,3,5.15,5,.42,2.58-2.13,5.26-4.89,5.66l-.36,0c-1.91,0-3.76-2.09-5.42-3.64-4.94-4.6-17-5.78-17-5.78s10.26-1.95,16.71-1.95m0-8c-7.23,0-18.59,3.22-18.93,3.29l-24.06,6.63,21.38,5C329,330,331.82,331.84,334.18,334l.64.61c2,1.93,5.37,5.17,10.23,5.17a10.6,10.6,0,0,0,1.5-.11,14.14,14.14,0,0,0,9.31-5.63,12.22,12.22,0,0,0,2.34-9.23c-.9-5.54-4.85-9.71-10.82-11.44a28.79,28.79,0,0,0-8-1Z"/><path class="cls-1" d="M143.39,320.45c6.45,0,16.71,1.95,16.71,1.95s-12,1.18-17,5.78c-1.66,1.55-3.51,3.64-5.42,3.64l-.36,0c-2.76-.4-5.31-3.07-4.89-5.66.33-2,1.59-4,5.15-5a21.57,21.57,0,0,1,5.78-.65m0-8a28.79,28.79,0,0,0-8,1c-6,1.73-9.92,5.9-10.82,11.44a12.22,12.22,0,0,0,2.34,9.23,14.14,14.14,0,0,0,9.31,5.63,10.6,10.6,0,0,0,1.5.11c4.86,0,8.22-3.24,10.23-5.17l.64-.61c2.36-2.19,5.23-4,16.41-6.67l21.38-5-24.06-6.62c-.34-.07-11.7-3.29-18.93-3.29Z"/><path class="cls-1" d="M331.1,279.28c-7.57,1.38-11.32,8.14-14.51,13.1a23.68,23.68,0,0,1-9.66,8.62s5.63-7.69,2.4-11.59c-3.36-4.05-7.56-1.88-8.86,1.31s2.17,12.35-24.31,19.8l-.68.18c7.65-6,11.88-12.41,9.95-15.83-2.08-3.67-10.63-2.76-20.45,1.72,4.41-10,5.3-18.68,1.69-20.8s-10.56,3-16.85,11.88c-1.09-10.89-4.6-18.87-8.76-18.87s-7.67,8-8.76,18.87c-6.3-8.87-13.25-14-16.85-11.88s-2.71,10.81,1.69,20.8c-9.82-4.48-18.36-5.39-20.45-1.72-1.91,3.36,2.17,9.6,9.6,15.55-26.13-7.43-22.71-16.53-24-19.71s-5.5-5.36-8.86-1.31c-3.23,3.9,2.4,11.59,2.4,11.59a23.68,23.68,0,0,1-9.66-8.62c-3.19-5-6.94-11.72-14.51-13.1-7.2-1.31-10.75,4.76-7.56,7.32,44.09,35.26,87,37.18,97.46,37.08,10.35.1,53-1.82,97.08-37.08C341.86,284,338.3,278,331.1,279.28ZM239.2,320.51a6.08,6.08,0,1,1,4.16-.15,6.69,6.69,0,0,1-2.28.45A6.55,6.55,0,0,1,239.2,320.51Zm-32.49-20.89c2.87,0,7.07,1.08,11.52,2.95l9.43,4-4.24-8.85c-3.18-6.64-3.36-10.79-3-12.15,1.51.41,5.26,2.75,9.71,8.52l6.05,7.86,1-9.65c.79-7.24,2.85-10.92,3.87-11.93,1,1,3.08,4.69,3.87,11.93l1,9.65,6.05-7.86c4.44-5.77,8.19-8.11,9.71-8.52.34,1.36.16,5.51-3,12.15l-4.24,8.85,9.43-4c4.45-1.87,8.65-2.95,11.52-2.95a6.81,6.81,0,0,1,1.45.13c-.55,1.88-4.67,7-14,12.09-.76.41-1.59.83-2.48,1.23-6.05-.28-8-2.95-10.23-5.23-3.33-3.38-5.13-4.58-9.07-4.58-4.12,0-6,1.6-9.29,5-2.53,2.58-4.54,4.77-9.82,4.94-1-.44-1.86-.88-2.67-1.32-9.37-5.07-13.49-10.21-14-12.09A6.81,6.81,0,0,1,206.71,299.62Z"/><path class="cls-1" d="M262.6,0a16.92,16.92,0,0,1,9.18,2.7,11,11,0,0,1,3.3,15.21,5,5,0,1,1-8.41-5.41,1,1,0,0,0-.3-1.39,7,7,0,0,0-9.69,2.1,19,19,0,0,0,5.7,26.29c17.54,11.29,38.71-1.24,55.71-11.31C320,27.07,321.84,26,323.6,25s3.52-2.05,5.39-3.16C347.34,11,372.47-3.93,395.21,10.7a29,29,0,0,1,8.7,40.12,17,17,0,0,1-23.51,5.1,11,11,0,0,1-3.3-15.21,5,5,0,1,1,8.41,5.41,1,1,0,0,0,.3,1.39,7,7,0,0,0,9.69-2.1,19,19,0,0,0-5.7-26.29c-17.54-11.29-38.71,1.24-55.71,11.31-1.91,1.13-3.75,2.22-5.51,3.23s-3.52,2.05-5.39,3.16C304.84,47.67,279.71,62.55,257,47.92a29,29,0,0,1-8.7-40.12A17,17,0,0,1,262.6,0Z"/><path class="cls-1" d="M216.89,0a17,17,0,0,1,14.33,7.8,29,29,0,0,1-8.7,40.12c-22.74,14.63-47.87-.25-66.22-11.11-1.87-1.11-3.67-2.17-5.39-3.16s-3.6-2.1-5.5-3.23c-17-10.07-38.17-22.59-55.71-11.31A19,19,0,0,0,84,45.41a7,7,0,0,0,9.69,2.1,1,1,0,0,0,.3-1.39,5,5,0,1,1,8.41-5.41,11,11,0,0,1-3.3,15.21,17,17,0,0,1-23.51-5.1,29.06,29.06,0,0,1,8.7-40.12C107-3.93,132.16,11,150.51,21.81c1.87,1.11,3.67,2.17,5.39,3.16s3.6,2.1,5.5,3.23c17,10.07,38.17,22.6,55.71,11.31a19,19,0,0,0,5.7-26.3,7,7,0,0,0-9.69-2.1,1,1,0,0,0-.3,1.39,5,5,0,1,1-8.41,5.41,11,11,0,0,1,3.3-15.21A16.92,16.92,0,0,1,216.89,0Z"/><path class="cls-1" d="M142.13,59.31a21.57,21.57,0,0,1-5.78-.65c-3.55-1-4.82-3-5.15-5-.42-2.58,2.13-5.26,4.89-5.66l.36,0c1.91,0,3.76,2.09,5.42,3.64,4.94,4.6,17,5.78,17,5.78s-10.26,1.95-16.71,1.95m0,8c7.23,0,18.59-3.22,18.93-3.29l24.06-6.62-21.37-5c-11.19-2.67-14.06-4.47-16.41-6.67l-.64-.61c-2-1.93-5.37-5.17-10.23-5.17a10.6,10.6,0,0,0-1.5.11,14.14,14.14,0,0,0-9.31,5.63,12.22,12.22,0,0,0-2.34,9.23c.9,5.54,4.85,9.71,10.82,11.44a28.79,28.79,0,0,0,8,1Z"/><path class="cls-1" d="M338.12,59.31c-6.45,0-16.71-1.95-16.71-1.95s12-1.18,17-5.78c1.66-1.55,3.51-3.64,5.42-3.64l.36,0c2.76.4,5.31,3.07,4.89,5.66-.33,2-1.59,4-5.15,5a21.57,21.57,0,0,1-5.78.65m0,8a28.79,28.79,0,0,0,8-1c6-1.73,9.92-5.9,10.82-11.44a12.22,12.22,0,0,0-2.34-9.23,14.14,14.14,0,0,0-9.31-5.63,10.6,10.6,0,0,0-1.5-.11c-4.86,0-8.22,3.24-10.23,5.17l-.64.61c-2.36,2.19-5.23,4-16.41,6.67l-21.37,5L319.19,64c.34.07,11.7,3.29,18.93,3.29Z"/><path class="cls-1" d="M150.41,100.48c7.57-1.38,11.32-8.14,14.51-13.1a23.68,23.68,0,0,1,9.66-8.62s-5.63,7.69-2.4,11.59c3.36,4.05,7.56,1.88,8.86-1.31s-2.17-12.35,24.31-19.8l.68-.18c-7.65,6-11.88,12.41-9.95,15.83,2.08,3.67,10.63,2.76,20.45-1.72-4.41,10-5.3,18.68-1.69,20.8s10.56-3,16.85-11.88c1.09,10.89,4.6,18.87,8.76,18.87s7.67-8,8.76-18.87c6.3,8.87,13.25,14,16.85,11.88s2.71-10.81-1.69-20.8c9.82,4.48,18.36,5.39,20.45,1.72,1.91-3.36-2.17-9.6-9.6-15.55,26.13,7.43,22.71,16.53,24,19.71s5.5,5.36,8.86,1.31c3.23-3.9-2.4-11.59-2.4-11.59a23.68,23.68,0,0,1,9.66,8.62c3.19,5,6.94,11.72,14.51,13.1,7.2,1.31,10.75-4.76,7.56-7.32C293.3,57.9,250.35,56,239.92,56.08c-10.35-.1-53,1.82-97.08,37.08C139.66,95.72,143.21,101.8,150.41,100.48Zm91.91-41.23a6.08,6.08,0,1,1-4.16.15,6.69,6.69,0,0,1,2.28-.45A6.55,6.55,0,0,1,242.32,59.26Zm32.49,20.89c-2.87,0-7.07-1.08-11.52-2.95l-9.43-4,4.24,8.85c3.18,6.64,3.36,10.79,3,12.15-1.51-.41-5.26-2.75-9.71-8.52l-6.05-7.86-1,9.65c-.79,7.24-2.85,10.92-3.87,11.93-1-1-3.08-4.69-3.87-11.93l-1-9.65-6.05,7.86c-4.44,5.77-8.19,8.11-9.71,8.52-.34-1.36-.16-5.51,3-12.15L227,73.22l-9.43,4c-4.45,1.87-8.65,2.95-11.52,2.95a6.81,6.81,0,0,1-1.45-.13c.55-1.88,4.67-7,14-12.09.76-.41,1.59-.83,2.48-1.23,6.05.28,8,2.95,10.23,5.23,3.33,3.38,5.13,4.58,9.07,4.58,4.12,0,6-1.6,9.29-5,2.53-2.58,4.54-4.77,9.82-4.94,1,.44,1.86.88,2.67,1.32,9.37,5.07,13.49,10.21,14,12.09A6.81,6.81,0,0,1,274.81,80.14Z"/><path class="cls-1" d="M22.1,78.33a16.76,16.76,0,0,1,10.62,7.36,21.08,21.08,0,0,1,3.19,8.39,4.34,4.34,0,0,1,4,7.55l-1.31,1h0a4.35,4.35,0,0,1,4.43,4.27s0,.05,0,.08a4.35,4.35,0,0,1-4.27,4.35c-5.82.1-7.59,3.12-7.78,3.46l.05-.11h0c-1.37,2.66-2.83,5.13-4.14,7.34-.57,1-1.12,1.9-1.64,2.79s-1.1,1.89-1.69,2.89c-1.32,2.22-2.72,4.59-4,7l-.06.11a44.49,44.49,0,0,0-2.78,6.48,5.32,5.32,0,0,1-.21.69c-1.35,4.51-1.45,9,1.09,12.92A8.18,8.18,0,0,0,29,157.39a1.91,1.91,0,0,0,.84-1.2,2.13,2.13,0,0,0,0-.49,4.35,4.35,0,0,1-3.33-7.9A7.48,7.48,0,0,1,36.89,150a10.61,10.61,0,0,1-3.18,14.67,16.88,16.88,0,0,1-23.33-5.06,21.07,21.07,0,0,1-3.19-8.39,4.34,4.34,0,0,1-4-7.55l1.31-1h0A4.35,4.35,0,0,1,0,138.41s0-.05,0-.08A4.35,4.35,0,0,1,4.27,134c5.82-.11,7.59-3.12,7.78-3.46l-.05.11h0c1.37-2.66,2.83-5.14,4.14-7.35.57-1,1.12-1.9,1.63-2.79s1.1-1.89,1.69-2.89c1.29-2.18,2.67-4.51,3.9-6.89l.13-.25A44.49,44.49,0,0,0,26.27,104a5.33,5.33,0,0,1,.22-.72c1.34-4.51,1.44-9-1.09-12.9a8.18,8.18,0,0,0-11.3-2.45,1.9,1.9,0,0,0-.83,1.2,1.81,1.81,0,0,0,0,.49,4.35,4.35,0,0,1,3.33,7.9A7.48,7.48,0,0,1,6.21,95.3,10.62,10.62,0,0,1,9.39,80.63,16.77,16.77,0,0,1,22.1,78.33Z"/><path class="cls-1" d="M459.41,78.33a16.76,16.76,0,0,0-10.62,7.36,21.08,21.08,0,0,0-3.19,8.39,4.34,4.34,0,0,0-4,7.55l1.31,1h0a4.35,4.35,0,0,0-4.43,4.27s0,.05,0,.08a4.35,4.35,0,0,0,4.27,4.35c5.82.1,7.59,3.12,7.78,3.46l-.05-.11h0c1.37,2.66,2.83,5.13,4.14,7.34.57,1,1.12,1.9,1.64,2.79s1.1,1.89,1.69,2.89c1.32,2.22,2.72,4.59,4,7l.06.11a44.49,44.49,0,0,1,2.78,6.48,5.32,5.32,0,0,0,.21.69c1.35,4.51,1.45,9-1.09,12.92a8.18,8.18,0,0,1-11.3,2.45,1.91,1.91,0,0,1-.84-1.2,2.13,2.13,0,0,1,0-.49,4.35,4.35,0,0,0,3.33-7.9A7.48,7.48,0,0,0,444.63,150a10.61,10.61,0,0,0,3.18,14.67,16.88,16.88,0,0,0,23.33-5.06,21.07,21.07,0,0,0,3.19-8.39,4.34,4.34,0,0,0,4-7.55l-1.31-1h0a4.35,4.35,0,0,0,4.43-4.27s0-.05,0-.08a4.35,4.35,0,0,0-4.27-4.35c-5.82-.11-7.59-3.12-7.78-3.46l.05.11h0c-1.37-2.66-2.83-5.14-4.14-7.35-.57-1-1.12-1.9-1.63-2.79s-1.1-1.89-1.69-2.89c-1.29-2.18-2.67-4.51-3.9-6.89l-.13-.25a44.49,44.49,0,0,1-2.77-6.46,5.33,5.33,0,0,0-.22-.72c-1.34-4.51-1.44-9,1.09-12.9a8.18,8.18,0,0,1,11.3-2.45,1.9,1.9,0,0,1,.83,1.2,1.81,1.81,0,0,1,0,.49,4.35,4.35,0,0,0-3.33,7.9A7.48,7.48,0,0,0,475.3,95.3a10.62,10.62,0,0,0-3.18-14.67A16.77,16.77,0,0,0,459.41,78.33Z"/><path class="cls-1" d="M459.41,313.18a16.76,16.76,0,0,1-10.62-7.36,21.08,21.08,0,0,1-3.19-8.39,4.34,4.34,0,0,1-4-7.55l1.31-1h0a4.35,4.35,0,0,1-4.43-4.27s0-.05,0-.08a4.35,4.35,0,0,1,4.27-4.35c5.82-.1,7.59-3.12,7.78-3.46l-.05.11h0c1.37-2.66,2.83-5.13,4.14-7.34.57-1,1.12-1.9,1.64-2.79s1.1-1.89,1.69-2.89c1.32-2.22,2.72-4.59,4-7l.06-.11a44.49,44.49,0,0,0,2.78-6.48,5.32,5.32,0,0,1,.21-.69c1.35-4.51,1.45-9-1.09-12.92a8.18,8.18,0,0,0-11.3-2.45,1.91,1.91,0,0,0-.84,1.2,2.13,2.13,0,0,0,0,.49,4.35,4.35,0,0,1,3.33,7.9,7.48,7.48,0,0,1-10.34-2.24,10.61,10.61,0,0,1,3.18-14.67,16.88,16.88,0,0,1,23.33,5.06,21.07,21.07,0,0,1,3.19,8.39,4.34,4.34,0,0,1,4,7.55l-1.31,1h0a4.35,4.35,0,0,1,4.43,4.27s0,.05,0,.08a4.35,4.35,0,0,1-4.27,4.35c-5.82.11-7.59,3.12-7.78,3.46l.05-.11h0c-1.37,2.66-2.83,5.14-4.14,7.35-.57,1-1.12,1.9-1.63,2.79s-1.1,1.89-1.69,2.89c-1.29,2.18-2.67,4.51-3.9,6.89L458,281a44.49,44.49,0,0,0-2.77,6.46,5.33,5.33,0,0,1-.22.72c-1.34,4.51-1.44,9,1.09,12.9a8.18,8.18,0,0,0,11.3,2.45,1.9,1.9,0,0,0,.83-1.2,1.81,1.81,0,0,0,0-.49A4.35,4.35,0,0,1,465,294a7.48,7.48,0,0,1,10.34,2.24,10.62,10.62,0,0,1-3.18,14.67A16.77,16.77,0,0,1,459.41,313.18Z"/><path class="cls-1" d="M22.1,313.18a16.76,16.76,0,0,0,10.62-7.36,21.08,21.08,0,0,0,3.19-8.39,4.34,4.34,0,0,0,4-7.55l-1.31-1h0a4.35,4.35,0,0,0,4.43-4.27s0-.05,0-.08a4.35,4.35,0,0,0-4.27-4.35C33,280,31.23,277,31,276.69l.05.11h0c-1.37-2.66-2.83-5.13-4.14-7.34-.57-1-1.12-1.9-1.64-2.79s-1.1-1.89-1.69-2.89c-1.32-2.22-2.72-4.59-4-7l-.06-.11a44.49,44.49,0,0,1-2.78-6.48,5.32,5.32,0,0,0-.21-.69c-1.35-4.51-1.45-9,1.09-12.92A8.18,8.18,0,0,1,29,234.11a1.91,1.91,0,0,1,.84,1.2,2.13,2.13,0,0,1,0,.49,4.35,4.35,0,0,0-3.33,7.9,7.48,7.48,0,0,0,10.34-2.24,10.61,10.61,0,0,0-3.18-14.67,16.88,16.88,0,0,0-23.33,5.06,21.07,21.07,0,0,0-3.19,8.39,4.34,4.34,0,0,0-4,7.55l1.31,1h0A4.35,4.35,0,0,0,0,253.09s0,.05,0,.08a4.35,4.35,0,0,0,4.27,4.35c5.82.11,7.59,3.12,7.78,3.46l-.05-.11h0c1.37,2.66,2.83,5.14,4.14,7.35.57,1,1.12,1.9,1.63,2.79s1.1,1.89,1.69,2.89c1.29,2.18,2.67,4.51,3.9,6.89l.13.25a44.49,44.49,0,0,1,2.77,6.46,5.33,5.33,0,0,0,.22.72c1.34,4.51,1.44,9-1.09,12.9a8.18,8.18,0,0,1-11.3,2.45,1.9,1.9,0,0,1-.83-1.2,1.81,1.81,0,0,1,0-.49,4.35,4.35,0,0,0,3.33-7.9,7.48,7.48,0,0,0-10.34,2.24,10.62,10.62,0,0,0,3.18,14.67A16.77,16.77,0,0,0,22.1,313.18Z"/></g></g></svg>