<svg xmlns="http://www.w3.org/2000/svg" viewBox="0 0 602.93 417.01"><defs><style>.cls-1{fill:#ede4d2;}</style></defs><title>Asset6</title><g id="Layer_2" data-name="Layer 2"><g id="Layer_2-2" data-name="Layer 2"><path class="cls-1" d="M0,186.66a16.92,16.92,0,0,1,2.7-9.18,11,11,0,0,1,15.21-3.3,5,5,0,0,1-5.41,8.41,1,1,0,0,0-1.39.3,7,7,0,0,0,2.1,9.69,19,19,0,0,0,26.29-5.7c11.29-17.54-1.24-38.71-11.31-55.71-1.13-1.91-2.22-3.75-3.23-5.5s-2.05-3.52-3.16-5.39C11,101.92-3.93,76.79,10.7,54.06a29,29,0,0,1,40.12-8.7,17,17,0,0,1,5.1,23.51,11,11,0,0,1-15.21,3.3,5,5,0,1,1,5.41-8.41,1,1,0,0,0,1.39-.3,7,7,0,0,0-2.1-9.69,19,19,0,0,0-26.29,5.7C7.82,77,20.35,98.18,30.42,115.18c1.13,1.91,2.22,3.75,3.23,5.51s2.05,3.52,3.16,5.39c10.86,18.35,25.74,43.48,11.11,66.22A29,29,0,0,1,7.8,201,17,17,0,0,1,0,186.66Z"/><path class="cls-1" d="M0,232.37A17,17,0,0,1,7.8,218a29,29,0,0,1,40.12,8.7c14.63,22.74-.25,47.87-11.11,66.22-1.11,1.87-2.17,3.67-3.16,5.39s-2.1,3.6-3.23,5.5c-10.07,17-22.59,38.17-11.31,55.71a19,19,0,0,0,26.3,5.7,7,7,0,0,0,2.1-9.69,1,1,0,0,0-1.39-.3,5,5,0,1,1-5.41-8.41,11,11,0,0,1,15.21,3.3,17,17,0,0,1-5.1,23.51A29.06,29.06,0,0,1,10.7,365c-14.63-22.74.25-47.87,11.11-66.22,1.11-1.87,2.17-3.67,3.16-5.39s2.1-3.6,3.23-5.5c10.07-17,22.6-38.17,11.31-55.71a19,19,0,0,0-26.3-5.7,7,7,0,0,0-2.1,9.69,1,1,0,0,0,1.39.3,5,5,0,1,1,5.41,8.41,11,11,0,0,1-15.21-3.3A16.92,16.92,0,0,1,0,232.37Z"/><path class="cls-1" d="M59.31,307.13a21.57,21.57,0,0,1-.65,5.78c-1,3.55-3,4.82-5,5.15-2.58.42-5.26-2.13-5.66-4.89a2.56,2.56,0,0,1,0-.36c0-1.91,2.09-3.76,3.64-5.42,4.6-4.94,5.78-17,5.78-17s1.95,10.26,1.95,16.71m8,0c0-7.23-3.22-18.59-3.29-18.93l-6.62-24.06-5,21.38c-2.67,11.19-4.47,14.06-6.67,16.41l-.61.64c-1.93,2-5.17,5.37-5.17,10.23a10.6,10.6,0,0,0,.11,1.5,14.14,14.14,0,0,0,5.63,9.31A12.22,12.22,0,0,0,54.91,326c5.54-.9,9.71-4.85,11.44-10.82a28.79,28.79,0,0,0,1-8Z"/><path class="cls-1" d="M59.31,111.14c0,6.45-1.95,16.71-1.95,16.71s-1.18-12-5.78-17c-1.55-1.66-3.64-3.51-3.64-5.42a2.56,2.56,0,0,1,0-.36c.4-2.76,3.07-5.31,5.66-4.89,2,.33,4,1.59,5,5.15a21.57,21.57,0,0,1,.65,5.78m8,0a28.79,28.79,0,0,0-1-8c-1.73-6-5.9-9.92-11.44-10.82a12.22,12.22,0,0,0-9.23,2.34A14.14,14.14,0,0,0,40.05,104a10.6,10.6,0,0,0-.11,1.5c0,4.86,3.24,8.22,5.17,10.23l.61.64c2.19,2.36,4,5.23,6.67,16.41l5,21.38L64,130.07c.07-.34,3.29-11.7,3.29-18.93Z"/><path class="cls-1" d="M100.48,298.85c-1.38-7.57-8.14-11.32-13.1-14.51a23.68,23.68,0,0,1-8.62-9.66s7.69,5.63,11.59,2.4c4.05-3.36,1.88-7.56-1.31-8.86s-12.35,2.17-19.8-24.31l-.18-.68c6,7.65,12.41,11.88,15.83,9.95,3.67-2.08,2.76-10.63-1.72-20.45,10,4.41,18.68,5.3,20.8,1.69s-3-10.56-11.88-16.85c10.89-1.09,18.87-4.6,18.87-8.76s-8-7.67-18.87-8.76c8.87-6.3,14-13.25,11.88-16.85s-10.81-2.71-20.8,1.69c4.48-9.82,5.39-18.36,1.72-20.45-3.36-1.91-9.6,2.17-15.55,9.6,7.43-26.13,16.53-22.71,19.71-24s5.36-5.5,1.31-8.86c-3.9-3.23-11.59,2.4-11.59,2.4a23.68,23.68,0,0,1,8.62-9.66c5-3.19,11.72-6.94,13.1-14.51,1.31-7.2-4.76-10.75-7.32-7.56C57.9,156,56,198.91,56.08,209.34c-.1,10.35,1.82,53,37.08,97.08C95.72,309.61,101.8,306,100.48,298.85ZM59.26,206.95a6.08,6.08,0,1,1,.15,4.16,6.69,6.69,0,0,1-.45-2.28A6.55,6.55,0,0,1,59.26,206.95Zm20.89-32.49c0,2.87-1.08,7.07-2.95,11.52l-4,9.43,8.85-4.24c6.64-3.18,10.79-3.36,12.15-3-.41,1.51-2.75,5.26-8.52,9.71l-7.86,6.05,9.65,1c7.24.79,10.92,2.85,11.93,3.87-1,1-4.69,3.08-11.93,3.87l-9.65,1,7.86,6.05c5.77,4.44,8.11,8.19,8.52,9.71-1.36.34-5.51.16-12.15-3l-8.85-4.24,4,9.43c1.87,4.45,2.95,8.65,2.95,11.52a6.81,6.81,0,0,1-.13,1.45c-1.88-.55-7-4.67-12.09-14-.41-.76-.83-1.59-1.23-2.48.28-6.05,2.95-8,5.23-10.23,3.38-3.33,4.58-5.13,4.58-9.07,0-4.12-1.6-6-5-9.29C69,197,66.78,195,66.6,189.72c.44-1,.88-1.86,1.32-2.67C73,177.68,78.13,173.56,80,173A6.81,6.81,0,0,1,80.14,174.46Z"/><path class="cls-1" d="M602.93,230.35a16.92,16.92,0,0,1-2.7,9.18,11,11,0,0,1-15.21,3.3,5,5,0,0,1,5.41-8.41,1,1,0,0,0,1.39-.3,7,7,0,0,0-2.1-9.69,19,19,0,0,0-26.29,5.7c-11.29,17.54,1.24,38.71,11.31,55.71,1.13,1.91,2.22,3.75,3.23,5.5s2.05,3.52,3.16,5.39C592,315.09,606.86,340.22,592.23,363a29,29,0,0,1-40.12,8.7,17,17,0,0,1-5.1-23.51,11,11,0,0,1,15.21-3.3,5,5,0,1,1-5.41,8.41,1,1,0,0,0-1.39.3,7,7,0,0,0,2.1,9.69,19,19,0,0,0,26.29-5.7c11.29-17.54-1.24-38.71-11.31-55.71-1.13-1.91-2.22-3.75-3.23-5.51s-2.05-3.52-3.16-5.39c-10.86-18.35-25.74-43.48-11.11-66.22a29,29,0,0,1,40.12-8.7A17,17,0,0,1,602.93,230.35Z"/><path class="cls-1" d="M602.93,184.64a17,17,0,0,1-7.8,14.33,29,29,0,0,1-40.12-8.7c-14.63-22.74.25-47.87,11.11-66.22,1.11-1.87,2.17-3.67,3.16-5.39s2.1-3.6,3.23-5.5c10.07-17,22.59-38.17,11.31-55.71a19,19,0,0,0-26.3-5.7,7,7,0,0,0-2.1,9.69,1,1,0,0,0,1.39.3,5,5,0,1,1,5.41,8.41A11,11,0,0,1,547,66.85a17,17,0,0,1,5.1-23.51A29.06,29.06,0,0,1,592.23,52c14.63,22.74-.25,47.87-11.11,66.22-1.11,1.87-2.17,3.67-3.16,5.39s-2.1,3.6-3.23,5.5c-10.07,17-22.6,38.17-11.31,55.71a19,19,0,0,0,26.3,5.7,7,7,0,0,0,2.1-9.69,1,1,0,0,0-1.39-.3,5,5,0,1,1-5.41-8.41,11,11,0,0,1,15.21,3.3A16.92,16.92,0,0,1,602.93,184.64Z"/><path class="cls-1" d="M543.62,109.88a21.57,21.57,0,0,1,.65-5.78c1-3.55,3-4.82,5-5.15,2.58-.42,5.26,2.13,5.66,4.89a2.56,2.56,0,0,1,0,.36c0,1.91-2.09,3.76-3.64,5.42-4.6,4.94-5.78,17-5.78,17s-1.95-10.26-1.95-16.71m-8,0c0,7.23,3.22,18.59,3.29,18.93l6.63,24.06,5-21.37c2.67-11.19,4.47-14.06,6.67-16.41l.61-.64c1.93-2,5.17-5.37,5.17-10.23a10.6,10.6,0,0,0-.11-1.5,14.14,14.14,0,0,0-5.63-9.31A12.22,12.22,0,0,0,548,91.06c-5.54.9-9.71,4.85-11.44,10.82a28.79,28.79,0,0,0-1,8Z"/><path class="cls-1" d="M543.62,305.87c0-6.45,1.95-16.71,1.95-16.71s1.18,12,5.78,17c1.55,1.66,3.64,3.51,3.64,5.42a2.56,2.56,0,0,1,0,.36c-.4,2.76-3.07,5.31-5.66,4.89-2-.33-4-1.59-5-5.15a21.57,21.57,0,0,1-.65-5.78m-8,0a28.79,28.79,0,0,0,1,8c1.73,6,5.9,9.92,11.44,10.82a12.22,12.22,0,0,0,9.23-2.34,14.14,14.14,0,0,0,5.63-9.31,10.6,10.6,0,0,0,.11-1.5c0-4.86-3.24-8.22-5.17-10.23l-.61-.64c-2.19-2.36-4-5.23-6.67-16.41l-5-21.37-6.62,24.06c-.07.34-3.29,11.7-3.29,18.93Z"/><path class="cls-1" d="M502.45,118.16c1.38,7.57,8.14,11.32,13.1,14.51a23.68,23.68,0,0,1,8.62,9.66s-7.69-5.63-11.59-2.4c-4.05,3.36-1.88,7.56,1.31,8.86s12.35-2.17,19.8,24.31l.18.68c-6-7.65-12.41-11.88-15.83-9.95-3.67,2.08-2.76,10.63,1.72,20.45-10-4.41-18.68-5.3-20.8-1.69s3,10.56,11.88,16.85C500,200.52,492,204,492,208.18s8,7.67,18.87,8.76c-8.87,6.3-14,13.25-11.88,16.85s10.81,2.71,20.8-1.69c-4.48,9.82-5.39,18.36-1.72,20.45,3.36,1.91,9.6-2.17,15.55-9.6-7.43,26.13-16.53,22.71-19.71,24s-5.36,5.5-1.31,8.86c3.9,3.23,11.59-2.4,11.59-2.4a23.68,23.68,0,0,1-8.62,9.66c-5,3.19-11.72,6.94-13.1,14.51-1.31,7.2,4.76,10.75,7.32,7.56,35.26-44.09,37.18-87,37.08-97.46.1-10.35-1.82-53-37.08-97.08C507.21,107.41,501.14,111,502.45,118.16Zm41.23,91.91a6.08,6.08,0,1,1-.15-4.16,6.69,6.69,0,0,1,.45,2.28A6.55,6.55,0,0,1,543.68,210.07Zm-20.89,32.49c0-2.87,1.08-7.07,2.95-11.52l4-9.43-8.85,4.24c-6.64,3.18-10.79,3.36-12.15,3,.41-1.51,2.75-5.26,8.52-9.71l7.86-6.05-9.65-1c-7.24-.79-10.92-2.85-11.93-3.87,1-1,4.69-3.08,11.93-3.87l9.65-1-7.86-6.05c-5.77-4.44-8.11-8.19-8.52-9.71,1.36-.34,5.51-.16,12.15,3l8.85,4.24-4-9.43c-1.87-4.45-2.95-8.65-2.95-11.52a6.81,6.81,0,0,1,.13-1.45c1.88.55,7,4.67,12.09,14,.41.76.83,1.59,1.23,2.48-.28,6.05-2.95,8-5.23,10.23-3.38,3.33-4.58,5.13-4.58,9.07,0,4.12,1.6,6,5,9.29,2.58,2.53,4.77,4.54,4.94,9.82-.44,1-.88,1.86-1.32,2.67-5.07,9.37-10.21,13.49-12.09,14A6.81,6.81,0,0,1,522.79,242.56Z"/><path class="cls-1" d="M391.17,372.61c-7.57,1.38-11.32,8.14-14.51,13.1a23.68,23.68,0,0,1-9.66,8.62s5.63-7.69,2.4-11.59c-3.36-4.05-7.56-1.88-8.86,1.31s2.17,12.35-24.31,19.8l-.68.18c7.65-6,11.88-12.41,9.95-15.83-2.08-3.67-10.63-2.76-20.45,1.72,4.41-10,5.3-18.68,1.69-20.8s-10.56,3-16.85,11.88c-1.09-10.89-4.6-18.87-8.76-18.87s-7.67,8-8.76,18.87c-6.3-8.87-13.25-14-16.85-11.88s-2.71,10.81,1.69,20.8c-9.82-4.48-18.36-5.39-20.45-1.72-1.91,3.36,2.17,9.6,9.6,15.55-26.13-7.43-22.71-16.53-24-19.71s-5.5-5.36-8.86-1.31c-3.23,3.9,2.4,11.59,2.4,11.59a23.68,23.68,0,0,1-9.66-8.62c-3.19-5-6.94-11.72-14.51-13.1-7.2-1.31-10.75,4.76-7.56,7.32,44.09,35.26,87,37.18,97.46,37.08,10.35.1,53-1.82,97.08-37.08C401.92,377.37,398.36,371.29,391.17,372.61Zm-91.91,41.23a6.08,6.08,0,1,1,4.16-.15,6.69,6.69,0,0,1-2.28.45A6.55,6.55,0,0,1,299.26,413.83Zm-32.49-20.89c2.87,0,7.07,1.08,11.52,2.95l9.43,4L283.49,391c-3.18-6.64-3.36-10.79-3-12.15,1.51.41,5.26,2.75,9.71,8.52l6.05,7.86,1-9.65c.79-7.24,2.85-10.92,3.87-11.93,1,1,3.08,4.69,3.87,11.93l1,9.65,6.05-7.86c4.44-5.77,8.19-8.11,9.71-8.52.34,1.36.16,5.51-3,12.15l-4.24,8.85,9.43-4c4.45-1.87,8.65-2.95,11.52-2.95a6.81,6.81,0,0,1,1.45.13c-.55,1.88-4.67,7-14,12.09-.76.41-1.59.83-2.48,1.23-6.05-.28-8-2.95-10.23-5.23-3.33-3.38-5.13-4.58-9.07-4.58-4.12,0-6,1.6-9.29,5-2.53,2.58-4.54,4.77-9.82,4.94-1-.44-1.86-.88-2.67-1.32-9.37-5.07-13.49-10.21-14-12.09A6.81,6.81,0,0,1,266.77,392.95Z"/><path class="cls-1" d="M211.76,44.41c7.57-1.38,11.32-8.14,14.51-13.1a23.68,23.68,0,0,1,9.66-8.62s-5.63,7.69-2.4,11.59c3.36,4.05,7.56,1.88,8.86-1.31s-2.17-12.35,24.31-19.8l.68-.18c-7.65,6-11.88,12.41-9.95,15.83,2.08,3.67,10.63,2.76,20.45-1.72-4.41,10-5.3,18.68-1.69,20.8S286.73,44.86,293,36c1.09,10.89,4.6,18.87,8.76,18.87s7.67-8,8.76-18.87c6.3,8.87,13.25,14,16.85,11.88s2.71-10.81-1.69-20.8c9.82,4.48,18.36,5.39,20.45,1.72,1.91-3.36-2.17-9.6-9.6-15.55,26.13,7.43,22.71,16.53,24,19.71s5.5,5.36,8.86,1.31c3.23-3.9-2.4-11.59-2.4-11.59a23.68,23.68,0,0,1,9.66,8.62c3.19,5,6.94,11.72,14.51,13.1,7.2,1.31,10.75-4.76,7.56-7.32C354.65,1.83,311.7-.09,301.27,0c-10.35-.1-53,1.82-97.08,37.08C201,39.64,204.57,45.72,211.76,44.41ZM303.67,3.18a6.08,6.08,0,1,1-4.16.15,6.69,6.69,0,0,1,2.28-.45A6.55,6.55,0,0,1,303.67,3.18Zm32.49,20.89c-2.87,0-7.07-1.08-11.52-2.95l-9.43-4L319.44,26c3.18,6.64,3.36,10.79,3,12.15-1.51-.41-5.26-2.75-9.71-8.52l-6.05-7.86-1,9.65c-.79,7.24-2.85,10.92-3.87,11.93-1-1-3.08-4.69-3.87-11.93l-1-9.65-6.05,7.86c-4.44,5.77-8.19,8.11-9.71,8.52-.34-1.36-.16-5.51,3-12.15l4.24-8.85-9.43,4c-4.45,1.87-8.65,2.95-11.52,2.95a6.81,6.81,0,0,1-1.45-.13c.55-1.88,4.67-7,14-12.09.76-.41,1.59-.83,2.48-1.23,6.05.28,8,2.95,10.23,5.23,3.33,3.38,5.13,4.58,9.07,4.58,4.12,0,6-1.6,9.29-5,2.53-2.58,4.54-4.77,9.82-4.94,1,.44,1.86.88,2.67,1.32,9.37,5.07,13.49,10.21,14,12.09A6.81,6.81,0,0,1,336.16,24.06Z"/></g></g></svg>