<svg xmlns="http://www.w3.org/2000/svg" viewBox="0 0 89.12 89.74"><defs><style>.cls-1{fill:#53999e;}</style></defs><title>demon</title><g id="Layer_2" data-name="Layer 2"><g id="Layer_1-2" data-name="Layer 1"><path class="cls-1" d="M29.56,19.62a7.45,7.45,0,0,0,2.88.56c8.34.49,16.75.75,25-.65a7.29,7.29,0,0,0,3.11-1.06c1.4-1,1.95-2.83,2.25-4.53.76-4.26-.12-8.13-.12-12.35,0-3,2.61-1,3.61.1a25.18,25.18,0,0,1,3.8,5.58,24.2,24.2,0,0,1,2.06,5.86c.1.49.59,5.89.48,5.86a29.24,29.24,0,0,1,9.95,4,14.54,14.54,0,0,1,6.22,8.48C90.28,37.75,86.14,44.14,81,48c-7.33,5.53-16.73,7.69-25.9,8a15.51,15.51,0,0,0,13.35,7.29c3-.07,5.85-1,8.79-1.47a5.67,5.67,0,0,1,2.6,0A4,4,0,0,1,82.27,66,7.36,7.36,0,0,1,80,70.48c-3.4,3.46-8.54,4.77-13.38,4.47s-9.47-2-14-3.88A76.48,76.48,0,0,1,47.56,84.8c-1.21,2.52-3.3,5.35-6.05,4.88-2.14-.36-3.44-2.74-3.41-4.91s1-4.19,1.94-6.16A2.6,2.6,0,0,0,40.38,77c-.34-1.36-2.33-1.29-3.6-.67-3.85,1.87-6.45,5.59-9.91,8.1-1.78,1.29-4.53,2.14-6,.46-1.28-1.51-.4-3.8.52-5.55l6.69-12.69a59.42,59.42,0,0,1-12.68,1.82,20,20,0,0,1-12.08-3.6C1.3,63.27-.43,60.78.09,58.24s3.18-4.15,5.75-4.34,5.08.76,7.47,1.72,4.85,2,7.43,1.95a9.65,9.65,0,0,0,7.17-3.37,34.75,34.75,0,0,1-16.33-5.33,14.41,14.41,0,0,1-5.73-5.92,12.32,12.32,0,0,1-.41-7.86,19.16,19.16,0,0,1,8.37-11.61c1.73-1.08,3.71-2,4.86-3.64A15.82,15.82,0,0,0,20.21,16c.65-1.88,4.45-9.49,7.14-8a1.69,1.69,0,0,1,.34.25C29.86,10.33,25.28,17.5,29.56,19.62Zm35.2-1.87c-2,4.84-7.19,4.72-11.61,5.29a76.61,76.61,0,0,1-9.79.57c-3,0-5.95-.13-8.92-.32C32.9,23.2,31.35,23,29.8,23c-.81,0-2.47.3-3.16-.19a1.73,1.73,0,0,1-.54-1.05c-.12-.51-2-7-1.79-7.13-1.72,1.19-2.24,3.78-2.53,5.72-.38,2.57-.93,2.75-3.37,3.62a14.26,14.26,0,0,0-4.92,3,18.43,18.43,0,0,0-5.21,9.87c-.58,2.84-.09,5.34,2.34,7.2a32.7,32.7,0,0,0,15.51,6.68c1.31.18,7.05.93,7.35,2.22.36,1.55-3.58,4.19-4.65,4.86a16.41,16.41,0,0,1-13.26,2c-2.9-.87-5.71-2.84-8.78-3-2.17-.14-4.51,1-3.33,3.47C5,63.52,9.83,64.8,13.22,65.43a22.28,22.28,0,0,0,11.67-.93c1.77-.65,8.3-4.26,7.47.38a2.78,2.78,0,0,1-.24.66,99,99,0,0,1-5.39,10.78c-1,1.57-1.73,3.29-2.55,4.95a.77.77,0,0,0-.11.58.53.53,0,0,0,.63.27,1.53,1.53,0,0,0,.62-.41C29.55,77.78,35.49,70.53,42,73.63a2.88,2.88,0,0,1,1,.75c2.18,2.71-1.63,8.07-1.4,11.14a1.8,1.8,0,0,0,.62,1.4c1.74-1.5,2.2-3.56,2.94-5.65,1.43-4,3.19-7.52,4-11.78.93-5,9,.3,11.89,1.28A21.54,21.54,0,0,0,71.24,72.1a11.37,11.37,0,0,0,6.53-3.28c.79-.84,3.35-4.43.55-4.54a5.1,5.1,0,0,0-1.86.23,21.37,21.37,0,0,1-4.62,1c-2.43.3-4.47,1.2-7,.63a22.1,22.1,0,0,1-4.87-2,31.64,31.64,0,0,1-4.59-2.65,22.19,22.19,0,0,1-3.53-3.31,5,5,0,0,1-1.45-2.65c-.36-3.46,4.85-2.86,6.83-2.91a29,29,0,0,0,11.06-2.06c6.41-2.83,14.8-5.2,17.15-12.64,1.85-5.88-2.18-11.78-7.35-14.36a27.11,27.11,0,0,0-7.39-2.36c-1.27-.23-1.85-.86-1.52-2.24.85-3.56,1.06-10-2.76-12C65.94,10.52,66.18,14.31,64.76,17.75Z"/><path class="cls-1" d="M66.24,37.49c-1.35,5.26-5.83,8.2-10.87,9.39a37.7,37.7,0,0,1-15.44.43A63.68,63.68,0,0,1,30.35,44a11,11,0,0,1-2.72-1.37c-2.4-1.83-3-5.43-1.8-8.22,2.31-5.49,8.66-6.46,13.88-7.29A55.28,55.28,0,0,1,58,27.28c3.45.61,7.44,2.43,8.4,6.18A8.09,8.09,0,0,1,66.24,37.49Zm-12.31-2A11.35,11.35,0,0,1,53.17,40a6.89,6.89,0,0,1-2.6,2.87c3.21,1.36,7.91-2.1,9.79-4.45,2.18-2.72,2.07-6-1.65-7.13A9.58,9.58,0,0,0,55.59,31a1.84,1.84,0,0,0-1.59.66,1.91,1.91,0,0,0-.19.68c0,.16,0,.31,0,.46C53.72,33.68,53.93,34.52,53.93,35.47ZM31.75,34.33a4.67,4.67,0,0,0-1,.88,3.26,3.26,0,0,0-.58,2.59,4.91,4.91,0,0,0,1.26,2.38A8.81,8.81,0,0,0,37,42.71c.7.08,2.27.45,2.66-.34s-.78-1.69-1.09-2.25a9.34,9.34,0,0,1-1.16-3.77c-.09-1.13.64-2.69.38-3.7s-1.93-.64-3.46.13A21.71,21.71,0,0,0,31.75,34.33Z"/></g></g></svg>