<svg xmlns="http://www.w3.org/2000/svg" viewBox="0 0 78.08 66.73"><defs><style>.cls-1{fill:#ad529e;}</style></defs><title>horns</title><g id="Layer_2" data-name="Layer 2"><g id="Layer_1-2" data-name="Layer 1"><path class="cls-1" d="M78,32.84A29.43,29.43,0,0,0,76.85,29a7.39,7.39,0,0,0-4.53-4.53c-.73-.29-1.48-.56-2.2-.86a6.6,6.6,0,0,1-.91-.63c.54-.27.86-.45,1.2-.59s.75-.26,1.1-.43a1.41,1.41,0,0,0,.67-2.16,8.41,8.41,0,0,0-3-3c-.63-.33-1.23-.69-1.85-1A16.87,16.87,0,0,0,56.4,13.58a2.63,2.63,0,0,1-1.34-.06c-.87-.36-.56-1.66-.63-2.4a18.14,18.14,0,0,0-.7-3.36c-.66-2.21-1.62-4.31-2.38-6.48A1.66,1.66,0,0,0,49.82,0c-1.4-.06-2,1.54-2.54,2.56a21.11,21.11,0,0,0-2,5.51,3.61,3.61,0,0,1-.47,1.28c-.47.68-1.3.59-2,.71a24.93,24.93,0,0,0-4.4.81,49.82,49.82,0,0,0-7,2.82,3.76,3.76,0,0,1-2.6.65c-.26,0-.88-1.43-1.07-1.71-.49-.73-1-1.44-1.47-2.18a43.15,43.15,0,0,1-2.61-4.77A3.57,3.57,0,0,0,23,4.59c-1.81-1.76-2.68,2.21-3,3.17q-1.12,2.94-2.46,5.8a9.05,9.05,0,0,0-.88,2.37c-.05.3.15,2.63.1,2.66C13.74,20.83,6.65,27,4.36,28.75,2.81,29.92,1.42,31.32,0,32.58a2.28,2.28,0,0,0,2.43,2.23c1.26,0,2.52.08,3.78.12l1.85,0a2.48,2.48,0,0,1,0,.82c-1.25,2.72-2.5,5.43-3.79,8.13a5.52,5.52,0,0,0,0,4.62A2.39,2.39,0,0,0,5.47,50a2.18,2.18,0,0,0,1,.11c2-.2,4.14-1.49,6-2.13a7.92,7.92,0,0,1,1.64-.19,20,20,0,0,1,.53,4.81c.15,2.76.28,5.51.49,8.26a2.07,2.07,0,0,0,2.76,2A9.11,9.11,0,0,0,20.09,62C21.73,61,23.33,60,25,59c.38-.23.8-.4,1.31-.66l2.23,2.86c.68.87,1.31,1.78,2,2.6.94,1,1.68,1,2.52-.07.72-.92,1.4-1.88,2.14-2.89a5.32,5.32,0,0,1,2,1.68c1.23,1.22,2.43,2.48,3.75,3.6,1.17,1,2.09.6,2.35-.85a9,9,0,0,0,.1-1.18,7.5,7.5,0,0,1,1.2-3.55,2.18,2.18,0,0,1,2.55-1.2c3.17.65,6.4,1.09,9,3.3a2.22,2.22,0,0,0,.41.23c.89.47,1.49.23,1.77-.79.23-.83.32-1.7.57-2.53.56-1.88,1.15-3.76,1.79-5.62a2.56,2.56,0,0,1,2-1.82c3.2-.68,6.36-1.23,9.37.77a1.21,1.21,0,0,0,2-.8A29.41,29.41,0,0,0,74.5,47c-.06-2-.45-4.07-.65-6.11a6,6,0,0,0-2.08-4.36,3.29,3.29,0,0,1-.55-1,6.64,6.64,0,0,1,3.58-.66c.47,0,.94.11,1.41.09C77.63,34.93,78.29,34.23,78,32.84ZM48.61,5,49,4.06a.64.64,0,0,1,.3-.37c.24-.09.48.12.64.32.51.66,1.95,3.12,1.53,4s-2.65.56-3.34.22a1,1,0,0,1-.57-.84,1.39,1.39,0,0,1,.16-.5Zm.59,5.91c.77.11,1.5.28,2,.38,1.58.34,1.8,3.11.43,3.88a1.56,1.56,0,0,1-.81.13A9.07,9.07,0,0,1,47,14.87c-1.21-.59-1.21-1.67-1-2.85S47.75,10.71,49.2,10.91ZM24.69,13.39c.14.07.25.25.44.64a3.88,3.88,0,0,1,.59,2.89,2.28,2.28,0,0,1-1.17,1.2,5.22,5.22,0,0,1-1.65.43,4.94,4.94,0,0,1-2.55-.2,1.48,1.48,0,0,1-.72-.57,1.8,1.8,0,0,1-.17-1c0-.75,0-2,.41-2.42a5.53,5.53,0,0,1,1.76-.43c.64-.15,1.3-.18,1.94-.32S24.47,13.28,24.69,13.39ZM22.92,9a7.89,7.89,0,0,0,.62,1.73c.19.32.52.54.68.86-.59.31-2.7,1-3.17.26s.63-2.7,1-3.35a.5.5,0,0,1,.27-.27c.24-.06.41.22.5.46Zm50.4,23a25.66,25.66,0,0,0-3.21.76c-2,.72-2.44,2.48-1.22,4.17A7.64,7.64,0,0,0,70,38.12c1.35,1.19,1.6,2.92,1.81,4.48a28.68,28.68,0,0,1-.18,5.64,5.38,5.38,0,0,1-.4,1.26,3.42,3.42,0,0,1-.83,0,12.22,12.22,0,0,0-7.9,0,4.38,4.38,0,0,1-1.16.18,2.53,2.53,0,0,0-2.56,2c-.13.45-.31.89-.47,1.34-.63,1.78-1.26,3.57-1.91,5.34a7.25,7.25,0,0,1-.61,1A10.52,10.52,0,0,1,54.63,59c-2.58-1.28-5.4-1.69-8.17-2.32a3.28,3.28,0,0,0-3.21,1c-1.32,1.29-1.81,3.14-2.81,4.64-.42-.43-.85-.85-1.25-1.3-.79-.88-1.53-1.81-2.35-2.66-1.39-1.43-2.14-1.36-3.47.16a9.26,9.26,0,0,1-2.09,2.32,26.2,26.2,0,0,1-3-4.24,10.5,10.5,0,0,0-.56-1,1.65,1.65,0,0,0-2.49-.35,5.12,5.12,0,0,0-.53.47,20.36,20.36,0,0,1-5.53,3.58,7.11,7.11,0,0,1-1.42.33,15.15,15.15,0,0,1-.3-1.72c-.16-3-.29-6-.42-9,0-.63,0-1.27-.05-1.89a2.07,2.07,0,0,0-2.41-2,17.52,17.52,0,0,0-3,.68c-1.53.46-3.31,1.49-4.93,1.42a.29.29,0,0,1-.33-.3,5.11,5.11,0,0,1,.72-3,87,87,0,0,1,4.88-9.16,1.86,1.86,0,0,0,.38-1.26,1.49,1.49,0,0,0-1.23-1,8.16,8.16,0,0,0-3.2.19,5.35,5.35,0,0,1-3.19-.19.34.34,0,0,1-.18-.14.35.35,0,0,1,.07-.32A12.12,12.12,0,0,1,7.86,28.8c1.51-1.07,3.07-2.05,4.6-3.09s3.09-2.55,4.61-3.8c.65-.53.61-.58,1.35-.32a15.55,15.55,0,0,0,1.88.69A7.35,7.35,0,0,0,27,20.46a7.64,7.64,0,0,0,1.1-1.29,13.58,13.58,0,0,1,.79-1.54c.69-.73,2.41-1,3.36-1.42,1.31-.58,2.58-1.25,3.86-1.88a23,23,0,0,1,4-1.45,4,4,0,0,1,3.21,0L43,14.75a2.11,2.11,0,0,0,.57,1.94,6.23,6.23,0,0,0,6.17,2.16,8.57,8.57,0,0,0,4.71-2,1.26,1.26,0,0,1,.61-.31c1.08-.22,2.16-.42,3.25-.59a8.69,8.69,0,0,1,5.3.77c1.41.69,2.77,1.5,4.14,2.28a.89.89,0,0,1,.55,1.1l-2.76,1c-1.4.5-1.6,1.38-.55,2.47a9.35,9.35,0,0,0,.9.76A12.51,12.51,0,0,0,71,26.59c2.33.54,3.75,2.3,3.64,5.13Z"/><path class="cls-1" d="M54.89,31.07c-1.62-2.9-6.19-3.17-9.09-3.66a25.73,25.73,0,0,0-14.53,1.44c-3,1.23-7,2.6-9.18,5.14-.57.66-1,1.53-.37,2.3a7,7,0,0,0,4.22,2.42A38.32,38.32,0,0,0,36,39.26,56.73,56.73,0,0,0,45.15,38a38.26,38.26,0,0,0,7.5-2.81,5.11,5.11,0,0,0,2.29-2.32A1.74,1.74,0,0,0,54.89,31.07ZM27,36.36a3.69,3.69,0,0,1-2.1-1.08,3,3,0,0,1,.61-.64A35,35,0,0,1,33,31.28a20.55,20.55,0,0,0,.44,2.79,20.19,20.19,0,0,0,1.13,2.54A21,21,0,0,1,27,36.36ZM51.2,33a15.23,15.23,0,0,1-4.49,2c-1.87.55-3.78,1-5.68,1.44-.38.09-.79.06-.82-.62a6.21,6.21,0,0,0,2.64-6,9.23,9.23,0,0,1,1.64,0c2.53.39,5.14.49,7.37,1.79C52.13,32.38,51.64,32.69,51.2,33Z"/><path class="cls-1" d="M44.09,47.85c-1.42-.35-3.69.43-4.94.61-.63.09-2.09,2.43-2.48,2.9-1.16,1.4-3.11,5.19-5.19,3.19-1.69-1.62-2.76-4.18-4-6.16A6.81,6.81,0,0,0,24.9,46c-.78-.46-2.31-2.41-.38-2.51a3.07,3.07,0,0,1,.93.1,6,6,0,0,1,.87.37,19.64,19.64,0,0,0,7.58,1.61A35.57,35.57,0,0,0,40,45.44c4.68-.63,9-2.9,13.1-5.17a4.84,4.84,0,0,1,1.59-.64c1.1-.16,2.11.63,1.55,1.76-.18.36-.44.67-.64,1A8.45,8.45,0,0,0,55,44.06a24.39,24.39,0,0,1-4.44,7.36,1.5,1.5,0,0,1-1.65.69,2.71,2.71,0,0,1-1.09-.75c-.63-.65-1.15-1.4-1.76-2.06a9.18,9.18,0,0,0-1.31-1.16A1.83,1.83,0,0,0,44.09,47.85Zm7.52-3.28a19,19,0,0,0-4.61,2,5.79,5.79,0,0,0,2,2.17C50.09,47.49,51.31,46.48,51.61,44.57ZM30.9,48.44c.83,2,.83,2,1.87,2.84,1.62-1.47,1.62-1.47,2-2.75A8.45,8.45,0,0,0,30.9,48.44Z"/></g></g></svg>